<?xml version="1.0" encoding="utf-8"?>
<!-- Generator: Adobe Illustrator 24.0.3, SVG Export Plug-In . SVG Version: 6.00 Build 0)  -->
<svg version="1.1" id="Layer_1" xmlns="http://www.w3.org/2000/svg" xmlns:xlink="http://www.w3.org/1999/xlink" x="0px" y="0px"
	 viewBox="0 0 100 100" style="enable-background:new 0 0 100 100;" xml:space="preserve">
<style type="text/css">
	.st0{fill:#65C7C2;}
	.st1{fill:#141F47;}
</style>
<title>SVG</title>
<path class="st0" d="M84.9,60.2V70c0,1.5-1.2,2.6-2.6,2.6H17.8c-1.5,0-2.6-1.2-2.6-2.6v-9.8c0-1.5,1.2-2.6,2.6-2.6h64.5
	C83.7,57.6,84.9,58.8,84.9,60.2z"/>
<path class="st1" d="M82.9,73.8H17.1c-1.7,0-3.1-1.4-3.1-3.1V59.6c0-1.7,1.4-3.1,3.1-3.1l0,0h65.8c1.7,0,3.1,1.4,3.1,3.1l0,0v11.1
	C86,72.3,84.6,73.8,82.9,73.8z M17.1,58.8c-0.5,0-0.9,0.4-0.9,0.9v11c0,0.5,0.4,0.9,0.9,0.9l0,0h65.8c0.5,0,0.9-0.4,0.9-0.9l0,0
	V59.6c0-0.5-0.4-0.9-0.9-0.9L17.1,58.8z"/>
<circle class="st1" cx="23.2" cy="65.1" r="3"/>
<circle class="st1" cx="32.2" cy="65.1" r="3"/>
<path class="st1" d="M60.8,69.2c-0.6,0-1.1-0.5-1.1-1.1l0,0v-6c0-0.6,0.5-1.1,1.1-1.1s1.1,0.5,1.1,1.1v6
	C62,68.7,61.5,69.2,60.8,69.2C60.9,69.2,60.9,69.2,60.8,69.2z"/>
<path class="st1" d="M48.8,69.2c-0.6,0-1.1-0.5-1.1-1.1l0,0v-6c0-0.6,0.5-1.2,1.1-1.2s1.2,0.5,1.2,1.2v6
	C50,68.7,49.5,69.2,48.8,69.2C48.9,69.2,48.9,69.2,48.8,69.2z"/>
<path class="st1" d="M54.8,69.2c-0.6,0-1.1-0.5-1.1-1.1l0,0v-6c0-0.6,0.5-1.1,1.1-1.1s1.2,0.4,1.2,1.1v6
	C56,68.7,55.5,69.2,54.8,69.2C54.9,69.2,54.9,69.2,54.8,69.2z"/>
<path class="st1" d="M66.9,69.2c-0.6,0-1.1-0.5-1.1-1.1l0,0v-6c0-0.6,0.5-1.1,1.1-1.1s1.1,0.5,1.1,1.1l0,0v6
	C68,68.7,67.5,69.2,66.9,69.2L66.9,69.2z"/>
<path class="st1" d="M72.8,69.2c-0.6,0-1.1-0.5-1.1-1.1l0,0v-6c0-0.6,0.5-1.1,1.1-1.1c0.6,0,1.1,0.5,1.1,1.1v6
	C74,68.7,73.5,69.2,72.8,69.2C72.9,69.2,72.9,69.2,72.8,69.2z"/>
<path class="st1" d="M78.9,69.2c-0.6,0-1.1-0.5-1.1-1.1l0,0v-6c0-0.6,0.5-1.1,1.1-1.1s1.1,0.5,1.1,1.1l0,0v6
	C80,68.7,79.5,69.2,78.9,69.2L78.9,69.2z"/>
<path class="st0" d="M84.9,45.2V55c0,1.5-1.2,2.6-2.6,2.6H17.8c-1.5,0-2.6-1.2-2.6-2.6v-9.8c0-1.5,1.2-2.6,2.6-2.6h64.5
	C83.7,42.6,84.9,43.7,84.9,45.2z"/>
<path class="st1" d="M82.9,58.7H17.1c-1.7,0-3.1-1.4-3.1-3.1l0,0V44.5c0-1.7,1.4-3.1,3.1-3.1l0,0h65.8c1.7,0,3.1,1.4,3.1,3.1l0,0
	v11.1C86,57.2,84.6,58.7,82.9,58.7L82.9,58.7z M17.1,43.7c-0.5,0-0.9,0.4-0.9,0.9v11c0,0.5,0.4,0.9,0.9,0.9h65.8
	c0.5,0,0.9-0.4,0.9-0.9V44.5c0-0.5-0.4-0.9-0.9-0.9L17.1,43.7z"/>
<circle class="st1" cx="23.2" cy="50.1" r="3"/>
<circle class="st1" cx="32.2" cy="50.1" r="3"/>
<path class="st1" d="M60.8,54.2c-0.6,0-1.1-0.5-1.1-1.1v-6c0-0.6,0.5-1.1,1.1-1.1s1.1,0.5,1.1,1.1v6C62,53.7,61.5,54.2,60.8,54.2
	C60.9,54.2,60.9,54.2,60.8,54.2z"/>
<path class="st1" d="M48.8,54.2c-0.6,0-1.1-0.5-1.1-1.1l0,0v-6c0-0.6,0.5-1.1,1.1-1.1s1.2,0.4,1.2,1v6C50,53.7,49.5,54.2,48.8,54.2
	C48.9,54.2,48.8,54.2,48.8,54.2z"/>
<path class="st1" d="M54.8,54.2c-0.6,0-1.1-0.5-1.1-1.1l0,0v-6c0-0.6,0.5-1.1,1.1-1.1s1.2,0.4,1.2,1.1v6
	C56,53.7,55.5,54.2,54.8,54.2C54.9,54.2,54.9,54.2,54.8,54.2z"/>
<path class="st1" d="M66.9,54.2c-0.6,0-1.1-0.5-1.1-1.1l0,0v-6c0-0.6,0.5-1.1,1.1-1.1s1.1,0.4,1.1,1v6C68,53.7,67.5,54.2,66.9,54.2
	L66.9,54.2z"/>
<path class="st1" d="M72.8,54.2c-0.6,0-1.1-0.5-1.1-1.1l0,0v-6c0-0.6,0.5-1.1,1.1-1.1c0.6,0,1.1,0.5,1.1,1.1v6
	C74,53.7,73.5,54.2,72.8,54.2C72.9,54.2,72.9,54.2,72.8,54.2z"/>
<path class="st1" d="M78.9,54.2c-0.6,0-1.1-0.5-1.1-1.1l0,0v-6c0-0.6,0.5-1.1,1.1-1.1s1.1,0.4,1.1,1v6C80,53.7,79.5,54.2,78.9,54.2
	L78.9,54.2z"/>
<path class="st0" d="M84.9,30.1V40c0,1.5-1.2,2.6-2.6,2.6H17.8c-1.5,0-2.6-1.2-2.6-2.6v-9.8c0-1.5,1.2-2.6,2.6-2.6h64.5
	C83.7,27.5,84.9,28.6,84.9,30.1z"/>
<path class="st1" d="M82.9,43.7H17.1c-1.7,0-3.1-1.4-3.1-3.1V29.5c0-1.7,1.4-3.1,3.1-3.1h65.8c1.7,0,3.1,1.4,3.1,3.1v11.1
	C86,42.2,84.6,43.7,82.9,43.7z M17.1,28.6c-0.5,0-0.9,0.4-0.9,0.9v11c0,0.5,0.4,0.9,0.9,0.9h65.8c0.5,0,0.9-0.4,0.9-0.9v-11
	c0-0.5-0.4-0.9-0.9-0.9l0,0H17.1z"/>
<circle class="st1" cx="23.2" cy="35" r="3"/>
<circle class="st1" cx="32.2" cy="35" r="3"/>
<path class="st1" d="M60.8,39.2c-0.6,0-1.1-0.5-1.1-1.1v-6c0-0.6,0.5-1.1,1.1-1.1s1.2,0.5,1.2,1v6C62,38.7,61.5,39.2,60.8,39.2z"/>
<path class="st1" d="M48.8,39.2c-0.6,0-1.1-0.5-1.1-1.1v-6c0-0.6,0.5-1.1,1.1-1.1c0.7-0.1,1.2,0.4,1.2,1.1v6
	C50,38.7,49.5,39.2,48.8,39.2L48.8,39.2z"/>
<path class="st1" d="M54.8,39.2c-0.6,0-1.1-0.5-1.1-1.1v-6c0-0.6,0.5-1.1,1.1-1.1s1.2,0.4,1.2,1v6C56,38.7,55.5,39.2,54.8,39.2
	C54.9,39.2,54.8,39.2,54.8,39.2z"/>
<path class="st1" d="M66.9,39.2c-0.6,0-1.1-0.5-1.1-1.1v-6c0-0.6,0.5-1.1,1.1-1.1s1.1,0.5,1.1,1l0,0v6C68,38.7,67.5,39.2,66.9,39.2
	L66.9,39.2z"/>
<path class="st1" d="M72.8,39.2c-0.6,0-1.1-0.5-1.1-1.1v-6c0-0.6,0.5-1.1,1.1-1.1c0.6,0,1.2,0.5,1.2,1v6
	C74,38.7,73.5,39.2,72.8,39.2C72.9,39.2,72.9,39.2,72.8,39.2z"/>
<path class="st1" d="M78.9,39.2c-0.6,0-1.1-0.5-1.1-1.1v-6c0-0.6,0.5-1.1,1.1-1.1s1.1,0.5,1.1,1v6C80,38.7,79.5,39.2,78.9,39.2z"/>
</svg>
