<?xml version="1.0" encoding="utf-8"?>
<!-- Generator: Adobe Illustrator 24.0.3, SVG Export Plug-In . SVG Version: 6.00 Build 0)  -->
<svg version="1.1" id="Layer_1" xmlns="http://www.w3.org/2000/svg" xmlns:xlink="http://www.w3.org/1999/xlink" x="0px" y="0px"
	 viewBox="0 0 100 100" style="enable-background:new 0 0 100 100;" xml:space="preserve">
<style type="text/css">
	.st0{fill:#65C7C2;}
	.st1{fill:#141F47;}
</style>
<title>AS-Cloud</title>
<path class="st0" d="M72.2,43.6c-3.6-10-14.6-15.3-24.7-11.7c-4.4,1.6-8.1,4.7-10.4,8.8c-5.1-1.3-10.4,1.7-11.7,6.8
	c-0.2,0.8-0.3,1.6-0.3,2.5c-5.3-0.2-9.8,4-9.9,9.3s4,9.8,9.3,9.9c0.2,0,0.4,0,0.6,0h46.5c7.1,0.1,12.9-5.5,13.1-12.6
	C84.9,49.6,79.3,43.7,72.2,43.6L72.2,43.6z"/>
<path class="st1" d="M71.7,70.7H25.1c-6.1,0-11.1-5-11-11.1c0-5.6,4.2-10.2,9.7-10.9C24.5,42.6,30,38.3,36,39c0.1,0,0.2,0,0.4,0.1
	c6.1-9.7,18.8-12.7,28.5-6.6c3.7,2.3,6.6,5.7,8.2,9.8c7.8,0.8,13.5,7.9,12.7,15.7C85.1,65.2,79,70.7,71.7,70.7z M25.1,51.4
	c-4.5-0.2-8.3,3.4-8.5,7.9s3.4,8.3,7.9,8.5c0.2,0,0.4,0,0.6,0h46.6c6.3,0.1,11.5-4.9,11.6-11.2S78.4,45.1,72.1,45l0,0h-1l-0.3-0.9
	C67.5,34.8,57.3,30,48,33.2c-4.1,1.5-7.6,4.4-9.7,8.2l-0.5,1l-1.1-0.3c-4.4-1.1-8.8,1.5-10,5.8c-0.2,0.7-0.3,1.3-0.3,2v1.4
	L25.1,51.4C25.1,51.3,25.1,51.4,25.1,51.4z"/>
</svg>
