<?xml version="1.0" encoding="utf-8"?>
<!-- Generator: Adobe Illustrator 24.0.3, SVG Export Plug-In . SVG Version: 6.00 Build 0)  -->
<svg version="1.1" id="Layer_1" xmlns="http://www.w3.org/2000/svg" xmlns:xlink="http://www.w3.org/1999/xlink" x="0px" y="0px"
	 viewBox="0 0 100 100" style="enable-background:new 0 0 100 100;" xml:space="preserve">
<style type="text/css">
	.st0{fill:#141F47;}
</style>
<title>AS-Flexible</title>
<path class="st0" d="M21.2,32h9.7c8.1,0,15.5,4.7,19.1,12c3.5-7.3,10.9-12,19.1-12h9.7l-4.9-4.9c-0.7-0.9-0.5-2.3,0.4-3
	c0.8-0.6,1.8-0.6,2.6,0l8.4,8.5c0.8,0.8,0.8,2.2,0,3l-8.4,8.5c-0.9,0.7-2.3,0.5-3-0.4c-0.6-0.8-0.6-1.8,0-2.6l4.9-4.8h-9.7
	c-9.3,0-16.9,7.6-16.9,16.9l0,0v21.2c0,1.2-0.9,2.1-2.1,2.1c0,0,0,0,0,0l0,0c-1.1,0-2.1-0.9-2.1-2c0,0,0,0,0,0c0,0,0-0.1,0-0.1V53.2
	c0-9.4-7.6-16.9-17-16.9h-9.6l4.9,4.9c0.7,0.9,0.5,2.3-0.4,3c-0.8,0.6-1.8,0.6-2.6,0l-8.5-8.5c-0.8-0.8-0.8-2.2,0-3l8.5-8.5
	c0.7-0.9,2.1-1.1,3-0.4s1.1,2.1,0.4,3c-0.1,0.2-0.2,0.3-0.4,0.4L21.2,32z"/>
</svg>
