<?xml version="1.0" encoding="utf-8"?>
<!-- Generator: Adobe Illustrator 24.0.3, SVG Export Plug-In . SVG Version: 6.00 Build 0)  -->
<svg version="1.1" id="Layer_1" xmlns="http://www.w3.org/2000/svg" xmlns:xlink="http://www.w3.org/1999/xlink" x="0px" y="0px"
	 viewBox="0 0 100 100" style="enable-background:new 0 0 100 100;" xml:space="preserve">
<style type="text/css">
	.st0{fill:#65C7C2;}
	.st1{fill:#141F47;}
</style>
<title>AS-HelmCharts</title>
<path class="st0" d="M37.8,27.6h36.8c2,0,3.7,1.6,3.7,3.7v49.8c0,2-1.6,3.7-3.7,3.7H37.8c-2,0-3.7-1.6-3.7-3.7V31.3
	C34.1,29.2,35.7,27.6,37.8,27.6z"/>
<path class="st1" d="M75.2,86h-38c-2.4,0-4.3-1.9-4.3-4.3v-51c0-2.4,1.9-4.3,4.3-4.3h38c2.4,0,4.3,1.9,4.3,4.3v51
	C79.5,84.1,77.6,86,75.2,86z M37.2,28.9c-1,0-1.8,0.8-1.8,1.8v51c0,1,0.8,1.8,1.8,1.8h38c1,0,1.8-0.8,1.8-1.8l0,0v-51
	c0-1-0.8-1.8-1.8-1.8L37.2,28.9z"/>
<path class="st0" d="M31.6,21.4h36.8c2,0,3.7,1.6,3.7,3.7v49.8c0,2-1.6,3.7-3.7,3.7H31.6c-2,0-3.7-1.6-3.7-3.7V25.1
	C27.9,23.1,29.6,21.4,31.6,21.4z"/>
<path class="st1" d="M69,79.8H31c-2.4,0-4.3-1.9-4.3-4.3v-51c0-2.4,2-4.3,4.3-4.3h38c2.4,0,4.3,1.9,4.3,4.3v51
	C73.3,77.9,71.4,79.8,69,79.8z M31,22.7c-1,0-1.8,0.8-1.8,1.8v51c0,1,0.8,1.8,1.8,1.8h38c1,0,1.8-0.8,1.8-1.8v-51
	c0-1-0.8-1.8-1.8-1.8H31z"/>
<path class="st0" d="M25.4,15.3h36.8c2,0,3.7,1.6,3.7,3.7v49.8c0,2-1.6,3.7-3.7,3.7H25.4c-2,0-3.7-1.6-3.7-3.7V18.9
	C21.8,16.9,23.4,15.3,25.4,15.3z"/>
<path class="st1" d="M62.8,73.7h-38c-2.4,0-4.3-1.9-4.3-4.3v-51c0-2.4,2-4.3,4.3-4.3h38c2.4,0,4.3,1.9,4.3,4.3v51
	C67.2,71.7,65.2,73.7,62.8,73.7z M24.8,16.5c-1,0-1.8,0.8-1.8,1.8l0,0v51c0,1,0.8,1.8,1.8,1.8h38c1,0,1.8-0.8,1.8-1.8v-51
	c0-1-0.8-1.8-1.8-1.8H24.8z"/>
<path class="st1" d="M59.7,28H27.9c-0.7,0-1.3-0.6-1.3-1.3c0-0.7,0.6-1.3,1.3-1.3l0,0h31.8c0.7,0,1.3,0.6,1.3,1.3
	C61,27.4,60.4,28,59.7,28z"/>
<path class="st1" d="M59.7,39.4H27.9c-0.7,0-1.3-0.6-1.3-1.3c0-0.7,0.6-1.3,1.3-1.3l0,0h31.8c0.7,0,1.3,0.6,1.3,1.3
	C61,38.8,60.4,39.4,59.7,39.4z"/>
<path class="st1" d="M59.7,50.8H27.9c-0.7,0.1-1.3-0.4-1.4-1.1c-0.1-0.7,0.4-1.3,1.1-1.4c0.1,0,0.1,0,0.2,0h31.8
	c0.7-0.1,1.3,0.4,1.4,1.1c0.1,0.7-0.4,1.3-1.1,1.4C59.9,50.8,59.8,50.8,59.7,50.8z"/>
<path class="st1" d="M59.7,62.2H27.9c-0.7,0.1-1.3-0.4-1.4-1.1c-0.1-0.7,0.4-1.3,1.1-1.4c0.1,0,0.1,0,0.2,0h31.8
	c0.7-0.1,1.3,0.4,1.4,1.1c0.1,0.7-0.4,1.3-1.1,1.4C59.9,62.2,59.8,62.2,59.7,62.2z"/>
</svg>
