<?xml version="1.0" encoding="utf-8"?>
<!-- Generator: Adobe Illustrator 24.0.3, SVG Export Plug-In . SVG Version: 6.00 Build 0)  -->
<svg version="1.1" id="Layer_1" xmlns="http://www.w3.org/2000/svg" xmlns:xlink="http://www.w3.org/1999/xlink" x="0px" y="0px"
	 viewBox="0 0 100 100" style="enable-background:new 0 0 100 100;" xml:space="preserve">
<style type="text/css">
	.st0{fill:#65C7C2;}
	.st1{fill:none;}
	.st2{fill:#141F47;}
</style>
<title>AS-Networks</title>
<polygon class="st0" points="23.5,34.7 23.5,65.3 50,80.6 76.5,65.3 76.5,34.7 50,19.4 "/>
<line class="st1" x1="50" y1="50" x2="23.5" y2="34.6"/>
<rect x="35.5" y="27" transform="matrix(0.5008 -0.8656 0.8656 0.5008 -18.319 52.8807)" class="st2" width="2.4" height="30.6"/>
<line class="st1" x1="50" y1="19.3" x2="50" y2="50"/>
<rect x="48.8" y="19.3" class="st2" width="2.4" height="30.7"/>
<line class="st1" x1="76.5" y1="34.6" x2="50" y2="50"/>
<rect x="47.9" y="41.1" transform="matrix(0.8657 -0.5006 0.5006 0.8657 -12.6921 37.3137)" class="st2" width="30.6" height="2.4"/>
<line class="st1" x1="76.5" y1="65.3" x2="50" y2="50"/>
<rect x="62" y="42.3" transform="matrix(0.5003 -0.8659 0.8659 0.5003 -18.2996 83.547)" class="st2" width="2.4" height="30.6"/>
<line class="st1" x1="50" y1="80.7" x2="50" y2="50"/>
<rect x="48.8" y="50" class="st2" width="2.4" height="30.7"/>
<line class="st1" x1="23.5" y1="65.3" x2="50" y2="50"/>
<rect x="21.4" y="56.5" transform="matrix(0.8659 -0.5003 0.5003 0.8659 -23.9521 26.1031)" class="st2" width="30.6" height="2.4"/>
<line class="st1" x1="23.5" y1="34.6" x2="50" y2="19.3"/>
<rect x="21.4" y="25.8" transform="matrix(0.8662 -0.4997 0.4997 0.8662 -8.5861 21.9512)" class="st2" width="30.6" height="2.4"/>
<line class="st1" x1="50" y1="19.3" x2="76.5" y2="34.6"/>
<rect x="62.1" y="11.7" transform="matrix(0.4997 -0.8662 0.8662 0.4997 8.3164 68.3533)" class="st2" width="2.4" height="30.6"/>
<line class="st1" x1="23.5" y1="65.3" x2="50" y2="80.7"/>
<rect x="35.6" y="57.7" transform="matrix(0.5011 -0.8654 0.8654 0.5011 -44.8427 68.2618)" class="st2" width="2.4" height="30.7"/>
<line class="st1" x1="50" y1="80.7" x2="76.5" y2="65.3"/>
<rect x="47.9" y="71.8" transform="matrix(0.8652 -0.5014 0.5014 0.8652 -28.0792 41.5532)" class="st2" width="30.7" height="2.4"/>
<line class="st1" x1="76.5" y1="65.3" x2="76.5" y2="34.6"/>
<rect x="75.3" y="34.6" class="st2" width="2.4" height="30.7"/>
<line class="st1" x1="23.5" y1="65.3" x2="23.5" y2="34.6"/>
<rect x="22.3" y="34.6" class="st2" width="2.4" height="30.7"/>
<line class="st1" x1="50" y1="80.7" x2="76.5" y2="34.6"/>
<rect x="36.7" y="56.4" transform="matrix(0.4992 -0.8665 0.8665 0.4992 -18.2419 83.6104)" class="st2" width="53.1" height="2.4"/>
<line class="st1" x1="23.5" y1="34.6" x2="50" y2="80.7"/>
<rect x="35.5" y="31.1" transform="matrix(0.8665 -0.4992 0.4992 0.8665 -23.8817 26.0121)" class="st2" width="2.4" height="53.1"/>
<line class="st1" x1="23.5" y1="34.6" x2="76.5" y2="34.6"/>
<rect x="23.5" y="33.4" class="st2" width="53.1" height="2.4"/>
<line class="st1" x1="23.5" y1="65.3" x2="76.5" y2="65.3"/>
<rect x="23.5" y="64.1" class="st2" width="53.1" height="2.4"/>
<line class="st1" x1="23.5" y1="65.3" x2="50" y2="19.4"/>
<rect x="10.2" y="41.1" transform="matrix(0.5 -0.866 0.866 0.5 -18.2441 52.9459)" class="st2" width="53.1" height="2.4"/>
<line class="st1" x1="50" y1="19.4" x2="76.5" y2="65.3"/>
<rect x="62.1" y="15.8" transform="matrix(0.866 -0.5 0.5 0.866 -12.6933 37.3302)" class="st2" width="2.4" height="53.1"/>
<circle class="st0" cx="23.5" cy="34.6" r="2.9"/>
<path class="st2" d="M23.5,31.7c1.6,0,2.9,1.3,2.9,2.9c0,1.6-1.3,2.9-2.9,2.9s-2.9-1.3-2.9-2.9l0,0C20.5,33,21.9,31.7,23.5,31.7
	L23.5,31.7 M23.5,29.3c-2.9,0-5.3,2.4-5.3,5.3s2.4,5.3,5.3,5.3s5.3-2.4,5.3-5.3l0,0C28.8,31.7,26.4,29.3,23.5,29.3z"/>
<circle class="st0" cx="23.5" cy="65.3" r="2.9"/>
<path class="st2" d="M23.5,62.4c1.6,0,2.9,1.3,2.9,2.9c0,1.6-1.3,2.9-2.9,2.9s-2.9-1.3-2.9-2.9C20.5,63.7,21.9,62.4,23.5,62.4
	L23.5,62.4 M23.5,60c-2.9,0-5.3,2.4-5.3,5.3c0,2.9,2.4,5.3,5.3,5.3s5.3-2.4,5.3-5.3l0,0C28.8,62.4,26.4,60,23.5,60L23.5,60z"/>
<circle class="st0" cx="76.5" cy="65.3" r="2.9"/>
<path class="st2" d="M76.5,62.4c1.6,0,2.9,1.3,2.9,2.9c0,1.6-1.3,2.9-2.9,2.9s-2.9-1.3-2.9-2.9C73.6,63.7,74.9,62.4,76.5,62.4
	L76.5,62.4 M76.5,60c-2.9,0-5.3,2.4-5.3,5.3c0,2.9,2.4,5.3,5.3,5.3s5.3-2.4,5.3-5.3l0,0C81.8,62.4,79.5,60,76.5,60L76.5,60z"/>
<circle class="st0" cx="76.5" cy="34.6" r="2.9"/>
<path class="st2" d="M76.5,31.7c1.6,0,2.9,1.3,2.9,2.9c0,1.6-1.3,2.9-2.9,2.9s-2.9-1.3-2.9-2.9l0,0C73.6,33,74.9,31.7,76.5,31.7
	L76.5,31.7 M76.5,29.3c-2.9,0-5.3,2.4-5.3,5.3s2.4,5.3,5.3,5.3s5.3-2.4,5.3-5.3l0,0C81.9,31.7,79.5,29.3,76.5,29.3z"/>
<circle class="st0" cx="50" cy="19.3" r="2.9"/>
<path class="st2" d="M50,16.4c1.6,0,2.9,1.3,2.9,2.9c0,1.6-1.3,2.9-2.9,2.9s-2.9-1.3-2.9-2.9l0,0C47.1,17.7,48.4,16.4,50,16.4
	 M50,14c-2.9,0-5.3,2.4-5.3,5.3s2.4,5.3,5.3,5.3s5.3-2.4,5.3-5.3S52.9,14,50,14L50,14z"/>
<circle class="st0" cx="50" cy="80.7" r="2.9"/>
<path class="st2" d="M50,77.7c1.6,0,2.9,1.3,2.9,2.9s-1.3,2.9-2.9,2.9c-1.6,0-2.9-1.3-2.9-2.9l0,0C47.1,79.1,48.4,77.7,50,77.7
	 M50,75.4c-2.9,0-5.3,2.4-5.3,5.3S47.1,86,50,86s5.3-2.4,5.3-5.3l0,0C55.3,77.7,52.9,75.3,50,75.4z"/>
<circle class="st0" cx="50" cy="50" r="2.9"/>
<path class="st2" d="M50,47c1.6,0,2.9,1.3,2.9,2.9s-1.3,2.9-2.9,2.9c-1.6,0-2.9-1.3-2.9-2.9C47.1,48.4,48.4,47.1,50,47
	C50,47.1,50,47,50,47 M50,44.7c-2.9,0-5.3,2.4-5.3,5.3c0,2.9,2.4,5.3,5.3,5.3c2.9,0,5.3-2.4,5.3-5.3C55.3,47.1,53,44.7,50,44.7
	L50,44.7z"/>
</svg>
