<?xml version="1.0" encoding="utf-8"?>
<!-- Generator: Adobe Illustrator 24.0.3, SVG Export Plug-In . SVG Version: 6.00 Build 0)  -->
<svg version="1.1" id="Layer_1" xmlns="http://www.w3.org/2000/svg" xmlns:xlink="http://www.w3.org/1999/xlink" x="0px" y="0px"
	 viewBox="0 0 100 100" style="enable-background:new 0 0 100 100;" xml:space="preserve">
<style type="text/css">
	.st0{fill:#141F47;}
</style>
<title>AS-Repeatable</title>
<path class="st0" d="M83.6,70.1h-7.8c4.5-5.7,6.9-12.7,6.9-20c0.1-8.7-3.4-17.1-9.6-23.3c-10-10.1-25.3-12.6-37.9-6.3
	c-0.9,0.3-1.2,1.5-0.9,2.7c0.6,0.9,1.7,1.2,2.7,0.9c11.2-5.4,24.5-3.3,33.5,5.3c5.5,5.5,8.6,12.9,8.7,20.6c0,6-1.8,11.8-5.1,16.7
	v-6.6c0-1.2-0.9-1.8-2.1-1.8c-1.1-0.1-2,0.7-2.1,1.8v11.7c-0.2,1.1,0.6,2.2,1.7,2.3c0,0,0,0,0,0H72h12c1,0.1,2-0.7,2.1-1.7
	C85.7,71,84.8,70.1,83.6,70.1"/>
<path class="st0" d="M62.7,76c-11.1,5.5-24.5,3.4-33.5-5.2c-5.5-5.5-8.6-12.9-8.7-20.6c0-6,1.8-11.9,5.1-16.9v6.5
	c0.4,1.2,1.2,2.1,2.1,2.1c1.1-0.1,2-1,2.1-2.1V28c-0.1-1.1-1-1.8-2.1-1.8H15.8c-1,0.1-1.7,0.8-1.8,1.8c0.1,1.1,1,2,2.1,2.1h7.8
	c-4.5,5.7-6.9,12.7-6.9,19.9c-0.1,8.8,3.3,17.2,9.6,23.3c6.2,6.2,14.6,9.6,23.3,9.6c5,0,10-1.1,14.6-3.2c1-0.4,1.4-1.6,0.9-2.6
	c0,0,0,0,0,0v-0.1c-0.6-0.9-1.7-1.2-2.7-0.9"/>
</svg>
