<?xml version="1.0" encoding="utf-8"?>
<!-- Generator: Adobe Illustrator 24.0.3, SVG Export Plug-In . SVG Version: 6.00 Build 0)  -->
<svg version="1.1" id="Layer_1" xmlns="http://www.w3.org/2000/svg" xmlns:xlink="http://www.w3.org/1999/xlink" x="0px" y="0px"
	 viewBox="0 0 100 100" style="enable-background:new 0 0 100 100;" xml:space="preserve">
<style type="text/css">
	.st0{fill:#141F47;}
</style>
<title>AS-Self-Hosted</title>
<path class="st0" d="M85.1,46.2l-7.5-2.6c-0.7-3.2-2-6.3-3.7-9l3.5-7c0.2-0.4,0.1-0.9-0.2-1.2l-3.7-3.7c-0.3-0.4-0.8-0.4-1.2-0.2
	l-7,3.3c-2.8-1.8-5.8-3-9-3.7l-2.5-7.5c-0.3-0.4-0.7-0.6-1.2-0.7h-5.3c-0.5,0-0.9,0.3-1,0.8l-2.4,7.4c-3.2,0.7-6.2,2-9,3.7l-7-3.4
	c-0.4-0.2-0.9-0.1-1.2,0.2l-3.7,3.7c-0.3,0.3-0.4,0.8-0.2,1.2l3.4,7c-1.8,2.8-3,5.8-3.7,9l-7.5,2.5c-0.5,0.3-0.8,0.7-0.9,1.3v5.3
	c0,0.5,0.3,0.9,0.8,1l7.5,2.6c0.7,3.2,2,6.2,3.7,9l-3.4,6.9c-0.2,0.4-0.1,0.9,0.2,1.2l3.7,3.7c0.3,0.4,0.8,0.5,1.2,0.2l7-3.4
	c2.7,1.8,5.8,3.1,9,3.7l2.6,7.5c0.1,0.5,0.5,0.8,1,0.8h5.3c0.5,0,0.9-0.3,1-0.8l2.6-7.5c3.2-0.7,6.3-1.9,9-3.7l7,3.4
	c0.4,0.2,0.9,0.1,1.2-0.2l3.7-3.7c0.4-0.3,0.6-1,0.3-1.4L74,65.2c1.8-2.7,3-5.8,3.7-9l7.5-2.6c0.4-0.1,0.8-0.5,0.8-1v-5.1
	c0.1-0.5-0.2-1-0.7-1.2 M83.8,51.9l-7.5,2.5c-0.4,0.1-0.7,0.5-0.8,0.9c-0.6,3.4-1.9,6.6-3.7,9.4c-0.2,0.4-0.2,0.8,0,1.2l3.4,6.8
	l-2.6,2.6l-6.9-3.4c-0.3-0.2-0.8-0.2-1.1,0c-2.9,1.9-6.1,3.2-9.4,3.7c-0.4,0.1-0.7,0.4-0.9,0.8L52,83.5h-3.8l-2.5-7.5
	c-0.1-0.4-0.5-0.7-0.9-0.8c-3.4-0.6-6.6-1.9-9.4-3.7c-0.4-0.2-0.8-0.2-1.1,0L27.4,75l-2.6-2.6l3.4-6.8c0.2-0.3,0.2-0.8,0-1.2
	c-1.9-2.9-3.2-6.1-3.7-9.4c-0.1-0.3-0.4-0.5-0.7-0.7l-7.5-2.6V48l7.5-2.5c0.4-0.2,0.7-0.5,0.8-0.9c0.6-3.4,1.9-6.6,3.7-9.4
	c0.2-0.3,0.2-0.8,0-1.1L25,27.1l2.6-2.6l6.8,3.4c0.3,0.2,0.8,0.2,1.1,0c2.9-1.9,6.1-3.2,9.5-3.8c0.4-0.1,0.7-0.4,0.9-0.8l2.3-7.3
	h3.7l2.5,7.5c0.1,0.4,0.5,0.7,0.9,0.8c3.4,0.6,6.6,1.9,9.4,3.7c0.4,0.2,0.8,0.2,1.2,0l6.8-3.4l2.6,2.6l-3.4,6.9
	c-0.2,0.3-0.2,0.8,0,1.1c1.9,2.9,3.1,6.1,3.7,9.4c0.1,0.4,0.4,0.7,0.8,0.9l7.3,2.5v3.5L83.8,51.9z"/>
<path class="st0" d="M50,31.8c-10,0-18.1,8-18.2,18s8,18.1,18,18.2S68,60,68,50c0,0,0-0.1,0-0.1l0,0C68,39.9,60,31.8,50,31.8
	 M50,65.7c-8.8,0-15.9-7.1-15.9-15.8S41.2,34.1,49.9,34s15.9,7.1,15.9,15.8c0,0,0,0,0,0C65.8,58.6,58.7,65.7,50,65.7"/>
<path class="st0" d="M51.8,41.5c-0.6-0.1-1.2,0.2-1.3,0.8c0,0,0,0,0,0l0,0l-3.2,15c-0.3,0.6,0,1.3,0.5,1.6c0.6,0.3,1.3,0,1.6-0.5
	c0-0.1,0.1-0.1,0.1-0.2c0-0.1,0.1-0.2,0.1-0.4L52.6,43c0.1-0.6-0.2-1.2-0.8-1.3h-0.1"/>
<path class="st0" d="M54.5,46.3c-0.3,0.6-0.1,1.3,0.5,1.6c0,0,0,0,0,0h0l3.7,2L55,51.9c-0.5,0.3-0.7,1-0.5,1.6
	c0.3,0.5,1,0.7,1.6,0.5l5.3-3c0.6-0.4,0.7-1.1,0.4-1.7c-0.1-0.2-0.2-0.3-0.4-0.4l-5.3-3C55.6,45.6,54.9,45.7,54.5,46.3"/>
<path class="st0" d="M45.3,46.3c-0.3-0.5-1-0.7-1.5-0.5l-5.3,3c-0.6,0.4-0.7,1.1-0.4,1.7c0.1,0.1,0.2,0.3,0.4,0.4l5.3,3
	c0.5,0.4,1.2,0.2,1.6-0.3c0.4-0.5,0.2-1.2-0.3-1.6c-0.1,0-0.1-0.1-0.2-0.1l-3.7-1.9l3.7-2c0.6-0.3,0.8-1,0.5-1.6
	C45.4,46.4,45.4,46.4,45.3,46.3L45.3,46.3"/>
</svg>
