<?xml version="1.0" encoding="utf-8"?>
<!-- Generator: Adobe Illustrator 24.0.3, SVG Export Plug-In . SVG Version: 6.00 Build 0)  -->
<svg version="1.1" id="Layer_1" xmlns="http://www.w3.org/2000/svg" xmlns:xlink="http://www.w3.org/1999/xlink" x="0px" y="0px"
	 viewBox="0 0 100 100" style="enable-background:new 0 0 100 100;" xml:space="preserve">
<style type="text/css">
	.st0{fill:#65C7C2;}
	.st1{fill:#141F47;}
</style>
<title>AS-Security</title>
<path class="st0" d="M50,15.3c-10.1,0-18.2,8.2-18.2,18.2v13.6h9.1V33.6c0-5,4.1-9.1,9.1-9.1s9.1,4.1,9.1,9.1v13.6h9.1V33.6
	C68.2,23.5,60.1,15.4,50,15.3C50,15.4,50,15.4,50,15.3z"/>
<path class="st1" d="M69.6,48.5H57.8v-15c0-4.3-3.5-7.8-7.8-7.8s-7.8,3.5-7.8,7.8v15H30.4v-15C30.4,22.7,39.2,14,50,14
	s19.6,8.8,19.6,19.6V48.5z M60.5,45.8h6.4V33.6c0-9.3-7.6-16.9-16.9-16.9s-16.9,7.6-16.9,16.9v12.2h6.4V33.6
	c0-5.8,4.7-10.5,10.5-10.5s10.5,4.7,10.5,10.5V45.8z"/>
<path class="st0" d="M72.5,50v31.9c0,1.5-1.3,2.8-2.8,2.8H30.3c-1.5,0-2.8-1.3-2.8-2.8V50c0-1.5,1.3-2.8,2.8-2.8h39.4
	C71.2,47.2,72.5,48.4,72.5,50z"/>
<path class="st1" d="M70,86H30c-2.1,0-3.9-1.7-3.9-3.9l0,0V49.7c0-2.1,1.7-3.9,3.9-3.9h40c2.1,0,3.9,1.7,3.9,3.9v32.4
	C73.9,84.3,72.1,86,70,86L70,86z M30,48.5c-0.6,0-1.2,0.5-1.2,1.2v32.4c0,0.6,0.5,1.2,1.2,1.2l0,0h40c0.6,0,1.2-0.5,1.2-1.2V49.7
	c0-0.6-0.5-1.2-1.2-1.2H30z"/>
<path class="st1" d="M54.8,61.6c0-2.7-2.2-4.8-4.8-4.8c-0.4,0-0.8,0-1.2,0.1c-2.6,0.6-4.1,3.2-3.5,5.8c0.4,1.6,1.5,2.8,3,3.4
	l-2.7,7.7c-0.2,0.5,0.1,1,0.5,1.1c0.1,0,0.2,0.1,0.3,0.1h7.1c0.5,0,0.9-0.4,0.9-0.9c0-0.1,0-0.2-0.1-0.3l-2.8-7.7
	C53.5,65.5,54.8,63.7,54.8,61.6z"/>
</svg>
