<?xml version="1.0" encoding="utf-8"?>
<!-- Generator: Adobe Illustrator 24.0.3, SVG Export Plug-In . SVG Version: 6.00 Build 0)  -->
<svg version="1.1" id="Layer_1" xmlns="http://www.w3.org/2000/svg" xmlns:xlink="http://www.w3.org/1999/xlink" x="0px" y="0px"
	 viewBox="0 0 100 100" style="enable-background:new 0 0 100 100;" xml:space="preserve">
<style type="text/css">
	.st0{fill:#141F47;}
</style>
<title>AS-Simple</title>
<path class="st0" d="M50,86c-19.9,0-36-16.1-36-36s16.1-36,36-36s36,16.1,36,36S69.9,86,50,86 M50,17c-18.2,0-33,14.8-33,33
	s14.8,33,33,33s33-14.8,33-33S68.2,17,50,17"/>
<path class="st0" d="M47.6,64.7c-0.6,0-1.1-0.2-1.5-0.6L32,50.3c-0.9-0.9-0.9-2.4,0-3.3l0,0c0.7-0.8,2-0.9,2.8-0.2l0,0
	c0.1,0,0.1,0.1,0.2,0.2l0,0l12,12l17.1-23.1c0.9-0.8,2.3-1,3.3-0.3c1,0.8,1.1,2.3,0.3,3.2l0,0l0,0l-18.6,25
	C48.8,64.4,48.2,64.7,47.6,64.7z"/>
</svg>
