<?xml version="1.0" encoding="utf-8"?>
<!-- Generator: Adobe Illustrator 24.0.3, SVG Export Plug-In . SVG Version: 6.00 Build 0)  -->
<svg version="1.1" id="Layer_1" xmlns="http://www.w3.org/2000/svg" xmlns:xlink="http://www.w3.org/1999/xlink" x="0px" y="0px"
	 viewBox="0 0 80 80" style="enable-background:new 0 0 80 80;" xml:space="preserve">
<style type="text/css">
	.st0{fill-rule:evenodd;clip-rule:evenodd;fill:#F15B3E;}
</style>
<title>Group 10</title>
<desc>Created with Sketch.</desc>
<g id="Page-1">
	<g id="_x31__x5F_Home" transform="translate(-117.000000, -1063.000000)">
		<g id="Features" transform="translate(0.000000, 889.000000)">
			<g id="Icons" transform="translate(95.000000, 93.000000)">
				<g id="Group-10" transform="translate(22.000000, 81.000000)">
					<g id="Group-3" transform="translate(21.000000, 0.000000)">
						<g id="Clip-2">
						</g>
						<path id="Fill-1" class="st0" d="M28.9,16.2c0-0.6-0.6-1.2-1.3-1.2c-0.7,0-1.2,0.6-1.2,1.2v7.7h2.5V16.2z"/>
					</g>
					<g id="Group-6" transform="translate(3.000000, 0.000000)">
						<g id="Clip-5">
						</g>
						<path id="Fill-4" class="st0" d="M28.9,16.2c0-0.6-0.6-1.2-1.2-1.2c-0.7,0-1.3,0.6-1.3,1.2v7.7h2.5V16.2z"/>
					</g>
					<g id="Group-9" transform="translate(0.000000, 10.000000)">
						<g id="Clip-8">
						</g>
						<path id="Fill-7" class="st0" d="M50.8,27.6c0,6.2-5,11.2-11.1,11.2c-6.2,0-11.1-5-11.1-11.2v-9.5h22.3L50.8,27.6L50.8,27.6z
							 M52,15.6H27.2c-0.6,0-1.2,0.5-1.2,1.2v10.8c0,7.1,5.4,12.9,12.4,13.6v12.6c0,0.7,0.6,1.2,1.2,1.2c0.7,0,1.2-0.6,1.2-1.2V41.1
							c6.9-0.7,12.4-6.5,12.4-13.6V16.7C53.3,16.1,52.7,15.6,52,15.6L52,15.6z"/>
					</g>
				</g>
			</g>
		</g>
	</g>
</g>
</svg>
