<?xml version="1.0" encoding="utf-8"?>
<!-- Generator: Adobe Illustrator 24.0.3, SVG Export Plug-In . SVG Version: 6.00 Build 0)  -->
<svg version="1.1" id="Layer_1" xmlns="http://www.w3.org/2000/svg" xmlns:xlink="http://www.w3.org/1999/xlink" x="0px" y="0px"
	 viewBox="0 0 80 80" style="enable-background:new 0 0 80 80;" xml:space="preserve">
<style type="text/css">
	.st0{fill:#F15B3E;}
	.st1{fill:none;}
	.st2{fill:#FFFFFF;}
</style>
<title>document</title>
<g id="Page-1">
	<g id="Software">
		<g id="Read-Documentation">
			<g id="Group-2">
				<g id="Group-13">
					<path id="Fill-1" class="st0" d="M19.9,70.6c-1.8,0-3.3-1.5-3.3-3.3c0,0,0,0,0,0V12.7c0-1.8,1.4-3.3,3.3-3.3c0,0,0,0,0,0h40.3
						c1.8,0,3.3,1.5,3.3,3.3c0,0,0,0,0,0v54.5c0,1.8-1.4,3.3-3.3,3.3c0,0,0,0,0,0H19.9z"/>
					<path class="st1" d="M60.1,72H19.9c-2.6,0-4.7-2.1-4.7-4.7V12.7c0-2.6,2.1-4.7,4.7-4.7h40.3c2.6,0,4.7,2.1,4.7,4.7c0,0,0,0,0,0
						v54.5C64.8,69.9,62.7,72,60.1,72C60.1,72,60.1,72,60.1,72z M19.9,10.9c-1,0-1.8,0.8-1.8,1.8c0,0,0,0,0,0v54.5
						c0,1,0.8,1.8,1.8,1.9c0,0,0,0,0,0h40.3c1,0,1.8-0.8,1.8-1.8c0,0,0,0,0,0V12.7c0-1-0.8-1.8-1.8-1.9c0,0,0,0,0,0H19.9z"/>
					<path class="st2" d="M56.6,22.9h-34c-0.8,0-1.4-0.6-1.4-1.4c0-0.8,0.6-1.4,1.4-1.4c0,0,0,0,0,0h34c0.8,0,1.4,0.6,1.4,1.4
						C58,22.3,57.4,22.9,56.6,22.9z"/>
					<path class="st2" d="M56.6,35h-34c-0.8-0.1-1.4-0.8-1.3-1.6c0.1-0.7,0.6-1.3,1.3-1.3h34c0.8,0.1,1.4,0.8,1.3,1.6
						C57.9,34.4,57.3,34.9,56.6,35z"/>
					<path class="st2" d="M56.6,47.1h-34c-0.8,0-1.4-0.6-1.4-1.4s0.6-1.4,1.4-1.4h34c0.8,0,1.4,0.6,1.4,1.4S57.4,47.1,56.6,47.1z"/>
					<path class="st2" d="M56.6,59.2h-34c-0.8-0.1-1.4-0.8-1.3-1.6c0.1-0.7,0.6-1.3,1.3-1.3h34c0.8,0.1,1.4,0.8,1.3,1.6
						C57.9,58.6,57.3,59.1,56.6,59.2z"/>
				</g>
			</g>
		</g>
	</g>
</g>
</svg>
