<?xml version="1.0" encoding="utf-8"?>
<!-- Generator: Adobe Illustrator 24.0.3, SVG Export Plug-In . SVG Version: 6.00 Build 0)  -->
<svg version="1.1" id="Layer_1" xmlns="http://www.w3.org/2000/svg" xmlns:xlink="http://www.w3.org/1999/xlink" x="0px" y="0px"
	 viewBox="0 0 80 80" style="enable-background:new 0 0 80 80;" xml:space="preserve">
<style type="text/css">
	.st0{fill-rule:evenodd;clip-rule:evenodd;fill:#F15B3E;}
</style>
<title>Group 12</title>
<desc>Created with Sketch.</desc>
<g id="Page-1">
	<g id="_x31__x5F_Home" transform="translate(-95.000000, -1147.000000)">
		<g id="Features" transform="translate(0.000000, 889.000000)">
			<g id="Icons" transform="translate(95.000000, 93.000000)">
				<g id="Group-12" transform="translate(0.000000, 165.000000)">
					<path id="Fill-1" class="st0" d="M21.7,46.4c-1,0-1.8,0.8-1.8,1.8v15.1c0,1,0.8,1.8,1.8,1.8s1.8-0.8,1.8-1.8V48.1
						C23.5,47.2,22.7,46.4,21.7,46.4"/>
					<path id="Fill-3" class="st0" d="M33.7,43.4c-1,0-1.8,0.8-1.8,1.8v18.1c0,1,0.8,1.8,1.8,1.8s1.8-0.8,1.8-1.8V45.1
						C35.5,44.2,34.7,43.4,33.7,43.4"/>
					<path id="Fill-5" class="st0" d="M45.8,38.5c-1,0-1.8,0.8-1.8,1.8v23c0,1,0.8,1.8,1.8,1.8s1.8-0.8,1.8-1.8v-23
						C47.6,39.3,46.8,38.5,45.8,38.5"/>
					<g id="Group-9" transform="translate(44.000000, 17.000000)">
						<g id="Clip-8">
						</g>
						<path id="Fill-7" class="st0" d="M13.9,15.2c-1,0-1.8,0.8-1.8,1.8v29.3c0,1,0.8,1.8,1.8,1.8s1.8-0.8,1.8-1.8V16.9
							C15.6,15.9,14.8,15.2,13.9,15.2"/>
					</g>
					<path id="Fill-10" class="st0" d="M67.6,15H52.2c-0.5,0-0.9,0.4-0.9,0.9c0,0.3,3.2,3.5,6.8,7.1C50.2,30.1,41,35.5,30.6,38.5
						c-4,1.2-8.2,2-12.4,2.4C16.6,41,14.9,41,13.3,41c-1,0-1.8,0.7-1.8,1.7s0.7,1.8,1.7,1.8c0.5,0,1,0,1.5,0c1.3,0,2.6-0.1,3.8-0.2
						c4.4-0.4,8.8-1.3,13.1-2.5c11-3.2,20.7-8.9,29-16.4c3.6,3.6,7,6.8,7,6.8c0.5,0,0.9-0.4,0.9-0.9V16v-0.1
						C68.5,15.4,68.1,15,67.6,15"/>
				</g>
			</g>
		</g>
	</g>
</g>
</svg>
