<?xml version="1.0" encoding="utf-8"?>
<!-- Generator: Adobe Illustrator 24.0.3, SVG Export Plug-In . SVG Version: 6.00 Build 0)  -->
<svg version="1.1" id="Layer_1" xmlns="http://www.w3.org/2000/svg" xmlns:xlink="http://www.w3.org/1999/xlink" x="0px" y="0px"
	 viewBox="0 0 80 80" style="enable-background:new 0 0 80 80;" xml:space="preserve">
<style type="text/css">
	.st0{fill-rule:evenodd;clip-rule:evenodd;fill:#F15B3E;}
</style>
<title>Group 6</title>
<desc>Created with Sketch.</desc>
<g id="Page-1">
	<g id="_x31__x5F_Home" transform="translate(-111.000000, -982.000000)">
		<g id="Features" transform="translate(0.000000, 889.000000)">
			<g id="Icons" transform="translate(95.000000, 93.000000)">
				<g id="Group-6" transform="translate(16.000000, 0.000000)">
					<g id="Group-3">
						<g id="Clip-2">
						</g>
						<path id="Fill-1" class="st0" d="M57.4,37.8c0,10.2-6.1,19.4-15.5,23.3l-2.4,1.1l-2.1-0.9C28.1,57.2,22.1,48.1,22.1,38V27.5
							l17.4-9.6l17.9,9.6V37.8z M39.4,15L19.5,25.9V38c0,11.1,6.6,21.2,16.8,25.6l3.1,1.3l3.5-1.5C53.3,59,60.1,48.9,60.1,37.6V25.9
							L39.4,15z"/>
					</g>
					<polygon id="Fill-4" class="st0" points="30.5,37.2 28.6,39.1 37,47.4 50.9,34.1 49.1,32.2 37,43.7 					"/>
				</g>
			</g>
		</g>
	</g>
</g>
</svg>
