<?xml version="1.0" encoding="utf-8"?>
<!-- Generator: Adobe Illustrator 24.0.3, SVG Export Plug-In . SVG Version: 6.00 Build 0)  -->
<svg version="1.1" id="Layer_1" xmlns="http://www.w3.org/2000/svg" xmlns:xlink="http://www.w3.org/1999/xlink" x="0px" y="0px"
	 viewBox="0 0 80 80" style="enable-background:new 0 0 80 80;" xml:space="preserve">
<style type="text/css">
	.st0{fill-rule:evenodd;clip-rule:evenodd;fill:#F15B3E;}
</style>
<title>Group 8</title>
<desc>Created with Sketch.</desc>
<g id="Page-1">
	<g id="_x31__x5F_Home" transform="translate(-106.000000, -1228.000000)">
		<g id="Features" transform="translate(0.000000, 889.000000)">
			<g id="Icons" transform="translate(95.000000, 93.000000)">
				<g id="Group-8" transform="translate(11.000000, 246.000000)">
					<path id="Fill-1" class="st0" d="M36.2,36.7l2.4-2.4c-0.8-0.3-1.8-0.4-2.7-0.4c-5.6,0-10.2,4.6-10.2,10.2s4.6,10.2,10.2,10.2
						c5.7,0,10.2-4.6,10.2-10.3c0-0.9-0.1-1.8-0.4-2.7l-2.4,2.4V44c0,4.1-3.3,7.4-7.4,7.4s-7.4-3.3-7.4-7.4S32.1,36.5,36.2,36.7"/>
					<path id="Fill-3" class="st0" d="M51.8,35.3c1.5,2.7,2.3,5.7,2.3,8.8c0,10-8.2,18.2-18.2,18.2s-18.2-8.2-18.2-18.2
						s8.2-18.2,18.2-18.2c3.1,0,6.1,0.8,8.8,2.3l2.1-2.1c-3.3-1.9-6.9-3-10.8-3c-11.6,0.1-21,9.5-21,21S24.4,65,35.9,65
						c11.6,0,20.9-9.4,20.9-20.9c0-3.8-1.1-7.6-3-10.8L51.8,35.3z"/>
					<g id="Group-7" transform="translate(19.000000, 0.000000)">
						<g id="Clip-6">
						</g>
						<path id="Fill-5" class="st0" d="M45.9,21.7c-0.1-0.3-0.3-0.4-0.6-0.5l-4.8-0.8l-0.8-4.8c-0.1-0.3-0.2-0.5-0.5-0.6H39
							c-0.2,0-0.4,0.1-0.5,0.2l-3.4,3.4c-0.1,0.2-0.2,0.4-0.2,0.6v5.3L16.2,43.2c-0.2,0.2-0.3,0.5-0.3,0.8s0.1,0.6,0.3,0.8
							c0.4,0.4,1.2,0.4,1.6,0l18.7-18.7h5.3c0.2,0,0.4-0.1,0.5-0.2l3.4-3.4C46,22.3,46.1,22,45.9,21.7"/>
					</g>
				</g>
			</g>
		</g>
	</g>
</g>
</svg>
