<svg id="Layer_1" data-name="Layer 1" xmlns="http://www.w3.org/2000/svg" viewBox="0 0 303.21 72.56"><defs><style>.cls-1{fill:#fff;}.cls-2{fill:#f15b3f;}</style></defs><title>KataContainers_Logo_Horiz_2ColorWhite_RGB</title><path class="cls-1" d="M156.76,59.32a7.53,7.53,0,0,1-2.77-3,9.81,9.81,0,0,1,0-8.61,7.19,7.19,0,0,1,2.74-3,7.52,7.52,0,0,1,4-1.07,6.57,6.57,0,0,1,3.31.81,9.21,9.21,0,0,1,2.59,2.32L165,48.15a5,5,0,0,0-4.23-2.37,5.15,5.15,0,0,0-2.82.8,5.49,5.49,0,0,0-2,2.24,7.93,7.93,0,0,0,0,6.47,5.4,5.4,0,0,0,2,2.23,5.08,5.08,0,0,0,2.82.81,5.51,5.51,0,0,0,2.63-.56,5.89,5.89,0,0,0,1.87-1.62L167,57.39a8.22,8.22,0,0,1-2.72,2.19,7.74,7.74,0,0,1-3.48.81,7.54,7.54,0,0,1-4-1.07" transform="translate(-14.38 -11.74)"/><path class="cls-1" d="M181.35,57.52a5.31,5.31,0,0,0,2-2.23,7.83,7.83,0,0,0,0-6.47,5.4,5.4,0,0,0-2-2.24,5.18,5.18,0,0,0-2.85-.8,5.06,5.06,0,0,0-2.8.8,5.39,5.39,0,0,0-1.93,2.23,6.93,6.93,0,0,0-.71,3.21,7.21,7.21,0,0,0,.71,3.27,5.27,5.27,0,0,0,1.93,2.23,5,5,0,0,0,2.8.81,5.11,5.11,0,0,0,2.85-.81m-6.78,1.8a7.41,7.41,0,0,1-2.77-3,9.14,9.14,0,0,1-1-4.31,9,9,0,0,1,1-4.28,7.17,7.17,0,0,1,2.74-3,7.42,7.42,0,0,1,4-1.07,7.45,7.45,0,0,1,6.77,4,9.18,9.18,0,0,1,1,4.3,9.36,9.36,0,0,1-1,4.31,7.39,7.39,0,0,1-6.73,4,7.5,7.5,0,0,1-4-1.07" transform="translate(-14.38 -11.74)"/><path class="cls-1" d="M201.75,44.39a5.09,5.09,0,0,1,2.2,2,5.6,5.6,0,0,1,.81,3.06V59.86h-2.25V50.42c0-3.09-1.39-4.64-4.14-4.64a4.11,4.11,0,0,0-3.6,1.7,7.8,7.8,0,0,0-1.2,4.57v7.81H191.3V44.25h2.27v2.6a6.09,6.09,0,0,1,2.11-2.32,5.72,5.72,0,0,1,3-.81,6.79,6.79,0,0,1,3,.67" transform="translate(-14.38 -11.74)"/><polygon class="cls-1" points="197.5 48.12 197.5 34.58 194.82 34.58 194.82 32.51 197.5 32.51 197.5 27.34 199.75 27.34 199.75 32.51 203.36 32.51 203.36 34.58 199.75 34.58 199.75 48.12 197.5 48.12"/><path class="cls-1" d="M231.63,57.52a5.38,5.38,0,0,0,2-2.23,7.83,7.83,0,0,0,0-6.47,5.47,5.47,0,0,0-2-2.24,5.18,5.18,0,0,0-2.85-.8,5.12,5.12,0,0,0-2.81.8A5.54,5.54,0,0,0,224,48.81a7.05,7.05,0,0,0-.7,3.21,7.34,7.34,0,0,0,.7,3.27A5.41,5.41,0,0,0,226,57.52a5,5,0,0,0,2.81.81,5.11,5.11,0,0,0,2.85-.81m4.92-13.27V59.86h-2.27v-2.3a6.84,6.84,0,0,1-2.37,2.08,6.37,6.37,0,0,1-3.07.75,7.45,7.45,0,0,1-6.76-4,9.83,9.83,0,0,1,0-8.62,7.26,7.26,0,0,1,2.75-3,7.39,7.39,0,0,1,4-1.07,6.48,6.48,0,0,1,3.12.75,6.85,6.85,0,0,1,2.38,2.11V44.25Z" transform="translate(-14.38 -11.74)"/><path class="cls-1" d="M243.81,44.25h2.26V59.86h-2.26Zm-.16-3.57a1.8,1.8,0,0,1-.51-1.3,1.8,1.8,0,0,1,3.06-1.25,1.68,1.68,0,0,1,.54,1.29,1.66,1.66,0,0,1-.54,1.26,1.71,1.71,0,0,1-1.26.54,1.73,1.73,0,0,1-1.29-.54" transform="translate(-14.38 -11.74)"/><path class="cls-1" d="M263.8,44.39a5.06,5.06,0,0,1,2.19,2,5.6,5.6,0,0,1,.82,3.06V59.86h-2.26V50.42c0-3.09-1.39-4.64-4.14-4.64a4.11,4.11,0,0,0-3.6,1.7,7.8,7.8,0,0,0-1.2,4.57v7.81h-2.27V44.25h2.27v2.6a6.17,6.17,0,0,1,2.11-2.32,5.72,5.72,0,0,1,3-.81,6.86,6.86,0,0,1,3,.67" transform="translate(-14.38 -11.74)"/><path class="cls-1" d="M285,50.65A5.9,5.9,0,0,0,283.35,47a5,5,0,0,0-3.53-1.22,4.86,4.86,0,0,0-3.56,1.39,6.32,6.32,0,0,0-1.74,3.48Zm-1.36-5.9a7.29,7.29,0,0,1,2.66,2.82,8,8,0,0,1,1,4c0,.43,0,.75,0,1H274.38A6.79,6.79,0,0,0,276,56.63a4.86,4.86,0,0,0,3.9,1.7,6.66,6.66,0,0,0,3.32-.76,5.64,5.64,0,0,0,2.11-2.09l1.8,1.21a7.89,7.89,0,0,1-2.9,2.72,8.79,8.79,0,0,1-4.26,1,7.45,7.45,0,0,1-6.8-4,9.14,9.14,0,0,1-1-4.31,9.29,9.29,0,0,1,1-4.3,7.28,7.28,0,0,1,2.75-3,7.42,7.42,0,0,1,4-1.07,7.18,7.18,0,0,1,3.8,1" transform="translate(-14.38 -11.74)"/><path class="cls-1" d="M301.63,44V46a3.71,3.71,0,0,0-1.53-.32,4.75,4.75,0,0,0-2.67.8,5.55,5.55,0,0,0-2,2.32,7.78,7.78,0,0,0-.76,3.58v7.47h-2.27V44.25h2.27v3.14A7.32,7.32,0,0,1,297,44.68a5.24,5.24,0,0,1,3.12-1,4.89,4.89,0,0,1,1.53.23" transform="translate(-14.38 -11.74)"/><path class="cls-1" d="M307.08,59.42a6.51,6.51,0,0,1-2.62-2.73l2-1c.83,1.75,2.43,2.64,4.84,2.64a5.71,5.71,0,0,0,2.86-.65,2.08,2.08,0,0,0,1.15-2,2.35,2.35,0,0,0-.93-2,6.66,6.66,0,0,0-3.22-.86,8.14,8.14,0,0,1-4.57-1.45,3.84,3.84,0,0,1-1.39-3.1,4,4,0,0,1,1.57-3.36,6.91,6.91,0,0,1,4.3-1.2c3.08,0,5.18,1.23,6.3,3.67l-2,1a4,4,0,0,0-1.65-2,5.55,5.55,0,0,0-2.78-.63,4.73,4.73,0,0,0-2.65.63,2.08,2.08,0,0,0-.92,1.81,2.11,2.11,0,0,0,1,1.79,7.38,7.38,0,0,0,3.39.87,8.19,8.19,0,0,1,4.42,1.46,3.8,3.8,0,0,1,1.44,3.12,4.1,4.1,0,0,1-.9,2.68,5.46,5.46,0,0,1-2.39,1.68,9.12,9.12,0,0,1-3.24.57,8,8,0,0,1-4-1" transform="translate(-14.38 -11.74)"/><polygon class="cls-2" points="80.06 31.93 74.04 37.68 74.04 23.32 70.6 23.32 70.6 48.7 74.04 48.7 74.04 42.16 75.26 40.98 80.52 48.7 84.46 48.7 77.68 38.66 84.67 31.93 80.06 31.93"/><path class="cls-2" d="M113.59,45A7.52,7.52,0,0,0,112.08,44a7.07,7.07,0,0,0-3.4-.83,8,8,0,0,0-4.29,1.16,7.84,7.84,0,0,0-3,3.18,10.38,10.38,0,0,0,0,9.16,8,8,0,0,0,3,3.19,8.12,8.12,0,0,0,4.3,1.16,7,7,0,0,0,3.35-.83,7.41,7.41,0,0,0,1.5-1.06v1.35H117V43.67h-3.44ZM113,55a4.87,4.87,0,0,1-1.73,2,4.56,4.56,0,0,1-2.54.71,4.48,4.48,0,0,1-2.49-.71,4.69,4.69,0,0,1-1.72-2,6.7,6.7,0,0,1-.65-3,6.51,6.51,0,0,1,.65-3,4.82,4.82,0,0,1,1.72-2,4.79,4.79,0,0,1,5,0,4.78,4.78,0,0,1,1.74,2,6.58,6.58,0,0,1,.64,3A6.84,6.84,0,0,1,113,55Z" transform="translate(-14.38 -11.74)"/><polygon class="cls-2" points="111.78 26.76 108.35 26.76 108.35 31.93 105.68 31.93 105.68 35.16 108.35 35.16 108.35 48.7 111.78 48.7 111.78 35.16 115.39 35.16 115.39 31.93 111.78 31.93 111.78 26.76"/><path class="cls-2" d="M145.13,43.67V45A7,7,0,0,0,143.62,44a7.07,7.07,0,0,0-3.4-.83,8,8,0,0,0-4.28,1.16,7.86,7.86,0,0,0-3,3.18,10.38,10.38,0,0,0,0,9.16A8,8,0,0,0,140.28,61a7,7,0,0,0,3.35-.83,7.14,7.14,0,0,0,1.5-1.06v1.35h3.45V43.67ZM144.49,55a4.87,4.87,0,0,1-1.73,2,4.56,4.56,0,0,1-2.54.71,4.5,4.5,0,0,1-2.49-.71A4.76,4.76,0,0,1,136,55a6.73,6.73,0,0,1-.64-3,6.51,6.51,0,0,1,.64-3,4.9,4.9,0,0,1,1.72-2,4.5,4.5,0,0,1,2.49-.71,4.56,4.56,0,0,1,2.54.71,4.83,4.83,0,0,1,1.73,2,6.58,6.58,0,0,1,.64,3A6.7,6.7,0,0,1,144.49,55Z" transform="translate(-14.38 -11.74)"/><path class="cls-2" d="M68.6,54.79,43.89,79.5,19.18,54.79l4.38-4.38L43.89,70.74,64.21,50.41Zm-13.17-.38L49,48l6.39-6.39L61.82,48Zm-9.85-5.06L53,56.8l-7.45,7.46ZM42.19,64.26,26,48,42.19,31.78Zm3.39-32.48L53,39.2l-7.42,7.41Zm-26.4,9.46L43.89,16.53,68.6,41.24l-4.39,4.38L43.89,25.29,23.56,45.62Zm54.21,0-29.5-29.5L14.38,41.24,21.16,48l-6.78,6.77L43.89,84.3l29.5-29.51L66.61,48Z" transform="translate(-14.38 -11.74)"/></svg>