<?xml version="1.0" encoding="utf-8"?>
<!-- Generator: Adobe Illustrator 24.0.3, SVG Export Plug-In . SVG Version: 6.00 Build 0)  -->
<svg version="1.1" id="Layer_1" xmlns="http://www.w3.org/2000/svg" xmlns:xlink="http://www.w3.org/1999/xlink" x="0px" y="0px"
	 viewBox="0 0 70 82.1" style="enable-background:new 0 0 70 82.1;" xml:space="preserve">
<style type="text/css">
	.st0{fill:#F15B3E;}
	.st1{fill:#FFFFFF;}
</style>
<title>KataContainers_Sticker_RGB</title>
<path class="st0" d="M62.5,41l6.8-6.8L35,0.1L0.7,34.3L7.5,41l-6.8,6.8L35,82.1l34.3-34.3L62.5,41z"/>
<path class="st1" d="M59.7,47.8L35,72.6L10.3,47.8l4.4-4.4L35,63.8l20.3-20.3L59.7,47.8z M46.5,47.5L40.1,41l6.4-6.4l6.5,6.4
	L46.5,47.5z M36.7,42.4l7.5,7.5l-7.5,7.5V42.4z M33.3,57.3L17.1,41l16.2-16.2V57.3z M36.7,24.8l7.4,7.4l-7.4,7.4L36.7,24.8z
	 M10.3,34.3L35,9.6l24.7,24.7l-4.4,4.4L35,18.3L14.7,38.7L10.3,34.3z M64.5,34.3L35,4.8L5.5,34.3l6.8,6.8l-6.8,6.8L35,77.4
	l29.5-29.5L57.7,41L64.5,34.3z"/>
</svg>
