<?xml version="1.0" encoding="utf-8"?>
<!-- Generator: Adobe Illustrator 24.0.3, SVG Export Plug-In . SVG Version: 6.00 Build 0)  -->
<svg version="1.1" id="Layer_1" xmlns="http://www.w3.org/2000/svg" xmlns:xlink="http://www.w3.org/1999/xlink" x="0px" y="0px"
	 viewBox="0 0 1920 1080" style="enable-background:new 0 0 1920 1080;" xml:space="preserve">
<style type="text/css">
	.st0{clip-path:url(#SVGID_2_);}
	.st1{fill:#003E6A;}
</style>
<g>
	<defs>
		<rect id="SVGID_1_" width="1920.15" height="1079.54"/>
	</defs>
	<clipPath id="SVGID_2_">
		<use xlink:href="#SVGID_1_"  style="overflow:visible;"/>
	</clipPath>
	<g class="st0">
		<path class="st1" d="M2021.15,1131.21c-40.19,0-72.89,32.7-72.89,72.89c0,40.19,32.7,72.89,72.89,72.89s72.89-32.7,72.89-72.89
			C2094.04,1163.91,2061.34,1131.21,2021.15,1131.21z M2021.15,1278.53c-41.04,0-74.42-33.39-74.42-74.42
			c0-41.04,33.39-74.42,74.42-74.42c41.04,0,74.42,33.39,74.42,74.42C2095.57,1245.14,2062.18,1278.53,2021.15,1278.53z"/>
		<path class="st1" d="M2021.15,1069.36c-9.23,0-18.34,0.93-27.16,2.74c-8.71,1.79-17.19,4.43-25.28,7.86
			c-8.02,3.4-15.69,7.57-22.88,12.43c-7.15,4.83-13.84,10.36-19.93,16.45c-6.09,6.09-11.62,12.78-16.45,19.93
			c-4.86,7.18-9.03,14.86-12.43,22.88c-3.43,8.09-6.08,16.57-7.86,25.29c-1.81,8.82-2.74,17.93-2.74,27.16
			c0,9.23,0.93,18.34,2.74,27.16c1.79,8.71,4.43,17.19,7.86,25.28c3.4,8.02,7.57,15.69,12.43,22.88
			c4.83,7.15,10.36,13.84,16.45,19.93c6.09,6.09,12.78,11.62,19.93,16.45c7.18,4.86,14.86,9.03,22.88,12.43
			c8.09,3.43,16.57,6.08,25.29,7.86c8.82,1.81,17.94,2.75,27.16,2.75c9.23,0,18.34-0.93,27.16-2.74c8.71-1.79,17.19-4.43,25.28-7.86
			c8.02-3.4,15.69-7.57,22.88-12.43c7.15-4.83,13.84-10.36,19.93-16.45c6.09-6.09,11.62-12.78,16.45-19.93
			c4.86-7.18,9.03-14.86,12.43-22.88c3.43-8.09,6.08-16.57,7.86-25.29c1.81-8.82,2.75-17.93,2.75-27.16
			c0-9.23-0.94-18.34-2.74-27.16c-1.79-8.71-4.43-17.19-7.86-25.28c-3.4-8.02-7.57-15.69-12.43-22.88
			c-4.83-7.15-10.36-13.84-16.45-19.93c-6.09-6.09-12.78-11.62-19.93-16.45c-7.18-4.86-14.86-9.03-22.88-12.43
			c-8.09-3.43-16.57-6.08-25.29-7.86C2039.48,1070.3,2030.37,1069.36,2021.15,1069.36z M2021.15,1066.32
			c9.43,0,18.75,0.96,27.77,2.81c8.91,1.83,17.58,4.54,25.86,8.04c8.2,3.47,16.05,7.75,23.39,12.71
			c7.31,4.94,14.15,10.59,20.38,16.82c6.23,6.23,11.88,13.07,16.82,20.38c4.97,7.34,9.24,15.19,12.71,23.39
			c3.51,8.28,6.21,16.95,8.04,25.86c1.85,9.02,2.81,18.34,2.81,27.77c0,9.43-0.96,18.75-2.81,27.77
			c-1.83,8.91-4.54,17.58-8.04,25.86c-3.47,8.2-7.75,16.05-12.71,23.39c-4.94,7.31-10.59,14.15-16.82,20.38
			c-6.23,6.23-13.07,11.88-20.38,16.82c-7.34,4.97-15.19,9.24-23.39,12.71c-8.28,3.51-16.95,6.22-25.86,8.04
			c-9.02,1.85-18.34,2.81-27.77,2.81c-9.43,0-18.75-0.96-27.77-2.81c-8.91-1.83-17.58-4.54-25.86-8.04
			c-8.2-3.47-16.05-7.75-23.39-12.71c-7.31-4.94-14.15-10.59-20.38-16.82c-6.23-6.23-11.88-13.07-16.82-20.38
			c-4.97-7.34-9.24-15.19-12.71-23.39c-3.51-8.28-6.22-16.95-8.04-25.86c-1.85-9.02-2.81-18.34-2.81-27.77
			c0-9.43,0.96-18.75,2.81-27.77c1.83-8.91,4.54-17.58,8.04-25.86c3.47-8.2,7.75-16.05,12.71-23.39
			c4.94-7.31,10.59-14.15,16.82-20.38c6.23-6.23,13.07-11.88,20.38-16.82c7.34-4.97,15.19-9.24,23.39-12.71
			c8.28-3.51,16.95-6.22,25.86-8.04C2002.4,1067.28,2011.71,1066.32,2021.15,1066.32z"/>
		<path class="st1" d="M2021.15,1007.51c-13.42,0-26.73,1.36-39.63,4c-12.68,2.6-25.07,6.46-36.89,11.47
			c-11.68,4.95-22.89,11.04-33.38,18.13c-10.42,7.05-20.19,15.11-29.09,24.01c-8.89,8.89-16.96,18.66-24,29.09
			c-7.09,10.49-13.19,21.7-18.13,33.38c-5.01,11.83-8.87,24.21-11.47,36.89c-2.64,12.9-4,26.21-4,39.63c0,13.42,1.36,26.73,4,39.63
			c2.6,12.68,6.46,25.07,11.47,36.89c4.95,11.68,11.04,22.89,18.13,33.38c7.05,10.42,15.11,20.19,24,29.09
			c8.89,8.89,18.66,16.96,29.09,24c10.49,7.09,21.7,13.19,33.38,18.13c11.83,5.01,24.21,8.87,36.89,11.47c12.9,2.64,26.21,4,39.63,4
			c13.42,0,26.73-1.36,39.63-4c12.68-2.6,25.07-6.46,36.89-11.47c11.68-4.95,22.89-11.04,33.38-18.13
			c10.42-7.05,20.19-15.11,29.09-24.01c8.89-8.89,16.96-18.66,24-29.09c7.09-10.49,13.19-21.7,18.13-33.38
			c5.01-11.83,8.87-24.21,11.47-36.89c2.64-12.9,4-26.21,4-39.63c0-13.42-1.36-26.73-4-39.63c-2.6-12.68-6.46-25.07-11.47-36.89
			c-4.95-11.68-11.04-22.89-18.13-33.38c-7.05-10.42-15.11-20.19-24-29.09c-8.89-8.89-18.66-16.96-29.09-24
			c-10.49-7.09-21.7-13.19-33.38-18.13c-11.83-5.01-24.21-8.87-36.89-11.47C2047.87,1008.87,2034.57,1007.51,2021.15,1007.51z
			 M2021.15,1002.96c13.73,0,27.34,1.39,40.54,4.09c12.97,2.66,25.65,6.61,37.75,11.73c11.95,5.06,23.42,11.3,34.16,18.55
			c10.66,7.21,20.66,15.46,29.76,24.56c9.1,9.1,17.35,19.09,24.56,29.76c7.25,10.73,13.49,22.2,18.55,34.16
			c5.12,12.1,9.07,24.78,11.73,37.75c2.7,13.2,4.09,26.81,4.09,40.54c0,13.73-1.39,27.34-4.09,40.54
			c-2.66,12.97-6.61,25.65-11.73,37.75c-5.06,11.95-11.3,23.42-18.55,34.16c-7.21,10.66-15.46,20.66-24.56,29.76
			c-9.1,9.1-19.09,17.35-29.76,24.56c-10.73,7.25-22.2,13.49-34.16,18.55c-12.1,5.12-24.78,9.07-37.75,11.73
			c-13.2,2.7-26.81,4.09-40.54,4.09c-13.73,0-27.34-1.39-40.54-4.09c-12.97-2.66-25.65-6.61-37.75-11.73
			c-11.95-5.06-23.42-11.3-34.16-18.55c-10.66-7.21-20.66-15.46-29.76-24.56c-9.1-9.1-17.35-19.09-24.56-29.76
			c-7.25-10.73-13.49-22.2-18.55-34.16c-5.12-12.1-9.07-24.78-11.73-37.76c-2.7-13.2-4.09-26.81-4.09-40.54
			c0-13.73,1.39-27.34,4.09-40.54c2.66-12.97,6.61-25.65,11.73-37.75c5.06-11.95,11.3-23.42,18.55-34.16
			c7.21-10.66,15.46-20.66,24.56-29.76c9.1-9.1,19.09-17.35,29.76-24.56c10.73-7.25,22.2-13.49,34.16-18.55
			c12.1-5.12,24.78-9.07,37.76-11.73C1993.81,1004.35,2007.42,1002.96,2021.15,1002.96z"/>
		<path class="st1" d="M2021.15,945.66c-17.62,0-35.12,1.78-52.09,5.26c-16.65,3.41-32.94,8.48-48.5,15.07
			c-15.35,6.5-30.09,14.51-43.89,23.83c-13.7,9.26-26.55,19.86-38.24,31.56c-11.69,11.69-22.3,24.54-31.56,38.24
			c-9.32,13.8-17.34,28.54-23.83,43.89c-6.59,15.56-11.66,31.85-15.07,48.5c-3.48,16.98-5.26,34.48-5.26,52.09
			c0,17.62,1.78,35.12,5.26,52.09c3.41,16.65,8.48,32.94,15.07,48.5c6.5,15.35,14.51,30.09,23.83,43.89
			c9.26,13.7,19.86,26.55,31.56,38.24c11.69,11.69,24.54,22.3,38.24,31.56c13.8,9.32,28.54,17.34,43.89,23.83
			c15.56,6.59,31.85,11.66,48.5,15.07c16.98,3.48,34.48,5.26,52.09,5.26c17.62,0,35.12-1.78,52.09-5.26
			c16.65-3.41,32.94-8.48,48.5-15.07c15.35-6.5,30.09-14.51,43.89-23.83c13.7-9.26,26.55-19.86,38.24-31.56
			c11.69-11.69,22.3-24.54,31.56-38.24c9.32-13.8,17.34-28.54,23.83-43.89c6.59-15.56,11.66-31.85,15.07-48.5
			c3.48-16.98,5.26-34.48,5.26-52.09c0-17.62-1.78-35.11-5.26-52.09c-3.41-16.65-8.48-32.94-15.07-48.5
			c-6.5-15.35-14.51-30.09-23.83-43.89c-9.26-13.7-19.86-26.55-31.56-38.24c-11.69-11.69-24.54-22.3-38.24-31.56
			c-13.8-9.32-28.54-17.34-43.89-23.83c-15.56-6.59-31.85-11.66-48.5-15.07C2056.26,947.44,2038.76,945.66,2021.15,945.66z
			 M2021.15,939.6c18.03,0,35.93,1.82,53.31,5.38c17.04,3.49,33.72,8.68,49.65,15.42c15.71,6.65,30.8,14.85,44.92,24.39
			c14.02,9.47,27.17,20.33,39.13,32.29c11.97,11.97,22.82,25.12,32.29,39.13c9.54,14.12,17.75,29.21,24.39,44.92
			c6.74,15.93,11.93,32.61,15.43,49.65c3.56,17.37,5.38,35.28,5.38,53.31c0,18.03-1.82,35.93-5.38,53.31
			c-3.49,17.04-8.68,33.72-15.42,49.65c-6.65,15.71-14.85,30.8-24.39,44.92c-9.47,14.02-20.33,27.17-32.29,39.13
			c-11.97,11.97-25.12,22.82-39.13,32.29c-14.12,9.54-29.21,17.75-44.92,24.39c-15.93,6.74-32.61,11.93-49.65,15.43
			c-17.37,3.56-35.28,5.38-53.31,5.38c-18.03,0-35.93-1.82-53.31-5.38c-17.04-3.49-33.72-8.68-49.65-15.42
			c-15.71-6.65-30.8-14.85-44.92-24.39c-14.02-9.47-27.17-20.33-39.13-32.29c-11.97-11.97-22.82-25.12-32.29-39.13
			c-9.54-14.12-17.75-29.21-24.39-44.92c-6.74-15.93-11.93-32.61-15.43-49.65c-3.56-17.37-5.38-35.28-5.38-53.31
			c0-18.02,1.82-35.93,5.38-53.31c3.49-17.04,8.68-33.72,15.42-49.65c6.65-15.71,14.85-30.8,24.39-44.92
			c9.47-14.02,20.33-27.17,32.29-39.13c11.97-11.97,25.12-22.82,39.13-32.29c14.12-9.54,29.21-17.75,44.92-24.39
			c15.93-6.74,32.61-11.93,49.65-15.43C1985.21,941.42,2003.12,939.6,2021.15,939.6z"/>
		<path class="st1" d="M2021.15,883.81c-21.81,0-43.51,2.2-64.56,6.51c-20.62,4.22-40.82,10.51-60.11,18.67
			c-19.01,8.05-37.29,17.98-54.4,29.54c-16.97,11.47-32.9,24.62-47.4,39.11c-14.49,14.49-27.64,30.42-39.11,47.4
			c-11.56,17.1-21.49,35.38-29.54,54.39c-8.17,19.29-14.45,39.49-18.67,60.11c-4.31,21.05-6.51,42.75-6.51,64.56
			c0,21.81,2.2,43.51,6.51,64.56c4.22,20.62,10.51,40.82,18.67,60.11c8.04,19.01,17.98,37.29,29.54,54.4
			c11.47,16.97,24.62,32.9,39.11,47.4c14.49,14.49,30.42,27.64,47.4,39.11c17.1,11.56,35.38,21.49,54.39,29.54
			c19.29,8.17,39.5,14.45,60.11,18.67c21.05,4.31,42.75,6.51,64.56,6.51c21.81,0,43.51-2.2,64.56-6.51
			c20.62-4.22,40.82-10.51,60.11-18.67c19.01-8.05,37.29-17.98,54.4-29.54c16.97-11.47,32.9-24.62,47.4-39.11
			c14.49-14.49,27.64-30.42,39.11-47.4c11.56-17.1,21.49-35.38,29.54-54.39c8.17-19.29,14.45-39.5,18.67-60.11
			c4.31-21.05,6.51-42.75,6.51-64.56c0-21.81-2.2-43.5-6.51-64.56c-4.22-20.62-10.51-40.82-18.67-60.11
			c-8.04-19.01-17.98-37.29-29.54-54.4c-11.47-16.97-24.62-32.9-39.11-47.4c-14.49-14.49-30.42-27.64-47.4-39.11
			c-17.1-11.56-35.38-21.49-54.39-29.54c-19.29-8.17-39.5-14.45-60.11-18.67C2064.65,886.01,2042.96,883.81,2021.15,883.81z
			 M2021.15,876.24c22.32,0,44.53,2.25,66.07,6.67c21.11,4.32,41.79,10.76,61.54,19.12c19.46,8.24,38.18,18.4,55.68,30.24
			c17.37,11.74,33.68,25.2,48.51,40.03c14.83,14.83,28.29,31.14,40.03,48.51c11.83,17.51,22,36.22,30.24,55.68
			c8.36,19.75,14.79,40.43,19.12,61.54c4.41,21.55,6.67,43.75,6.67,66.08c0,22.32-2.25,44.53-6.67,66.07
			c-4.32,21.11-10.76,41.79-19.12,61.54c-8.24,19.46-18.4,38.18-30.24,55.68c-11.74,17.37-25.2,33.68-40.03,48.51
			c-14.83,14.83-31.14,28.29-48.51,40.03c-17.51,11.83-36.22,22-55.68,30.24c-19.75,8.36-40.44,14.79-61.54,19.12
			c-21.55,4.41-43.75,6.67-66.08,6.67c-22.32,0-44.53-2.25-66.08-6.67c-21.11-4.32-41.79-10.76-61.54-19.12
			c-19.46-8.24-38.18-18.4-55.68-30.24c-17.37-11.74-33.68-25.2-48.51-40.03c-14.83-14.83-28.29-31.14-40.03-48.51
			c-11.83-17.51-22-36.22-30.24-55.68c-8.36-19.75-14.79-40.44-19.12-61.54c-4.41-21.55-6.67-43.75-6.67-66.08
			c0-22.32,2.25-44.52,6.67-66.07c4.32-21.11,10.76-41.79,19.12-61.54c8.24-19.46,18.4-38.18,30.24-55.68
			c11.74-17.37,25.2-33.68,40.03-48.51c14.83-14.83,31.14-28.29,48.51-40.03c17.51-11.83,36.22-22,55.68-30.24
			c19.75-8.36,40.44-14.79,61.54-19.12C1976.62,878.5,1998.83,876.24,2021.15,876.24z"/>
		<path class="st1" d="M2021.15,821.95c-26.01,0-51.9,2.62-77.03,7.77c-24.59,5.03-48.69,12.53-71.72,22.28
			c-22.67,9.59-44.49,21.45-64.9,35.24c-20.25,13.68-39.26,29.37-56.55,46.66c-17.29,17.29-32.98,36.3-46.66,56.55
			c-13.79,20.41-25.64,42.23-35.24,64.9c-9.74,23.03-17.24,47.13-22.28,71.72c-5.15,25.13-7.77,51.02-7.77,77.02
			s2.62,51.89,7.77,77.02c5.03,24.59,12.53,48.69,22.28,71.72c9.59,22.67,21.45,44.49,35.24,64.9
			c13.68,20.25,29.37,39.26,46.66,56.55c17.29,17.29,36.3,32.98,56.55,46.66c20.41,13.79,42.23,25.64,64.9,35.24
			c23.03,9.74,47.14,17.24,71.72,22.28c25.13,5.15,51.02,7.77,77.03,7.77c26.01,0,51.89-2.62,77.02-7.77
			c24.59-5.03,48.69-12.53,71.72-22.28c22.67-9.59,44.49-21.45,64.9-35.24c20.25-13.68,39.26-29.37,56.55-46.66
			c17.29-17.29,32.98-36.3,46.66-56.55c13.79-20.41,25.64-42.23,35.24-64.9c9.74-23.03,17.24-47.14,22.28-71.72
			c5.15-25.13,7.77-51.02,7.77-77.03c0-26-2.62-51.89-7.77-77.02c-5.03-24.59-12.53-48.69-22.28-71.72
			c-9.59-22.67-21.45-44.49-35.24-64.9c-13.68-20.25-29.37-39.26-46.66-56.55c-17.29-17.29-36.3-32.98-56.55-46.66
			c-20.41-13.79-42.23-25.64-64.9-35.24c-23.03-9.74-47.14-17.24-71.72-22.28C2073.04,824.58,2047.15,821.95,2021.15,821.95z
			 M2021.15,812.88c26.62,0,53.12,2.69,78.84,7.95c25.17,5.16,49.86,12.83,73.44,22.81c23.21,9.82,45.55,21.96,66.45,36.08
			c20.73,14.01,40.19,30.07,57.89,47.77c17.7,17.7,33.76,37.16,47.77,57.89c14.12,20.9,26.25,43.23,36.08,66.45
			c9.98,23.58,17.65,48.26,22.81,73.44c5.27,25.73,7.95,52.23,7.95,78.84c0,26.62-2.69,53.12-7.95,78.84
			c-5.16,25.17-12.83,49.86-22.81,73.44c-9.82,23.21-21.96,45.55-36.08,66.45c-14.01,20.73-30.07,40.19-47.77,57.89
			c-17.7,17.7-37.16,33.76-57.89,47.77c-20.9,14.12-43.23,26.25-66.45,36.08c-23.58,9.98-48.26,17.65-73.44,22.81
			c-25.73,5.27-52.23,7.95-78.84,7.95c-26.62,0-53.12-2.69-78.84-7.95c-25.17-5.16-49.86-12.83-73.44-22.81
			c-23.21-9.82-45.55-21.96-66.45-36.08c-20.73-14.01-40.19-30.07-57.89-47.77c-17.7-17.7-33.76-37.16-47.77-57.89
			c-14.12-20.9-26.25-43.23-36.08-66.45c-9.98-23.58-17.65-48.26-22.81-73.44c-5.27-25.73-7.95-52.23-7.95-78.84
			c0-26.62,2.69-53.12,7.95-78.84c5.15-25.17,12.83-49.86,22.81-73.44c9.82-23.21,21.96-45.55,36.08-66.45
			c14.01-20.73,30.07-40.19,47.77-57.89c17.7-17.7,37.16-33.76,57.89-47.77c20.9-14.12,43.23-26.25,66.45-36.08
			c23.58-9.98,48.26-17.65,73.44-22.81C1968.03,815.57,1994.53,812.88,2021.15,812.88z"/>
		<path class="st1" d="M2021.15,760.1c-30.2,0-60.29,3.05-89.49,9.03c-28.56,5.85-56.57,14.56-83.33,25.88
			c-26.34,11.14-51.69,24.92-75.41,40.94c-23.52,15.89-45.62,34.13-65.71,54.22c-20.09,20.09-38.32,42.18-54.22,65.71
			c-16.03,23.72-29.8,49.07-40.94,75.41c-11.32,26.76-20.03,54.77-25.88,83.33c-5.98,29.21-9.03,59.29-9.03,89.49
			c0,30.2,3.05,60.28,9.03,89.49c5.85,28.56,14.56,56.57,25.88,83.33c11.14,26.34,24.91,51.69,40.94,75.41
			c15.89,23.52,34.13,45.62,54.22,65.71s42.18,38.32,65.71,54.22c23.72,16.03,49.07,29.8,75.41,40.94
			c26.76,11.32,54.78,20.03,83.33,25.88c29.21,5.98,59.29,9.03,89.49,9.03c30.2,0,60.28-3.05,89.49-9.03
			c28.56-5.85,56.57-14.56,83.33-25.88c26.34-11.14,51.69-24.92,75.41-40.94c23.52-15.89,45.62-34.13,65.71-54.22
			c20.09-20.09,38.32-42.18,54.22-65.71c16.03-23.72,29.8-49.07,40.94-75.41c11.32-26.76,20.03-54.78,25.88-83.33
			c5.98-29.21,9.03-59.29,9.03-89.49c0-30.2-3.05-60.28-9.03-89.49c-5.85-28.56-14.56-56.57-25.88-83.33
			c-11.14-26.34-24.91-51.69-40.94-75.41c-15.89-23.52-34.13-45.62-54.22-65.71c-20.09-20.09-42.18-38.32-65.71-54.22
			c-23.72-16.03-49.07-29.8-75.41-40.94c-26.76-11.32-54.78-20.03-83.33-25.88C2081.43,763.15,2051.35,760.1,2021.15,760.1z
			 M2021.15,749.52c30.91,0,61.71,3.12,91.61,9.24c29.24,5.99,57.93,14.91,85.33,26.5c26.97,11.41,52.93,25.51,77.21,41.92
			c24.08,16.27,46.7,34.94,67.26,55.5c20.57,20.57,39.23,43.18,55.5,67.26c16.41,24.28,30.51,50.24,41.92,77.21
			c11.59,27.4,20.51,56.09,26.5,85.33c6.12,29.9,9.24,60.7,9.24,91.61s-3.12,61.71-9.24,91.61c-5.99,29.24-14.91,57.93-26.5,85.33
			c-11.41,26.97-25.51,52.93-41.92,77.21c-16.27,24.08-34.94,46.7-55.5,67.27c-20.57,20.57-43.18,39.23-67.26,55.5
			c-24.28,16.41-50.24,30.51-77.21,41.92c-27.4,11.6-56.09,20.51-85.33,26.5c-29.9,6.12-60.7,9.24-91.61,9.24
			c-30.91,0-61.71-3.12-91.61-9.24c-29.24-5.99-57.93-14.91-85.33-26.5c-26.97-11.41-52.93-25.51-77.21-41.92
			c-24.08-16.27-46.7-34.94-67.26-55.5c-20.57-20.57-39.23-43.18-55.5-67.26c-16.41-24.28-30.51-50.24-41.92-77.21
			c-11.59-27.4-20.51-56.09-26.5-85.33c-6.12-29.9-9.24-60.7-9.24-91.61c0-30.91,3.12-61.71,9.24-91.61
			c5.99-29.24,14.91-57.93,26.5-85.33c11.41-26.97,25.51-52.93,41.92-77.21c16.27-24.08,34.94-46.7,55.5-67.26
			c20.57-20.57,43.18-39.23,67.26-55.5c24.28-16.41,50.24-30.51,77.21-41.92c27.4-11.6,56.09-20.51,85.33-26.5
			C1959.44,752.64,1990.23,749.52,2021.15,749.52z"/>
		<path class="st1" d="M2021.15,698.25c-34.4,0-68.67,3.47-101.96,10.28c-32.53,6.66-64.45,16.58-94.94,29.48
			c-30,12.69-58.89,28.38-85.92,46.64c-26.8,18.11-51.97,38.88-74.86,61.77c-22.89,22.89-43.66,48.06-61.77,74.86
			c-18.26,27.02-33.95,55.91-46.64,85.91c-12.9,30.49-22.82,62.41-29.48,94.94c-6.81,33.28-10.28,67.56-10.28,101.96
			c0,34.39,3.47,68.67,10.28,101.96c6.66,32.53,16.58,64.45,29.48,94.94c12.69,30,28.38,58.89,46.64,85.92
			c18.11,26.8,38.88,51.97,61.77,74.86c22.89,22.89,48.06,43.66,74.86,61.77c27.02,18.26,55.91,33.95,85.91,46.64
			c30.49,12.9,62.42,22.82,94.94,29.48c33.28,6.81,67.56,10.28,101.96,10.28c34.39,0,68.67-3.47,101.96-10.28
			c32.53-6.66,64.45-16.58,94.94-29.48c30-12.69,58.89-28.38,85.92-46.64c26.8-18.11,51.97-38.88,74.86-61.77
			c22.89-22.89,43.66-48.06,61.77-74.86c18.26-27.03,33.95-55.91,46.64-85.91c12.9-30.49,22.82-62.42,29.48-94.94
			c6.81-33.28,10.28-67.56,10.28-101.96c0-34.39-3.47-68.67-10.28-101.95c-6.66-32.52-16.58-64.45-29.48-94.94
			c-12.69-30-28.38-58.89-46.64-85.92c-18.11-26.8-38.88-51.97-61.77-74.86s-48.06-43.66-74.86-61.77
			c-27.02-18.26-55.91-33.95-85.91-46.64c-30.49-12.9-62.42-22.82-94.94-29.48C2089.82,701.72,2055.54,698.25,2021.15,698.25z
			 M2021.15,686.16c35.21,0,70.3,3.55,104.38,10.53c33.31,6.82,66,16.98,97.22,30.19c30.72,13,60.3,29.06,87.97,47.76
			c27.44,18.54,53.21,39.81,76.64,63.24c23.43,23.43,44.7,49.21,63.24,76.64c18.7,27.67,34.76,57.25,47.76,87.97
			c13.21,31.23,23.37,63.92,30.19,97.23c6.98,34.08,10.53,69.17,10.53,104.38c0,35.21-3.55,70.3-10.53,104.38
			c-6.82,33.31-16.98,66-30.19,97.23c-13,30.72-29.06,60.3-47.76,87.97c-18.54,27.44-39.81,53.21-63.24,76.64
			c-23.43,23.43-49.21,44.7-76.64,63.24c-27.67,18.7-57.25,34.76-87.97,47.76c-31.23,13.21-63.92,23.37-97.23,30.19
			c-34.08,6.98-69.17,10.53-104.38,10.53c-35.21,0-70.3-3.55-104.38-10.53c-33.31-6.82-66-16.98-97.23-30.19
			c-30.72-13-60.3-29.06-87.97-47.76c-27.44-18.54-53.21-39.81-76.64-63.24c-23.43-23.43-44.7-49.21-63.24-76.64
			c-18.7-27.67-34.76-57.25-47.76-87.97c-13.21-31.23-23.37-63.92-30.19-97.23c-6.98-34.08-10.53-69.17-10.53-104.38
			c0-35.21,3.55-70.3,10.53-104.38c6.82-33.31,16.98-66,30.19-97.22c13-30.72,29.06-60.3,47.76-87.97
			c18.54-27.44,39.81-53.21,63.24-76.64c23.43-23.43,49.21-44.7,76.64-63.24c27.67-18.7,57.25-34.76,87.97-47.76
			c31.23-13.21,63.92-23.37,97.23-30.19C1950.84,689.72,1985.94,686.16,2021.15,686.16z"/>
		<path class="st1" d="M2021.15,636.4c-38.59,0-77.06,3.89-114.42,11.54c-36.49,7.47-72.32,18.61-106.55,33.09
			c-33.67,14.24-66.09,31.85-96.42,52.35c-30.07,20.32-58.33,43.63-84.02,69.32c-25.69,25.69-49,53.94-69.32,84.02
			c-20.49,30.33-38.1,62.76-52.35,96.42c-14.48,34.23-25.62,70.06-33.09,106.55c-7.65,37.36-11.54,75.83-11.54,114.42
			c0,38.59,3.89,77.06,11.54,114.42c7.47,36.49,18.6,72.32,33.09,106.55c14.24,33.67,31.85,66.09,52.35,96.42
			c20.32,30.07,43.63,58.33,69.32,84.02c25.69,25.69,53.94,49,84.02,69.32c30.33,20.49,62.76,38.1,96.42,52.35
			c34.23,14.48,70.06,25.62,106.55,33.09c37.36,7.65,75.83,11.54,114.43,11.54c38.59,0,77.06-3.89,114.42-11.54
			c36.49-7.47,72.32-18.61,106.55-33.09c33.67-14.24,66.09-31.85,96.42-52.35c30.07-20.32,58.33-43.64,84.02-69.32
			c25.69-25.69,49-53.94,69.32-84.02c20.49-30.33,38.1-62.76,52.35-96.42c14.48-34.23,25.62-70.06,33.09-106.55
			c7.65-37.36,11.54-75.83,11.54-114.42c0-38.59-3.89-77.06-11.54-114.42c-7.47-36.49-18.6-72.32-33.09-106.55
			c-14.24-33.67-31.85-66.09-52.35-96.42c-20.32-30.07-43.63-58.33-69.32-84.02c-25.69-25.69-53.94-49-84.02-69.32
			c-30.33-20.49-62.76-38.1-96.42-52.35c-34.23-14.48-70.06-25.62-106.55-33.09C2098.21,640.29,2059.74,636.4,2021.15,636.4z
			 M2021.15,622.8c39.5,0,78.9,3.98,117.15,11.82c37.37,7.65,74.07,19.05,109.12,33.88c34.47,14.59,67.68,32.62,98.74,53.6
			c30.79,20.8,59.72,44.68,86.02,70.98c26.3,26.3,50.17,55.23,70.98,86.02c20.99,31.06,39.02,64.26,53.6,98.73
			c14.83,35.05,26.23,71.75,33.88,109.12c7.83,38.25,11.82,77.64,11.82,117.15c0,39.5-3.98,78.9-11.82,117.15
			c-7.65,37.37-19.05,74.07-33.88,109.12c-14.59,34.47-32.62,67.68-53.6,98.74c-20.8,30.79-44.67,59.72-70.98,86.02
			c-26.3,26.3-55.23,50.17-86.02,70.98c-31.06,20.99-64.26,39.02-98.73,53.6c-35.05,14.83-71.75,26.23-109.12,33.89
			c-38.25,7.83-77.64,11.82-117.15,11.82c-39.51,0-78.9-3.98-117.15-11.82c-37.37-7.65-74.07-19.05-109.12-33.88
			c-34.47-14.59-67.68-32.62-98.74-53.6c-30.79-20.8-59.72-44.68-86.02-70.98c-26.3-26.3-50.17-55.23-70.98-86.02
			c-20.99-31.06-39.02-64.26-53.6-98.74c-14.83-35.05-26.23-71.75-33.88-109.12c-7.83-38.25-11.82-77.64-11.82-117.15
			c0-39.5,3.98-78.89,11.82-117.15c7.65-37.37,19.05-74.07,33.88-109.12c14.59-34.47,32.62-67.68,53.6-98.74
			c20.8-30.79,44.67-59.72,70.98-86.02c26.3-26.3,55.23-50.17,86.02-70.98c31.06-20.99,64.26-39.02,98.74-53.6
			c35.05-14.83,71.75-26.23,109.12-33.89C1942.25,626.79,1981.64,622.8,2021.15,622.8z"/>
		<path class="st1" d="M2021.15,574.55c-42.78,0-85.45,4.31-126.89,12.8c-40.46,8.28-80.2,20.63-118.16,36.69
			c-37.33,15.79-73.29,35.32-106.93,58.05c-33.35,22.53-64.68,48.39-93.17,76.88c-28.49,28.49-54.34,59.82-76.88,93.17
			c-22.73,33.64-42.26,69.6-58.05,106.93c-16.06,37.96-28.41,77.7-36.69,118.16c-8.48,41.43-12.8,84.1-12.8,126.89
			c0,42.78,4.31,85.45,12.8,126.89c8.28,40.46,20.63,80.2,36.69,118.16c15.79,37.33,35.32,73.29,58.05,106.93
			c22.53,33.35,48.39,64.68,76.88,93.17c28.49,28.49,59.82,54.35,93.17,76.88c33.64,22.73,69.6,42.26,106.93,58.05
			c37.96,16.06,77.7,28.41,118.16,36.69c41.44,8.48,84.11,12.8,126.89,12.8c42.78,0,85.45-4.31,126.89-12.8
			c40.46-8.28,80.2-20.63,118.16-36.69c37.33-15.79,73.29-35.32,106.93-58.05c33.35-22.53,64.68-48.39,93.17-76.88
			c28.49-28.49,54.34-59.82,76.88-93.17c22.73-33.64,42.26-69.6,58.05-106.93c16.06-37.96,28.41-77.7,36.69-118.16
			c8.48-41.44,12.8-84.11,12.8-126.89c0-42.78-4.31-85.45-12.8-126.89c-8.28-40.46-20.63-80.2-36.69-118.16
			c-15.79-37.33-35.32-73.29-58.05-106.93c-22.53-33.35-48.39-64.68-76.88-93.17c-28.49-28.49-59.82-54.35-93.17-76.88
			c-33.64-22.73-69.6-42.26-106.93-58.05c-37.96-16.06-77.7-28.41-118.16-36.69C2106.6,578.86,2063.93,574.55,2021.15,574.55z
			 M2021.15,559.45c43.8,0,87.49,4.42,129.92,13.1c41.44,8.48,82.14,21.13,121.01,37.58c38.23,16.17,75.05,36.17,109.5,59.44
			c34.14,23.07,66.23,49.54,95.39,78.71c29.17,29.17,55.64,61.25,78.71,95.39c23.27,34.45,43.27,71.27,59.44,109.5
			c16.45,38.88,29.09,79.57,37.58,121.01c8.69,42.43,13.1,86.12,13.1,129.92c0,43.8-4.42,87.49-13.1,129.92
			c-8.48,41.44-21.13,82.14-37.58,121.01c-16.17,38.23-36.17,75.05-59.44,109.5c-23.07,34.14-49.54,66.23-78.71,95.4
			c-29.17,29.17-61.25,55.64-95.39,78.71c-34.45,23.28-71.27,43.27-109.5,59.44c-38.88,16.45-79.57,29.09-121.02,37.58
			c-42.43,8.69-86.12,13.1-129.92,13.1c-43.8,0-87.49-4.42-129.92-13.1c-41.44-8.48-82.14-21.13-121.01-37.58
			c-38.23-16.17-75.05-36.17-109.5-59.44c-34.14-23.07-66.23-49.54-95.4-78.71c-29.17-29.17-55.64-61.25-78.71-95.39
			c-23.27-34.45-43.27-71.27-59.44-109.5c-16.45-38.88-29.09-79.57-37.58-121.02c-8.69-42.43-13.1-86.12-13.1-129.92
			c0-43.8,4.42-87.49,13.1-129.91c8.48-41.44,21.13-82.14,37.58-121.01c16.17-38.23,36.17-75.05,59.44-109.5
			c23.07-34.14,49.54-66.23,78.71-95.4c29.17-29.17,61.25-55.64,95.39-78.71c34.45-23.27,71.27-43.27,109.5-59.44
			c38.88-16.45,79.57-29.09,121.02-37.58C1933.66,563.86,1977.35,559.45,2021.15,559.45z"/>
		<path class="st1" d="M2021.15,512.7c-46.98,0-93.84,4.74-139.36,14.05c-44.43,9.1-88.07,22.65-129.77,40.29
			c-40.99,17.34-80.49,38.79-117.43,63.75c-36.62,24.74-71.04,53.14-102.33,84.43c-31.29,31.29-59.69,65.7-84.43,102.32
			c-24.96,36.95-46.41,76.44-63.75,117.43c-17.64,41.69-31.2,85.34-40.29,129.77c-9.32,45.51-14.05,92.38-14.05,139.35
			c0,46.98,4.74,93.84,14.05,139.35c9.1,44.43,22.65,88.07,40.29,129.77c17.34,40.99,38.79,80.49,63.75,117.44
			c24.74,36.62,53.14,71.04,84.43,102.33c31.29,31.29,65.7,59.69,102.32,84.43c36.95,24.96,76.44,46.41,117.43,63.75
			c41.69,17.64,85.34,31.2,129.77,40.29c45.51,9.32,92.38,14.05,139.36,14.05c46.98,0,93.84-4.74,139.35-14.05
			c44.43-9.1,88.07-22.65,129.77-40.29c40.99-17.34,80.49-38.79,117.43-63.75c36.62-24.74,71.04-53.14,102.33-84.43
			c31.29-31.29,59.69-65.7,84.43-102.33c24.96-36.95,46.41-76.44,63.75-117.43c17.64-41.69,31.2-85.34,40.29-129.77
			c9.32-45.51,14.05-92.38,14.05-139.36c0-46.98-4.74-93.84-14.05-139.35c-9.1-44.43-22.65-88.07-40.29-129.77
			c-17.34-40.99-38.79-80.49-63.75-117.43c-24.74-36.62-53.14-71.04-84.43-102.33c-31.29-31.29-65.7-59.69-102.32-84.43
			c-36.95-24.96-76.44-46.41-117.43-63.75c-41.69-17.64-85.34-31.2-129.77-40.29C2114.99,517.43,2068.13,512.7,2021.15,512.7z
			 M2021.15,496.09c48.1,0,96.08,4.85,142.68,14.39c45.51,9.32,90.21,23.2,132.91,41.27c41.98,17.76,82.43,39.72,120.26,65.29
			c37.5,25.34,72.74,54.41,104.77,86.45c32.04,32.04,61.11,67.27,86.45,104.77c25.56,37.83,47.53,78.28,65.29,120.26
			c18.07,42.7,31.95,87.4,41.27,132.91c9.54,46.6,14.39,94.59,14.39,142.68c0,48.1-4.85,96.08-14.39,142.68
			c-9.32,45.51-23.2,90.21-41.27,132.91c-17.76,41.98-39.72,82.43-65.29,120.26c-25.34,37.5-54.41,72.74-86.45,104.77
			c-32.03,32.04-67.27,61.11-104.77,86.45c-37.83,25.56-78.28,47.53-120.26,65.29c-42.7,18.07-87.4,31.95-132.91,41.27
			c-46.6,9.54-94.59,14.39-142.69,14.39s-96.08-4.85-142.69-14.39c-45.51-9.32-90.21-23.2-132.91-41.27
			c-41.98-17.76-82.43-39.72-120.26-65.29c-37.5-25.34-72.74-54.41-104.77-86.45c-32.03-32.04-61.11-67.27-86.45-104.77
			c-25.56-37.83-47.53-78.28-65.29-120.26c-18.07-42.7-31.95-87.4-41.27-132.91c-9.54-46.6-14.39-94.59-14.39-142.69
			c0-48.1,4.85-96.08,14.39-142.68c9.32-45.51,23.2-90.2,41.27-132.91c17.76-41.98,39.72-82.43,65.29-120.26
			c25.34-37.5,54.41-72.74,86.45-104.77c32.04-32.04,67.27-61.11,104.77-86.45c37.83-25.56,78.28-47.53,120.26-65.29
			c42.7-18.07,87.4-31.95,132.91-41.27C1925.06,500.94,1973.05,496.09,2021.15,496.09z"/>
		<path class="st1" d="M2021.15,450.84c-51.17,0-102.23,5.16-151.82,15.31c-48.4,9.91-95.95,24.68-141.38,43.9
			c-44.66,18.89-87.69,42.26-127.94,69.45c-39.9,26.96-77.39,57.9-111.48,91.98c-34.09,34.09-65.03,71.58-91.98,111.48
			c-27.2,40.25-50.56,83.28-69.45,127.94c-19.22,45.43-33.99,92.98-43.9,141.38c-10.15,49.59-15.31,100.65-15.31,151.82
			c0,51.17,5.16,102.23,15.31,151.82c9.91,48.4,24.68,95.95,43.9,141.38c18.89,44.66,42.26,87.69,69.45,127.94
			c26.96,39.9,57.9,77.39,91.98,111.48c34.09,34.09,71.58,65.03,111.48,91.98c40.25,27.2,83.28,50.56,127.94,69.45
			c45.43,19.22,92.98,33.99,141.38,43.9c49.59,10.15,100.65,15.31,151.82,15.31c51.17,0,102.23-5.16,151.82-15.31
			c48.4-9.91,95.95-24.68,141.38-43.9c44.66-18.89,87.69-42.26,127.94-69.45c39.9-26.96,77.39-57.9,111.48-91.98
			c34.09-34.09,65.03-71.58,91.98-111.48c27.2-40.25,50.56-83.28,69.45-127.94c19.22-45.43,33.99-92.98,43.9-141.38
			c10.15-49.59,15.31-100.65,15.31-151.82c0-51.17-5.16-102.23-15.31-151.82c-9.91-48.4-24.68-95.95-43.9-141.38
			c-18.89-44.66-42.26-87.69-69.45-127.94c-26.96-39.9-57.9-77.39-91.98-111.48c-34.09-34.09-71.58-65.03-111.48-91.98
			c-40.25-27.2-83.28-50.56-127.94-69.45c-45.43-19.22-92.98-33.99-141.38-43.9C2123.38,456,2072.32,450.84,2021.15,450.84z
			 M2021.15,432.73c52.39,0,104.67,5.28,155.45,15.68c49.57,10.15,98.27,25.28,144.8,44.96c45.74,19.35,89.8,43.28,131.03,71.13
			c40.85,27.6,79.25,59.28,114.15,94.19c34.9,34.9,66.58,73.29,94.18,114.15c27.85,41.22,51.78,85.29,71.13,131.02
			c19.68,46.53,34.81,95.23,44.96,144.8c10.39,50.78,15.68,103.06,15.68,155.45c0,52.39-5.28,104.67-15.68,155.45
			c-10.15,49.57-25.28,98.27-44.96,144.8c-19.35,45.73-43.28,89.8-71.13,131.03c-27.6,40.85-59.28,79.25-94.19,114.15
			c-34.9,34.9-73.29,66.58-114.15,94.19c-41.22,27.85-85.29,51.78-131.02,71.13c-46.53,19.68-95.23,34.81-144.8,44.96
			c-50.78,10.39-103.06,15.68-155.45,15.68s-104.67-5.28-155.45-15.68c-49.57-10.15-98.28-25.28-144.8-44.96
			c-45.73-19.35-89.8-43.28-131.03-71.13c-40.85-27.6-79.25-59.28-114.15-94.19c-34.9-34.9-66.58-73.3-94.18-114.15
			c-27.85-41.22-51.78-85.29-71.13-131.02c-19.68-46.53-34.81-95.23-44.96-144.8c-10.39-50.78-15.68-103.06-15.68-155.45
			c0-52.39,5.28-104.67,15.68-155.45c10.15-49.57,25.28-98.27,44.96-144.8c19.35-45.73,43.27-89.8,71.13-131.03
			c27.6-40.85,59.28-79.25,94.18-114.15c34.9-34.9,73.29-66.58,114.15-94.19c41.22-27.85,85.29-51.78,131.02-71.13
			c46.53-19.68,95.23-34.81,144.81-44.96C1916.47,438.01,1968.75,432.73,2021.15,432.73z"/>
		<path class="st1" d="M2021.15,388.99c-55.37,0-110.62,5.58-164.29,16.57c-52.37,10.72-103.83,26.7-152.99,47.5
			c-48.32,20.44-94.89,45.72-138.45,75.16c-43.17,29.17-83.75,62.65-120.63,99.54c-36.89,36.89-70.37,77.46-99.54,120.63
			c-29.43,43.56-54.71,90.13-75.16,138.45c-20.8,49.16-36.78,100.62-47.5,152.99c-10.98,53.66-16.57,108.92-16.57,164.29
			c0,55.37,5.58,110.62,16.57,164.29c10.72,52.37,26.7,103.83,47.5,152.99c20.44,48.32,45.72,94.89,75.16,138.45
			c29.17,43.17,62.65,83.75,99.54,120.64c36.89,36.89,77.46,70.37,120.63,99.54c43.56,29.43,90.13,54.71,138.45,75.16
			c49.16,20.8,100.62,36.78,152.99,47.5c53.66,10.98,108.92,16.57,164.29,16.57c55.37,0,110.62-5.58,164.29-16.57
			c52.37-10.72,103.83-26.7,152.99-47.5c48.32-20.44,94.89-45.72,138.45-75.16c43.17-29.17,83.75-62.65,120.63-99.54
			c36.89-36.89,70.37-77.46,99.54-120.64c29.43-43.56,54.71-90.13,75.16-138.45c20.8-49.16,36.78-100.62,47.5-152.99
			c10.98-53.66,16.57-108.92,16.57-164.29c0-55.37-5.58-110.62-16.57-164.28c-10.72-52.37-26.7-103.82-47.5-152.99
			c-20.44-48.32-45.72-94.89-75.16-138.45c-29.17-43.17-62.65-83.75-99.54-120.63c-36.89-36.89-77.46-70.37-120.63-99.54
			c-43.56-29.43-90.13-54.71-138.45-75.16c-49.16-20.8-100.62-36.78-152.99-47.5C2131.77,394.57,2076.52,388.99,2021.15,388.99z
			 M2021.15,369.37c56.69,0,113.27,5.72,168.22,16.96c53.64,10.98,106.34,27.35,156.7,48.65c49.49,20.94,97.18,46.83,141.79,76.97
			c44.21,29.87,85.76,64.15,123.52,101.92c37.77,37.77,72.05,79.32,101.92,123.52c30.14,44.61,56.03,92.3,76.97,141.79
			c21.3,50.35,37.67,103.06,48.65,156.7c11.25,54.95,16.96,111.53,16.96,168.22c0,56.69-5.72,113.27-16.96,168.22
			c-10.98,53.64-27.35,106.34-48.65,156.7c-20.94,49.49-46.83,97.18-76.97,141.79c-29.87,44.21-64.15,85.76-101.92,123.53
			c-37.77,37.77-79.32,72.05-123.52,101.92c-44.61,30.14-92.3,56.03-141.79,76.97c-50.35,21.3-103.06,37.67-156.7,48.65
			c-54.96,11.25-111.53,16.96-168.22,16.96c-56.69,0-113.27-5.72-168.22-16.96c-53.64-10.98-106.34-27.35-156.7-48.65
			c-49.49-20.94-97.18-46.83-141.79-76.97c-44.21-29.87-85.76-64.15-123.53-101.92c-37.77-37.77-72.05-79.32-101.92-123.53
			c-30.14-44.61-56.03-92.3-76.97-141.79c-21.3-50.35-37.67-103.06-48.65-156.7c-11.25-54.96-16.96-111.53-16.96-168.22
			c0-56.69,5.72-113.26,16.96-168.22c10.98-53.64,27.35-106.34,48.65-156.7c20.93-49.49,46.83-97.18,76.97-141.79
			c29.87-44.21,64.15-85.76,101.92-123.53c37.77-37.77,79.32-72.05,123.52-101.92c44.61-30.14,92.3-56.03,141.79-76.97
			c50.35-21.3,103.06-37.67,156.7-48.65C1907.88,375.08,1964.46,369.37,2021.15,369.37z"/>
		<path class="st1" d="M2021.15,327.14c-59.56,0-119.01,6-176.75,17.82c-56.34,11.53-111.7,28.73-164.6,51.1
			c-51.98,21.99-102.09,49.19-148.95,80.86c-46.45,31.38-90.1,67.4-129.79,107.09c-39.68,39.68-75.71,83.34-107.09,129.79
			c-31.67,46.87-58.87,96.97-80.86,148.95c-22.38,52.89-39.57,108.26-51.1,164.6c-11.82,57.74-17.82,117.19-17.82,176.75
			c0,59.56,6,119.01,17.82,176.75c11.53,56.34,28.73,111.7,51.1,164.6c21.99,51.98,49.19,102.09,80.86,148.95
			c31.38,46.45,67.4,90.1,107.09,129.79c39.69,39.69,83.34,75.71,129.79,107.09c46.87,31.67,96.97,58.87,148.95,80.86
			c52.89,22.38,108.26,39.57,164.6,51.1c57.74,11.82,117.19,17.82,176.76,17.82c59.56,0,119.01-6,176.75-17.82
			c56.34-11.53,111.7-28.73,164.6-51.1c51.98-21.99,102.09-49.19,148.95-80.86c46.45-31.38,90.1-67.41,129.79-107.09
			c39.69-39.69,75.71-83.34,107.09-129.79c31.67-46.87,58.87-96.97,80.86-148.95c22.38-52.89,39.57-108.26,51.1-164.6
			c11.82-57.74,17.82-117.19,17.82-176.75c0-59.56-6-119.01-17.82-176.75c-11.53-56.34-28.73-111.7-51.1-164.59
			c-21.99-51.98-49.19-102.09-80.86-148.95c-31.38-46.45-67.4-90.1-107.09-129.79c-39.69-39.69-83.34-75.71-129.79-107.09
			c-46.87-31.67-96.97-58.87-148.95-80.86c-52.89-22.38-108.26-39.57-164.6-51.1C2140.16,333.15,2080.71,327.14,2021.15,327.14z
			 M2021.15,306.01c60.98,0,121.86,6.15,180.99,18.25c57.71,11.81,114.41,29.42,168.59,52.34c53.24,22.52,104.55,50.38,152.55,82.81
			c47.56,32.13,92.27,69.02,132.9,109.66c40.64,40.64,77.52,85.34,109.66,132.9c32.43,48,60.29,99.31,82.81,152.55
			c22.92,54.18,40.53,110.88,52.34,168.59c12.1,59.13,18.25,120,18.25,180.99c0,60.98-6.15,121.86-18.25,180.99
			c-11.81,57.71-29.42,114.41-52.34,168.59c-22.52,53.24-50.38,104.55-82.81,152.55c-32.13,47.56-69.02,92.27-109.66,132.9
			c-40.64,40.64-85.34,77.52-132.9,109.66c-48,32.43-99.31,60.29-152.55,82.81c-54.18,22.92-110.88,40.53-168.59,52.34
			c-59.13,12.1-120.01,18.25-180.99,18.25c-60.98,0-121.86-6.15-180.99-18.25c-57.71-11.81-114.41-29.42-168.59-52.34
			c-53.24-22.52-104.55-50.38-152.55-82.81c-47.56-32.14-92.27-69.02-132.9-109.66c-40.64-40.64-77.52-85.34-109.66-132.9
			c-32.43-48-60.29-99.31-82.81-152.55c-22.92-54.18-40.53-110.89-52.34-168.59c-12.1-59.13-18.25-120.01-18.25-180.99
			c0-60.98,6.15-121.86,18.25-180.99c11.81-57.71,29.42-114.41,52.34-168.59c22.52-53.24,50.38-104.55,82.81-152.55
			c32.13-47.56,69.02-92.27,109.66-132.9c40.64-40.64,85.34-77.52,132.9-109.66c48-32.43,99.31-60.29,152.55-82.81
			c54.18-22.92,110.89-40.53,168.59-52.34C1899.29,312.16,1960.16,306.01,2021.15,306.01z"/>
		<path class="st1" d="M2021.15,265.29c-63.76,0-127.4,6.43-189.22,19.08c-60.31,12.34-119.58,30.75-176.21,54.71
			c-55.65,23.54-109.29,52.66-159.46,86.56c-49.72,33.59-96.46,72.16-138.94,114.64c-42.48,42.48-81.05,89.22-114.64,138.94
			c-33.9,50.17-63.02,103.81-86.56,159.46c-23.95,56.63-42.36,115.9-54.71,176.21c-12.65,61.82-19.08,125.46-19.08,189.22
			c0,63.76,6.43,127.4,19.08,189.22c12.34,60.31,30.75,119.58,54.71,176.21c23.54,55.65,52.66,109.29,86.56,159.46
			c33.59,49.72,72.16,96.46,114.64,138.95c42.48,42.48,89.22,81.05,138.94,114.64c50.17,33.9,103.81,63.02,159.46,86.56
			c56.63,23.96,115.9,42.36,176.21,54.71c61.82,12.65,125.46,19.08,189.22,19.08c63.76,0,127.4-6.43,189.22-19.08
			c60.31-12.34,119.58-30.75,176.2-54.71c55.65-23.54,109.29-52.66,159.46-86.56c49.72-33.59,96.46-72.16,138.94-114.64
			c42.48-42.48,81.05-89.22,114.64-138.94c33.9-50.18,63.02-103.81,86.56-159.46c23.96-56.63,42.36-115.9,54.71-176.21
			c12.65-61.82,19.08-125.46,19.08-189.22c0-63.76-6.43-127.4-19.08-189.22c-12.34-60.31-30.75-119.58-54.71-176.2
			c-23.54-55.65-52.66-109.28-86.56-159.46c-33.59-49.72-72.16-96.46-114.64-138.94c-42.48-42.48-89.22-81.05-138.94-114.64
			c-50.17-33.9-103.81-63.02-159.46-86.56c-56.63-23.96-115.9-42.36-176.21-54.71C2148.55,271.72,2084.91,265.29,2021.15,265.29z
			 M2021.15,242.65c65.28,0,130.45,6.58,193.76,19.54c61.77,12.64,122.48,31.5,180.49,56.04c57,24.11,111.93,53.93,163.31,88.65
			c50.92,34.4,98.78,73.89,142.28,117.39c43.5,43.5,82.99,91.36,117.39,142.28c34.72,51.39,64.54,106.32,88.65,163.31
			c24.54,58,43.39,118.71,56.04,180.49c12.96,63.31,19.54,128.48,19.54,193.76c0,65.28-6.58,130.45-19.54,193.76
			c-12.64,61.77-31.5,122.48-56.03,180.49c-24.11,57-53.93,111.93-88.65,163.32c-34.4,50.92-73.89,98.78-117.39,142.28
			c-43.5,43.5-91.36,82.99-142.28,117.4c-51.39,34.72-106.32,64.54-163.31,88.65c-58,24.54-118.71,43.39-180.49,56.04
			c-63.31,12.96-128.48,19.54-193.76,19.54c-65.28,0-130.45-6.58-193.76-19.54c-61.77-12.64-122.48-31.5-180.49-56.04
			c-57-24.11-111.93-53.93-163.32-88.65c-50.92-34.4-98.78-73.89-142.28-117.4c-43.5-43.5-82.99-91.36-117.39-142.28
			c-34.72-51.39-64.54-106.32-88.65-163.31c-24.54-58-43.39-118.71-56.04-180.49c-12.96-63.31-19.54-128.48-19.54-193.76
			c0-65.28,6.58-130.45,19.54-193.75c12.64-61.77,31.5-122.48,56.03-180.48c24.11-56.99,53.93-111.93,88.65-163.31
			c34.4-50.92,73.89-98.78,117.39-142.28c43.5-43.5,91.36-82.99,142.28-117.39c51.39-34.72,106.32-64.54,163.31-88.65
			c58-24.54,118.71-43.39,180.49-56.04C1890.69,249.23,1955.87,242.65,2021.15,242.65z"/>
		<path class="st1" d="M2021.15,203.44c-67.95,0-135.79,6.85-201.69,20.33c-64.28,13.16-127.45,32.78-187.82,58.31
			c-59.31,25.09-116.48,56.13-169.97,92.26c-53,35.81-102.82,76.91-148.1,122.2c-45.28,45.28-86.39,95.1-122.2,148.1
			c-36.13,53.48-67.17,110.65-92.26,169.97c-25.53,60.36-45.15,123.54-58.31,187.81c-13.49,65.89-20.33,133.73-20.33,201.68
			c0,67.95,6.85,135.79,20.33,201.68c13.16,64.28,32.78,127.45,58.31,187.81c25.09,59.31,56.13,116.49,92.26,169.97
			c35.81,53,76.91,102.82,122.2,148.1c45.28,45.28,95.1,86.39,148.1,122.2c53.48,36.13,110.65,67.17,169.97,92.26
			c60.36,25.53,123.54,45.15,187.82,58.31c65.89,13.49,133.73,20.33,201.69,20.33c67.95,0,135.79-6.85,201.68-20.33
			c64.28-13.16,127.45-32.78,187.81-58.31c59.31-25.09,116.48-56.13,169.97-92.26c53-35.81,102.82-76.91,148.1-122.2
			c45.28-45.28,86.39-95.1,122.2-148.1c36.13-53.48,67.17-110.65,92.26-169.97c25.53-60.36,45.15-123.54,58.31-187.82
			c13.49-65.89,20.33-133.73,20.33-201.69c0-67.95-6.85-135.79-20.33-201.68c-13.16-64.28-32.78-127.45-58.31-187.81
			c-25.09-59.31-56.13-116.48-92.26-169.97c-35.81-53-76.91-102.82-122.2-148.1c-45.28-45.28-95.1-86.39-148.1-122.2
			c-53.48-36.13-110.65-67.17-169.97-92.26c-60.36-25.53-123.54-45.15-187.82-58.31C2156.94,210.29,2089.1,203.44,2021.15,203.44z
			 M2021.15,179.29c69.58,0,139.04,7.01,206.53,20.82c65.84,13.48,130.55,33.57,192.38,59.73c60.75,25.7,119.3,57.49,174.08,94.49
			c54.27,36.67,105.29,78.76,151.66,125.13c46.37,46.37,88.46,97.38,125.13,151.66c37.01,54.77,68.8,113.33,94.49,174.08
			c26.15,61.83,46.25,126.54,59.73,192.38c13.81,67.48,20.82,136.95,20.82,206.52c0,69.58-7.01,139.04-20.82,206.53
			c-13.48,65.84-33.57,130.55-59.73,192.38c-25.7,60.75-57.49,119.3-94.49,174.08c-36.67,54.27-78.76,105.29-125.13,151.66
			c-46.37,46.37-97.38,88.46-151.65,125.13c-54.77,37.01-113.33,68.8-174.08,94.49c-61.83,26.16-126.54,46.25-192.38,59.73
			c-67.48,13.81-136.95,20.83-206.53,20.83c-69.58,0-139.05-7.01-206.53-20.82c-65.84-13.48-130.55-33.57-192.38-59.73
			c-60.75-25.7-119.3-57.49-174.08-94.5c-54.27-36.67-105.29-78.76-151.66-125.13c-46.37-46.37-88.46-97.38-125.13-151.66
			c-37.01-54.77-68.8-113.33-94.49-174.08c-26.15-61.83-46.25-126.54-59.73-192.38c-13.81-67.48-20.82-136.95-20.82-206.53
			c0-69.57,7.01-139.04,20.82-206.52c13.48-65.84,33.57-130.55,59.73-192.38c25.7-60.75,57.49-119.3,94.49-174.08
			c36.67-54.27,78.76-105.29,125.13-151.66c46.37-46.37,97.38-88.46,151.66-125.13c54.77-37.01,113.33-68.8,174.08-94.49
			c61.83-26.16,126.54-46.25,192.38-59.73C1882.1,186.3,1951.57,179.29,2021.15,179.29z"/>
		<path class="st1" d="M2021.15,141.59c-72.15,0-144.18,7.27-214.15,21.59c-68.25,13.97-135.33,34.8-199.42,61.91
			c-62.98,26.64-123.68,59.6-180.47,97.97c-56.27,38.02-109.17,81.67-157.25,129.75c-48.08,48.08-91.73,100.98-129.75,157.25
			c-38.37,56.79-71.33,117.5-97.96,180.47c-27.11,64.09-47.95,131.18-61.91,199.42c-14.32,69.97-21.59,142-21.59,214.15
			c0,72.15,7.27,144.18,21.59,214.15c13.97,68.25,34.8,135.33,61.91,199.42c26.64,62.98,59.6,123.68,97.96,180.47
			c38.02,56.27,81.67,109.17,129.75,157.25c48.08,48.08,100.98,91.73,157.25,129.75c56.79,38.37,117.5,71.33,180.47,97.97
			c64.1,27.11,131.18,47.95,199.43,61.91c69.97,14.32,142.01,21.59,214.15,21.59c72.15,0,144.18-7.27,214.15-21.59
			c68.25-13.97,135.33-34.8,199.42-61.91c62.98-26.64,123.68-59.6,180.47-97.97c56.27-38.02,109.17-81.67,157.25-129.75
			c48.08-48.08,91.73-100.98,129.75-157.25c38.37-56.79,71.33-117.5,97.97-180.47c27.11-64.1,47.95-131.18,61.91-199.43
			c14.32-69.97,21.59-142,21.59-214.15c0-72.15-7.27-144.18-21.59-214.15c-13.97-68.25-34.8-135.33-61.91-199.42
			c-26.64-62.98-59.6-123.68-97.96-180.47c-38.02-56.27-81.67-109.17-129.75-157.25c-48.08-48.08-100.98-91.73-157.25-129.75
			c-56.79-38.37-117.5-71.33-180.47-97.97c-64.09-27.11-131.18-47.95-199.42-61.91C2165.33,148.86,2093.29,141.59,2021.15,141.59z
			 M2021.15,115.93c73.87,0,147.64,7.45,219.29,22.11c69.91,14.31,138.62,35.65,204.27,63.42c64.5,27.29,126.68,61.04,184.84,100.34
			c57.63,38.93,111.79,83.63,161.03,132.87c49.24,49.24,93.93,103.41,132.87,161.03c39.3,58.16,73.05,120.34,100.34,184.84
			c27.77,65.65,49.11,134.37,63.42,204.27c14.67,71.66,22.11,145.42,22.11,219.29c0,73.87-7.45,147.64-22.11,219.29
			c-14.31,69.91-35.65,138.62-63.42,204.28c-27.28,64.5-61.04,126.68-100.34,184.84c-38.93,57.63-83.63,111.8-132.87,161.03
			c-49.24,49.24-103.41,93.93-161.03,132.87c-58.16,39.3-120.34,73.05-184.84,100.34c-65.65,27.77-134.37,49.11-204.28,63.42
			c-71.66,14.67-145.42,22.11-219.29,22.11c-73.87,0-147.64-7.45-219.3-22.11c-69.91-14.31-138.62-35.65-204.28-63.42
			c-64.5-27.29-126.68-61.04-184.84-100.34c-57.63-38.93-111.79-83.63-161.03-132.87c-49.24-49.24-93.93-103.41-132.87-161.03
			c-39.3-58.16-73.05-120.34-100.33-184.84c-27.77-65.65-49.11-134.37-63.42-204.28c-14.67-71.66-22.11-145.42-22.11-219.29
			c0-73.87,7.45-147.63,22.11-219.29c14.31-69.91,35.65-138.62,63.42-204.27c27.28-64.5,61.04-126.68,100.33-184.84
			c38.93-57.63,83.63-111.8,132.87-161.03c49.24-49.24,103.41-93.93,161.03-132.87c58.16-39.3,120.34-73.05,184.84-100.34
			c65.65-27.77,134.37-49.11,204.28-63.42C1873.51,123.38,1947.27,115.93,2021.15,115.93z"/>
		<path class="st1" d="M2021.15,79.74c-76.34,0-152.57,7.69-226.62,22.85c-72.22,14.78-143.21,36.82-211.03,65.52
			c-66.64,28.19-130.88,63.07-190.98,103.67c-59.55,40.23-115.53,86.42-166.41,137.3c-50.88,50.88-97.07,106.86-137.3,166.41
			c-40.6,60.1-75.48,124.34-103.67,190.98c-28.69,67.83-50.74,138.82-65.52,211.03c-15.15,74.04-22.85,150.27-22.85,226.61
			c0,76.34,7.69,152.57,22.85,226.62c14.78,72.22,36.82,143.21,65.52,211.03c28.19,66.64,63.07,130.88,103.67,190.98
			c40.23,59.55,86.42,115.53,137.3,166.41c50.88,50.88,106.86,97.07,166.41,137.3c60.1,40.6,124.34,75.48,190.98,103.67
			c67.83,28.69,138.82,50.74,211.04,65.52c74.05,15.15,150.28,22.85,226.62,22.85c76.34,0,152.57-7.69,226.62-22.85
			c72.22-14.78,143.2-36.82,211.03-65.52c66.64-28.19,130.88-63.07,190.98-103.67c59.55-40.23,115.53-86.42,166.41-137.3
			c50.88-50.88,97.07-106.86,137.3-166.41c40.6-60.1,75.48-124.34,103.67-190.98c28.69-67.83,50.74-138.82,65.52-211.03
			c15.15-74.05,22.85-150.28,22.85-226.62c0-76.34-7.69-152.57-22.85-226.61c-14.78-72.22-36.82-143.2-65.52-211.03
			c-28.19-66.64-63.06-130.88-103.67-190.98c-40.23-59.55-86.42-115.53-137.3-166.41c-50.88-50.88-106.86-97.07-166.41-137.3
			c-60.1-40.6-124.34-75.48-190.98-103.67c-67.83-28.69-138.82-50.74-211.03-65.52C2173.72,87.43,2097.49,79.74,2021.15,79.74z
			 M2021.15,52.57c78.17,0,156.23,7.88,232.06,23.4c73.97,15.14,146.69,37.72,216.17,67.11c68.26,28.87,134.05,64.59,195.6,106.18
			c60.98,41.2,118.3,88.5,170.41,140.6c52.1,52.1,99.4,109.43,140.6,170.41c41.58,61.55,77.3,127.35,106.18,195.6
			c29.39,69.48,51.97,142.19,67.11,216.17c15.52,75.83,23.4,153.89,23.4,232.06c0,78.17-7.88,156.23-23.4,232.06
			c-15.14,73.97-37.72,146.69-67.11,216.17c-28.87,68.26-64.59,134.06-106.18,195.61c-41.2,60.98-88.5,118.31-140.6,170.41
			c-52.1,52.1-109.43,99.41-170.41,140.6c-61.55,41.58-127.35,77.31-195.6,106.18c-69.48,29.39-142.2,51.97-216.17,67.11
			c-75.83,15.52-153.89,23.4-232.06,23.4c-78.17,0-156.23-7.88-232.06-23.4c-73.97-15.14-146.69-37.72-216.17-67.11
			c-68.26-28.87-134.06-64.59-195.6-106.18c-60.98-41.2-118.3-88.5-170.41-140.61c-52.1-52.1-99.4-109.43-140.6-170.41
			c-41.58-61.55-77.3-127.35-106.18-195.6c-29.39-69.48-51.97-142.2-67.11-216.17c-15.52-75.83-23.4-153.89-23.4-232.06
			c0-78.17,7.88-156.23,23.4-232.06c15.14-73.97,37.72-146.69,67.11-216.17c28.87-68.26,64.59-134.05,106.18-195.6
			c41.2-60.98,88.5-118.3,140.6-170.41c52.1-52.1,109.43-99.4,170.41-140.6c61.55-41.58,127.35-77.31,195.6-106.18
			c69.48-29.39,142.2-51.97,216.17-67.11C1864.92,60.45,1942.98,52.57,2021.15,52.57z"/>
		<path class="st1" d="M2021.15,17.88c-80.54,0-160.96,8.12-239.08,24.1c-76.19,15.59-151.08,38.85-222.64,69.12
			c-70.3,29.74-138.08,66.53-201.49,109.37c-62.82,42.44-121.88,91.17-175.56,144.86c-53.68,53.68-102.41,112.74-144.85,175.56
			c-42.84,63.4-79.63,131.18-109.37,201.48c-30.27,71.56-53.53,146.46-69.12,222.64c-15.99,78.12-24.1,158.54-24.1,239.08
			c0,80.54,8.12,160.96,24.1,239.08c15.59,76.19,38.85,151.08,69.12,222.64c29.74,70.3,66.53,138.08,109.37,201.49
			c42.44,62.82,91.17,121.88,144.86,175.56c53.68,53.68,112.74,102.41,175.56,144.86c63.4,42.84,131.18,79.63,201.49,109.37
			c71.56,30.27,146.46,53.53,222.65,69.12c78.12,15.99,158.55,24.1,239.09,24.1c80.54,0,160.96-8.12,239.08-24.1
			c76.19-15.59,151.08-38.85,222.64-69.12c70.3-29.74,138.08-66.53,201.49-109.37c62.82-42.44,121.88-91.18,175.56-144.86
			c53.68-53.68,102.41-112.74,144.86-175.56c42.84-63.4,79.63-131.18,109.37-201.49c30.27-71.56,53.53-146.46,69.12-222.64
			c15.99-78.12,24.1-158.55,24.1-239.08c0-80.53-8.12-160.96-24.1-239.08c-15.59-76.19-38.85-151.08-69.12-222.64
			c-29.74-70.3-66.53-138.08-109.37-201.49c-42.44-62.82-91.17-121.88-144.86-175.56c-53.68-53.68-112.74-102.41-175.56-144.86
			c-63.4-42.84-131.18-79.63-201.48-109.37c-71.56-30.27-146.46-53.53-222.64-69.12C2182.11,26,2101.68,17.88,2021.15,17.88z
			 M2021.15-10.79c82.46,0,164.82,8.31,244.83,24.69c78.04,15.97,154.76,39.8,228.06,70.8c72.01,30.46,141.43,68.15,206.37,112.02
			c64.33,43.47,124.81,93.37,179.79,148.34c54.97,54.97,104.87,115.45,148.34,179.79c43.87,64.94,81.56,134.36,112.02,206.37
			c31.01,73.3,54.83,150.02,70.8,228.06c16.37,80.01,24.69,162.37,24.69,244.83c0,82.46-8.31,164.82-24.69,244.83
			c-15.97,78.04-39.79,154.76-70.8,228.06c-30.46,72.01-68.15,141.43-112.02,206.37c-43.47,64.34-93.37,124.82-148.34,179.79
			c-54.97,54.97-115.45,104.88-179.78,148.34c-64.94,43.87-134.36,81.56-206.37,112.02c-73.3,31.01-150.02,54.83-228.06,70.8
			c-80.01,16.37-162.37,24.69-244.83,24.69c-82.46,0-164.82-8.31-244.83-24.69c-78.04-15.97-154.76-39.8-228.07-70.8
			c-72.01-30.46-141.43-68.15-206.37-112.02c-64.33-43.47-124.81-93.37-179.79-148.34c-54.97-54.97-104.87-115.45-148.34-179.79
			c-43.87-64.94-81.56-134.36-112.02-206.37c-31.01-73.31-54.83-150.02-70.8-228.07c-16.37-80.01-24.69-162.37-24.69-244.83
			c0-82.46,8.31-164.82,24.69-244.83c15.97-78.04,39.79-154.76,70.8-228.06c30.46-72.01,68.15-141.43,112.02-206.37
			c43.47-64.33,93.37-124.81,148.34-179.79c54.97-54.97,115.45-104.87,179.79-148.34c64.94-43.87,134.36-81.56,206.37-112.02
			c73.31-31.01,150.02-54.83,228.07-70.8C1856.32-2.48,1938.68-10.79,2021.15-10.79z"/>
		<path class="st1" d="M2021.15-43.97c-84.73,0-169.35,8.54-251.55,25.36c-80.16,16.4-158.96,40.87-234.25,72.72
			c-73.97,31.29-145.28,70-211.99,115.07c-66.1,44.66-128.24,95.93-184.72,152.41c-56.48,56.48-107.75,118.62-152.41,184.72
			c-45.07,66.71-83.78,138.02-115.07,211.99c-31.85,75.3-56.32,154.1-72.72,234.25c-16.82,82.2-25.36,166.82-25.36,251.55
			c0,84.73,8.54,169.35,25.36,251.55c16.4,80.16,40.87,158.96,72.72,234.25c31.29,73.97,70,145.28,115.07,211.99
			c44.66,66.1,95.93,128.24,152.41,184.72c56.48,56.48,118.62,107.75,184.72,152.41c66.71,45.07,138.02,83.79,211.99,115.07
			c75.3,31.85,154.1,56.32,234.25,72.72c82.2,16.82,166.82,25.36,251.55,25.36c84.73,0,169.35-8.54,251.55-25.36
			c80.16-16.4,158.96-40.87,234.25-72.72c73.97-31.29,145.28-70,211.99-115.07c66.1-44.66,128.24-95.93,184.72-152.41
			c56.48-56.48,107.75-118.62,152.41-184.72c45.07-66.71,83.78-138.03,115.07-211.99c31.85-75.3,56.32-154.1,72.72-234.25
			c16.82-82.2,25.36-166.82,25.36-251.55c0-84.73-8.54-169.35-25.36-251.54c-16.4-80.15-40.87-158.96-72.72-234.25
			c-31.29-73.97-70-145.28-115.07-211.99c-44.66-66.1-95.93-128.24-152.41-184.72c-56.48-56.48-118.62-107.75-184.72-152.41
			c-66.71-45.07-138.02-83.78-211.99-115.07c-75.3-31.85-154.1-56.32-234.25-72.72C2190.5-35.43,2105.88-43.97,2021.15-43.97z
			 M2021.15-74.15c86.76,0,173.41,8.74,257.6,25.97c82.11,16.8,162.83,41.87,239.96,74.5c75.76,32.05,148.8,71.7,217.13,117.86
			c67.69,45.73,131.32,98.24,189.16,156.08c57.84,57.84,110.34,121.47,156.08,189.16c46.16,68.33,85.81,141.37,117.86,217.13
			c32.63,77.13,57.69,157.85,74.49,239.96c17.23,84.18,25.97,170.84,25.97,257.6c0,86.76-8.74,173.41-25.97,257.6
			c-16.8,82.11-41.87,162.83-74.49,239.96c-32.05,75.76-71.7,148.81-117.86,217.13c-45.73,67.69-98.24,131.33-156.08,189.16
			c-57.84,57.84-121.47,110.35-189.16,156.08c-68.33,46.16-141.37,85.81-217.13,117.86c-77.13,32.63-157.85,57.69-239.96,74.5
			c-84.18,17.23-170.84,25.97-257.6,25.97c-86.76,0-173.42-8.74-257.6-25.97c-82.11-16.8-162.83-41.87-239.96-74.5
			c-75.76-32.05-148.81-71.7-217.13-117.86c-67.69-45.73-131.32-98.24-189.16-156.08c-57.84-57.84-110.34-121.47-156.08-189.16
			c-46.16-68.33-85.81-141.37-117.86-217.13c-32.63-77.13-57.69-157.85-74.49-239.96c-17.23-84.18-25.97-170.84-25.97-257.6
			c0-86.76,8.74-173.41,25.97-257.59c16.8-82.11,41.87-162.83,74.49-239.96c32.05-75.76,71.7-148.8,117.86-217.13
			c45.73-67.69,98.24-131.32,156.08-189.16c57.84-57.84,121.47-110.35,189.16-156.08c68.33-46.16,141.37-85.81,217.13-117.86
			c77.13-32.63,157.85-57.69,239.96-74.5C1847.73-65.4,1934.39-74.15,2021.15-74.15z"/>
		<path class="st1" d="M2021.15-105.82c-88.93,0-177.74,8.96-264.02,26.62c-84.12,17.22-166.83,42.9-245.86,76.33
			c-77.63,32.84-152.48,73.47-222.5,120.78c-69.37,46.87-134.59,100.68-193.87,159.96c-59.28,59.28-113.09,124.5-159.96,193.87
			c-47.3,70.02-87.94,144.87-120.77,222.5c-33.43,79.03-59.11,161.74-76.33,245.86c-17.66,86.27-26.62,175.09-26.62,264.01
			c0,88.93,8.96,177.74,26.62,264.01c17.22,84.12,42.9,166.83,76.33,245.86c32.84,77.63,73.47,152.48,120.77,222.5
			c46.87,69.37,100.68,134.59,159.96,193.87c59.28,59.28,124.5,113.09,193.87,159.96c70.02,47.31,144.87,87.94,222.5,120.78
			c79.03,33.43,161.74,59.11,245.86,76.33c86.28,17.66,175.09,26.62,264.02,26.62c88.93,0,177.74-8.96,264.01-26.62
			c84.12-17.22,166.83-42.9,245.86-76.33c77.63-32.84,152.48-73.47,222.5-120.78c69.37-46.87,134.59-100.68,193.87-159.96
			c59.28-59.28,113.09-124.5,159.96-193.87c47.3-70.02,87.94-144.87,120.77-222.5c33.43-79.03,59.11-161.74,76.33-245.86
			c17.66-86.28,26.62-175.09,26.62-264.02c0-88.92-8.96-177.74-26.62-264.01c-17.22-84.12-42.9-166.83-76.33-245.86
			c-32.84-77.63-73.47-152.48-120.77-222.5c-46.87-69.37-100.68-134.59-159.96-193.87c-59.28-59.28-124.5-113.09-193.87-159.96
			c-70.02-47.3-144.87-87.94-222.5-120.78C2452-36.3,2369.29-61.99,2285.16-79.2C2198.89-96.86,2110.07-105.82,2021.15-105.82z
			 M2021.15-137.51c91.06,0,182.01,9.18,270.37,27.26c86.17,17.64,170.9,43.94,251.85,78.19c79.52,33.64,156.18,75.25,227.89,123.7
			c71.04,48,137.83,103.11,198.54,163.81c60.71,60.71,115.81,127.5,163.81,198.54c48.45,71.71,90.07,148.38,123.7,227.89
			c34.24,80.95,60.55,165.68,78.19,251.85c18.08,88.36,27.26,179.31,27.26,270.36c0,91.06-9.18,182.01-27.26,270.37
			c-17.64,86.17-43.94,170.9-78.19,251.85c-33.63,79.52-75.25,156.18-123.7,227.89c-48,71.04-103.11,137.84-163.81,198.54
			c-60.71,60.71-127.5,115.82-198.54,163.81c-71.71,48.45-148.38,90.07-227.89,123.7c-80.95,34.24-165.68,60.55-251.85,78.19
			c-88.36,18.08-179.31,27.26-270.37,27.26c-91.06,0-182.01-9.18-270.37-27.26c-86.17-17.64-170.9-43.94-251.85-78.19
			c-79.52-33.64-156.18-75.25-227.89-123.7c-71.04-48-137.83-103.11-198.54-163.81c-60.71-60.71-115.81-127.5-163.81-198.54
			c-48.45-71.71-90.07-148.38-123.7-227.89c-34.24-80.96-60.55-165.68-78.19-251.85c-18.08-88.36-27.26-179.31-27.26-270.37
			c0-91.05,9.18-182,27.26-270.36c17.64-86.17,43.94-170.9,78.19-251.85c33.63-79.52,75.25-156.18,123.7-227.89
			c48-71.04,103.11-137.83,163.81-198.54c60.71-60.71,127.5-115.82,198.54-163.81c71.71-48.45,148.38-90.07,227.89-123.7
			c80.96-34.24,165.68-60.55,251.86-78.19C1839.14-128.33,1930.09-137.51,2021.15-137.51z"/>
		<path class="st1" d="M2021.15-167.67c-93.12,0-186.13,9.38-276.48,27.87c-88.09,18.03-174.71,44.92-257.47,79.93
			c-81.3,34.39-159.68,76.94-233.01,126.48c-72.65,49.08-140.95,105.44-203.03,167.52c-62.08,62.08-118.43,130.38-167.51,203.03
			c-49.54,73.33-92.09,151.71-126.48,233c-35.01,82.76-61.9,169.38-79.93,257.47c-18.49,90.35-27.87,183.36-27.87,276.48
			c0,93.12,9.38,186.13,27.87,276.48c18.03,88.09,44.92,174.71,79.93,257.47c34.39,81.3,76.94,159.68,126.48,233.01
			c49.08,72.65,105.44,140.95,167.51,203.03c62.08,62.08,130.38,118.44,203.03,167.52c73.33,49.54,151.71,92.09,233.01,126.48
			c82.76,35.01,169.38,61.9,257.47,79.93c90.35,18.49,183.36,27.87,276.48,27.87c93.12,0,186.13-9.38,276.48-27.87
			c88.09-18.03,174.71-44.92,257.47-79.93c81.29-34.39,159.68-76.94,233-126.48c72.65-49.08,140.95-105.44,203.03-167.52
			c62.08-62.08,118.43-130.38,167.51-203.03c49.54-73.33,92.09-151.71,126.48-233.01c35.01-82.76,61.9-169.38,79.93-257.47
			c18.49-90.35,27.87-183.36,27.87-276.48c0-93.12-9.38-186.13-27.87-276.48c-18.03-88.09-44.92-174.71-79.93-257.47
			c-34.39-81.29-76.94-159.68-126.48-233c-49.08-72.65-105.44-140.95-167.52-203.03c-62.08-62.08-130.38-118.43-203.03-167.52
			c-73.32-49.54-151.71-92.09-233-126.48c-82.76-35.01-169.38-61.9-257.47-79.93C2207.28-158.29,2114.27-167.67,2021.15-167.67z
			 M2021.15-200.87c95.35,0,190.6,9.61,283.13,28.55c90.24,18.47,178.97,46.02,263.75,81.88c83.27,35.22,163.56,78.81,238.66,129.54
			c74.4,50.26,144.34,107.98,207.92,171.55c63.57,63.57,121.29,133.52,171.55,207.92c50.74,75.1,94.32,155.39,129.54,238.66
			c35.86,84.78,63.41,173.51,81.88,263.75c18.94,92.53,28.55,187.78,28.55,283.13c0,95.35-9.61,190.6-28.55,283.13
			c-18.47,90.24-46.02,178.97-81.88,263.75c-35.22,83.27-78.81,163.56-129.54,238.66c-50.26,74.4-107.98,144.35-171.55,207.92
			c-63.57,63.57-133.52,121.29-207.92,171.55c-75.1,50.74-155.39,94.32-238.66,129.55c-84.78,35.86-173.51,63.41-263.75,81.88
			c-92.54,18.94-187.78,28.55-283.14,28.55c-95.35,0-190.6-9.61-283.14-28.55c-90.24-18.47-178.97-46.02-263.75-81.88
			c-83.27-35.22-163.56-78.81-238.66-129.55c-74.4-50.26-144.34-107.98-207.92-171.55c-63.57-63.57-121.28-133.52-171.55-207.92
			c-50.74-75.1-94.32-155.39-129.54-238.66c-35.86-84.78-63.41-173.51-81.88-263.75c-18.94-92.54-28.55-187.78-28.55-283.14
			c0-95.35,9.61-190.6,28.55-283.13c18.47-90.24,46.02-178.97,81.88-263.75c35.22-83.27,78.8-163.56,129.54-238.66
			c50.26-74.4,107.98-144.34,171.55-207.92c63.57-63.57,133.52-121.29,207.92-171.55c75.1-50.74,155.39-94.32,238.66-129.54
			c84.78-35.86,173.51-63.41,263.75-81.88C1830.55-191.26,1925.8-200.87,2021.15-200.87z"/>
		<path class="st1" d="M2021.15-229.52c-97.32,0-194.52,9.81-288.95,29.13c-92.06,18.84-182.59,46.95-269.08,83.53
			c-84.96,35.94-166.88,80.41-243.51,132.18c-75.92,51.29-147.3,110.19-212.18,175.07c-64.88,64.88-123.77,136.26-175.07,212.18
			c-51.77,76.63-96.24,158.55-132.18,243.51c-36.59,86.5-64.69,177.02-83.53,269.08c-19.32,94.43-29.13,191.63-29.13,288.94
			c0,97.31,9.81,194.52,29.13,288.95c18.84,92.06,46.95,182.58,83.53,269.08c35.94,84.96,80.41,166.88,132.18,243.51
			c51.29,75.92,110.19,147.3,175.07,212.18c64.88,64.88,136.26,123.78,212.18,175.07c76.63,51.77,158.55,96.24,243.51,132.18
			c86.5,36.59,177.02,64.69,269.08,83.53c94.43,19.32,191.63,29.13,288.95,29.13c97.31,0,194.52-9.81,288.95-29.13
			c92.06-18.84,182.58-46.95,269.08-83.53c84.96-35.94,166.88-80.41,243.51-132.18c75.92-51.29,147.3-110.19,212.18-175.07
			c64.88-64.88,123.77-136.26,175.07-212.18c51.77-76.63,96.24-158.55,132.18-243.51c36.59-86.5,64.69-177.02,83.53-269.08
			c19.32-94.43,29.13-191.63,29.13-288.95c0-97.31-9.81-194.52-29.13-288.94c-18.84-92.06-46.95-182.58-83.53-269.08
			c-35.94-84.96-80.41-166.88-132.18-243.51c-51.29-75.92-110.19-147.3-175.07-212.18c-64.88-64.88-136.26-123.78-212.18-175.07
			c-76.63-51.77-158.55-96.24-243.51-132.18c-86.5-36.59-177.02-64.69-269.08-83.53C2215.67-219.72,2118.46-229.52,2021.15-229.52z
			 M2021.15-264.23c99.65,0,199.19,10.04,295.9,29.83c94.31,19.3,187.04,48.09,275.64,85.57c87.02,36.81,170.93,82.36,249.42,135.39
			c77.75,52.53,150.85,112.85,217.29,179.29c66.44,66.44,126.76,139.54,179.28,217.29c53.03,78.49,98.58,162.4,135.39,249.42
			c37.48,88.6,66.27,181.33,85.57,275.64c19.79,96.71,29.83,196.25,29.83,295.9c0,99.65-10.04,199.19-29.83,295.9
			c-19.3,94.31-48.09,187.04-85.57,275.64c-36.81,87.02-82.36,170.93-135.39,249.42c-52.53,77.75-112.85,150.86-179.29,217.3
			c-66.44,66.44-139.54,126.76-217.29,179.29c-78.49,53.03-162.4,98.58-249.42,135.39c-88.61,37.48-181.33,66.27-275.64,85.57
			c-96.71,19.79-196.26,29.83-295.9,29.83c-99.65,0-199.19-10.04-295.91-29.83c-94.31-19.3-187.04-48.09-275.64-85.57
			c-87.02-36.81-170.93-82.36-249.42-135.39c-77.75-52.53-150.85-112.85-217.29-179.29c-66.44-66.44-126.75-139.54-179.28-217.29
			c-53.03-78.49-98.58-162.4-135.38-249.42c-37.48-88.61-66.27-181.34-85.57-275.64c-19.79-96.71-29.83-196.26-29.83-295.9
			c0-99.65,10.04-199.19,29.83-295.9c19.3-94.31,48.09-187.03,85.57-275.64c36.81-87.02,82.36-170.93,135.38-249.42
			c52.53-77.75,112.85-150.85,179.28-217.29c66.44-66.44,139.54-126.76,217.29-179.29c78.49-53.03,162.4-98.58,249.42-135.39
			c88.61-37.48,181.34-66.27,275.64-85.57C1821.95-254.18,1921.5-264.23,2021.15-264.23z"/>
		<path class="st1" d="M2021.15-291.37c-101.51,0-202.91,10.23-301.42,30.39c-96.03,19.65-190.46,48.97-280.69,87.14
			c-88.62,37.49-174.08,83.87-254.02,137.88c-79.2,53.51-153.66,114.94-221.34,182.62c-67.68,67.68-129.11,142.14-182.62,221.34
			c-54.01,79.94-100.4,165.39-137.88,254.02c-38.17,90.23-67.48,184.66-87.14,280.69c-20.16,98.5-30.39,199.9-30.39,301.41
			c0,101.51,10.23,202.91,30.39,301.41c19.65,96.03,48.97,190.46,87.14,280.69c37.49,88.62,83.87,174.08,137.88,254.02
			c53.51,79.2,114.94,153.66,182.62,221.34c67.68,67.68,142.14,129.12,221.34,182.62c79.94,54.01,165.4,100.4,254.02,137.88
			c90.23,38.17,184.66,67.48,280.69,87.14c98.5,20.16,199.91,30.39,301.42,30.39c101.51,0,202.91-10.23,301.41-30.39
			c96.03-19.65,190.46-48.97,280.69-87.14c88.62-37.49,174.08-83.88,254.02-137.88c79.2-53.51,153.66-114.95,221.34-182.62
			c67.68-67.68,129.12-142.14,182.62-221.34c54.01-79.94,100.4-165.4,137.88-254.02c38.17-90.23,67.48-184.66,87.14-280.69
			c20.16-98.5,30.39-199.9,30.39-301.41c0-101.51-10.23-202.9-30.39-301.41c-19.65-96.03-48.97-190.46-87.14-280.69
			c-37.49-88.62-83.87-174.08-137.88-254.02c-53.51-79.2-114.94-153.66-182.62-221.34c-67.68-67.68-142.14-129.12-221.34-182.62
			c-79.94-54.01-165.39-100.4-254.02-137.88c-90.23-38.17-184.66-67.48-280.69-87.14C2224.06-281.15,2122.66-291.37,2021.15-291.37z
			 M2021.15-327.59c103.94,0,207.78,10.47,308.67,31.12c98.37,20.13,195.11,50.17,287.54,89.26
			c90.78,38.4,178.31,85.91,260.18,141.23c81.11,54.8,157.36,117.72,226.67,187.02c69.31,69.31,132.23,145.56,187.02,226.67
			c55.32,81.88,102.83,169.41,141.23,260.18c39.1,92.43,69.13,189.16,89.26,287.53c20.65,100.89,31.12,204.73,31.12,308.67
			c0,103.94-10.47,207.78-31.12,308.67c-20.13,98.37-50.17,195.11-89.26,287.54c-38.4,90.78-85.91,178.31-141.23,260.18
			c-54.8,81.11-117.71,157.36-187.02,226.67c-69.31,69.31-145.56,132.23-226.67,187.02c-81.88,55.32-169.41,102.83-260.18,141.23
			c-92.43,39.1-189.16,69.13-287.54,89.26c-100.89,20.65-204.73,31.12-308.67,31.12c-103.94,0-207.79-10.48-308.67-31.12
			c-98.37-20.13-195.11-50.17-287.54-89.26c-90.78-38.4-178.31-85.91-260.18-141.23c-81.11-54.8-157.36-117.72-226.67-187.02
			c-69.31-69.31-132.22-145.56-187.02-226.67c-55.32-81.88-102.83-169.41-141.23-260.18c-39.1-92.43-69.13-189.16-89.26-287.54
			c-20.65-100.89-31.12-204.73-31.12-308.67c0-103.94,10.47-207.78,31.12-308.67c20.13-98.37,50.16-195.1,89.26-287.53
			c38.4-90.78,85.91-178.31,141.23-260.18c54.8-81.11,117.71-157.36,187.02-226.67c69.31-69.31,145.56-132.23,226.67-187.02
			c81.88-55.32,169.41-102.83,260.18-141.23c92.43-39.1,189.16-69.13,287.54-89.26C1813.36-317.11,1917.2-327.59,2021.15-327.59z"/>
		<path class="st1" d="M2021.15-353.23c-105.71,0-211.3,10.65-313.88,31.64c-100,20.46-198.34,51-292.3,90.74
			c-92.29,39.04-181.28,87.34-264.53,143.59c-82.47,55.72-160.01,119.7-230.49,190.18c-70.48,70.48-134.46,148.02-190.17,230.49
			c-56.24,83.25-104.55,172.24-143.58,264.52c-39.74,93.96-70.27,192.3-90.74,292.3c-20.99,102.58-31.64,208.17-31.64,313.87
			c0,105.7,10.65,211.3,31.64,313.88c20.46,100,50.99,198.34,90.74,292.3c39.04,92.29,87.34,181.28,143.58,264.53
			c55.72,82.47,119.7,160.02,190.17,230.49c70.48,70.48,148.02,134.46,230.49,190.18c83.25,56.24,172.24,104.55,264.52,143.59
			c93.96,39.75,192.3,70.28,292.3,90.74c102.58,20.99,208.18,31.64,313.88,31.64c105.7,0,211.3-10.65,313.88-31.64
			c100-20.46,198.34-51,292.3-90.74c92.29-39.04,181.28-87.34,264.52-143.59c82.47-55.72,160.01-119.7,230.49-190.18
			c70.48-70.48,134.46-148.02,190.17-230.49c56.24-83.25,104.55-172.24,143.58-264.53c39.74-93.96,70.28-192.3,90.74-292.3
			c20.99-102.58,31.64-208.17,31.64-313.88c0-105.7-10.65-211.29-31.64-313.87c-20.46-100-50.99-198.33-90.74-292.3
			c-39.03-92.29-87.34-181.28-143.58-264.52c-55.72-82.47-119.7-160.01-190.17-230.49c-70.48-70.48-148.02-134.46-230.49-190.18
			c-83.25-56.24-172.24-104.55-264.52-143.58c-93.96-39.75-192.3-70.28-292.3-90.74C2232.45-342.58,2126.85-353.23,2021.15-353.23z
			 M2021.15-390.94c108.24,0,216.38,10.91,321.44,32.41c102.44,20.96,203.17,52.24,299.43,92.95
			c94.53,39.98,185.68,89.46,270.95,147.07c84.46,57.06,163.87,122.59,236.05,194.76c72.17,72.17,137.7,151.59,194.76,236.05
			c57.6,85.26,107.08,176.42,147.07,270.94c40.71,96.26,71.99,196.99,92.95,299.43c21.5,105.06,32.41,213.2,32.41,321.44
			c0,108.24-10.91,216.38-32.41,321.44c-20.96,102.44-52.24,203.18-92.95,299.43c-39.98,94.53-89.46,185.68-147.07,270.95
			c-57.06,84.46-122.58,163.87-194.76,236.05c-72.17,72.17-151.58,137.7-236.05,194.76c-85.26,57.61-176.42,107.09-270.95,147.07
			c-96.26,40.72-196.99,71.99-299.43,92.96c-105.06,21.5-213.2,32.41-321.44,32.41c-108.24,0-216.38-10.91-321.44-32.41
			c-102.44-20.96-203.18-52.24-299.43-92.95c-94.53-39.98-185.68-89.47-270.95-147.07c-84.46-57.06-163.87-122.59-236.05-194.76
			c-72.17-72.17-137.7-151.59-194.76-236.05c-57.6-85.26-107.08-176.42-147.07-270.95c-40.71-96.26-71.99-196.99-92.95-299.43
			c-21.5-105.06-32.41-213.2-32.41-321.44c0-108.24,10.91-216.37,32.41-321.44c20.96-102.44,52.24-203.17,92.95-299.43
			c39.98-94.53,89.46-185.68,147.07-270.95c57.06-84.46,122.58-163.87,194.76-236.05c72.17-72.17,151.59-137.7,236.05-194.76
			c85.26-57.6,176.42-107.08,270.95-147.07c96.26-40.72,196.99-71.99,299.43-92.96C1804.77-380.04,1912.91-390.94,2021.15-390.94z"
			/>
		<path class="st1" d="M2021.15-415.08c-109.9,0-219.69,11.07-326.35,32.9c-103.97,21.28-206.21,53.02-303.91,94.34
			c-95.95,40.59-188.48,90.81-275.03,149.29C1030.11-80.62,949.49-14.09,876.21,59.18c-73.28,73.28-139.8,153.9-197.73,239.65
			c-58.48,86.55-108.7,179.08-149.29,275.03c-41.32,97.7-73.07,199.94-94.34,303.91c-21.83,106.66-32.9,216.44-32.9,326.34
			c0,109.9,11.07,219.69,32.9,326.34c21.28,103.97,53.02,206.21,94.34,303.91c40.58,95.95,90.81,188.48,149.29,275.03
			c57.93,85.75,124.45,166.37,197.73,239.65c73.28,73.28,153.9,139.8,239.65,197.73c86.55,58.48,179.08,108.7,275.03,149.29
			c97.7,41.32,199.94,73.07,303.91,94.34c106.66,21.83,216.45,32.9,326.35,32.9c109.9,0,219.69-11.07,326.34-32.9
			c103.97-21.28,206.21-53.02,303.91-94.34c95.95-40.59,188.48-90.81,275.03-149.29c85.75-57.93,166.37-124.45,239.65-197.73
			c73.28-73.28,139.8-153.9,197.73-239.65c58.48-86.55,108.7-179.08,149.29-275.03c41.32-97.7,73.07-199.94,94.34-303.91
			c21.83-106.66,32.9-216.45,32.9-326.34c0-109.9-11.07-219.68-32.9-326.34c-21.28-103.97-53.02-206.21-94.34-303.91
			c-40.58-95.95-90.81-188.48-149.29-275.03c-57.93-85.75-124.45-166.37-197.73-239.65c-73.28-73.28-153.9-139.8-239.65-197.73
			c-86.55-58.48-179.08-108.7-275.03-149.29c-97.7-41.32-199.94-73.07-303.91-94.34C2240.84-404.01,2131.05-415.08,2021.15-415.08z
			 M2021.15-454.3c112.53,0,224.97,11.34,334.21,33.7c106.51,21.8,211.24,54.31,311.32,96.65
			c98.28,41.57,193.06,93.02,281.71,152.91c87.82,59.33,170.38,127.45,245.42,202.5c75.04,75.04,143.17,157.61,202.49,245.42
			c59.89,88.65,111.34,183.43,152.91,281.71c42.33,100.08,74.85,204.82,96.65,311.32c22.35,109.24,33.69,221.67,33.69,334.2
			c0,112.54-11.34,224.97-33.69,334.21c-21.8,106.51-54.31,211.24-96.65,311.33c-41.57,98.28-93.02,193.06-152.91,281.71
			c-59.33,87.82-127.45,170.38-202.49,245.43c-75.04,75.04-157.61,143.17-245.42,202.5c-88.65,59.89-183.43,111.34-281.71,152.91
			c-100.08,42.33-204.82,74.85-311.33,96.65c-109.24,22.35-221.67,33.7-334.21,33.7c-112.54,0-224.97-11.34-334.21-33.7
			c-106.51-21.8-211.25-54.31-311.33-96.65c-98.28-41.57-193.06-93.02-281.71-152.91c-87.82-59.33-170.38-127.46-245.42-202.5
			c-75.04-75.04-143.17-157.61-202.49-245.43c-59.89-88.65-111.34-183.43-152.91-281.71c-42.33-100.08-74.85-204.82-96.64-311.33
			c-22.35-109.24-33.69-221.67-33.69-334.21c0-112.53,11.34-224.97,33.69-334.2c21.8-106.51,54.31-211.24,96.64-311.32
			c41.57-98.28,93.02-193.06,152.91-281.71c59.33-87.82,127.45-170.38,202.49-245.42c75.04-75.04,157.61-143.17,245.42-202.5
			c88.65-59.89,183.43-111.34,281.71-152.91c100.08-42.33,204.82-74.85,311.33-96.65C1796.18-442.96,1908.61-454.3,2021.15-454.3z"
			/>
		<path class="st1" d="M2021.15-476.93c-114.09,0-228.08,11.49-338.81,34.16c-107.94,22.09-214.09,55.04-315.52,97.95
			c-99.61,42.13-195.68,94.28-285.54,154.99c-89.02,60.14-172.73,129.21-248.8,205.28C756.4,91.52,687.34,175.22,627.2,264.25
			c-60.71,89.86-112.85,185.92-154.99,285.54c-42.9,101.43-75.86,207.58-97.95,315.52c-22.66,110.73-34.15,224.71-34.15,338.81
			c0,114.09,11.49,228.08,34.15,338.81c22.09,107.94,55.04,214.09,97.95,315.52c42.13,99.61,94.28,195.68,154.99,285.54
			c60.14,89.02,129.21,172.73,205.28,248.8c76.07,76.08,159.78,145.14,248.8,205.28c89.86,60.71,185.92,112.86,285.54,154.99
			c101.43,42.9,207.58,75.86,315.52,97.95c110.73,22.66,224.72,34.16,338.81,34.16c114.09,0,228.08-11.49,338.81-34.16
			c107.94-22.09,214.09-55.04,315.52-97.95c99.61-42.14,195.68-94.28,285.54-154.99c89.02-60.14,172.73-129.21,248.8-205.28
			c76.07-76.08,145.14-159.78,205.28-248.8c60.71-89.86,112.85-185.92,154.99-285.54c42.9-101.43,75.86-207.58,97.95-315.52
			c22.66-110.73,34.16-224.72,34.16-338.81c0-114.09-11.49-228.07-34.16-338.8c-22.09-107.94-55.04-214.09-97.95-315.52
			c-42.13-99.61-94.28-195.68-154.99-285.54c-60.14-89.02-129.21-172.73-205.28-248.8c-76.07-76.08-159.78-145.14-248.8-205.28
			c-89.86-60.71-185.92-112.85-285.54-154.99c-101.43-42.9-207.58-75.86-315.52-97.95C2249.22-465.43,2135.24-476.93,2021.15-476.93
			z M2021.15-517.66c116.83,0,233.56,11.77,346.98,34.98c110.57,22.63,219.31,56.39,323.22,100.34
			c102.04,43.16,200.43,96.57,292.47,158.75c91.17,61.59,176.89,132.32,254.8,210.23c77.91,77.91,148.64,163.63,210.23,254.8
			c62.18,92.04,115.59,190.44,158.75,292.47c43.95,103.91,77.71,212.64,100.34,323.22c23.21,113.41,34.98,230.14,34.98,346.97
			c0,116.83-11.77,233.56-34.98,346.98c-22.63,110.57-56.39,219.31-100.34,323.22c-43.16,102.04-96.57,200.43-158.75,292.47
			c-61.59,91.17-132.32,176.89-210.23,254.8c-77.91,77.91-163.63,148.64-254.8,210.23c-92.04,62.18-190.44,115.59-292.47,158.75
			c-103.91,43.95-212.65,77.71-323.22,100.34c-113.41,23.21-230.15,34.98-346.98,34.98c-116.83,0-233.57-11.77-346.98-34.98
			c-110.57-22.63-219.32-56.39-323.22-100.34c-102.04-43.16-200.43-96.57-292.47-158.75c-91.17-61.59-176.89-132.32-254.8-210.23
			c-77.91-77.91-148.64-163.63-210.23-254.8c-62.18-92.04-115.59-190.44-158.75-292.47c-43.95-103.91-77.71-212.65-100.34-323.22
			c-23.21-113.41-34.98-230.15-34.98-346.98c0-116.83,11.77-233.56,34.98-346.97c22.63-110.57,56.39-219.31,100.34-323.22
			c43.16-102.04,96.57-200.43,158.75-292.47c61.59-91.17,132.32-176.89,210.23-254.8c77.91-77.91,163.63-148.64,254.8-210.23
			c92.04-62.18,190.44-115.59,292.47-158.75c103.91-43.95,212.65-77.71,323.22-100.34C1787.58-505.89,1904.32-517.66,2021.15-517.66
			z"/>
		<path class="st1" d="M2021.15-538.78c-118.29,0-236.47,11.92-351.28,35.41c-111.91,22.9-221.97,57.07-327.13,101.55
			c-103.28,43.68-202.88,97.75-296.04,160.69c-92.3,62.36-179.08,133.96-257.96,212.84c-78.87,78.87-150.48,165.66-212.83,257.95
			c-62.94,93.17-117.01,192.76-160.69,296.04c-44.48,105.16-78.65,215.22-101.55,327.13c-23.49,114.81-35.41,232.99-35.41,351.27
			c0,118.29,11.92,236.47,35.41,351.28c22.9,111.91,57.07,221.96,101.55,327.13c43.68,103.28,97.75,202.88,160.69,296.05
			c62.36,92.3,133.96,179.08,212.83,257.96c78.87,78.87,165.66,150.48,257.95,212.84c93.17,62.94,192.77,117.01,296.04,160.69
			c105.16,44.48,215.22,78.65,327.13,101.55c114.81,23.5,232.99,35.41,351.28,35.41c118.29,0,236.47-11.92,351.27-35.41
			c111.91-22.9,221.96-57.07,327.13-101.55c103.28-43.69,202.88-97.75,296.04-160.69c92.3-62.36,179.08-133.96,257.95-212.84
			c78.87-78.87,150.48-165.66,212.83-257.96c62.94-93.17,117.01-192.77,160.69-296.05c44.48-105.16,78.65-215.22,101.55-327.13
			c23.49-114.81,35.41-232.99,35.41-351.28c0-118.29-11.92-236.46-35.41-351.27c-22.9-111.91-57.07-221.96-101.55-327.12
			c-43.68-103.28-97.75-202.87-160.69-296.04c-62.36-92.3-133.96-179.08-212.83-257.96c-78.87-78.87-165.66-150.48-257.95-212.84
			c-93.17-62.94-192.77-117.01-296.04-160.69c-105.16-44.48-215.22-78.65-327.13-101.55
			C2257.61-526.86,2139.44-538.78,2021.15-538.78z M2021.15-581.02c121.13,0,242.15,12.21,359.74,36.27
			c114.64,23.46,227.38,58.46,335.11,104.03c105.79,44.75,207.81,100.12,303.24,164.59c94.52,63.86,183.4,137.19,264.18,217.97
			c80.77,80.77,154.11,169.65,217.97,264.18c64.47,95.43,119.85,197.44,164.59,303.23c45.57,107.73,80.57,220.47,104.03,335.11
			c24.06,117.59,36.27,238.61,36.27,359.74c0,121.13-12.21,242.15-36.27,359.74c-23.46,114.64-58.46,227.38-104.03,335.11
			c-44.75,105.79-100.12,207.81-164.59,303.24c-63.86,94.53-137.19,183.4-217.97,264.18c-80.77,80.78-169.65,154.11-264.18,217.97
			c-95.43,64.47-197.44,119.85-303.23,164.6c-107.73,45.57-220.47,80.57-335.11,104.03c-117.59,24.06-238.62,36.27-359.74,36.27
			c-121.13,0-242.16-12.21-359.75-36.27c-114.64-23.46-227.38-58.46-335.12-104.03c-105.79-44.75-207.81-100.12-303.24-164.6
			c-94.52-63.86-183.4-137.19-264.18-217.97c-80.77-80.78-154.11-169.65-217.97-264.18c-64.47-95.43-119.85-197.45-164.59-303.24
			c-45.57-107.73-80.57-220.47-104.03-335.12c-24.06-117.59-36.27-238.62-36.27-359.74c0-121.12,12.21-242.15,36.27-359.74
			c23.46-114.64,58.46-227.38,104.03-335.11c44.75-105.79,100.12-207.81,164.59-303.23c63.86-94.52,137.19-183.4,217.97-264.18
			c80.77-80.77,169.65-154.11,264.18-217.97c95.43-64.47,197.45-119.85,303.24-164.59c107.73-45.57,220.47-80.57,335.12-104.03
			C1778.99-568.82,1900.02-581.02,2021.15-581.02z"/>
		<path class="st1" d="M2021.15-600.63c-122.48,0-244.86,12.34-363.75,36.67c-115.88,23.71-229.84,59.09-338.74,105.15
			c-106.94,45.23-210.08,101.22-306.55,166.4C916.54-227.85,826.68-153.7,745-72.03C663.33,9.65,589.18,99.51,524.62,195.08
			c-65.18,96.48-121.16,199.61-166.39,306.55c-46.06,108.9-81.44,222.86-105.15,338.73c-24.33,118.88-36.67,241.26-36.67,363.74
			c0,122.48,12.34,244.86,36.67,363.74c23.71,115.88,59.09,229.84,105.15,338.74c45.23,106.94,101.22,210.08,166.39,306.55
			c64.57,95.57,138.71,185.44,220.39,267.11c81.67,81.67,171.54,155.82,267.11,220.39c96.48,65.18,199.61,121.16,306.55,166.4
			c108.9,46.06,222.86,81.44,338.74,105.15c118.89,24.33,241.26,36.67,363.75,36.67c122.48,0,244.86-12.34,363.74-36.67
			c115.88-23.71,229.84-59.09,338.74-105.15c106.94-45.23,210.08-101.22,306.55-166.4c95.57-64.57,185.44-138.72,267.11-220.39
			c81.67-81.67,155.82-171.54,220.39-267.11c65.18-96.48,121.16-199.61,166.39-306.55c46.06-108.9,81.44-222.86,105.15-338.74
			c24.33-118.89,36.67-241.26,36.67-363.74c0-122.48-12.34-244.85-36.67-363.74c-23.71-115.88-59.09-229.84-105.15-338.73
			c-45.23-106.94-101.22-210.07-166.39-306.55C3453.1,99.51,3378.96,9.65,3297.28-72.03c-81.67-81.67-171.54-155.82-267.11-220.39
			c-96.47-65.18-199.61-121.16-306.55-166.39c-108.9-46.06-222.86-81.44-338.74-105.15C2266-588.29,2143.63-600.63,2021.15-600.63z
			 M2021.15-644.38c125.42,0,250.75,12.64,372.51,37.56c118.71,24.29,235.45,60.54,347.01,107.72
			c109.54,46.33,215.18,103.68,314,170.44c97.88,66.13,189.91,142.06,273.55,225.7c83.64,83.64,159.58,175.68,225.7,273.55
			c66.76,98.82,124.1,204.45,170.43,314c47.19,111.56,83.43,228.3,107.72,347.01c24.92,121.76,37.56,247.09,37.56,372.51
			c0,125.42-12.64,250.75-37.56,372.51c-24.29,118.71-60.54,235.45-107.72,347.01c-46.33,109.54-103.68,215.18-170.44,314
			c-66.13,97.88-142.06,189.91-225.7,273.56c-83.64,83.64-175.67,159.58-273.55,225.71c-98.82,66.76-204.45,124.1-314,170.44
			c-111.56,47.19-228.3,83.43-347.01,107.72c-121.76,24.92-247.09,37.56-372.51,37.56c-125.42,0-250.75-12.64-372.52-37.56
			c-118.71-24.29-235.45-60.54-347.01-107.72c-109.54-46.33-215.18-103.68-314-170.44c-97.88-66.13-189.91-142.06-273.55-225.71
			c-83.64-83.64-159.58-175.68-225.7-273.56c-66.76-98.82-124.1-204.46-170.43-314c-47.19-111.56-83.43-228.3-107.72-347.01
			c-24.92-121.77-37.56-247.09-37.56-372.51c0-125.42,12.64-250.74,37.56-372.51c24.29-118.71,60.53-235.45,107.72-347.01
			c46.33-109.54,103.67-215.18,170.43-314c66.13-97.88,142.06-189.91,225.7-273.55c83.64-83.64,175.67-159.58,273.55-225.7
			c98.82-66.76,204.46-124.1,314-170.44c111.56-47.19,228.3-83.43,347.01-107.72C1770.4-631.74,1895.72-644.38,2021.15-644.38z"/>
		<path class="st1" d="M2021.15-662.48c-126.68,0-253.25,12.76-376.21,37.92c-119.85,24.53-237.72,61.12-350.35,108.76
			c-110.61,46.78-217.28,104.68-317.06,172.1c-98.85,66.78-191.79,143.47-276.26,227.94C616.79-31.29,540.11,61.66,473.33,160.5
			c-67.41,99.78-125.31,206.45-172.09,317.06C253.59,590.19,217,708.05,192.48,827.9c-25.16,122.96-37.92,249.53-37.92,376.2
			c0,126.68,12.76,253.25,37.92,376.21c24.52,119.85,61.12,237.72,108.76,350.35c46.78,110.61,104.68,217.28,172.09,317.06
			c66.78,98.85,143.47,191.79,227.94,276.27c84.47,84.47,177.42,161.16,276.26,227.94c99.78,67.41,206.45,125.31,317.06,172.1
			c112.63,47.64,230.5,84.23,350.35,108.76c122.96,25.16,249.53,37.92,376.21,37.92c126.68,0,253.25-12.76,376.21-37.92
			c119.85-24.53,237.72-61.12,350.35-108.76c110.61-46.78,217.27-104.69,317.06-172.1c98.85-66.78,191.79-143.47,276.26-227.94
			c84.47-84.47,161.16-177.42,227.94-276.27c67.41-99.78,125.31-206.45,172.1-317.06c47.64-112.63,84.23-230.5,108.76-350.35
			c25.16-122.96,37.92-249.53,37.92-376.21c0-126.67-12.76-253.24-37.92-376.2c-24.53-119.85-61.12-237.71-108.76-350.34
			c-46.78-110.6-104.68-217.27-172.09-317.06c-66.78-98.85-143.47-191.79-227.94-276.26c-84.47-84.47-177.42-161.16-276.26-227.94
			c-99.78-67.41-206.45-125.31-317.06-172.1c-112.63-47.64-230.5-84.23-350.35-108.76C2274.39-649.72,2147.83-662.48,2021.15-662.48
			z M2021.15-707.74c129.72,0,259.34,13.07,385.28,38.84c122.77,25.12,243.52,62.61,358.9,111.41
			c113.3,47.92,222.56,107.23,324.76,176.28c101.23,68.39,196.42,146.93,282.93,233.44c86.51,86.51,165.05,181.7,233.44,282.93
			c69.05,102.2,128.36,211.46,176.28,324.76c48.8,115.38,86.29,236.13,111.41,358.9c25.77,125.94,38.84,255.56,38.84,385.28
			c0,129.72-13.07,259.34-38.84,385.28c-25.12,122.77-62.61,243.52-111.41,358.9c-47.92,113.3-107.23,222.56-176.28,324.76
			c-68.39,101.23-146.93,196.42-233.44,282.93c-86.51,86.51-181.7,165.05-282.93,233.44c-102.2,69.05-211.46,128.36-324.76,176.28
			c-115.38,48.8-236.13,86.29-358.9,111.41c-125.94,25.77-255.56,38.84-385.28,38.84c-129.72,0-259.34-13.07-385.29-38.84
			c-122.77-25.12-243.52-62.61-358.91-111.41c-113.3-47.92-222.56-107.23-324.76-176.28c-101.23-68.39-196.42-146.93-282.93-233.44
			c-86.51-86.51-165.05-181.7-233.44-282.93c-69.05-102.2-128.35-211.47-176.28-324.76c-48.8-115.38-86.29-236.13-111.41-358.9
			c-25.77-125.94-38.84-255.56-38.84-385.28c0-129.72,13.07-259.34,38.84-385.28c25.12-122.77,62.61-243.52,111.41-358.9
			c47.92-113.3,107.23-222.56,176.28-324.76C504.22,33.93,582.76-61.25,669.26-147.76c86.51-86.51,181.7-165.05,282.93-233.44
			c102.2-69.05,211.47-128.36,324.76-176.28c115.38-48.8,236.13-86.29,358.91-111.41C1761.8-694.67,1891.43-707.74,2021.15-707.74z"
			/>
		<path class="st1" d="M2021.15-724.34c-130.87,0-261.64,13.18-388.68,39.18c-123.82,25.34-245.59,63.14-361.96,112.36
			c-114.27,48.33-224.47,108.15-327.56,177.8C840.83-326,744.8-246.77,657.53-159.5c-87.27,87.27-166.5,183.3-235.49,285.42
			c-69.65,103.09-129.47,213.29-177.8,327.56c-49.22,116.36-87.02,238.14-112.36,361.95c-26,127.04-39.18,257.8-39.18,388.67
			c0,130.87,13.18,261.64,39.18,388.67c25.34,123.82,63.14,245.59,112.36,361.96c48.33,114.27,108.15,224.48,177.8,327.56
			c68.99,102.12,148.22,198.15,235.49,285.42c87.27,87.27,183.3,166.5,285.42,235.5c103.09,69.65,213.29,129.47,327.56,177.8
			c116.36,49.22,238.14,87.02,361.96,112.36c127.04,26,257.8,39.18,388.68,39.18c130.87,0,261.63-13.18,388.67-39.18
			c123.82-25.34,245.59-63.14,361.95-112.36c114.27-48.33,224.47-108.15,327.56-177.8c102.12-68.99,198.15-148.22,285.42-235.5
			c87.27-87.27,166.5-183.3,235.49-285.42c69.65-103.09,129.47-213.29,177.8-327.56c49.22-116.36,87.02-238.14,112.36-361.96
			c26-127.04,39.18-257.8,39.18-388.67c0-130.87-13.18-261.63-39.18-388.67c-25.34-123.82-63.14-245.59-112.36-361.95
			c-48.33-114.27-108.15-224.47-177.8-327.56C3551.26,23.8,3472.03-72.23,3384.76-159.5c-87.27-87.27-183.3-166.5-285.42-235.5
			c-103.09-69.65-213.29-129.47-327.56-177.8c-116.36-49.22-238.14-87.02-361.96-112.36
			C2282.78-711.15,2152.02-724.34,2021.15-724.34z M2021.15-771.1c134.01,0,267.93,13.5,398.05,40.13
			c126.84,25.96,251.59,64.68,370.8,115.11c117.05,49.51,229.93,110.78,335.52,182.12c104.59,70.66,202.93,151.8,292.31,241.18
			C3507.2-103.19,3588.34-4.85,3659,99.74c71.34,105.59,132.61,218.47,182.12,335.52c50.42,119.21,89.15,243.96,115.1,370.79
			c26.63,130.11,40.13,264.03,40.13,398.04c0,134.01-13.5,267.93-40.13,398.05c-25.96,126.84-64.68,251.59-115.1,370.8
			c-49.51,117.05-110.78,229.93-182.12,335.53c-70.66,104.59-151.8,202.93-241.18,292.31c-89.38,89.38-187.72,170.52-292.31,241.18
			c-105.59,71.34-218.47,132.61-335.52,182.12c-119.21,50.42-243.96,89.15-370.8,115.11c-130.12,26.63-264.03,40.13-398.05,40.13
			c-134.02,0-267.94-13.5-398.05-40.13c-126.84-25.96-251.59-64.68-370.8-115.11c-117.05-49.51-229.93-110.78-335.53-182.12
			c-104.59-70.66-202.93-151.8-292.31-241.18c-89.38-89.38-170.52-187.72-241.18-292.31c-71.34-105.59-132.61-218.48-182.12-335.53
			c-50.42-119.21-89.15-243.96-115.1-370.8c-26.63-130.12-40.13-264.03-40.13-398.05c0-134.01,13.5-267.93,40.13-398.04
			c25.96-126.84,64.68-251.59,115.1-370.79c49.51-117.05,110.78-229.93,182.12-335.52c70.66-104.59,151.8-202.93,241.18-292.31
			c89.38-89.38,187.72-170.52,292.31-241.18c105.59-71.34,218.48-132.61,335.53-182.12c119.21-50.42,243.96-89.15,370.8-115.11
			C1753.21-757.6,1887.13-771.1,2021.15-771.1z"/>
		<path class="st1" d="M2021.15-786.19c-135.07,0-270.03,13.61-401.14,40.44c-127.79,26.15-253.47,65.17-373.57,115.96
			c-117.93,49.88-231.67,111.62-338.07,183.5c-105.4,71.21-204.5,152.98-294.57,243.05C523.72-113.16,441.95-14.06,370.75,91.34
			c-71.88,106.4-133.62,220.14-183.5,338.07c-50.8,120.1-89.81,245.78-115.96,373.56c-26.83,131.11-40.44,266.07-40.44,401.13
			c0,135.07,13.61,270.03,40.44,401.14c26.15,127.79,65.16,253.47,115.96,373.57c49.88,117.93,111.62,231.67,183.5,338.07
			c71.2,105.4,152.98,204.51,243.05,294.58c90.07,90.07,189.18,171.84,294.57,243.05c106.4,71.88,220.14,133.62,338.07,183.5
			c120.1,50.8,245.78,89.81,373.57,115.96c131.12,26.83,266.08,40.44,401.14,40.44c135.07,0,270.02-13.61,401.14-40.44
			c127.79-26.15,253.47-65.17,373.56-115.96c117.93-49.88,231.67-111.62,338.07-183.5c105.4-71.21,204.5-152.98,294.57-243.05
			c90.07-90.07,171.84-189.18,243.05-294.58c71.88-106.4,133.62-220.14,183.5-338.07c50.8-120.1,89.81-245.78,115.96-373.57
			c26.83-131.12,40.44-266.07,40.44-401.14c0-135.06-13.61-270.02-40.44-401.13c-26.15-127.78-65.17-253.47-115.96-373.56
			c-49.88-117.93-111.62-231.67-183.5-338.07c-71.21-105.4-152.98-204.5-243.05-294.57c-90.07-90.07-189.18-171.84-294.57-243.05
			c-106.4-71.88-220.14-133.62-338.07-183.5c-120.1-50.8-245.78-89.82-373.56-115.96C2291.17-772.58,2156.21-786.19,2021.15-786.19z
			 M2021.15-834.46c138.31,0,276.52,13.94,410.82,41.42c130.91,26.79,259.66,66.76,382.69,118.8
			c120.8,51.1,237.31,114.34,346.29,187.96c107.94,72.93,209.44,156.67,301.68,248.91c92.24,92.24,175.99,193.74,248.91,301.68
			c73.62,108.98,136.86,225.48,187.96,346.29c52.04,123.03,92.01,251.78,118.8,382.69c27.48,134.29,41.42,272.5,41.42,410.81
			c0,138.31-13.94,276.52-41.42,410.82c-26.79,130.91-66.76,259.66-118.8,382.69c-51.1,120.8-114.34,237.31-187.96,346.29
			c-72.92,107.94-156.67,209.44-248.91,301.69c-92.24,92.24-193.74,175.99-301.68,248.92c-108.98,73.63-225.48,136.87-346.29,187.96
			c-123.03,52.04-251.78,92.01-382.69,118.8c-134.29,27.48-272.51,41.42-410.82,41.42c-138.31,0-276.53-13.94-410.82-41.42
			c-130.91-26.79-259.66-66.76-382.69-118.8c-120.8-51.1-237.31-114.34-346.29-187.96c-107.94-72.93-209.44-156.67-301.68-248.92
			c-92.24-92.24-175.99-193.74-248.91-301.69c-73.62-108.98-136.86-225.49-187.96-346.29c-52.04-123.03-92.01-251.79-118.8-382.69
			c-27.48-134.29-41.42-272.51-41.42-410.82c0-138.31,13.94-276.52,41.42-410.81c26.79-130.91,66.76-259.66,118.8-382.69
			c51.1-120.8,114.33-237.31,187.96-346.29c72.92-107.94,156.67-209.44,248.91-301.68c92.24-92.24,193.74-175.99,301.68-248.91
			c108.98-73.63,225.48-136.86,346.29-187.96c123.03-52.04,251.79-92.01,382.69-118.8C1744.62-820.52,1882.84-834.46,2021.15-834.46
			z"/>
		<path class="st1" d="M2021.15-848.04c-139.26,0-278.42,14.03-413.61,41.69c-131.76,26.96-261.34,67.19-385.18,119.57
			c-121.6,51.43-238.87,115.09-348.58,189.2c-108.67,73.42-210.86,157.73-303.73,250.6C477.19-154.1,392.87-51.91,319.46,56.76
			c-74.11,109.7-137.77,226.98-189.2,348.57C77.88,529.16,37.65,658.75,10.69,790.5C-16.97,925.69-31,1064.84-31,1204.1
			c0,139.26,14.03,278.41,41.69,413.61c26.96,131.75,67.19,261.34,119.57,385.17c51.43,121.6,115.09,238.87,189.2,348.58
			c73.42,108.67,157.73,210.86,250.6,303.73c92.87,92.87,195.06,177.18,303.73,250.6c109.7,74.12,226.98,137.77,348.58,189.21
			c123.83,52.38,253.42,92.61,385.18,119.57c135.19,27.67,274.35,41.69,413.61,41.69c139.26,0,278.41-14.03,413.6-41.69
			c131.75-26.96,261.34-67.19,385.17-119.57c121.6-51.43,238.87-115.09,348.58-189.21c108.67-73.42,210.86-157.73,303.73-250.6
			c92.87-92.87,177.18-195.06,250.6-303.73c74.11-109.7,137.77-226.98,189.2-348.58c52.38-123.83,92.61-253.42,119.57-385.18
			c27.66-135.19,41.69-274.35,41.69-413.61c0-139.26-14.03-278.41-41.69-413.6c-26.96-131.75-67.19-261.34-119.57-385.17
			c-51.43-121.6-115.09-238.87-189.2-348.57c-73.42-108.67-157.73-210.86-250.6-303.73c-92.87-92.87-195.06-177.18-303.73-250.6
			c-109.7-74.11-226.98-137.77-348.57-189.2c-123.83-52.38-253.42-92.61-385.17-119.57
			C2299.56-834.01,2160.41-848.04,2021.15-848.04z M2021.15-897.82c142.61,0,285.12,14.37,423.58,42.7
			c134.97,27.62,267.73,68.83,394.59,122.49c124.56,52.68,244.68,117.89,357.05,193.8c111.3,75.19,215.95,161.54,311.06,256.65
			c95.11,95.11,181.46,199.76,256.65,311.06c75.91,112.37,141.12,232.49,193.8,357.05c53.66,126.86,94.87,259.61,122.49,394.58
			c28.33,138.47,42.7,280.98,42.7,423.58c0,142.61-14.37,285.12-42.7,423.59c-27.62,134.97-68.83,267.73-122.49,394.59
			c-52.68,124.56-117.89,244.69-193.8,357.05c-75.19,111.3-161.54,215.95-256.65,311.06c-95.11,95.11-199.76,181.46-311.06,256.65
			c-112.37,75.91-232.49,141.12-357.05,193.8c-126.86,53.66-259.61,94.87-394.59,122.49c-138.47,28.34-280.98,42.7-423.59,42.7
			c-142.61,0-285.12-14.37-423.59-42.7c-134.97-27.62-267.73-68.83-394.59-122.49c-124.56-52.68-244.69-117.89-357.05-193.8
			c-111.3-75.19-215.95-161.54-311.06-256.65c-95.11-95.11-181.46-199.77-256.65-311.06c-75.91-112.37-141.12-232.5-193.8-357.05
			c-53.66-126.86-94.87-259.61-122.49-394.59c-28.34-138.47-42.7-280.98-42.7-423.59c0-142.6,14.37-285.11,42.7-423.58
			C-10.46,645.55,30.75,512.8,84.41,385.94c52.68-124.56,117.89-244.68,193.8-357.05c75.19-111.3,161.54-215.95,256.65-311.06
			c95.11-95.11,199.76-181.46,311.06-256.65c112.37-75.91,232.49-141.12,357.05-193.8c126.86-53.66,259.61-94.87,394.59-122.49
			C1736.03-883.45,1878.54-897.82,2021.15-897.82z"/>
		<path class="st1" d="M2021.15-909.89c-143.46,0-286.81,14.45-426.08,42.95c-135.72,27.77-269.22,69.21-396.79,123.17
			c-125.26,52.98-246.07,118.56-359.08,194.91c-111.95,75.63-217.21,162.48-312.88,258.15C430.65-195.04,343.8-89.77,268.17,22.18
			C191.82,135.19,126.24,256,73.26,381.26C19.31,508.82-22.13,642.31-49.91,778.04c-28.5,139.27-42.95,282.61-42.95,426.07
			c0,143.46,14.45,286.8,42.95,426.07c27.77,135.72,69.21,269.22,123.17,396.78c52.98,125.26,118.56,246.07,194.9,359.08
			c75.63,111.95,162.48,217.22,258.15,312.89c95.67,95.67,200.94,182.53,312.88,258.16c113.01,76.35,233.82,141.93,359.08,194.91
			c127.56,53.96,261.06,95.4,396.79,123.17c139.27,28.5,282.62,42.95,426.08,42.95c143.46,0,286.8-14.45,426.07-42.95
			c135.72-27.77,269.22-69.22,396.78-123.17c125.26-52.98,246.07-118.56,359.08-194.91c111.95-75.63,217.21-162.49,312.88-258.16
			c95.67-95.67,182.52-200.94,258.15-312.89c76.35-113.01,141.92-233.82,194.91-359.08c53.96-127.56,95.4-261.06,123.17-396.78
			c28.5-139.27,42.95-282.62,42.95-426.07c0-143.45-14.45-286.8-42.95-426.07c-27.77-135.72-69.21-269.22-123.17-396.78
			c-52.98-125.26-118.56-246.07-194.9-359.08c-75.63-111.95-162.48-217.21-258.15-312.88c-95.67-95.67-200.94-182.52-312.88-258.16
			c-113.01-76.35-233.82-141.92-359.08-194.91c-127.56-53.96-261.06-95.4-396.78-123.17
			C2307.95-895.44,2164.6-909.89,2021.15-909.89z M2021.15-961.18c146.9,0,293.71,14.8,436.35,43.99
			c139.04,28.45,275.8,70.91,406.48,126.18c128.31,54.27,252.06,121.44,367.81,199.64c114.65,77.46,222.46,166.41,320.44,264.39
			c97.98,97.98,186.93,205.79,264.39,320.44c78.2,115.75,145.37,239.5,199.64,367.81c55.27,130.68,97.73,267.44,126.18,406.48
			c29.19,142.64,43.99,289.45,43.99,436.35c0,146.9-14.8,293.71-43.99,436.35c-28.45,139.04-70.91,275.8-126.18,406.48
			c-54.27,128.31-121.44,252.06-199.64,367.82c-77.46,114.65-166.41,222.46-264.39,320.44c-97.98,97.98-205.79,186.93-320.44,264.39
			c-115.75,78.2-239.5,145.37-367.81,199.65c-130.68,55.28-267.44,97.73-406.48,126.18c-142.64,29.19-289.45,43.99-436.35,43.99
			c-146.9,0-293.71-14.8-436.36-43.99c-139.04-28.45-275.8-70.91-406.48-126.18c-128.31-54.27-252.06-121.44-367.82-199.65
			c-114.65-77.46-222.46-166.41-320.44-264.39c-97.98-97.98-186.93-205.79-264.38-320.44C147.47,2299,80.3,2175.25,26.03,2046.94
			c-55.27-130.68-97.73-267.44-126.18-406.48c-29.19-142.64-43.99-289.45-43.99-436.35c0-146.9,14.8-293.71,43.99-436.35
			c28.45-139.04,70.9-275.8,126.18-406.48C80.3,232.97,147.47,109.22,225.67-6.53C303.13-121.19,392.08-229,490.05-326.97
			c97.98-97.98,205.79-186.93,320.44-264.39c115.75-78.2,239.5-145.37,367.82-199.65c130.68-55.28,267.44-97.73,406.48-126.18
			C1727.43-946.38,1874.24-961.18,2021.15-961.18z"/>
		<path class="st1" d="M2021.15-971.74c-147.65,0-295.2,14.87-438.54,44.21c-139.69,28.59-277.1,71.24-408.4,126.78
			c-128.92,54.53-253.27,122.03-369.59,200.61C689.4-522.31,581.05-432.91,482.58-334.44c-98.47,98.47-187.86,206.82-265.71,322.04
			C138.3,103.91,70.8,228.26,16.27,357.18c-55.53,131.3-98.19,268.7-126.77,408.39c-29.33,143.34-44.21,290.88-44.21,438.53
			c0,147.65,14.87,295.19,44.21,438.54c28.59,139.69,71.24,277.1,126.77,408.39c54.53,128.92,122.02,253.27,200.61,369.59
			c77.84,115.22,167.24,223.57,265.71,322.04c98.47,98.47,206.82,187.87,322.04,265.71c116.32,78.58,240.66,146.08,369.59,200.61
			c131.3,55.53,268.7,98.19,408.4,126.77c143.34,29.33,290.89,44.21,438.54,44.21c147.65,0,295.19-14.87,438.54-44.21
			c139.69-28.59,277.09-71.24,408.39-126.77c128.92-54.53,253.27-122.03,369.59-200.61c115.22-77.84,223.57-167.24,322.04-265.71
			c98.47-98.47,187.86-206.82,265.71-322.04c78.58-116.32,146.08-240.67,200.61-369.59c55.54-131.3,98.19-268.7,126.77-408.39
			c29.33-143.34,44.21-290.89,44.21-438.54c0-147.65-14.87-295.19-44.21-438.53c-28.59-139.69-71.24-277.09-126.77-408.39
			c-54.53-128.92-122.02-253.27-200.61-369.59c-77.84-115.22-167.24-223.57-265.71-322.04c-98.47-98.47-206.82-187.87-322.04-265.71
			c-116.32-78.58-240.66-146.08-369.59-200.61c-131.3-55.54-268.7-98.19-408.39-126.78C2316.34-956.87,2168.8-971.74,2021.15-971.74
			z M2021.15-1024.54c151.2,0,302.3,15.23,449.12,45.28c143.11,29.29,283.87,72.98,418.37,129.87
			c132.06,55.86,259.43,125,378.58,205.49c118.01,79.72,228.97,171.28,329.81,272.12c100.84,100.84,192.4,211.81,272.12,329.82
			c80.49,119.14,149.63,246.51,205.48,378.58c56.89,134.51,100.59,275.27,129.87,418.37c30.04,146.82,45.28,297.92,45.28,449.12
			c0,151.2-15.23,302.3-45.28,449.12c-29.28,143.11-72.98,283.87-129.87,418.38c-55.86,132.06-124.99,259.44-205.49,378.58
			c-79.72,118.01-171.28,228.97-272.12,329.82c-100.84,100.85-211.81,192.4-329.81,272.13
			c-119.14,80.49-246.51,149.63-378.58,205.49c-134.51,56.89-275.27,100.59-418.37,129.87c-146.82,30.04-297.92,45.28-449.12,45.28
			c-151.2,0-302.31-15.23-449.13-45.28c-143.11-29.28-283.87-72.98-418.38-129.87c-132.06-55.86-259.44-125-378.58-205.49
			C657.06,2972.4,546.09,2880.84,445.25,2780c-100.84-100.84-192.4-211.81-272.12-329.82C92.64,2331.04,23.5,2203.67-32.35,2071.6
			c-56.89-134.51-100.59-275.27-129.87-418.38c-30.04-146.82-45.28-297.92-45.28-449.12c0-151.2,15.23-302.3,45.28-449.12
			c29.28-143.11,72.98-283.87,129.87-418.37C23.5,204.55,92.64,77.18,173.13-41.96c79.72-118.01,171.28-228.97,272.12-329.82
			c100.84-100.84,211.81-192.4,329.81-272.12c119.14-80.49,246.51-149.63,378.58-205.49c134.51-56.89,275.27-100.59,418.38-129.87
			C1718.84-1009.3,1869.95-1024.54,2021.15-1024.54z"/>
		<path class="st1" d="M2021.15-1033.59c-151.85,0-303.59,15.3-451.01,45.46c-143.66,29.4-284.97,73.26-420,130.38
			c-132.59,56.08-260.47,125.49-380.1,206.31c-118.5,80.05-229.93,171.99-331.19,273.26c-101.27,101.27-193.2,212.7-273.26,331.19
			C84.77,72.64,15.36,200.52-40.72,333.11c-57.11,135.03-100.98,276.34-130.38,420c-30.17,147.42-45.46,299.15-45.46,451
			c0,151.85,15.3,303.58,45.46,451c29.4,143.66,73.26,284.97,130.38,420c56.08,132.59,125.49,260.47,206.31,380.1
			c80.05,118.5,171.99,229.93,273.26,331.2c101.27,101.27,212.7,193.21,331.19,273.26c119.63,80.82,247.51,150.23,380.1,206.31
			c135.03,57.11,276.34,100.98,420,130.38c147.42,30.17,299.16,45.46,451.01,45.46c151.84,0,303.58-15.3,451-45.46
			c143.66-29.4,284.97-73.26,420-130.38c132.59-56.08,260.47-125.49,380.09-206.31c118.5-80.06,229.93-171.99,331.19-273.26
			c101.27-101.27,193.2-212.7,273.26-331.2c80.82-119.63,150.23-247.51,206.31-380.1c57.11-135.03,100.98-276.34,130.38-420
			c30.17-147.42,45.46-299.16,45.46-451c0-151.84-15.3-303.58-45.46-451c-29.4-143.66-73.26-284.97-130.38-420
			c-56.08-132.59-125.49-260.47-206.31-380.09c-80.06-118.5-171.99-229.92-273.26-331.19c-101.27-101.27-212.7-193.21-331.19-273.26
			c-119.62-80.82-247.51-150.23-380.09-206.31c-135.03-57.11-276.34-100.98-420-130.38
			C2324.73-1018.3,2172.99-1033.59,2021.15-1033.59z M2021.15-1087.9c155.49,0,310.9,15.67,461.89,46.57
			c147.17,30.12,291.94,75.05,430.27,133.57c135.82,57.45,266.81,128.55,389.34,211.33c121.36,81.99,235.48,176.15,339.19,279.86
			c103.71,103.71,197.87,217.83,279.86,339.19c82.78,122.53,153.88,253.52,211.33,389.34c58.51,138.33,103.45,283.09,133.56,430.27
			c30.9,150.99,46.56,306.39,46.56,461.88c0,155.49-15.67,310.9-46.56,461.89c-30.12,147.17-75.05,291.94-133.56,430.27
			c-57.45,135.82-128.55,266.81-211.33,389.34c-81.99,121.36-176.15,235.48-279.86,339.19
			c-103.71,103.71-217.83,197.87-339.19,279.86c-122.53,82.78-253.52,153.88-389.34,211.33
			c-138.33,58.51-283.1,103.45-430.27,133.57c-150.99,30.9-306.4,46.57-461.89,46.57c-155.5,0-310.9-15.67-461.9-46.57
			c-147.17-30.12-291.94-75.05-430.27-133.57c-135.82-57.45-266.81-128.55-389.34-211.33c-121.36-81.99-235.48-176.15-339.19-279.86
			c-103.71-103.71-197.87-217.83-279.86-339.19c-82.78-122.53-153.88-253.52-211.33-389.34
			c-58.51-138.33-103.45-283.1-133.56-430.27c-30.9-150.99-46.57-306.4-46.57-461.89c0-155.49,15.67-310.89,46.57-461.88
			c30.12-147.17,75.05-291.93,133.56-430.27C-33.29,176.14,37.81,45.14,120.59-77.39c81.99-121.36,176.15-235.48,279.86-339.19
			c103.71-103.71,217.83-197.87,339.19-279.86c122.53-82.78,253.52-153.88,389.34-211.33c138.33-58.51,283.1-103.45,430.27-133.57
			C1710.25-1072.23,1865.65-1087.9,2021.15-1087.9z"/>
		<path class="st1" d="M2021.15-1095.45c-156.04,0-311.98,15.72-463.47,46.72c-147.63,30.21-292.85,75.29-431.61,133.98
			c-136.25,57.63-267.67,128.96-390.6,212.01c-121.77,82.27-236.28,176.75-340.35,280.81C291.04-317.85,196.56-203.34,114.3-81.57
			C31.25,41.36-40.08,172.78-97.71,309.03c-58.69,138.76-103.77,283.98-133.98,431.61c-31,151.49-46.72,307.43-46.72,463.46
			c0,156.04,15.72,311.97,46.72,463.47c30.21,147.63,75.29,292.85,133.98,431.61c57.63,136.25,128.96,267.67,212.01,390.6
			c82.27,121.77,176.75,236.28,280.81,340.35c104.07,104.07,218.58,198.55,340.35,280.82c122.93,83.05,254.35,154.38,390.6,212.02
			c138.77,58.69,283.98,103.77,431.61,133.98c151.5,31,307.43,46.72,463.47,46.72c156.04,0,311.97-15.72,463.47-46.72
			c147.63-30.21,292.85-75.29,431.61-133.98c136.25-57.63,267.67-128.96,390.6-212.02c121.77-82.27,236.28-176.75,340.35-280.82
			c104.07-104.07,198.55-218.58,280.81-340.35c83.05-122.93,154.38-254.35,212.01-390.6c58.69-138.77,103.77-283.98,133.98-431.61
			c31-151.5,46.72-307.43,46.72-463.47c0-156.04-15.72-311.97-46.72-463.46c-30.21-147.63-75.29-292.84-133.98-431.61
			c-57.63-136.25-128.96-267.67-212.01-390.6c-82.27-121.77-176.75-236.28-280.81-340.35
			c-104.07-104.07-218.57-198.55-340.35-280.81c-122.93-83.05-254.35-154.38-390.6-212.01
			c-138.76-58.69-283.98-103.77-431.61-133.98C2333.12-1079.73,2177.19-1095.45,2021.15-1095.45z M2021.15,3559.48
			c-159.79,0-319.49-16.1-474.66-47.85c-151.24-30.95-300.01-77.13-442.17-137.26c-139.57-59.03-274.19-132.1-400.1-217.17
			c-124.71-84.26-241.99-181.02-348.57-287.6c-106.58-106.58-203.34-223.86-287.59-348.57
			c-85.07-125.92-158.13-260.53-217.17-400.11c-60.13-142.16-106.31-290.92-137.25-442.17c-31.75-155.17-47.85-314.87-47.85-474.66
			c0-159.79,16.1-319.48,47.85-474.65c30.95-151.24,77.13-300,137.25-442.16c59.03-139.57,132.1-274.18,217.17-400.1
			c84.26-124.71,181.02-241.99,287.59-348.57c106.58-106.58,223.85-203.34,348.57-287.6c125.92-85.07,260.53-158.14,400.1-217.17
			c142.16-60.13,290.93-106.31,442.17-137.26c155.17-31.75,314.87-47.85,474.66-47.85c159.79,0,319.49,16.1,474.66,47.85
			c151.24,30.95,300.01,77.13,442.16,137.26c139.57,59.03,274.18,132.1,400.1,217.17c124.71,84.26,241.99,181.02,348.57,287.6
			c106.58,106.58,203.34,223.85,287.59,348.57c85.07,125.92,158.13,260.53,217.17,400.1c60.13,142.16,106.31,290.92,137.26,442.16
			c31.75,155.17,47.85,314.86,47.85,474.65c0,159.79-16.1,319.49-47.85,474.66c-30.95,151.24-77.13,300.01-137.26,442.17
			c-59.03,139.57-132.1,274.19-217.17,400.11c-84.26,124.72-181.02,241.99-287.59,348.57c-106.58,106.58-223.85,203.34-348.57,287.6
			c-125.92,85.07-260.53,158.14-400.1,217.17c-142.16,60.13-290.92,106.31-442.16,137.26
			C2340.64,3543.38,2180.94,3559.48,2021.15,3559.48z"/>
	</g>
</g>
</svg>
