<?xml version="1.0" encoding="utf-8"?>
<!-- Generator: Adobe Illustrator 24.0.3, SVG Export Plug-In . SVG Version: 6.00 Build 0)  -->
<svg version="1.1" id="Layer_1" xmlns="http://www.w3.org/2000/svg" xmlns:xlink="http://www.w3.org/1999/xlink" x="0px" y="0px"
	 viewBox="0 0 1920 1080" style="enable-background:new 0 0 1920 1080;" xml:space="preserve">
<style type="text/css">
	.st0{clip-path:url(#SVGID_2_);}
	.st1{fill:#003E6A;}
</style>
<g>
	<defs>
		<rect id="SVGID_1_" x="-0.48" width="1920.48" height="1080"/>
	</defs>
	<clipPath id="SVGID_2_">
		<use xlink:href="#SVGID_1_"  style="overflow:visible;"/>
	</clipPath>
	<g class="st0">
		<g>
			<g>
				
					<rect x="-1714.81" y="-1585.52" transform="matrix(0.7071 -0.7071 0.7071 0.7071 1374.9242 156.7709)" class="st1" width="5183.02" height="8.44"/>
			</g>
			
				<rect x="-1714.81" y="-1517.83" transform="matrix(0.7071 -0.7071 0.7071 0.7071 1327.0637 176.5954)" class="st1" width="5183.02" height="8.44"/>
			
				<rect x="-1714.81" y="-1450.15" transform="matrix(0.7071 -0.7071 0.7071 0.7071 1279.2035 196.4197)" class="st1" width="5183.02" height="8.44"/>
			
				<rect x="-1714.81" y="-1382.46" transform="matrix(0.7071 -0.7071 0.7071 0.7071 1231.3429 216.2442)" class="st1" width="5183.02" height="8.44"/>
			
				<rect x="-1714.81" y="-1314.78" transform="matrix(0.7071 -0.7072 0.7072 0.7071 1183.6012 236.0451)" class="st1" width="5183.02" height="8.44"/>
			
				<rect x="-1714.81" y="-1247.09" transform="matrix(0.7071 -0.7072 0.7072 0.7071 1135.7369 255.8733)" class="st1" width="5183.02" height="8.44"/>
			
				<rect x="-1714.81" y="-1179.41" transform="matrix(0.7071 -0.7072 0.7072 0.7071 1087.8728 275.7014)" class="st1" width="5183.02" height="8.44"/>
			
				<rect x="-1714.81" y="-1111.72" transform="matrix(0.7071 -0.7072 0.7072 0.7071 1040.0088 295.5295)" class="st1" width="5183.02" height="8.44"/>
			
				<rect x="-1714.81" y="-1044.04" transform="matrix(0.7071 -0.7072 0.7072 0.7071 992.1448 315.3575)" class="st1" width="5183.02" height="8.44"/>
			
				<rect x="-1714.81" y="-976.35" transform="matrix(0.7071 -0.7072 0.7072 0.7071 944.2805 335.1858)" class="st1" width="5183.02" height="8.44"/>
			
				<rect x="-1714.81" y="-908.67" transform="matrix(0.7071 -0.7072 0.7072 0.7071 896.4165 355.0138)" class="st1" width="5183.02" height="8.44"/>
			
				<rect x="-1714.81" y="-840.98" transform="matrix(0.7071 -0.7072 0.7072 0.7071 848.5524 374.8419)" class="st1" width="5183.02" height="8.44"/>
			
				<rect x="-1714.81" y="-773.3" transform="matrix(0.7071 -0.7072 0.7072 0.7071 800.688 394.6701)" class="st1" width="5183.02" height="8.44"/>
			
				<rect x="-1714.81" y="-705.61" transform="matrix(0.7071 -0.7072 0.7072 0.7071 752.8241 414.4982)" class="st1" width="5183.02" height="8.44"/>
			
				<rect x="-1714.81" y="-637.93" transform="matrix(0.7071 -0.7072 0.7072 0.7071 704.96 434.3263)" class="st1" width="5183.02" height="8.44"/>
			
				<rect x="-1714.81" y="-570.24" transform="matrix(0.7071 -0.7072 0.7072 0.7071 657.0959 454.1544)" class="st1" width="5183.02" height="8.44"/>
			
				<rect x="-1714.81" y="-502.56" transform="matrix(0.7071 -0.7072 0.7072 0.7071 609.2317 473.9825)" class="st1" width="5183.02" height="8.44"/>
			
				<rect x="-1714.81" y="-434.87" transform="matrix(0.7071 -0.7072 0.7072 0.7071 561.3676 493.8106)" class="st1" width="5183.02" height="8.44"/>
			
				<rect x="-1714.81" y="-367.19" transform="matrix(0.7071 -0.7072 0.7072 0.7071 513.5037 513.6387)" class="st1" width="5183.02" height="8.44"/>
			
				<rect x="-1714.81" y="-299.5" transform="matrix(0.7071 -0.7072 0.7072 0.7071 465.6396 533.4668)" class="st1" width="5183.02" height="8.44"/>
			
				<rect x="-1714.81" y="-231.82" transform="matrix(0.7071 -0.7072 0.7072 0.7071 417.7752 553.295)" class="st1" width="5183.02" height="8.44"/>
			
				<rect x="-1714.81" y="-164.13" transform="matrix(0.7071 -0.7072 0.7072 0.7071 369.9113 573.123)" class="st1" width="5183.02" height="8.44"/>
			
				<rect x="-1714.81" y="-96.45" transform="matrix(0.7071 -0.7072 0.7072 0.7071 322.0472 592.9512)" class="st1" width="5183.02" height="8.44"/>
			
				<rect x="-1714.81" y="-28.76" transform="matrix(0.7071 -0.7072 0.7072 0.7071 274.183 612.7793)" class="st1" width="5183.02" height="8.44"/>
			
				<rect x="-1714.81" y="38.92" transform="matrix(0.7071 -0.7072 0.7072 0.7071 226.3189 632.6074)" class="st1" width="5183.02" height="8.44"/>
			
				<rect x="-1714.81" y="106.61" transform="matrix(0.7071 -0.7072 0.7072 0.7071 178.4548 652.4355)" class="st1" width="5183.02" height="8.44"/>
			
				<rect x="-1714.81" y="174.29" transform="matrix(0.7071 -0.7072 0.7072 0.7071 130.5909 672.2635)" class="st1" width="5183.02" height="8.44"/>
			
				<rect x="-1714.81" y="241.98" transform="matrix(0.7071 -0.7072 0.7072 0.7071 82.7265 692.0918)" class="st1" width="5183.02" height="8.44"/>
			
				<rect x="-1714.81" y="309.66" transform="matrix(0.7071 -0.7072 0.7072 0.7071 34.8624 711.9199)" class="st1" width="5183.02" height="8.44"/>
			
				<rect x="-1714.81" y="377.35" transform="matrix(0.7071 -0.7072 0.7072 0.7071 -13.0015 731.7479)" class="st1" width="5183.02" height="8.44"/>
			
				<rect x="-1714.81" y="445.03" transform="matrix(0.7071 -0.7072 0.7072 0.7071 -60.8659 751.5762)" class="st1" width="5183.02" height="8.44"/>
			
				<rect x="-1714.81" y="512.72" transform="matrix(0.7071 -0.7072 0.7072 0.7071 -108.7298 771.4042)" class="st1" width="5183.02" height="8.44"/>
			
				<rect x="-1714.81" y="580.4" transform="matrix(0.7071 -0.7072 0.7072 0.7071 -156.5939 791.2323)" class="st1" width="5183.02" height="8.44"/>
			
				<rect x="-1714.81" y="648.09" transform="matrix(0.7071 -0.7072 0.7072 0.7071 -204.4579 811.0604)" class="st1" width="5183.02" height="8.44"/>
			
				<rect x="-1714.81" y="715.77" transform="matrix(0.7071 -0.7072 0.7072 0.7071 -252.3222 830.8885)" class="st1" width="5183.02" height="8.44"/>
			
				<rect x="-1714.81" y="783.45" transform="matrix(0.7071 -0.7072 0.7072 0.7071 -300.1863 850.7167)" class="st1" width="5183.02" height="8.44"/>
			
				<rect x="-1714.81" y="851.14" transform="matrix(0.7071 -0.7072 0.7072 0.7071 -348.0504 870.5448)" class="st1" width="5183.02" height="8.44"/>
			
				<rect x="-1714.81" y="918.82" transform="matrix(0.7071 -0.7072 0.7072 0.7071 -395.9143 890.3728)" class="st1" width="5183.02" height="8.44"/>
			
				<rect x="-1714.81" y="986.51" transform="matrix(0.7071 -0.7072 0.7072 0.7071 -443.7787 910.201)" class="st1" width="5183.02" height="8.44"/>
			
				<rect x="-1714.81" y="1054.19" transform="matrix(0.7071 -0.7072 0.7072 0.7071 -491.6426 930.0291)" class="st1" width="5183.02" height="8.44"/>
			
				<rect x="-1714.81" y="1121.88" transform="matrix(0.7071 -0.7072 0.7072 0.7071 -539.5067 949.8572)" class="st1" width="5183.02" height="8.44"/>
			
				<rect x="-1714.81" y="1189.56" transform="matrix(0.7071 -0.7072 0.7072 0.7071 -587.371 969.6854)" class="st1" width="5183.02" height="8.44"/>
			
				<rect x="-1714.81" y="1257.25" transform="matrix(0.7071 -0.7072 0.7072 0.7071 -635.235 989.5134)" class="st1" width="5183.02" height="8.44"/>
			
				<rect x="-1714.81" y="1324.93" transform="matrix(0.7071 -0.7072 0.7072 0.7071 -683.0991 1009.3416)" class="st1" width="5183.02" height="8.44"/>
			
				<rect x="-1714.81" y="1392.62" transform="matrix(0.7071 -0.7072 0.7072 0.7071 -730.963 1029.1696)" class="st1" width="5183.02" height="8.44"/>
			
				<rect x="-1714.81" y="1460.3" transform="matrix(0.7071 -0.7072 0.7072 0.7071 -778.8274 1048.9978)" class="st1" width="5183.02" height="8.44"/>
			
				<rect x="-1714.81" y="1527.99" transform="matrix(0.7071 -0.7072 0.7072 0.7071 -826.6915 1068.8259)" class="st1" width="5183.02" height="8.44"/>
			
				<rect x="-1714.81" y="1595.67" transform="matrix(0.7071 -0.7072 0.7072 0.7071 -874.5554 1088.6539)" class="st1" width="5183.02" height="8.44"/>
			
				<rect x="-1714.81" y="1663.36" transform="matrix(0.7071 -0.7072 0.7072 0.7071 -922.4194 1108.4821)" class="st1" width="5183.02" height="8.44"/>
			
				<rect x="-1714.81" y="1731.04" transform="matrix(0.7071 -0.7072 0.7072 0.7071 -970.2839 1128.3103)" class="st1" width="5183.02" height="8.44"/>
			
				<rect x="-1714.81" y="1798.73" transform="matrix(0.7071 -0.7072 0.7072 0.7071 -1018.1478 1148.1383)" class="st1" width="5183.02" height="8.44"/>
			
				<rect x="-1714.81" y="1866.41" transform="matrix(0.7071 -0.7072 0.7072 0.7071 -1066.0118 1167.9664)" class="st1" width="5183.02" height="8.44"/>
			
				<rect x="-1714.81" y="1934.1" transform="matrix(0.7071 -0.7072 0.7072 0.7071 -1113.8761 1187.7946)" class="st1" width="5183.02" height="8.44"/>
			
				<rect x="-1714.81" y="2001.78" transform="matrix(0.7071 -0.7072 0.7072 0.7071 -1161.7401 1207.6227)" class="st1" width="5183.02" height="8.44"/>
			
				<rect x="-1714.81" y="2069.47" transform="matrix(0.7071 -0.7072 0.7072 0.7071 -1209.6042 1227.4508)" class="st1" width="5183.02" height="8.44"/>
			
				<rect x="-1714.81" y="2137.15" transform="matrix(0.7071 -0.7072 0.7072 0.7071 -1257.4681 1247.2788)" class="st1" width="5183.02" height="8.44"/>
			
				<rect x="-1714.81" y="2204.84" transform="matrix(0.7071 -0.7072 0.7072 0.7071 -1305.3325 1267.1071)" class="st1" width="5183.02" height="8.44"/>
			
				<rect x="-1714.81" y="2272.52" transform="matrix(0.7071 -0.7072 0.7072 0.7071 -1353.1967 1286.9352)" class="st1" width="5183.02" height="8.44"/>
			
				<rect x="-1714.81" y="2340.21" transform="matrix(0.7071 -0.7072 0.7072 0.7071 -1401.0607 1306.7633)" class="st1" width="5183.02" height="8.44"/>
			
				<rect x="-1714.81" y="2407.89" transform="matrix(0.7071 -0.7072 0.7072 0.7071 -1448.9249 1326.5914)" class="st1" width="5183.02" height="8.44"/>
			
				<rect x="-1714.81" y="2475.58" transform="matrix(0.7071 -0.7072 0.7072 0.7071 -1496.7889 1346.4194)" class="st1" width="5183.02" height="8.44"/>
			
				<rect x="-1714.81" y="2543.26" transform="matrix(0.7071 -0.7072 0.7072 0.7071 -1544.6531 1366.2477)" class="st1" width="5183.02" height="8.44"/>
			
				<rect x="-1714.81" y="2610.95" transform="matrix(0.7071 -0.7072 0.7072 0.7071 -1592.5171 1386.0757)" class="st1" width="5183.02" height="8.44"/>
			<g>
				
					<rect x="-1714.81" y="2678.63" transform="matrix(0.7071 -0.7072 0.7072 0.7071 -1640.3812 1405.9038)" class="st1" width="5183.02" height="8.44"/>
			</g>
		</g>
	</g>
</g>
</svg>
