<?xml version="1.0" encoding="utf-8"?>
<!-- Generator: Adobe Illustrator 24.0.3, SVG Export Plug-In . SVG Version: 6.00 Build 0)  -->
<svg version="1.1" id="Layer_1" xmlns="http://www.w3.org/2000/svg" xmlns:xlink="http://www.w3.org/1999/xlink" x="0px" y="0px"
	 viewBox="0 0 1920 1080" style="enable-background:new 0 0 1920 1080;" xml:space="preserve">
<style type="text/css">
	.st0{clip-path:url(#SVGID_2_);}
	.st1{fill:#003E6A;}
</style>
<g>
	<defs>
		<rect id="SVGID_1_" x="0.1" width="1914.9" height="1080.02"/>
	</defs>
	<clipPath id="SVGID_2_">
		<use xlink:href="#SVGID_1_"  style="overflow:visible;"/>
	</clipPath>
	<g class="st0">
		<g>
			<g>
				<g>
					<polygon class="st1" points="-974.77,1014.64 -1076.98,1116.84 -872.56,1116.84 					"/>
				</g>
				<g>
					<polygon class="st1" points="-772.3,1014.64 -874.51,1116.84 -670.09,1116.84 					"/>
				</g>
				<g>
					<polygon class="st1" points="-570.1,1014.64 -672.31,1116.84 -467.88,1116.84 					"/>
				</g>
				<g>
					<polygon class="st1" points="-367.63,1014.64 -469.83,1116.84 -265.41,1116.84 					"/>
				</g>
				<g>
					<polygon class="st1" points="-165.42,1014.64 -267.63,1116.84 -63.21,1116.84 					"/>
				</g>
				<g>
					<polygon class="st1" points="37.05,1014.64 -65.16,1116.84 139.26,1116.84 					"/>
				</g>
				<g>
					<polygon class="st1" points="239.26,1014.64 137.05,1116.84 341.47,1116.84 					"/>
				</g>
				<g>
					<polygon class="st1" points="441.73,1014.64 339.52,1116.84 543.94,1116.84 					"/>
				</g>
				<g>
					<polygon class="st1" points="643.94,1014.64 541.73,1116.84 746.15,1116.84 					"/>
				</g>
				<g>
					<polygon class="st1" points="846.41,1014.64 744.2,1116.84 948.62,1116.84 					"/>
				</g>
				<g>
					<polygon class="st1" points="1048.61,1014.64 946.4,1116.84 1150.82,1116.84 					"/>
				</g>
				<g>
					<polygon class="st1" points="1251.08,1014.64 1148.87,1116.84 1353.29,1116.84 					"/>
				</g>
				<g>
					<polygon class="st1" points="1453.29,1014.64 1351.08,1116.84 1555.5,1116.84 					"/>
				</g>
				<g>
					<polygon class="st1" points="1655.76,1014.64 1553.55,1116.84 1757.97,1116.84 					"/>
				</g>
				<g>
					<polygon class="st1" points="1857.96,1014.64 1755.76,1116.84 1960.18,1116.84 					"/>
				</g>
				<g>
					<polygon class="st1" points="2060.44,1014.64 1958.23,1116.84 2162.65,1116.84 					"/>
				</g>
				<g>
					<polygon class="st1" points="2262.64,1014.64 2160.43,1116.84 2364.85,1116.84 					"/>
				</g>
				<g>
					<polygon class="st1" points="2465.11,1014.64 2362.9,1116.84 2567.32,1116.84 					"/>
				</g>
				<g>
					<polygon class="st1" points="2667.32,1014.64 2565.11,1116.84 2769.53,1116.84 					"/>
				</g>
				<g>
					<polygon class="st1" points="2869.79,1014.64 2767.58,1116.84 2972,1116.84 					"/>
				</g>
			</g>
			<g>
				<polygon class="st1" points="-938.51,953.19 -1038.79,1053.47 -838.23,1053.47 				"/>
				<polygon class="st1" points="-739.86,953.19 -840.14,1053.47 -639.58,1053.47 				"/>
				<polygon class="st1" points="-541.47,953.19 -641.75,1053.47 -441.19,1053.47 				"/>
				<polygon class="st1" points="-342.82,953.19 -443.1,1053.47 -242.54,1053.47 				"/>
				<polygon class="st1" points="-144.42,953.19 -244.71,1053.47 -44.14,1053.47 				"/>
				<polygon class="st1" points="54.23,953.19 -46.06,1053.47 154.51,1053.47 				"/>
				<polygon class="st1" points="252.62,953.19 152.34,1053.47 352.9,1053.47 				"/>
				<polygon class="st1" points="451.27,953.19 350.99,1053.47 551.55,1053.47 				"/>
				<polygon class="st1" points="649.66,953.19 549.38,1053.47 749.94,1053.47 				"/>
				<polygon class="st1" points="848.31,953.19 748.03,1053.47 948.6,1053.47 				"/>
				<polygon class="st1" points="1046.71,953.19 946.42,1053.47 1146.99,1053.47 				"/>
				<polygon class="st1" points="1245.36,953.19 1145.07,1053.47 1345.64,1053.47 				"/>
				<polygon class="st1" points="1443.75,953.19 1343.47,1053.47 1544.03,1053.47 				"/>
				<polygon class="st1" points="1642.4,953.19 1542.12,1053.47 1742.68,1053.47 				"/>
				<polygon class="st1" points="1840.79,953.19 1740.51,1053.47 1941.07,1053.47 				"/>
				<polygon class="st1" points="2039.44,953.19 1939.16,1053.47 2139.72,1053.47 				"/>
				<polygon class="st1" points="2237.83,953.19 2137.55,1053.47 2338.12,1053.47 				"/>
				<polygon class="st1" points="2436.49,953.19 2336.2,1053.47 2536.77,1053.47 				"/>
				<polygon class="st1" points="2634.88,953.19 2534.6,1053.47 2735.16,1053.47 				"/>
				<polygon class="st1" points="2833.53,953.19 2733.25,1053.47 2933.81,1053.47 				"/>
			</g>
			<g>
				<polygon class="st1" points="-902.25,891.75 -1000.61,990.1 -803.9,990.1 				"/>
				<polygon class="st1" points="-707.42,891.75 -805.77,990.1 -609.07,990.1 				"/>
				<polygon class="st1" points="-512.84,891.75 -611.2,990.1 -414.49,990.1 				"/>
				<polygon class="st1" points="-318.01,891.75 -416.36,990.1 -219.66,990.1 				"/>
				<polygon class="st1" points="-123.43,891.75 -221.79,990.1 -25.08,990.1 				"/>
				<polygon class="st1" points="71.4,891.75 -26.95,990.1 169.75,990.1 				"/>
				<polygon class="st1" points="265.98,891.75 167.63,990.1 364.33,990.1 				"/>
				<polygon class="st1" points="460.81,891.75 362.46,990.1 559.17,990.1 				"/>
				<polygon class="st1" points="655.39,891.75 557.03,990.1 753.74,990.1 				"/>
				<polygon class="st1" points="850.22,891.75 751.87,990.1 948.58,990.1 				"/>
				<polygon class="st1" points="1044.8,891.75 946.44,990.1 1143.15,990.1 				"/>
				<polygon class="st1" points="1239.63,891.75 1141.28,990.1 1337.98,990.1 				"/>
				<polygon class="st1" points="1434.21,891.75 1335.85,990.1 1532.56,990.1 				"/>
				<polygon class="st1" points="1629.04,891.75 1530.69,990.1 1727.39,990.1 				"/>
				<polygon class="st1" points="1823.62,891.75 1725.26,990.1 1921.97,990.1 				"/>
				<polygon class="st1" points="2018.45,891.75 1920.1,990.1 2116.8,990.1 				"/>
				<polygon class="st1" points="2213.03,891.75 2114.67,990.1 2311.38,990.1 				"/>
				<polygon class="st1" points="2407.86,891.75 2309.5,990.1 2506.21,990.1 				"/>
				<polygon class="st1" points="2602.44,891.75 2504.08,990.1 2700.79,990.1 				"/>
				<polygon class="st1" points="2797.27,891.75 2698.91,990.1 2895.62,990.1 				"/>
			</g>
			<g>
				<polygon class="st1" points="-865.99,830.3 -962.42,926.73 -769.56,926.73 				"/>
				<polygon class="st1" points="-674.98,830.3 -771.4,926.73 -578.55,926.73 				"/>
				<polygon class="st1" points="-484.21,830.3 -580.64,926.73 -387.79,926.73 				"/>
				<polygon class="st1" points="-293.2,830.3 -389.63,926.73 -196.78,926.73 				"/>
				<polygon class="st1" points="-102.44,830.3 -198.86,926.73 -6.01,926.73 				"/>
				<polygon class="st1" points="88.57,830.3 -7.85,926.73 185,926.73 				"/>
				<polygon class="st1" points="279.34,830.3 182.91,926.73 375.76,926.73 				"/>
				<polygon class="st1" points="470.35,830.3 373.93,926.73 566.78,926.73 				"/>
				<polygon class="st1" points="661.12,830.3 564.69,926.73 757.54,926.73 				"/>
				<polygon class="st1" points="852.13,830.3 755.7,926.73 948.55,926.73 				"/>
				<polygon class="st1" points="1042.89,830.3 946.46,926.73 1139.32,926.73 				"/>
				<polygon class="st1" points="1233.9,830.3 1137.48,926.73 1330.33,926.73 				"/>
				<polygon class="st1" points="1424.67,830.3 1328.24,926.73 1521.09,926.73 				"/>
				<polygon class="st1" points="1615.68,830.3 1519.25,926.73 1712.11,926.73 				"/>
				<polygon class="st1" points="1806.44,830.3 1710.02,926.73 1902.87,926.73 				"/>
				<polygon class="st1" points="1997.45,830.3 1901.03,926.73 2093.88,926.73 				"/>
				<polygon class="st1" points="2188.22,830.3 2091.79,926.73 2284.65,926.73 				"/>
				<polygon class="st1" points="2379.23,830.3 2282.81,926.73 2475.66,926.73 				"/>
				<polygon class="st1" points="2570,830.3 2473.57,926.73 2666.42,926.73 				"/>
				<polygon class="st1" points="2761.01,830.3 2664.58,926.73 2857.43,926.73 				"/>
			</g>
			<g>
				<polygon class="st1" points="-829.73,768.86 -924.23,863.35 -735.23,863.35 				"/>
				<polygon class="st1" points="-642.54,768.86 -737.03,863.35 -548.04,863.35 				"/>
				<polygon class="st1" points="-455.59,768.86 -550.09,863.35 -361.09,863.35 				"/>
				<polygon class="st1" points="-268.39,768.86 -362.89,863.35 -173.9,863.35 				"/>
				<polygon class="st1" points="-81.44,768.86 -175.94,863.35 13.05,863.35 				"/>
				<polygon class="st1" points="105.75,768.86 11.25,863.35 200.25,863.35 				"/>
				<polygon class="st1" points="292.7,768.86 198.2,863.35 387.2,863.35 				"/>
				<polygon class="st1" points="479.89,768.86 385.39,863.35 574.39,863.35 				"/>
				<polygon class="st1" points="666.84,768.86 572.34,863.35 761.34,863.35 				"/>
				<polygon class="st1" points="854.03,768.86 759.54,863.35 948.53,863.35 				"/>
				<polygon class="st1" points="1040.98,768.86 946.49,863.35 1135.48,863.35 				"/>
				<polygon class="st1" points="1228.18,768.86 1133.68,863.35 1322.68,863.35 				"/>
				<polygon class="st1" points="1415.13,768.86 1320.63,863.35 1509.63,863.35 				"/>
				<polygon class="st1" points="1602.32,768.86 1507.82,863.35 1696.82,863.35 				"/>
				<polygon class="st1" points="1789.27,768.86 1694.77,863.35 1883.77,863.35 				"/>
				<polygon class="st1" points="1976.46,768.86 1881.96,863.35 2070.96,863.35 				"/>
				<polygon class="st1" points="2163.41,768.86 2068.91,863.35 2257.91,863.35 				"/>
				<polygon class="st1" points="2350.6,768.86 2256.11,863.35 2445.1,863.35 				"/>
				<polygon class="st1" points="2537.55,768.86 2443.06,863.35 2632.05,863.35 				"/>
				<polygon class="st1" points="2724.75,768.86 2630.25,863.35 2819.25,863.35 				"/>
			</g>
			<g>
				<polygon class="st1" points="-793.47,707.41 -886.04,799.98 -700.9,799.98 				"/>
				<polygon class="st1" points="-610.1,707.41 -702.67,799.98 -517.53,799.98 				"/>
				<polygon class="st1" points="-426.96,707.41 -519.53,799.98 -334.39,799.98 				"/>
				<polygon class="st1" points="-243.59,707.41 -336.16,799.98 -151.02,799.98 				"/>
				<polygon class="st1" points="-60.45,707.41 -153.02,799.98 32.12,799.98 				"/>
				<polygon class="st1" points="122.92,707.41 30.35,799.98 215.49,799.98 				"/>
				<polygon class="st1" points="306.06,707.41 213.49,799.98 398.63,799.98 				"/>
				<polygon class="st1" points="489.43,707.41 396.86,799.98 582,799.98 				"/>
				<polygon class="st1" points="672.57,707.41 580,799.98 765.14,799.98 				"/>
				<polygon class="st1" points="855.94,707.41 763.37,799.98 948.51,799.98 				"/>
				<polygon class="st1" points="1039.08,707.41 946.51,799.98 1131.65,799.98 				"/>
				<polygon class="st1" points="1222.45,707.41 1129.88,799.98 1315.02,799.98 				"/>
				<polygon class="st1" points="1405.59,707.41 1313.01,799.98 1498.16,799.98 				"/>
				<polygon class="st1" points="1588.96,707.41 1496.39,799.98 1681.53,799.98 				"/>
				<polygon class="st1" points="1772.09,707.41 1679.52,799.98 1864.66,799.98 				"/>
				<polygon class="st1" points="1955.47,707.41 1862.9,799.98 2048.04,799.98 				"/>
				<polygon class="st1" points="2138.6,707.41 2046.03,799.98 2231.17,799.98 				"/>
				<polygon class="st1" points="2321.98,707.41 2229.41,799.98 2414.55,799.98 				"/>
				<polygon class="st1" points="2505.11,707.41 2412.54,799.98 2597.68,799.98 				"/>
				<polygon class="st1" points="2688.49,707.41 2595.92,799.98 2781.06,799.98 				"/>
			</g>
			<g>
				<polygon class="st1" points="-757.21,645.97 -847.85,736.61 -666.57,736.61 				"/>
				<polygon class="st1" points="-577.65,645.97 -668.3,736.61 -487.01,736.61 				"/>
				<polygon class="st1" points="-398.33,645.97 -488.98,736.61 -307.69,736.61 				"/>
				<polygon class="st1" points="-218.78,645.97 -309.42,736.61 -128.14,736.61 				"/>
				<polygon class="st1" points="-39.46,645.97 -130.1,736.61 51.18,736.61 				"/>
				<polygon class="st1" points="140.1,645.97 49.46,736.61 230.74,736.61 				"/>
				<polygon class="st1" points="319.42,645.97 228.78,736.61 410.06,736.61 				"/>
				<polygon class="st1" points="498.97,645.97 408.33,736.61 589.62,736.61 				"/>
				<polygon class="st1" points="678.29,645.97 587.65,736.61 768.94,736.61 				"/>
				<polygon class="st1" points="857.85,645.97 767.21,736.61 948.49,736.61 				"/>
				<polygon class="st1" points="1037.17,645.97 946.53,736.61 1127.81,736.61 				"/>
				<polygon class="st1" points="1216.72,645.97 1126.08,736.61 1307.37,736.61 				"/>
				<polygon class="st1" points="1396.05,645.97 1305.4,736.61 1486.69,736.61 				"/>
				<polygon class="st1" points="1575.6,645.97 1484.96,736.61 1666.24,736.61 				"/>
				<polygon class="st1" points="1754.92,645.97 1664.28,736.61 1845.56,736.61 				"/>
				<polygon class="st1" points="1934.47,645.97 1843.83,736.61 2025.12,736.61 				"/>
				<polygon class="st1" points="2113.8,645.97 2023.15,736.61 2204.44,736.61 				"/>
				<polygon class="st1" points="2293.35,645.97 2202.71,736.61 2383.99,736.61 				"/>
				<polygon class="st1" points="2472.67,645.97 2382.03,736.61 2563.31,736.61 				"/>
				<polygon class="st1" points="2652.23,645.97 2561.58,736.61 2742.87,736.61 				"/>
			</g>
			<g>
				<polygon class="st1" points="-720.95,584.52 -809.66,673.24 -632.23,673.24 				"/>
				<polygon class="st1" points="-545.21,584.52 -633.93,673.24 -456.5,673.24 				"/>
				<polygon class="st1" points="-369.71,584.52 -458.42,673.24 -280.99,673.24 				"/>
				<polygon class="st1" points="-193.97,584.52 -282.68,673.24 -105.26,673.24 				"/>
				<polygon class="st1" points="-18.46,584.52 -107.18,673.24 70.25,673.24 				"/>
				<polygon class="st1" points="157.27,584.52 68.56,673.24 245.98,673.24 				"/>
				<polygon class="st1" points="332.78,584.52 244.06,673.24 421.49,673.24 				"/>
				<polygon class="st1" points="508.51,584.52 419.8,673.24 597.23,673.24 				"/>
				<polygon class="st1" points="684.02,584.52 595.31,673.24 772.73,673.24 				"/>
				<polygon class="st1" points="859.76,584.52 771.04,673.24 948.47,673.24 				"/>
				<polygon class="st1" points="1035.26,584.52 946.55,673.24 1123.98,673.24 				"/>
				<polygon class="st1" points="1211,584.52 1122.28,673.24 1299.71,673.24 				"/>
				<polygon class="st1" points="1386.5,584.52 1297.79,673.24 1475.22,673.24 				"/>
				<polygon class="st1" points="1562.24,584.52 1473.53,673.24 1650.95,673.24 				"/>
				<polygon class="st1" points="1737.75,584.52 1649.03,673.24 1826.46,673.24 				"/>
				<polygon class="st1" points="1913.48,584.52 1824.77,673.24 2002.2,673.24 				"/>
				<polygon class="st1" points="2088.99,584.52 2000.27,673.24 2177.7,673.24 				"/>
				<polygon class="st1" points="2264.72,584.52 2176.01,673.24 2353.44,673.24 				"/>
				<polygon class="st1" points="2440.23,584.52 2351.52,673.24 2528.94,673.24 				"/>
				<polygon class="st1" points="2615.97,584.52 2527.25,673.24 2704.68,673.24 				"/>
			</g>
			<g>
				<polygon class="st1" points="-684.69,523.08 -771.47,609.86 -597.9,609.86 				"/>
				<polygon class="st1" points="-512.77,523.08 -599.56,609.86 -425.99,609.86 				"/>
				<polygon class="st1" points="-341.08,523.08 -427.87,609.86 -254.29,609.86 				"/>
				<polygon class="st1" points="-169.16,523.08 -255.95,609.86 -82.38,609.86 				"/>
				<polygon class="st1" points="2.53,523.08 -84.26,609.86 89.32,609.86 				"/>
				<polygon class="st1" points="174.45,523.08 87.66,609.86 261.23,609.86 				"/>
				<polygon class="st1" points="346.14,523.08 259.35,609.86 432.92,609.86 				"/>
				<polygon class="st1" points="518.05,523.08 431.27,609.86 604.84,609.86 				"/>
				<polygon class="st1" points="689.75,523.08 602.96,609.86 776.53,609.86 				"/>
				<polygon class="st1" points="861.66,523.08 774.88,609.86 948.45,609.86 				"/>
				<polygon class="st1" points="1033.36,523.08 946.57,609.86 1120.14,609.86 				"/>
				<polygon class="st1" points="1205.27,523.08 1118.48,609.86 1292.06,609.86 				"/>
				<polygon class="st1" points="1376.96,523.08 1290.18,609.86 1463.75,609.86 				"/>
				<polygon class="st1" points="1548.88,523.08 1462.09,609.86 1635.67,609.86 				"/>
				<polygon class="st1" points="1720.57,523.08 1633.79,609.86 1807.36,609.86 				"/>
				<polygon class="st1" points="1892.49,523.08 1805.7,609.86 1979.27,609.86 				"/>
				<polygon class="st1" points="2064.18,523.08 1977.39,609.86 2150.97,609.86 				"/>
				<polygon class="st1" points="2236.1,523.08 2149.31,609.86 2322.88,609.86 				"/>
				<polygon class="st1" points="2407.79,523.08 2321,609.86 2494.58,609.86 				"/>
				<polygon class="st1" points="2579.71,523.08 2492.92,609.86 2666.49,609.86 				"/>
			</g>
			<g>
				<polygon class="st1" points="-648.43,461.63 -733.29,546.49 -563.57,546.49 				"/>
				<polygon class="st1" points="-480.33,461.63 -565.19,546.49 -395.47,546.49 				"/>
				<polygon class="st1" points="-312.45,461.63 -397.31,546.49 -227.59,546.49 				"/>
				<polygon class="st1" points="-144.36,461.63 -229.21,546.49 -59.5,546.49 				"/>
				<polygon class="st1" points="23.52,461.63 -61.34,546.49 108.38,546.49 				"/>
				<polygon class="st1" points="191.62,461.63 106.76,546.49 276.48,546.49 				"/>
				<polygon class="st1" points="359.5,461.63 274.64,546.49 444.36,546.49 				"/>
				<polygon class="st1" points="527.59,461.63 442.74,546.49 612.45,546.49 				"/>
				<polygon class="st1" points="695.47,461.63 610.62,546.49 780.33,546.49 				"/>
				<polygon class="st1" points="863.57,461.63 778.71,546.49 948.43,546.49 				"/>
				<polygon class="st1" points="1031.45,461.63 946.59,546.49 1116.31,546.49 				"/>
				<polygon class="st1" points="1199.55,461.63 1114.69,546.49 1284.4,546.49 				"/>
				<polygon class="st1" points="1367.42,461.63 1282.56,546.49 1452.28,546.49 				"/>
				<polygon class="st1" points="1535.52,461.63 1450.66,546.49 1620.38,546.49 				"/>
				<polygon class="st1" points="1703.4,461.63 1618.54,546.49 1788.26,546.49 				"/>
				<polygon class="st1" points="1871.49,461.63 1786.64,546.49 1956.35,546.49 				"/>
				<polygon class="st1" points="2039.37,461.63 1954.52,546.49 2124.23,546.49 				"/>
				<polygon class="st1" points="2207.47,461.63 2122.61,546.49 2292.33,546.49 				"/>
				<polygon class="st1" points="2375.35,461.63 2290.49,546.49 2460.21,546.49 				"/>
				<polygon class="st1" points="2543.44,461.63 2458.59,546.49 2628.3,546.49 				"/>
			</g>
			<g>
				<polygon class="st1" points="-612.17,400.19 -695.1,483.12 -529.24,483.12 				"/>
				<polygon class="st1" points="-447.89,400.19 -530.82,483.12 -364.96,483.12 				"/>
				<polygon class="st1" points="-283.83,400.19 -366.76,483.12 -200.89,483.12 				"/>
				<polygon class="st1" points="-119.55,400.19 -202.48,483.12 -36.62,483.12 				"/>
				<polygon class="st1" points="44.52,400.19 -38.41,483.12 127.45,483.12 				"/>
				<polygon class="st1" points="208.79,400.19 125.86,483.12 291.72,483.12 				"/>
				<polygon class="st1" points="372.86,400.19 289.93,483.12 455.79,483.12 				"/>
				<polygon class="st1" points="537.13,400.19 454.21,483.12 620.07,483.12 				"/>
				<polygon class="st1" points="701.2,400.19 618.27,483.12 784.13,483.12 				"/>
				<polygon class="st1" points="865.48,400.19 782.55,483.12 948.41,483.12 				"/>
				<polygon class="st1" points="1029.54,400.19 946.61,483.12 1112.47,483.12 				"/>
				<polygon class="st1" points="1193.82,400.19 1110.89,483.12 1276.75,483.12 				"/>
				<polygon class="st1" points="1357.88,400.19 1274.95,483.12 1440.81,483.12 				"/>
				<polygon class="st1" points="1522.16,400.19 1439.23,483.12 1605.09,483.12 				"/>
				<polygon class="st1" points="1686.22,400.19 1603.29,483.12 1769.15,483.12 				"/>
				<polygon class="st1" points="1850.5,400.19 1767.57,483.12 1933.43,483.12 				"/>
				<polygon class="st1" points="2014.56,400.19 1931.64,483.12 2097.5,483.12 				"/>
				<polygon class="st1" points="2178.84,400.19 2095.91,483.12 2261.77,483.12 				"/>
				<polygon class="st1" points="2342.91,400.19 2259.98,483.12 2425.84,483.12 				"/>
				<polygon class="st1" points="2507.18,400.19 2424.25,483.12 2590.11,483.12 				"/>
			</g>
			<g>
				<polygon class="st1" points="-575.91,338.74 -656.91,419.75 -494.9,419.75 				"/>
				<polygon class="st1" points="-415.45,338.74 -496.45,419.75 -334.45,419.75 				"/>
				<polygon class="st1" points="-255.2,338.74 -336.2,419.75 -174.2,419.75 				"/>
				<polygon class="st1" points="-94.74,338.74 -175.74,419.75 -13.74,419.75 				"/>
				<polygon class="st1" points="65.51,338.74 -15.49,419.75 146.51,419.75 				"/>
				<polygon class="st1" points="225.97,338.74 144.97,419.75 306.97,419.75 				"/>
				<polygon class="st1" points="386.22,338.74 305.22,419.75 467.22,419.75 				"/>
				<polygon class="st1" points="546.68,338.74 465.67,419.75 627.68,419.75 				"/>
				<polygon class="st1" points="706.93,338.74 625.92,419.75 787.93,419.75 				"/>
				<polygon class="st1" points="867.38,338.74 786.38,419.75 948.39,419.75 				"/>
				<polygon class="st1" points="1027.63,338.74 946.63,419.75 1108.64,419.75 				"/>
				<polygon class="st1" points="1188.09,338.74 1107.09,419.75 1269.09,419.75 				"/>
				<polygon class="st1" points="1348.34,338.74 1267.34,419.75 1429.34,419.75 				"/>
				<polygon class="st1" points="1508.8,338.74 1427.8,419.75 1589.8,419.75 				"/>
				<polygon class="st1" points="1669.05,338.74 1588.05,419.75 1750.05,419.75 				"/>
				<polygon class="st1" points="1829.51,338.74 1748.51,419.75 1910.51,419.75 				"/>
				<polygon class="st1" points="1989.76,338.74 1908.76,419.75 2070.76,419.75 				"/>
				<polygon class="st1" points="2150.22,338.74 2069.21,419.75 2231.22,419.75 				"/>
				<polygon class="st1" points="2310.47,338.74 2229.46,419.75 2391.47,419.75 				"/>
				<polygon class="st1" points="2470.92,338.74 2389.92,419.75 2551.93,419.75 				"/>
			</g>
			<g>
				<polygon class="st1" points="-539.65,277.3 -618.72,356.37 -460.57,356.37 				"/>
				<polygon class="st1" points="-383.01,277.3 -462.08,356.37 -303.93,356.37 				"/>
				<polygon class="st1" points="-226.57,277.3 -305.65,356.37 -147.5,356.37 				"/>
				<polygon class="st1" points="-69.93,277.3 -149.01,356.37 9.14,356.37 				"/>
				<polygon class="st1" points="86.5,277.3 7.43,356.37 165.58,356.37 				"/>
				<polygon class="st1" points="243.14,277.3 164.07,356.37 322.22,356.37 				"/>
				<polygon class="st1" points="399.58,277.3 320.5,356.37 478.65,356.37 				"/>
				<polygon class="st1" points="556.22,277.3 477.14,356.37 635.29,356.37 				"/>
				<polygon class="st1" points="712.65,277.3 633.58,356.37 791.73,356.37 				"/>
				<polygon class="st1" points="869.29,277.3 790.22,356.37 948.37,356.37 				"/>
				<polygon class="st1" points="1025.73,277.3 946.65,356.37 1104.8,356.37 				"/>
				<polygon class="st1" points="1182.37,277.3 1103.29,356.37 1261.44,356.37 				"/>
				<polygon class="st1" points="1338.8,277.3 1259.73,356.37 1417.88,356.37 				"/>
				<polygon class="st1" points="1495.44,277.3 1416.37,356.37 1574.51,356.37 				"/>
				<polygon class="st1" points="1651.87,277.3 1572.8,356.37 1730.95,356.37 				"/>
				<polygon class="st1" points="1808.51,277.3 1729.44,356.37 1887.59,356.37 				"/>
				<polygon class="st1" points="1964.95,277.3 1885.88,356.37 2044.02,356.37 				"/>
				<polygon class="st1" points="2121.59,277.3 2042.51,356.37 2200.66,356.37 				"/>
				<polygon class="st1" points="2278.02,277.3 2198.95,356.37 2357.1,356.37 				"/>
				<polygon class="st1" points="2434.66,277.3 2355.59,356.37 2513.74,356.37 				"/>
			</g>
			<g>
				<polygon class="st1" points="-503.39,215.85 -580.53,293 -426.24,293 				"/>
				<polygon class="st1" points="-350.57,215.85 -427.71,293 -273.42,293 				"/>
				<polygon class="st1" points="-197.94,215.85 -275.09,293 -120.8,293 				"/>
				<polygon class="st1" points="-45.12,215.85 -122.27,293 32.02,293 				"/>
				<polygon class="st1" points="107.5,215.85 30.35,293 184.64,293 				"/>
				<polygon class="st1" points="260.32,215.85 183.17,293 337.46,293 				"/>
				<polygon class="st1" points="412.94,215.85 335.79,293 490.08,293 				"/>
				<polygon class="st1" points="565.76,215.85 488.61,293 642.9,293 				"/>
				<polygon class="st1" points="718.38,215.85 641.23,293 795.52,293 				"/>
				<polygon class="st1" points="871.2,215.85 794.05,293 948.34,293 				"/>
				<polygon class="st1" points="1023.82,215.85 946.67,293 1100.97,293 				"/>
				<polygon class="st1" points="1176.64,215.85 1099.49,293 1253.79,293 				"/>
				<polygon class="st1" points="1329.26,215.85 1252.11,293 1406.41,293 				"/>
				<polygon class="st1" points="1482.08,215.85 1404.93,293 1559.23,293 				"/>
				<polygon class="st1" points="1634.7,215.85 1557.56,293 1711.85,293 				"/>
				<polygon class="st1" points="1787.52,215.85 1710.38,293 1864.67,293 				"/>
				<polygon class="st1" points="1940.14,215.85 1863,293 2017.29,293 				"/>
				<polygon class="st1" points="2092.96,215.85 2015.82,293 2170.11,293 				"/>
				<polygon class="st1" points="2245.58,215.85 2168.44,293 2322.73,293 				"/>
				<polygon class="st1" points="2398.4,215.85 2321.26,293 2475.55,293 				"/>
			</g>
			<g>
				<polygon class="st1" points="-467.12,154.41 -542.34,229.63 -391.91,229.63 				"/>
				<polygon class="st1" points="-318.12,154.41 -393.34,229.63 -242.91,229.63 				"/>
				<polygon class="st1" points="-169.32,154.41 -244.54,229.63 -94.1,229.63 				"/>
				<polygon class="st1" points="-20.32,154.41 -95.53,229.63 54.9,229.63 				"/>
				<polygon class="st1" points="128.49,154.41 53.27,229.63 203.71,229.63 				"/>
				<polygon class="st1" points="277.49,154.41 202.27,229.63 352.71,229.63 				"/>
				<polygon class="st1" points="426.3,154.41 351.08,229.63 501.51,229.63 				"/>
				<polygon class="st1" points="575.3,154.41 500.08,229.63 650.52,229.63 				"/>
				<polygon class="st1" points="724.11,154.41 648.89,229.63 799.32,229.63 				"/>
				<polygon class="st1" points="873.11,154.41 797.89,229.63 948.32,229.63 				"/>
				<polygon class="st1" points="1021.91,154.41 946.69,229.63 1097.13,229.63 				"/>
				<polygon class="st1" points="1170.91,154.41 1095.69,229.63 1246.13,229.63 				"/>
				<polygon class="st1" points="1319.72,154.41 1244.5,229.63 1394.94,229.63 				"/>
				<polygon class="st1" points="1468.72,154.41 1393.5,229.63 1543.94,229.63 				"/>
				<polygon class="st1" points="1617.53,154.41 1542.31,229.63 1692.74,229.63 				"/>
				<polygon class="st1" points="1766.53,154.41 1691.31,229.63 1841.75,229.63 				"/>
				<polygon class="st1" points="1915.33,154.41 1840.12,229.63 1990.55,229.63 				"/>
				<polygon class="st1" points="2064.33,154.41 1989.12,229.63 2139.55,229.63 				"/>
				<polygon class="st1" points="2213.14,154.41 2137.92,229.63 2288.36,229.63 				"/>
				<polygon class="st1" points="2362.14,154.41 2286.92,229.63 2437.36,229.63 				"/>
			</g>
			<g>
				<polygon class="st1" points="-430.86,92.97 -504.15,166.25 -357.57,166.25 				"/>
				<polygon class="st1" points="-285.68,92.97 -358.97,166.25 -212.39,166.25 				"/>
				<polygon class="st1" points="-140.69,92.97 -213.98,166.25 -67.4,166.25 				"/>
				<polygon class="st1" points="4.49,92.97 -68.8,166.25 77.78,166.25 				"/>
				<polygon class="st1" points="149.48,92.97 76.19,166.25 222.77,166.25 				"/>
				<polygon class="st1" points="294.66,92.97 221.37,166.25 367.95,166.25 				"/>
				<polygon class="st1" points="439.66,92.97 366.37,166.25 512.95,166.25 				"/>
				<polygon class="st1" points="584.84,92.97 511.55,166.25 658.13,166.25 				"/>
				<polygon class="st1" points="729.83,92.97 656.54,166.25 803.12,166.25 				"/>
				<polygon class="st1" points="875.01,92.97 801.72,166.25 948.3,166.25 				"/>
				<polygon class="st1" points="1020.01,92.97 946.72,166.25 1093.3,166.25 				"/>
				<polygon class="st1" points="1165.19,92.97 1091.9,166.25 1238.48,166.25 				"/>
				<polygon class="st1" points="1310.18,92.97 1236.89,166.25 1383.47,166.25 				"/>
				<polygon class="st1" points="1455.36,92.97 1382.07,166.25 1528.65,166.25 				"/>
				<polygon class="st1" points="1600.35,92.97 1527.06,166.25 1673.64,166.25 				"/>
				<polygon class="st1" points="1745.53,92.97 1672.24,166.25 1818.82,166.25 				"/>
				<polygon class="st1" points="1890.53,92.97 1817.24,166.25 1963.82,166.25 				"/>
				<polygon class="st1" points="2035.71,92.97 1962.42,166.25 2109,166.25 				"/>
				<polygon class="st1" points="2180.7,92.97 2107.41,166.25 2253.99,166.25 				"/>
				<polygon class="st1" points="2325.88,92.97 2252.59,166.25 2399.17,166.25 				"/>
			</g>
			<g>
				<polygon class="st1" points="-394.6,31.52 -465.97,102.88 -323.24,102.88 				"/>
				<polygon class="st1" points="-253.24,31.52 -324.6,102.88 -181.88,102.88 				"/>
				<polygon class="st1" points="-112.06,31.52 -183.43,102.88 -40.7,102.88 				"/>
				<polygon class="st1" points="29.3,31.52 -42.06,102.88 100.66,102.88 				"/>
				<polygon class="st1" points="170.48,31.52 99.11,102.88 241.84,102.88 				"/>
				<polygon class="st1" points="311.84,31.52 240.48,102.88 383.2,102.88 				"/>
				<polygon class="st1" points="453.02,31.52 381.66,102.88 524.38,102.88 				"/>
				<polygon class="st1" points="594.38,31.52 523.02,102.88 665.74,102.88 				"/>
				<polygon class="st1" points="735.56,31.52 664.2,102.88 806.92,102.88 				"/>
				<polygon class="st1" points="876.92,31.52 805.56,102.88 948.28,102.88 				"/>
				<polygon class="st1" points="1018.1,31.52 946.74,102.88 1089.46,102.88 				"/>
				<polygon class="st1" points="1159.46,31.52 1088.1,102.88 1230.82,102.88 				"/>
				<polygon class="st1" points="1300.64,31.52 1229.28,102.88 1372,102.88 				"/>
				<polygon class="st1" points="1442,31.52 1370.64,102.88 1513.36,102.88 				"/>
				<polygon class="st1" points="1583.18,31.52 1511.82,102.88 1654.54,102.88 				"/>
				<polygon class="st1" points="1724.54,31.52 1653.18,102.88 1795.9,102.88 				"/>
				<polygon class="st1" points="1865.72,31.52 1794.36,102.88 1937.08,102.88 				"/>
				<polygon class="st1" points="2007.08,31.52 1935.72,102.88 2078.44,102.88 				"/>
				<polygon class="st1" points="2148.26,31.52 2076.9,102.88 2219.62,102.88 				"/>
				<polygon class="st1" points="2289.62,31.52 2218.26,102.88 2360.98,102.88 				"/>
			</g>
			<g>
				<polygon class="st1" points="-358.34,-29.92 -427.78,39.51 -288.91,39.51 				"/>
				<polygon class="st1" points="-220.8,-29.92 -290.23,39.51 -151.37,39.51 				"/>
				<polygon class="st1" points="-83.44,-29.92 -152.87,39.51 -14,39.51 				"/>
				<polygon class="st1" points="54.11,-29.92 -15.33,39.51 123.54,39.51 				"/>
				<polygon class="st1" points="191.47,-29.92 122.04,39.51 260.9,39.51 				"/>
				<polygon class="st1" points="329.01,-29.92 259.58,39.51 398.45,39.51 				"/>
				<polygon class="st1" points="466.38,-29.92 396.94,39.51 535.81,39.51 				"/>
				<polygon class="st1" points="603.92,-29.92 534.49,39.51 673.35,39.51 				"/>
				<polygon class="st1" points="741.28,-29.92 671.85,39.51 810.72,39.51 				"/>
				<polygon class="st1" points="878.83,-29.92 809.39,39.51 948.26,39.51 				"/>
				<polygon class="st1" points="1016.19,-29.92 946.76,39.51 1085.62,39.51 				"/>
				<polygon class="st1" points="1153.73,-29.92 1084.3,39.51 1223.17,39.51 				"/>
				<polygon class="st1" points="1291.1,-29.92 1221.66,39.51 1360.53,39.51 				"/>
				<polygon class="st1" points="1428.64,-29.92 1359.21,39.51 1498.07,39.51 				"/>
				<polygon class="st1" points="1566,-29.92 1496.57,39.51 1635.44,39.51 				"/>
				<polygon class="st1" points="1703.55,-29.92 1634.11,39.51 1772.98,39.51 				"/>
				<polygon class="st1" points="1840.91,-29.92 1771.48,39.51 1910.34,39.51 				"/>
				<polygon class="st1" points="1978.45,-29.92 1909.02,39.51 2047.89,39.51 				"/>
				<polygon class="st1" points="2115.82,-29.92 2046.38,39.51 2185.25,39.51 				"/>
				<polygon class="st1" points="2253.36,-29.92 2183.93,39.51 2322.79,39.51 				"/>
			</g>
			<g>
				<polygon class="st1" points="-322.08,-91.37 -389.59,-23.86 -254.58,-23.86 				"/>
				<polygon class="st1" points="-188.36,-91.37 -255.86,-23.86 -120.85,-23.86 				"/>
				<polygon class="st1" points="-54.81,-91.37 -122.32,-23.86 12.7,-23.86 				"/>
				<polygon class="st1" points="78.91,-91.37 11.41,-23.86 146.42,-23.86 				"/>
				<polygon class="st1" points="212.46,-91.37 144.96,-23.86 279.97,-23.86 				"/>
				<polygon class="st1" points="346.19,-91.37 278.68,-23.86 413.69,-23.86 				"/>
				<polygon class="st1" points="479.74,-91.37 412.23,-23.86 547.24,-23.86 				"/>
				<polygon class="st1" points="613.46,-91.37 545.96,-23.86 680.97,-23.86 				"/>
				<polygon class="st1" points="747.01,-91.37 679.5,-23.86 814.52,-23.86 				"/>
				<polygon class="st1" points="880.73,-91.37 813.23,-23.86 948.24,-23.86 				"/>
				<polygon class="st1" points="1014.28,-91.37 946.78,-23.86 1081.79,-23.86 				"/>
				<polygon class="st1" points="1148.01,-91.37 1080.5,-23.86 1215.51,-23.86 				"/>
				<polygon class="st1" points="1281.56,-91.37 1214.05,-23.86 1349.06,-23.86 				"/>
				<polygon class="st1" points="1415.28,-91.37 1347.78,-23.86 1482.79,-23.86 				"/>
				<polygon class="st1" points="1548.83,-91.37 1481.32,-23.86 1616.34,-23.86 				"/>
				<polygon class="st1" points="1682.55,-91.37 1615.05,-23.86 1750.06,-23.86 				"/>
				<polygon class="st1" points="1816.1,-91.37 1748.6,-23.86 1883.61,-23.86 				"/>
				<polygon class="st1" points="1949.83,-91.37 1882.32,-23.86 2017.33,-23.86 				"/>
				<polygon class="st1" points="2083.38,-91.37 2015.87,-23.86 2150.88,-23.86 				"/>
				<polygon class="st1" points="2217.1,-91.37 2149.59,-23.86 2284.61,-23.86 				"/>
			</g>
			<g>
				<polygon class="st1" points="-285.82,-152.81 -351.4,-87.24 -220.24,-87.24 				"/>
				<polygon class="st1" points="-155.92,-152.81 -221.5,-87.24 -90.34,-87.24 				"/>
				<polygon class="st1" points="-26.18,-152.81 -91.76,-87.24 39.4,-87.24 				"/>
				<polygon class="st1" points="103.72,-152.81 38.14,-87.24 169.3,-87.24 				"/>
				<polygon class="st1" points="233.46,-152.81 167.88,-87.24 299.03,-87.24 				"/>
				<polygon class="st1" points="363.36,-152.81 297.78,-87.24 428.94,-87.24 				"/>
				<polygon class="st1" points="493.1,-152.81 427.52,-87.24 558.67,-87.24 				"/>
				<polygon class="st1" points="623,-152.81 557.42,-87.24 688.58,-87.24 				"/>
				<polygon class="st1" points="752.74,-152.81 687.16,-87.24 818.31,-87.24 				"/>
				<polygon class="st1" points="882.64,-152.81 817.06,-87.24 948.22,-87.24 				"/>
				<polygon class="st1" points="1012.38,-152.81 946.8,-87.24 1077.95,-87.24 				"/>
				<polygon class="st1" points="1142.28,-152.81 1076.7,-87.24 1207.86,-87.24 				"/>
				<polygon class="st1" points="1272.02,-152.81 1206.44,-87.24 1337.6,-87.24 				"/>
				<polygon class="st1" points="1401.92,-152.81 1336.34,-87.24 1467.5,-87.24 				"/>
				<polygon class="st1" points="1531.66,-152.81 1466.08,-87.24 1597.23,-87.24 				"/>
				<polygon class="st1" points="1661.56,-152.81 1595.98,-87.24 1727.14,-87.24 				"/>
				<polygon class="st1" points="1791.29,-152.81 1725.72,-87.24 1856.87,-87.24 				"/>
				<polygon class="st1" points="1921.2,-152.81 1855.62,-87.24 1986.78,-87.24 				"/>
				<polygon class="st1" points="2050.94,-152.81 1985.36,-87.24 2116.51,-87.24 				"/>
				<polygon class="st1" points="2180.84,-152.81 2115.26,-87.24 2246.42,-87.24 				"/>
			</g>
			<g>
				<polygon class="st1" points="-249.56,-214.26 -313.21,-150.61 -185.91,-150.61 				"/>
				<polygon class="st1" points="-123.48,-214.26 -187.13,-150.61 -59.83,-150.61 				"/>
				<polygon class="st1" points="2.44,-214.26 -61.21,-150.61 66.09,-150.61 				"/>
				<polygon class="st1" points="128.53,-214.26 64.88,-150.61 192.18,-150.61 				"/>
				<polygon class="st1" points="254.45,-214.26 190.8,-150.61 318.1,-150.61 				"/>
				<polygon class="st1" points="380.54,-214.26 316.89,-150.61 444.19,-150.61 				"/>
				<polygon class="st1" points="506.46,-214.26 442.81,-150.61 570.11,-150.61 				"/>
				<polygon class="st1" points="632.54,-214.26 568.89,-150.61 696.19,-150.61 				"/>
				<polygon class="st1" points="758.46,-214.26 694.81,-150.61 822.11,-150.61 				"/>
				<polygon class="st1" points="884.55,-214.26 820.9,-150.61 948.2,-150.61 				"/>
				<polygon class="st1" points="1010.47,-214.26 946.82,-150.61 1074.12,-150.61 				"/>
				<polygon class="st1" points="1136.55,-214.26 1072.9,-150.61 1200.2,-150.61 				"/>
				<polygon class="st1" points="1262.48,-214.26 1198.83,-150.61 1326.13,-150.61 				"/>
				<polygon class="st1" points="1388.56,-214.26 1324.91,-150.61 1452.21,-150.61 				"/>
				<polygon class="st1" points="1514.48,-214.26 1450.83,-150.61 1578.13,-150.61 				"/>
				<polygon class="st1" points="1640.57,-214.26 1576.92,-150.61 1704.22,-150.61 				"/>
				<polygon class="st1" points="1766.49,-214.26 1702.84,-150.61 1830.14,-150.61 				"/>
				<polygon class="st1" points="1892.57,-214.26 1828.92,-150.61 1956.22,-150.61 				"/>
				<polygon class="st1" points="2018.49,-214.26 1954.84,-150.61 2082.14,-150.61 				"/>
				<polygon class="st1" points="2144.58,-214.26 2080.93,-150.61 2208.23,-150.61 				"/>
			</g>
			<g>
				<polygon class="st1" points="-213.3,-275.7 -275.02,-213.98 -151.58,-213.98 				"/>
				<polygon class="st1" points="-91.04,-275.7 -152.76,-213.98 -29.31,-213.98 				"/>
				<polygon class="st1" points="31.07,-275.7 -30.65,-213.98 92.79,-213.98 				"/>
				<polygon class="st1" points="153.34,-275.7 91.62,-213.98 215.06,-213.98 				"/>
				<polygon class="st1" points="275.44,-275.7 213.72,-213.98 337.17,-213.98 				"/>
				<polygon class="st1" points="397.71,-275.7 335.99,-213.98 459.43,-213.98 				"/>
				<polygon class="st1" points="519.82,-275.7 458.1,-213.98 581.54,-213.98 				"/>
				<polygon class="st1" points="642.08,-275.7 580.36,-213.98 703.81,-213.98 				"/>
				<polygon class="st1" points="764.19,-275.7 702.47,-213.98 825.91,-213.98 				"/>
				<polygon class="st1" points="886.46,-275.7 824.73,-213.98 948.18,-213.98 				"/>
				<polygon class="st1" points="1008.56,-275.7 946.84,-213.98 1070.28,-213.98 				"/>
				<polygon class="st1" points="1130.83,-275.7 1069.11,-213.98 1192.55,-213.98 				"/>
				<polygon class="st1" points="1252.93,-275.7 1191.21,-213.98 1314.66,-213.98 				"/>
				<polygon class="st1" points="1375.2,-275.7 1313.48,-213.98 1436.92,-213.98 				"/>
				<polygon class="st1" points="1497.31,-275.7 1435.59,-213.98 1559.03,-213.98 				"/>
				<polygon class="st1" points="1619.57,-275.7 1557.85,-213.98 1681.3,-213.98 				"/>
				<polygon class="st1" points="1741.68,-275.7 1679.96,-213.98 1803.4,-213.98 				"/>
				<polygon class="st1" points="1863.95,-275.7 1802.22,-213.98 1925.67,-213.98 				"/>
				<polygon class="st1" points="1986.05,-275.7 1924.33,-213.98 2047.77,-213.98 				"/>
				<polygon class="st1" points="2108.32,-275.7 2046.6,-213.98 2170.04,-213.98 				"/>
			</g>
			<g>
				<polygon class="st1" points="-177.04,-337.15 -236.83,-277.35 -117.25,-277.35 				"/>
				<polygon class="st1" points="-58.59,-337.15 -118.39,-277.35 1.2,-277.35 				"/>
				<polygon class="st1" points="59.7,-337.15 -0.1,-277.35 119.49,-277.35 				"/>
				<polygon class="st1" points="178.15,-337.15 118.35,-277.35 237.94,-277.35 				"/>
				<polygon class="st1" points="296.44,-337.15 236.64,-277.35 356.23,-277.35 				"/>
				<polygon class="st1" points="414.88,-337.15 355.09,-277.35 474.68,-277.35 				"/>
				<polygon class="st1" points="533.18,-337.15 473.38,-277.35 592.97,-277.35 				"/>
				<polygon class="st1" points="651.62,-337.15 591.83,-277.35 711.42,-277.35 				"/>
				<polygon class="st1" points="769.92,-337.15 710.12,-277.35 829.71,-277.35 				"/>
				<polygon class="st1" points="888.36,-337.15 828.57,-277.35 948.16,-277.35 				"/>
				<polygon class="st1" points="1006.66,-337.15 946.86,-277.35 1066.45,-277.35 				"/>
				<polygon class="st1" points="1125.1,-337.15 1065.31,-277.35 1184.9,-277.35 				"/>
				<polygon class="st1" points="1243.39,-337.15 1183.6,-277.35 1303.19,-277.35 				"/>
				<polygon class="st1" points="1361.84,-337.15 1302.05,-277.35 1421.64,-277.35 				"/>
				<polygon class="st1" points="1480.13,-337.15 1420.34,-277.35 1539.93,-277.35 				"/>
				<polygon class="st1" points="1598.58,-337.15 1538.79,-277.35 1658.37,-277.35 				"/>
				<polygon class="st1" points="1716.87,-337.15 1657.08,-277.35 1776.67,-277.35 				"/>
				<polygon class="st1" points="1835.32,-337.15 1775.52,-277.35 1895.11,-277.35 				"/>
				<polygon class="st1" points="1953.61,-337.15 1893.82,-277.35 2013.4,-277.35 				"/>
				<polygon class="st1" points="2072.06,-337.15 2012.26,-277.35 2131.85,-277.35 				"/>
			</g>
			<g>
				<polygon class="st1" points="-140.78,-398.59 -198.65,-340.73 -82.91,-340.73 				"/>
				<polygon class="st1" points="-26.15,-398.59 -84.02,-340.73 31.71,-340.73 				"/>
				<polygon class="st1" points="88.33,-398.59 30.46,-340.73 146.19,-340.73 				"/>
				<polygon class="st1" points="202.95,-398.59 145.09,-340.73 260.82,-340.73 				"/>
				<polygon class="st1" points="317.43,-398.59 259.57,-340.73 375.3,-340.73 				"/>
				<polygon class="st1" points="432.06,-398.59 374.19,-340.73 489.92,-340.73 				"/>
				<polygon class="st1" points="546.54,-398.59 488.67,-340.73 604.4,-340.73 				"/>
				<polygon class="st1" points="661.16,-398.59 603.3,-340.73 719.03,-340.73 				"/>
				<polygon class="st1" points="775.64,-398.59 717.78,-340.73 833.51,-340.73 				"/>
				<polygon class="st1" points="890.27,-398.59 832.4,-340.73 948.14,-340.73 				"/>
				<polygon class="st1" points="1004.75,-398.59 946.88,-340.73 1062.61,-340.73 				"/>
				<polygon class="st1" points="1119.38,-398.59 1061.51,-340.73 1177.24,-340.73 				"/>
				<polygon class="st1" points="1233.85,-398.59 1175.99,-340.73 1291.72,-340.73 				"/>
				<polygon class="st1" points="1348.48,-398.59 1290.62,-340.73 1406.35,-340.73 				"/>
				<polygon class="st1" points="1462.96,-398.59 1405.09,-340.73 1520.82,-340.73 				"/>
				<polygon class="st1" points="1577.59,-398.59 1519.72,-340.73 1635.45,-340.73 				"/>
				<polygon class="st1" points="1692.06,-398.59 1634.2,-340.73 1749.93,-340.73 				"/>
				<polygon class="st1" points="1806.69,-398.59 1748.83,-340.73 1864.56,-340.73 				"/>
				<polygon class="st1" points="1921.17,-398.59 1863.3,-340.73 1979.04,-340.73 				"/>
				<polygon class="st1" points="2035.8,-398.59 1977.93,-340.73 2093.66,-340.73 				"/>
			</g>
			<g>
				<polygon class="st1" points="-104.52,-460.04 -160.46,-404.1 -48.58,-404.1 				"/>
				<polygon class="st1" points="6.29,-460.04 -49.65,-404.1 62.23,-404.1 				"/>
				<polygon class="st1" points="116.95,-460.04 61.01,-404.1 172.89,-404.1 				"/>
				<polygon class="st1" points="227.76,-460.04 171.82,-404.1 283.7,-404.1 				"/>
				<polygon class="st1" points="338.42,-460.04 282.49,-404.1 394.36,-404.1 				"/>
				<polygon class="st1" points="449.23,-460.04 393.29,-404.1 505.17,-404.1 				"/>
				<polygon class="st1" points="559.9,-460.04 503.96,-404.1 615.83,-404.1 				"/>
				<polygon class="st1" points="670.7,-460.04 614.77,-404.1 726.64,-404.1 				"/>
				<polygon class="st1" points="781.37,-460.04 725.43,-404.1 837.31,-404.1 				"/>
				<polygon class="st1" points="892.18,-460.04 836.24,-404.1 948.11,-404.1 				"/>
				<polygon class="st1" points="1002.84,-460.04 946.9,-404.1 1058.78,-404.1 				"/>
				<polygon class="st1" points="1113.65,-460.04 1057.71,-404.1 1169.59,-404.1 				"/>
				<polygon class="st1" points="1224.31,-460.04 1168.37,-404.1 1280.25,-404.1 				"/>
				<polygon class="st1" points="1335.12,-460.04 1279.18,-404.1 1391.06,-404.1 				"/>
				<polygon class="st1" points="1445.78,-460.04 1389.85,-404.1 1501.72,-404.1 				"/>
				<polygon class="st1" points="1556.59,-460.04 1500.66,-404.1 1612.53,-404.1 				"/>
				<polygon class="st1" points="1667.26,-460.04 1611.32,-404.1 1723.19,-404.1 				"/>
				<polygon class="st1" points="1778.07,-460.04 1722.13,-404.1 1834,-404.1 				"/>
				<polygon class="st1" points="1888.73,-460.04 1832.79,-404.1 1944.67,-404.1 				"/>
				<polygon class="st1" points="1999.54,-460.04 1943.6,-404.1 2055.48,-404.1 				"/>
			</g>
			<g>
				<polygon class="st1" points="-68.26,-521.48 -122.27,-467.47 -14.25,-467.47 				"/>
				<polygon class="st1" points="38.73,-521.48 -15.28,-467.47 92.74,-467.47 				"/>
				<polygon class="st1" points="145.58,-521.48 91.57,-467.47 199.59,-467.47 				"/>
				<polygon class="st1" points="252.57,-521.48 198.56,-467.47 306.58,-467.47 				"/>
				<polygon class="st1" points="359.42,-521.48 305.41,-467.47 413.43,-467.47 				"/>
				<polygon class="st1" points="466.41,-521.48 412.4,-467.47 520.42,-467.47 				"/>
				<polygon class="st1" points="573.26,-521.48 519.25,-467.47 627.27,-467.47 				"/>
				<polygon class="st1" points="680.25,-521.48 626.24,-467.47 734.26,-467.47 				"/>
				<polygon class="st1" points="787.1,-521.48 733.09,-467.47 841.1,-467.47 				"/>
				<polygon class="st1" points="894.08,-521.48 840.07,-467.47 948.09,-467.47 				"/>
				<polygon class="st1" points="1000.93,-521.48 946.92,-467.47 1054.94,-467.47 				"/>
				<polygon class="st1" points="1107.92,-521.48 1053.91,-467.47 1161.93,-467.47 				"/>
				<polygon class="st1" points="1214.77,-521.48 1160.76,-467.47 1268.78,-467.47 				"/>
				<polygon class="st1" points="1321.76,-521.48 1267.75,-467.47 1375.77,-467.47 				"/>
				<polygon class="st1" points="1428.61,-521.48 1374.6,-467.47 1482.62,-467.47 				"/>
				<polygon class="st1" points="1535.6,-521.48 1481.59,-467.47 1589.61,-467.47 				"/>
				<polygon class="st1" points="1642.45,-521.48 1588.44,-467.47 1696.46,-467.47 				"/>
				<polygon class="st1" points="1749.44,-521.48 1695.43,-467.47 1803.45,-467.47 				"/>
				<polygon class="st1" points="1856.29,-521.48 1802.28,-467.47 1910.3,-467.47 				"/>
				<polygon class="st1" points="1963.28,-521.48 1909.27,-467.47 2017.29,-467.47 				"/>
			</g>
			<g>
				<polygon class="st1" points="-32,-582.93 -84.08,-530.84 20.08,-530.84 				"/>
				<polygon class="st1" points="71.17,-582.93 19.09,-530.84 123.25,-530.84 				"/>
				<polygon class="st1" points="174.21,-582.93 122.12,-530.84 226.29,-530.84 				"/>
				<polygon class="st1" points="277.38,-582.93 225.29,-530.84 329.46,-530.84 				"/>
				<polygon class="st1" points="380.41,-582.93 328.33,-530.84 432.49,-530.84 				"/>
				<polygon class="st1" points="483.58,-582.93 431.5,-530.84 535.66,-530.84 				"/>
				<polygon class="st1" points="586.62,-582.93 534.54,-530.84 638.7,-530.84 				"/>
				<polygon class="st1" points="689.79,-582.93 637.71,-530.84 741.87,-530.84 				"/>
				<polygon class="st1" points="792.82,-582.93 740.74,-530.84 844.9,-530.84 				"/>
				<polygon class="st1" points="895.99,-582.93 843.91,-530.84 948.07,-530.84 				"/>
				<polygon class="st1" points="999.03,-582.93 946.95,-530.84 1051.11,-530.84 				"/>
				<polygon class="st1" points="1102.2,-582.93 1050.11,-530.84 1154.28,-530.84 				"/>
				<polygon class="st1" points="1205.23,-582.93 1153.15,-530.84 1257.31,-530.84 				"/>
				<polygon class="st1" points="1308.4,-582.93 1256.32,-530.84 1360.48,-530.84 				"/>
				<polygon class="st1" points="1411.44,-582.93 1359.35,-530.84 1463.52,-530.84 				"/>
				<polygon class="st1" points="1514.61,-582.93 1462.52,-530.84 1566.69,-530.84 				"/>
				<polygon class="st1" points="1617.64,-582.93 1565.56,-530.84 1669.72,-530.84 				"/>
				<polygon class="st1" points="1720.81,-582.93 1668.73,-530.84 1772.89,-530.84 				"/>
				<polygon class="st1" points="1823.85,-582.93 1771.76,-530.84 1875.93,-530.84 				"/>
				<polygon class="st1" points="1927.02,-582.93 1874.93,-530.84 1979.1,-530.84 				"/>
			</g>
			<g>
				<polygon class="st1" points="4.26,-644.37 -45.89,-594.22 54.42,-594.22 				"/>
				<polygon class="st1" points="103.61,-644.37 53.46,-594.22 153.77,-594.22 				"/>
				<polygon class="st1" points="202.83,-644.37 152.68,-594.22 252.99,-594.22 				"/>
				<polygon class="st1" points="302.18,-644.37 252.03,-594.22 352.34,-594.22 				"/>
				<polygon class="st1" points="401.41,-644.37 351.25,-594.22 451.56,-594.22 				"/>
				<polygon class="st1" points="500.76,-644.37 450.6,-594.22 550.91,-594.22 				"/>
				<polygon class="st1" points="599.98,-644.37 549.82,-594.22 650.13,-594.22 				"/>
				<polygon class="st1" points="699.33,-644.37 649.17,-594.22 749.48,-594.22 				"/>
				<polygon class="st1" points="798.55,-644.37 748.39,-594.22 848.7,-594.22 				"/>
				<polygon class="st1" points="897.9,-644.37 847.74,-594.22 948.05,-594.22 				"/>
				<polygon class="st1" points="997.12,-644.37 946.97,-594.22 1047.27,-594.22 				"/>
				<polygon class="st1" points="1096.47,-644.37 1046.32,-594.22 1146.62,-594.22 				"/>
				<polygon class="st1" points="1195.69,-644.37 1145.54,-594.22 1245.85,-594.22 				"/>
				<polygon class="st1" points="1295.04,-644.37 1244.89,-594.22 1345.2,-594.22 				"/>
				<polygon class="st1" points="1394.26,-644.37 1344.11,-594.22 1444.42,-594.22 				"/>
				<polygon class="st1" points="1493.61,-644.37 1443.46,-594.22 1543.77,-594.22 				"/>
				<polygon class="st1" points="1592.83,-644.37 1542.68,-594.22 1642.99,-594.22 				"/>
				<polygon class="st1" points="1692.18,-644.37 1642.03,-594.22 1742.34,-594.22 				"/>
				<polygon class="st1" points="1791.41,-644.37 1741.25,-594.22 1841.56,-594.22 				"/>
				<polygon class="st1" points="1890.76,-644.37 1840.6,-594.22 1940.91,-594.22 				"/>
			</g>
			<g>
				<polygon class="st1" points="40.52,-705.82 -7.7,-657.59 88.75,-657.59 				"/>
				<polygon class="st1" points="136.05,-705.82 87.83,-657.59 184.28,-657.59 				"/>
				<polygon class="st1" points="231.46,-705.82 183.23,-657.59 279.69,-657.59 				"/>
				<polygon class="st1" points="326.99,-705.82 278.77,-657.59 375.22,-657.59 				"/>
				<polygon class="st1" points="422.4,-705.82 374.17,-657.59 470.62,-657.59 				"/>
				<polygon class="st1" points="517.93,-705.82 469.7,-657.59 566.15,-657.59 				"/>
				<polygon class="st1" points="613.34,-705.82 565.11,-657.59 661.56,-657.59 				"/>
				<polygon class="st1" points="708.87,-705.82 660.64,-657.59 757.09,-657.59 				"/>
				<polygon class="st1" points="804.27,-705.82 756.05,-657.59 852.5,-657.59 				"/>
				<polygon class="st1" points="899.81,-705.82 851.58,-657.59 948.03,-657.59 				"/>
				<polygon class="st1" points="995.21,-705.82 946.99,-657.59 1043.44,-657.59 				"/>
				<polygon class="st1" points="1090.74,-705.82 1042.52,-657.59 1138.97,-657.59 				"/>
				<polygon class="st1" points="1186.15,-705.82 1137.92,-657.59 1234.38,-657.59 				"/>
				<polygon class="st1" points="1281.68,-705.82 1233.46,-657.59 1329.91,-657.59 				"/>
				<polygon class="st1" points="1377.09,-705.82 1328.86,-657.59 1425.31,-657.59 				"/>
				<polygon class="st1" points="1472.62,-705.82 1424.39,-657.59 1520.85,-657.59 				"/>
				<polygon class="st1" points="1568.03,-705.82 1519.8,-657.59 1616.25,-657.59 				"/>
				<polygon class="st1" points="1663.56,-705.82 1615.33,-657.59 1711.78,-657.59 				"/>
				<polygon class="st1" points="1758.96,-705.82 1710.74,-657.59 1807.19,-657.59 				"/>
				<polygon class="st1" points="1854.5,-705.82 1806.27,-657.59 1902.72,-657.59 				"/>
			</g>
			<g>
				<polygon class="st1" points="76.78,-767.26 30.49,-720.96 123.08,-720.96 				"/>
				<polygon class="st1" points="168.49,-767.26 122.2,-720.96 214.79,-720.96 				"/>
				<polygon class="st1" points="260.09,-767.26 213.79,-720.96 306.39,-720.96 				"/>
				<polygon class="st1" points="351.8,-767.26 305.5,-720.96 398.1,-720.96 				"/>
				<polygon class="st1" points="443.39,-767.26 397.09,-720.96 489.69,-720.96 				"/>
				<polygon class="st1" points="535.1,-767.26 488.81,-720.96 581.4,-720.96 				"/>
				<polygon class="st1" points="626.7,-767.26 580.4,-720.96 672.99,-720.96 				"/>
				<polygon class="st1" points="718.41,-767.26 672.11,-720.96 764.71,-720.96 				"/>
				<polygon class="st1" points="810,-767.26 763.7,-720.96 856.3,-720.96 				"/>
				<polygon class="st1" points="901.71,-767.26 855.42,-720.96 948.01,-720.96 				"/>
				<polygon class="st1" points="993.31,-767.26 947.01,-720.96 1039.6,-720.96 				"/>
				<polygon class="st1" points="1085.02,-767.26 1038.72,-720.96 1131.31,-720.96 				"/>
				<polygon class="st1" points="1176.61,-767.26 1130.31,-720.96 1222.91,-720.96 				"/>
				<polygon class="st1" points="1268.32,-767.26 1222.02,-720.96 1314.62,-720.96 				"/>
				<polygon class="st1" points="1359.91,-767.26 1313.62,-720.96 1406.21,-720.96 				"/>
				<polygon class="st1" points="1451.63,-767.26 1405.33,-720.96 1497.92,-720.96 				"/>
				<polygon class="st1" points="1543.22,-767.26 1496.92,-720.96 1589.52,-720.96 				"/>
				<polygon class="st1" points="1634.93,-767.26 1588.63,-720.96 1681.23,-720.96 				"/>
				<polygon class="st1" points="1726.52,-767.26 1680.23,-720.96 1772.82,-720.96 				"/>
				<polygon class="st1" points="1818.23,-767.26 1771.94,-720.96 1864.53,-720.96 				"/>
			</g>
			<g>
				<polygon class="st1" points="113.04,-828.7 68.67,-784.34 157.41,-784.34 				"/>
				<polygon class="st1" points="200.94,-828.7 156.57,-784.34 245.31,-784.34 				"/>
				<polygon class="st1" points="288.71,-828.7 244.34,-784.34 333.08,-784.34 				"/>
				<polygon class="st1" points="376.61,-828.7 332.24,-784.34 420.98,-784.34 				"/>
				<polygon class="st1" points="464.39,-828.7 420.02,-784.34 508.75,-784.34 				"/>
				<polygon class="st1" points="552.28,-828.7 507.91,-784.34 596.65,-784.34 				"/>
				<polygon class="st1" points="640.06,-828.7 595.69,-784.34 684.42,-784.34 				"/>
				<polygon class="st1" points="727.95,-828.7 683.58,-784.34 772.32,-784.34 				"/>
				<polygon class="st1" points="815.73,-828.7 771.36,-784.34 860.1,-784.34 				"/>
				<polygon class="st1" points="903.62,-828.7 859.25,-784.34 947.99,-784.34 				"/>
				<polygon class="st1" points="991.4,-828.7 947.03,-784.34 1035.77,-784.34 				"/>
				<polygon class="st1" points="1079.29,-828.7 1034.92,-784.34 1123.66,-784.34 				"/>
				<polygon class="st1" points="1167.07,-828.7 1122.7,-784.34 1211.44,-784.34 				"/>
				<polygon class="st1" points="1254.96,-828.7 1210.59,-784.34 1299.33,-784.34 				"/>
				<polygon class="st1" points="1342.74,-828.7 1298.37,-784.34 1387.11,-784.34 				"/>
				<polygon class="st1" points="1430.63,-828.7 1386.26,-784.34 1475,-784.34 				"/>
				<polygon class="st1" points="1518.41,-828.7 1474.04,-784.34 1562.78,-784.34 				"/>
				<polygon class="st1" points="1606.3,-828.7 1561.93,-784.34 1650.67,-784.34 				"/>
				<polygon class="st1" points="1694.08,-828.7 1649.71,-784.34 1738.45,-784.34 				"/>
				<polygon class="st1" points="1781.97,-828.7 1737.6,-784.34 1826.34,-784.34 				"/>
			</g>
			<g>
				<polygon class="st1" points="149.3,-890.15 106.86,-847.71 191.75,-847.71 				"/>
				<polygon class="st1" points="233.38,-890.15 190.94,-847.71 275.82,-847.71 				"/>
				<polygon class="st1" points="317.34,-890.15 274.9,-847.71 359.78,-847.71 				"/>
				<polygon class="st1" points="401.41,-890.15 358.97,-847.71 443.86,-847.71 				"/>
				<polygon class="st1" points="485.38,-890.15 442.94,-847.71 527.82,-847.71 				"/>
				<polygon class="st1" points="569.45,-890.15 527.01,-847.71 611.89,-847.71 				"/>
				<polygon class="st1" points="653.42,-890.15 610.98,-847.71 695.86,-847.71 				"/>
				<polygon class="st1" points="737.49,-890.15 695.05,-847.71 779.93,-847.71 				"/>
				<polygon class="st1" points="821.45,-890.15 779.01,-847.71 863.9,-847.71 				"/>
				<polygon class="st1" points="905.53,-890.15 863.09,-847.71 947.97,-847.71 				"/>
				<polygon class="st1" points="989.49,-890.15 947.05,-847.71 1031.93,-847.71 				"/>
				<polygon class="st1" points="1073.56,-890.15 1031.12,-847.71 1116.01,-847.71 				"/>
				<polygon class="st1" points="1157.53,-890.15 1115.09,-847.71 1199.97,-847.71 				"/>
				<polygon class="st1" points="1241.6,-890.15 1199.16,-847.71 1284.04,-847.71 				"/>
				<polygon class="st1" points="1325.57,-890.15 1283.12,-847.71 1368.01,-847.71 				"/>
				<polygon class="st1" points="1409.64,-890.15 1367.2,-847.71 1452.08,-847.71 				"/>
				<polygon class="st1" points="1493.6,-890.15 1451.16,-847.71 1536.04,-847.71 				"/>
				<polygon class="st1" points="1577.68,-890.15 1535.23,-847.71 1620.12,-847.71 				"/>
				<polygon class="st1" points="1661.64,-890.15 1619.2,-847.71 1704.08,-847.71 				"/>
				<polygon class="st1" points="1745.71,-890.15 1703.27,-847.71 1788.16,-847.71 				"/>
			</g>
			<g>
				<polygon class="st1" points="185.56,-951.59 145.05,-911.08 226.08,-911.08 				"/>
				<polygon class="st1" points="265.82,-951.59 225.31,-911.08 306.33,-911.08 				"/>
				<polygon class="st1" points="345.97,-951.59 305.45,-911.08 386.48,-911.08 				"/>
				<polygon class="st1" points="426.22,-951.59 385.71,-911.08 466.74,-911.08 				"/>
				<polygon class="st1" points="506.37,-951.59 465.86,-911.08 546.89,-911.08 				"/>
				<polygon class="st1" points="586.63,-951.59 546.11,-911.08 627.14,-911.08 				"/>
				<polygon class="st1" points="666.78,-951.59 626.26,-911.08 707.29,-911.08 				"/>
				<polygon class="st1" points="747.03,-951.59 706.52,-911.08 787.54,-911.08 				"/>
				<polygon class="st1" points="827.18,-951.59 786.67,-911.08 867.69,-911.08 				"/>
				<polygon class="st1" points="907.43,-951.59 866.92,-911.08 947.95,-911.08 				"/>
				<polygon class="st1" points="987.58,-951.59 947.07,-911.08 1028.1,-911.08 				"/>
				<polygon class="st1" points="1067.84,-951.59 1027.32,-911.08 1108.35,-911.08 				"/>
				<polygon class="st1" points="1147.99,-951.59 1107.47,-911.08 1188.5,-911.08 				"/>
				<polygon class="st1" points="1228.24,-951.59 1187.73,-911.08 1268.76,-911.08 				"/>
				<polygon class="st1" points="1308.39,-951.59 1267.88,-911.08 1348.9,-911.08 				"/>
				<polygon class="st1" points="1388.65,-951.59 1348.13,-911.08 1429.16,-911.08 				"/>
				<polygon class="st1" points="1468.79,-951.59 1428.28,-911.08 1509.31,-911.08 				"/>
				<polygon class="st1" points="1549.05,-951.59 1508.54,-911.08 1589.56,-911.08 				"/>
				<polygon class="st1" points="1629.2,-951.59 1588.69,-911.08 1669.71,-911.08 				"/>
				<polygon class="st1" points="1709.45,-951.59 1668.94,-911.08 1749.97,-911.08 				"/>
			</g>
			<g>
				<polygon class="st1" points="221.83,-1013.04 183.24,-974.45 260.41,-974.45 				"/>
				<polygon class="st1" points="298.26,-1013.04 259.67,-974.45 336.85,-974.45 				"/>
				<polygon class="st1" points="374.6,-1013.04 336.01,-974.45 413.18,-974.45 				"/>
				<polygon class="st1" points="451.03,-1013.04 412.44,-974.45 489.62,-974.45 				"/>
				<polygon class="st1" points="527.37,-1013.04 488.78,-974.45 565.95,-974.45 				"/>
				<polygon class="st1" points="603.8,-1013.04 565.21,-974.45 642.39,-974.45 				"/>
				<polygon class="st1" points="680.14,-1013.04 641.55,-974.45 718.72,-974.45 				"/>
				<polygon class="st1" points="756.57,-1013.04 717.99,-974.45 795.16,-974.45 				"/>
				<polygon class="st1" points="832.91,-1013.04 794.32,-974.45 871.49,-974.45 				"/>
				<polygon class="st1" points="909.34,-1013.04 870.76,-974.45 947.93,-974.45 				"/>
				<polygon class="st1" points="985.68,-1013.04 947.09,-974.45 1024.26,-974.45 				"/>
				<polygon class="st1" points="1062.11,-1013.04 1023.52,-974.45 1100.7,-974.45 				"/>
				<polygon class="st1" points="1138.45,-1013.04 1099.86,-974.45 1177.03,-974.45 				"/>
				<polygon class="st1" points="1214.88,-1013.04 1176.3,-974.45 1253.47,-974.45 				"/>
				<polygon class="st1" points="1291.22,-1013.04 1252.63,-974.45 1329.8,-974.45 				"/>
				<polygon class="st1" points="1367.65,-1013.04 1329.07,-974.45 1406.24,-974.45 				"/>
				<polygon class="st1" points="1443.99,-1013.04 1405.4,-974.45 1482.57,-974.45 				"/>
				<polygon class="st1" points="1520.42,-1013.04 1481.84,-974.45 1559.01,-974.45 				"/>
				<polygon class="st1" points="1596.76,-1013.04 1558.17,-974.45 1635.34,-974.45 				"/>
				<polygon class="st1" points="1673.19,-1013.04 1634.61,-974.45 1711.78,-974.45 				"/>
			</g>
			<g>
				<polygon class="st1" points="258.09,-1074.48 221.43,-1037.83 294.74,-1037.83 				"/>
				<polygon class="st1" points="330.7,-1074.48 294.04,-1037.83 367.36,-1037.83 				"/>
				<polygon class="st1" points="403.22,-1074.48 366.56,-1037.83 439.88,-1037.83 				"/>
				<polygon class="st1" points="475.84,-1074.48 439.18,-1037.83 512.5,-1037.83 				"/>
				<polygon class="st1" points="548.36,-1074.48 511.7,-1037.83 585.02,-1037.83 				"/>
				<polygon class="st1" points="620.97,-1074.48 584.32,-1037.83 657.63,-1037.83 				"/>
				<polygon class="st1" points="693.5,-1074.48 656.84,-1037.83 730.15,-1037.83 				"/>
				<polygon class="st1" points="766.11,-1074.48 729.45,-1037.83 802.77,-1037.83 				"/>
				<polygon class="st1" points="838.63,-1074.48 801.98,-1037.83 875.29,-1037.83 				"/>
				<polygon class="st1" points="911.25,-1074.48 874.59,-1037.83 947.91,-1037.83 				"/>
				<polygon class="st1" points="983.77,-1074.48 947.11,-1037.83 1020.43,-1037.83 				"/>
				<polygon class="st1" points="1056.38,-1074.48 1019.73,-1037.83 1093.04,-1037.83 				"/>
				<polygon class="st1" points="1128.91,-1074.48 1092.25,-1037.83 1165.56,-1037.83 				"/>
				<polygon class="st1" points="1201.52,-1074.48 1164.86,-1037.83 1238.18,-1037.83 				"/>
				<polygon class="st1" points="1274.04,-1074.48 1237.39,-1037.83 1310.7,-1037.83 				"/>
				<polygon class="st1" points="1346.66,-1074.48 1310,-1037.83 1383.32,-1037.83 				"/>
				<polygon class="st1" points="1419.18,-1074.48 1382.52,-1037.83 1455.84,-1037.83 				"/>
				<polygon class="st1" points="1491.8,-1074.48 1455.14,-1037.83 1528.45,-1037.83 				"/>
				<polygon class="st1" points="1564.32,-1074.48 1527.66,-1037.83 1600.97,-1037.83 				"/>
				<polygon class="st1" points="1636.93,-1074.48 1600.27,-1037.83 1673.59,-1037.83 				"/>
			</g>
			<g>
				<polygon class="st1" points="294.35,-1135.93 259.62,-1101.2 329.08,-1101.2 				"/>
				<polygon class="st1" points="363.14,-1135.93 328.41,-1101.2 397.87,-1101.2 				"/>
				<polygon class="st1" points="431.85,-1135.93 397.12,-1101.2 466.58,-1101.2 				"/>
				<polygon class="st1" points="500.65,-1135.93 465.92,-1101.2 535.38,-1101.2 				"/>
				<polygon class="st1" points="569.35,-1135.93 534.62,-1101.2 604.08,-1101.2 				"/>
				<polygon class="st1" points="638.15,-1135.93 603.42,-1101.2 672.88,-1101.2 				"/>
				<polygon class="st1" points="706.86,-1135.93 672.13,-1101.2 741.58,-1101.2 				"/>
				<polygon class="st1" points="775.65,-1135.93 740.92,-1101.2 810.38,-1101.2 				"/>
				<polygon class="st1" points="844.36,-1135.93 809.63,-1101.2 879.09,-1101.2 				"/>
				<polygon class="st1" points="913.16,-1135.93 878.43,-1101.2 947.88,-1101.2 				"/>
				<polygon class="st1" points="981.86,-1135.93 947.13,-1101.2 1016.59,-1101.2 				"/>
				<polygon class="st1" points="1050.66,-1135.93 1015.93,-1101.2 1085.39,-1101.2 				"/>
				<polygon class="st1" points="1119.36,-1135.93 1084.64,-1101.2 1154.1,-1101.2 				"/>
				<polygon class="st1" points="1188.16,-1135.93 1153.43,-1101.2 1222.89,-1101.2 				"/>
				<polygon class="st1" points="1256.87,-1135.93 1222.14,-1101.2 1291.6,-1101.2 				"/>
				<polygon class="st1" points="1325.66,-1135.93 1290.94,-1101.2 1360.4,-1101.2 				"/>
				<polygon class="st1" points="1394.37,-1135.93 1359.64,-1101.2 1429.1,-1101.2 				"/>
				<polygon class="st1" points="1463.17,-1135.93 1428.44,-1101.2 1497.9,-1101.2 				"/>
				<polygon class="st1" points="1531.88,-1135.93 1497.15,-1101.2 1566.6,-1101.2 				"/>
				<polygon class="st1" points="1600.67,-1135.93 1565.94,-1101.2 1635.4,-1101.2 				"/>
			</g>
			<g>
				<polygon class="st1" points="330.61,-1197.37 297.8,-1164.57 363.41,-1164.57 				"/>
				<polygon class="st1" points="395.58,-1197.37 362.78,-1164.57 428.38,-1164.57 				"/>
				<polygon class="st1" points="460.48,-1197.37 427.67,-1164.57 493.28,-1164.57 				"/>
				<polygon class="st1" points="525.45,-1197.37 492.65,-1164.57 558.25,-1164.57 				"/>
				<polygon class="st1" points="590.35,-1197.37 557.54,-1164.57 623.15,-1164.57 				"/>
				<polygon class="st1" points="655.32,-1197.37 622.52,-1164.57 688.12,-1164.57 				"/>
				<polygon class="st1" points="720.22,-1197.37 687.41,-1164.57 753.02,-1164.57 				"/>
				<polygon class="st1" points="785.19,-1197.37 752.39,-1164.57 817.99,-1164.57 				"/>
				<polygon class="st1" points="850.09,-1197.37 817.28,-1164.57 882.89,-1164.57 				"/>
				<polygon class="st1" points="915.06,-1197.37 882.26,-1164.57 947.86,-1164.57 				"/>
				<polygon class="st1" points="979.96,-1197.37 947.15,-1164.57 1012.76,-1164.57 				"/>
				<polygon class="st1" points="1044.93,-1197.37 1012.13,-1164.57 1077.73,-1164.57 				"/>
				<polygon class="st1" points="1109.82,-1197.37 1077.02,-1164.57 1142.63,-1164.57 				"/>
				<polygon class="st1" points="1174.8,-1197.37 1142,-1164.57 1207.6,-1164.57 				"/>
				<polygon class="st1" points="1239.69,-1197.37 1206.89,-1164.57 1272.5,-1164.57 				"/>
				<polygon class="st1" points="1304.67,-1197.37 1271.87,-1164.57 1337.47,-1164.57 				"/>
				<polygon class="st1" points="1369.56,-1197.37 1336.76,-1164.57 1402.37,-1164.57 				"/>
				<polygon class="st1" points="1434.54,-1197.37 1401.74,-1164.57 1467.34,-1164.57 				"/>
				<polygon class="st1" points="1499.43,-1197.37 1466.63,-1164.57 1532.23,-1164.57 				"/>
				<polygon class="st1" points="1564.41,-1197.37 1531.61,-1164.57 1597.21,-1164.57 				"/>
			</g>
			<g>
				<polygon class="st1" points="366.87,-1258.82 335.99,-1227.94 397.74,-1227.94 				"/>
				<polygon class="st1" points="428.02,-1258.82 397.15,-1227.94 458.9,-1227.94 				"/>
				<polygon class="st1" points="489.1,-1258.82 458.23,-1227.94 519.98,-1227.94 				"/>
				<polygon class="st1" points="550.26,-1258.82 519.39,-1227.94 581.13,-1227.94 				"/>
				<polygon class="st1" points="611.34,-1258.82 580.47,-1227.94 642.21,-1227.94 				"/>
				<polygon class="st1" points="672.5,-1258.82 641.62,-1227.94 703.37,-1227.94 				"/>
				<polygon class="st1" points="733.58,-1258.82 702.7,-1227.94 764.45,-1227.94 				"/>
				<polygon class="st1" points="794.73,-1258.82 763.86,-1227.94 825.61,-1227.94 				"/>
				<polygon class="st1" points="855.81,-1258.82 824.94,-1227.94 886.69,-1227.94 				"/>
				<polygon class="st1" points="916.97,-1258.82 886.1,-1227.94 947.84,-1227.94 				"/>
				<polygon class="st1" points="978.05,-1258.82 947.18,-1227.94 1008.92,-1227.94 				"/>
				<polygon class="st1" points="1039.21,-1258.82 1008.33,-1227.94 1070.08,-1227.94 				"/>
				<polygon class="st1" points="1100.28,-1258.82 1069.41,-1227.94 1131.16,-1227.94 				"/>
				<polygon class="st1" points="1161.44,-1258.82 1130.57,-1227.94 1192.32,-1227.94 				"/>
				<polygon class="st1" points="1222.52,-1258.82 1191.65,-1227.94 1253.39,-1227.94 				"/>
				<polygon class="st1" points="1283.68,-1258.82 1252.8,-1227.94 1314.55,-1227.94 				"/>
				<polygon class="st1" points="1344.76,-1258.82 1313.88,-1227.94 1375.63,-1227.94 				"/>
				<polygon class="st1" points="1405.91,-1258.82 1375.04,-1227.94 1436.79,-1227.94 				"/>
				<polygon class="st1" points="1466.99,-1258.82 1436.12,-1227.94 1497.87,-1227.94 				"/>
				<polygon class="st1" points="1528.15,-1258.82 1497.28,-1227.94 1559.02,-1227.94 				"/>
			</g>
			<g>
				<polygon class="st1" points="403.13,-1320.26 374.18,-1291.32 432.07,-1291.32 				"/>
				<polygon class="st1" points="460.47,-1320.26 431.52,-1291.32 489.41,-1291.32 				"/>
				<polygon class="st1" points="517.73,-1320.26 488.78,-1291.32 546.68,-1291.32 				"/>
				<polygon class="st1" points="575.07,-1320.26 546.12,-1291.32 604.01,-1291.32 				"/>
				<polygon class="st1" points="632.33,-1320.26 603.39,-1291.32 661.28,-1291.32 				"/>
				<polygon class="st1" points="689.67,-1320.26 660.73,-1291.32 718.62,-1291.32 				"/>
				<polygon class="st1" points="746.94,-1320.26 717.99,-1291.32 775.88,-1291.32 				"/>
				<polygon class="st1" points="804.27,-1320.26 775.33,-1291.32 833.22,-1291.32 				"/>
				<polygon class="st1" points="861.54,-1320.26 832.59,-1291.32 890.48,-1291.32 				"/>
				<polygon class="st1" points="918.88,-1320.26 889.93,-1291.32 947.82,-1291.32 				"/>
				<polygon class="st1" points="976.14,-1320.26 947.2,-1291.32 1005.09,-1291.32 				"/>
				<polygon class="st1" points="1033.48,-1320.26 1004.53,-1291.32 1062.42,-1291.32 				"/>
				<polygon class="st1" points="1090.74,-1320.26 1061.8,-1291.32 1119.69,-1291.32 				"/>
				<polygon class="st1" points="1148.08,-1320.26 1119.14,-1291.32 1177.03,-1291.32 				"/>
				<polygon class="st1" points="1205.35,-1320.26 1176.4,-1291.32 1234.29,-1291.32 				"/>
				<polygon class="st1" points="1262.68,-1320.26 1233.74,-1291.32 1291.63,-1291.32 				"/>
				<polygon class="st1" points="1319.95,-1320.26 1291,-1291.32 1348.89,-1291.32 				"/>
				<polygon class="st1" points="1377.29,-1320.26 1348.34,-1291.32 1406.23,-1291.32 				"/>
				<polygon class="st1" points="1434.55,-1320.26 1405.61,-1291.32 1463.5,-1291.32 				"/>
				<polygon class="st1" points="1491.89,-1320.26 1462.94,-1291.32 1520.84,-1291.32 				"/>
			</g>
			<g>
				<polygon class="st1" points="439.39,-1381.71 412.37,-1354.69 466.41,-1354.69 				"/>
				<polygon class="st1" points="492.91,-1381.71 465.89,-1354.69 519.92,-1354.69 				"/>
				<polygon class="st1" points="546.36,-1381.71 519.34,-1354.69 573.37,-1354.69 				"/>
				<polygon class="st1" points="599.88,-1381.71 572.86,-1354.69 626.89,-1354.69 				"/>
				<polygon class="st1" points="653.33,-1381.71 626.31,-1354.69 680.34,-1354.69 				"/>
				<polygon class="st1" points="706.85,-1381.71 679.83,-1354.69 733.86,-1354.69 				"/>
				<polygon class="st1" points="760.3,-1381.71 733.28,-1354.69 787.31,-1354.69 				"/>
				<polygon class="st1" points="813.81,-1381.71 786.8,-1354.69 840.83,-1354.69 				"/>
				<polygon class="st1" points="867.26,-1381.71 840.25,-1354.69 894.28,-1354.69 				"/>
				<polygon class="st1" points="920.78,-1381.71 893.77,-1354.69 947.8,-1354.69 				"/>
				<polygon class="st1" points="974.23,-1381.71 947.22,-1354.69 1001.25,-1354.69 				"/>
				<polygon class="st1" points="1027.75,-1381.71 1000.73,-1354.69 1054.77,-1354.69 				"/>
				<polygon class="st1" points="1081.2,-1381.71 1054.19,-1354.69 1108.22,-1354.69 				"/>
				<polygon class="st1" points="1134.72,-1381.71 1107.71,-1354.69 1161.74,-1354.69 				"/>
				<polygon class="st1" points="1188.17,-1381.71 1161.15,-1354.69 1215.19,-1354.69 				"/>
				<polygon class="st1" points="1241.69,-1381.71 1214.67,-1354.69 1268.71,-1354.69 				"/>
				<polygon class="st1" points="1295.14,-1381.71 1268.12,-1354.69 1322.16,-1354.69 				"/>
				<polygon class="st1" points="1348.66,-1381.71 1321.64,-1354.69 1375.68,-1354.69 				"/>
				<polygon class="st1" points="1402.11,-1381.71 1375.09,-1354.69 1429.13,-1354.69 				"/>
				<polygon class="st1" points="1455.63,-1381.71 1428.61,-1354.69 1482.65,-1354.69 				"/>
			</g>
			<g>
				<polygon class="st1" points="475.65,-1443.15 450.56,-1418.06 500.74,-1418.06 				"/>
				<polygon class="st1" points="525.35,-1443.15 500.26,-1418.06 550.44,-1418.06 				"/>
				<polygon class="st1" points="574.98,-1443.15 549.89,-1418.06 600.07,-1418.06 				"/>
				<polygon class="st1" points="624.68,-1443.15 599.59,-1418.06 649.77,-1418.06 				"/>
				<polygon class="st1" points="674.32,-1443.15 649.23,-1418.06 699.41,-1418.06 				"/>
				<polygon class="st1" points="724.02,-1443.15 698.93,-1418.06 749.11,-1418.06 				"/>
				<polygon class="st1" points="773.66,-1443.15 748.57,-1418.06 798.74,-1418.06 				"/>
				<polygon class="st1" points="823.36,-1443.15 798.27,-1418.06 848.45,-1418.06 				"/>
				<polygon class="st1" points="872.99,-1443.15 847.9,-1418.06 898.08,-1418.06 				"/>
				<polygon class="st1" points="922.69,-1443.15 897.6,-1418.06 947.78,-1418.06 				"/>
				<polygon class="st1" points="972.33,-1443.15 947.24,-1418.06 997.42,-1418.06 				"/>
				<polygon class="st1" points="1022.03,-1443.15 996.94,-1418.06 1047.12,-1418.06 				"/>
				<polygon class="st1" points="1071.66,-1443.15 1046.57,-1418.06 1096.75,-1418.06 				"/>
				<polygon class="st1" points="1121.36,-1443.15 1096.27,-1418.06 1146.45,-1418.06 				"/>
				<polygon class="st1" points="1171,-1443.15 1145.91,-1418.06 1196.09,-1418.06 				"/>
				<polygon class="st1" points="1220.7,-1443.15 1195.61,-1418.06 1245.79,-1418.06 				"/>
				<polygon class="st1" points="1270.33,-1443.15 1245.24,-1418.06 1295.42,-1418.06 				"/>
				<polygon class="st1" points="1320.03,-1443.15 1294.94,-1418.06 1345.12,-1418.06 				"/>
				<polygon class="st1" points="1369.67,-1443.15 1344.58,-1418.06 1394.76,-1418.06 				"/>
				<polygon class="st1" points="1419.37,-1443.15 1394.28,-1418.06 1444.46,-1418.06 				"/>
			</g>
			<g>
				<g>
					<polygon class="st1" points="511.91,-1504.6 488.75,-1481.44 535.07,-1481.44 					"/>
				</g>
				<g>
					<polygon class="st1" points="557.79,-1504.6 534.63,-1481.44 580.95,-1481.44 					"/>
				</g>
				<g>
					<polygon class="st1" points="603.61,-1504.6 580.45,-1481.44 626.77,-1481.44 					"/>
				</g>
				<g>
					<polygon class="st1" points="649.49,-1504.6 626.33,-1481.44 672.65,-1481.44 					"/>
				</g>
				<g>
					<polygon class="st1" points="695.31,-1504.6 672.15,-1481.44 718.47,-1481.44 					"/>
				</g>
				<g>
					<polygon class="st1" points="741.19,-1504.6 718.03,-1481.44 764.36,-1481.44 					"/>
				</g>
				<g>
					<polygon class="st1" points="787.02,-1504.6 763.85,-1481.44 810.18,-1481.44 					"/>
				</g>
				<g>
					<polygon class="st1" points="832.9,-1504.6 809.74,-1481.44 856.06,-1481.44 					"/>
				</g>
				<g>
					<polygon class="st1" points="878.72,-1504.6 855.56,-1481.44 901.88,-1481.44 					"/>
				</g>
				<g>
					<polygon class="st1" points="924.6,-1504.6 901.44,-1481.44 947.76,-1481.44 					"/>
				</g>
				<g>
					<polygon class="st1" points="970.42,-1504.6 947.26,-1481.44 993.58,-1481.44 					"/>
				</g>
				<g>
					<polygon class="st1" points="1016.3,-1504.6 993.14,-1481.44 1039.46,-1481.44 					"/>
				</g>
				<g>
					<polygon class="st1" points="1062.12,-1504.6 1038.96,-1481.44 1085.28,-1481.44 					"/>
				</g>
				<g>
					<polygon class="st1" points="1108,-1504.6 1084.84,-1481.44 1131.16,-1481.44 					"/>
				</g>
				<g>
					<polygon class="st1" points="1153.82,-1504.6 1130.66,-1481.44 1176.99,-1481.44 					"/>
				</g>
				<g>
					<polygon class="st1" points="1199.7,-1504.6 1176.54,-1481.44 1222.87,-1481.44 					"/>
				</g>
				<g>
					<polygon class="st1" points="1245.53,-1504.6 1222.36,-1481.44 1268.69,-1481.44 					"/>
				</g>
				<g>
					<polygon class="st1" points="1291.41,-1504.6 1268.24,-1481.44 1314.57,-1481.44 					"/>
				</g>
				<g>
					<polygon class="st1" points="1337.23,-1504.6 1314.07,-1481.44 1360.39,-1481.44 					"/>
				</g>
				<g>
					<polygon class="st1" points="1383.11,-1504.6 1359.95,-1481.44 1406.27,-1481.44 					"/>
				</g>
			</g>
		</g>
	</g>
</g>
</svg>
