<?xml version="1.0" encoding="utf-8"?>
<!-- Generator: Adobe Illustrator 24.0.3, SVG Export Plug-In . SVG Version: 6.00 Build 0)  -->
<svg version="1.1" id="Layer_1" xmlns="http://www.w3.org/2000/svg" xmlns:xlink="http://www.w3.org/1999/xlink" x="0px" y="0px"
	 viewBox="0 0 1920 1080" style="enable-background:new 0 0 1920 1080;" xml:space="preserve">
<style type="text/css">
	.st0{fill:#003E6A;}
</style>
<g>
	<path class="st0" d="M24.42,1054.29c0,4.98,4.05,9.02,9.02,9.02c4.97,0,9.02-4.05,9.02-9.02c0-4.97-4.05-9.02-9.02-9.02
		C28.46,1045.27,24.42,1049.32,24.42,1054.29z"/>
	<path class="st0" d="M24.42,985.64c0,4.97,4.05,9.02,9.02,9.02c4.97,0,9.02-4.05,9.02-9.02s-4.05-9.02-9.02-9.02
		C28.46,976.62,24.42,980.66,24.42,985.64z"/>
	<path class="st0" d="M93.07,1054.29c0,4.98,4.05,9.02,9.02,9.02c4.97,0,9.02-4.05,9.02-9.02c0-4.97-4.05-9.02-9.02-9.02
		C97.12,1045.27,93.07,1049.32,93.07,1054.29z"/>
	<path class="st0" d="M93.07,985.64c0,4.97,4.05,9.02,9.02,9.02c4.97,0,9.02-4.05,9.02-9.02s-4.05-9.02-9.02-9.02
		C97.12,976.62,93.07,980.66,93.07,985.64z"/>
	<path class="st0" d="M24.42,917.16c0,4.98,4.05,9.02,9.02,9.02c4.97,0,9.02-4.05,9.02-9.02c0-4.97-4.05-9.02-9.02-9.02
		C28.46,908.14,24.42,912.19,24.42,917.16z"/>
	<path class="st0" d="M24.42,848.5c0,4.97,4.05,9.02,9.02,9.02c4.97,0,9.02-4.05,9.02-9.02c0-4.97-4.05-9.02-9.02-9.02
		C28.46,839.48,24.42,843.53,24.42,848.5z"/>
	<path class="st0" d="M93.07,917.16c0,4.98,4.05,9.02,9.02,9.02c4.97,0,9.02-4.05,9.02-9.02c0-4.97-4.05-9.02-9.02-9.02
		C97.12,908.14,93.07,912.19,93.07,917.16z"/>
	<path class="st0" d="M93.07,848.5c0,4.97,4.05,9.02,9.02,9.02c4.97,0,9.02-4.05,9.02-9.02c0-4.97-4.05-9.02-9.02-9.02
		C97.12,839.48,93.07,843.53,93.07,848.5z"/>
	<path class="st0" d="M24.42,780.03c0,4.98,4.05,9.02,9.02,9.02c4.97,0,9.02-4.05,9.02-9.02c0-4.97-4.05-9.02-9.02-9.02
		C28.46,771.01,24.42,775.05,24.42,780.03z"/>
	<path class="st0" d="M24.42,711.37c0,4.97,4.05,9.02,9.02,9.02c4.97,0,9.02-4.05,9.02-9.02c0-4.97-4.05-9.02-9.02-9.02
		C28.46,702.35,24.42,706.4,24.42,711.37z"/>
	<path class="st0" d="M93.07,780.03c0,4.98,4.05,9.02,9.02,9.02c4.97,0,9.02-4.05,9.02-9.02c0-4.97-4.05-9.02-9.02-9.02
		C97.12,771.01,93.07,775.05,93.07,780.03z"/>
	<path class="st0" d="M93.07,711.37c0,4.97,4.05,9.02,9.02,9.02c4.97,0,9.02-4.05,9.02-9.02c0-4.97-4.05-9.02-9.02-9.02
		C97.12,702.35,93.07,706.4,93.07,711.37z"/>
	<path class="st0" d="M24.42,642.89c0,4.98,4.05,9.02,9.02,9.02c4.97,0,9.02-4.05,9.02-9.02c0-4.97-4.05-9.02-9.02-9.02
		C28.46,633.87,24.42,637.92,24.42,642.89z"/>
	<path class="st0" d="M24.42,574.24c0,4.97,4.05,9.02,9.02,9.02c4.97,0,9.02-4.05,9.02-9.02c0-4.97-4.05-9.02-9.02-9.02
		C28.46,565.22,24.42,569.26,24.42,574.24z"/>
	<path class="st0" d="M93.07,642.89c0,4.98,4.05,9.02,9.02,9.02c4.97,0,9.02-4.05,9.02-9.02c0-4.97-4.05-9.02-9.02-9.02
		C97.12,633.87,93.07,637.92,93.07,642.89z"/>
	<path class="st0" d="M93.07,574.24c0,4.97,4.05,9.02,9.02,9.02c4.97,0,9.02-4.05,9.02-9.02c0-4.97-4.05-9.02-9.02-9.02
		C97.12,565.22,93.07,569.26,93.07,574.24z"/>
	<path class="st0" d="M24.42,505.76c0,4.98,4.05,9.02,9.02,9.02c4.97,0,9.02-4.05,9.02-9.02c0-4.97-4.05-9.02-9.02-9.02
		C28.46,496.74,24.42,500.79,24.42,505.76z"/>
	<path class="st0" d="M24.42,437.11c0,4.97,4.05,9.02,9.02,9.02c4.97,0,9.02-4.05,9.02-9.02c0-4.97-4.05-9.02-9.02-9.02
		C28.46,428.08,24.42,432.13,24.42,437.11z"/>
	<path class="st0" d="M93.07,505.76c0,4.98,4.05,9.02,9.02,9.02c4.97,0,9.02-4.05,9.02-9.02c0-4.97-4.05-9.02-9.02-9.02
		C97.12,496.74,93.07,500.79,93.07,505.76z"/>
	<path class="st0" d="M93.07,437.11c0,4.97,4.05,9.02,9.02,9.02c4.97,0,9.02-4.05,9.02-9.02c0-4.97-4.05-9.02-9.02-9.02
		C97.12,428.08,93.07,432.13,93.07,437.11z"/>
	<path class="st0" d="M24.42,368.63c0,4.98,4.05,9.02,9.02,9.02c4.97,0,9.02-4.05,9.02-9.02c0-4.97-4.05-9.02-9.02-9.02
		C28.46,359.61,24.42,363.65,24.42,368.63z"/>
	<path class="st0" d="M24.42,299.97c0,4.97,4.05,9.02,9.02,9.02c4.97,0,9.02-4.05,9.02-9.02s-4.05-9.02-9.02-9.02
		C28.46,290.95,24.42,295,24.42,299.97z"/>
	<path class="st0" d="M93.07,368.63c0,4.98,4.05,9.02,9.02,9.02c4.97,0,9.02-4.05,9.02-9.02c0-4.97-4.05-9.02-9.02-9.02
		C97.12,359.61,93.07,363.65,93.07,368.63z"/>
	<path class="st0" d="M93.07,299.97c0,4.97,4.05,9.02,9.02,9.02c4.97,0,9.02-4.05,9.02-9.02s-4.05-9.02-9.02-9.02
		C97.12,290.95,93.07,295,93.07,299.97z"/>
	<path class="st0" d="M24.42,231.49c0,4.98,4.05,9.02,9.02,9.02c4.97,0,9.02-4.05,9.02-9.02c0-4.97-4.05-9.02-9.02-9.02
		C28.46,222.47,24.42,226.52,24.42,231.49z"/>
	<path class="st0" d="M24.42,162.84c0,4.97,4.05,9.02,9.02,9.02c4.97,0,9.02-4.05,9.02-9.02s-4.05-9.02-9.02-9.02
		C28.46,153.82,24.42,157.86,24.42,162.84z"/>
	<path class="st0" d="M93.07,231.49c0,4.98,4.05,9.02,9.02,9.02c4.97,0,9.02-4.05,9.02-9.02c0-4.97-4.05-9.02-9.02-9.02
		C97.12,222.47,93.07,226.52,93.07,231.49z"/>
	<path class="st0" d="M93.07,162.84c0,4.97,4.05,9.02,9.02,9.02c4.97,0,9.02-4.05,9.02-9.02s-4.05-9.02-9.02-9.02
		C97.12,153.82,93.07,157.86,93.07,162.84z"/>
	<path class="st0" d="M24.42,94.36c0,4.98,4.05,9.02,9.02,9.02c4.97,0,9.02-4.05,9.02-9.02c0-4.97-4.05-9.02-9.02-9.02
		C28.46,85.34,24.42,89.39,24.42,94.36z"/>
	<path class="st0" d="M42.46,25.71c0-4.97-4.05-9.02-9.02-9.02c-4.97,0-9.02,4.05-9.02,9.02s4.05,9.02,9.02,9.02
		C38.41,34.73,42.46,30.68,42.46,25.71z"/>
	<path class="st0" d="M93.07,94.36c0,4.98,4.05,9.02,9.02,9.02c4.97,0,9.02-4.05,9.02-9.02c0-4.97-4.05-9.02-9.02-9.02
		C97.12,85.34,93.07,89.39,93.07,94.36z"/>
	<path class="st0" d="M93.07,25.71c0,4.97,4.05,9.02,9.02,9.02c4.97,0,9.02-4.05,9.02-9.02s-4.05-9.02-9.02-9.02
		C97.12,16.68,93.07,20.73,93.07,25.71z"/>
	<path class="st0" d="M161.68,1054.29c0,4.98,4.05,9.02,9.02,9.02c4.97,0,9.02-4.05,9.02-9.02c0-4.97-4.05-9.02-9.02-9.02
		C165.73,1045.27,161.68,1049.32,161.68,1054.29z"/>
	<path class="st0" d="M161.68,985.64c0,4.97,4.05,9.02,9.02,9.02c4.97,0,9.02-4.05,9.02-9.02s-4.05-9.02-9.02-9.02
		C165.73,976.62,161.68,980.66,161.68,985.64z"/>
	<path class="st0" d="M230.34,1054.29c0,4.98,4.05,9.02,9.02,9.02c4.97,0,9.02-4.05,9.02-9.02c0-4.97-4.05-9.02-9.02-9.02
		C234.39,1045.27,230.34,1049.32,230.34,1054.29z"/>
	<path class="st0" d="M230.34,985.64c0,4.97,4.05,9.02,9.02,9.02c4.97,0,9.02-4.05,9.02-9.02s-4.05-9.02-9.02-9.02
		C234.39,976.62,230.34,980.66,230.34,985.64z"/>
	<path class="st0" d="M161.68,917.16c0,4.98,4.05,9.02,9.02,9.02c4.97,0,9.02-4.05,9.02-9.02c0-4.97-4.05-9.02-9.02-9.02
		C165.73,908.14,161.68,912.19,161.68,917.16z"/>
	<path class="st0" d="M161.68,848.5c0,4.97,4.05,9.02,9.02,9.02c4.97,0,9.02-4.05,9.02-9.02c0-4.97-4.05-9.02-9.02-9.02
		C165.73,839.48,161.68,843.53,161.68,848.5z"/>
	<path class="st0" d="M230.34,917.16c0,4.98,4.05,9.02,9.02,9.02c4.97,0,9.02-4.05,9.02-9.02c0-4.97-4.05-9.02-9.02-9.02
		C234.39,908.14,230.34,912.19,230.34,917.16z"/>
	<path class="st0" d="M230.34,848.5c0,4.97,4.05,9.02,9.02,9.02c4.97,0,9.02-4.05,9.02-9.02c0-4.97-4.05-9.02-9.02-9.02
		C234.39,839.48,230.34,843.53,230.34,848.5z"/>
	<path class="st0" d="M161.68,780.03c0,4.98,4.05,9.02,9.02,9.02c4.97,0,9.02-4.05,9.02-9.02c0-4.97-4.05-9.02-9.02-9.02
		C165.73,771.01,161.68,775.05,161.68,780.03z"/>
	<path class="st0" d="M161.68,711.37c0,4.97,4.05,9.02,9.02,9.02c4.97,0,9.02-4.05,9.02-9.02c0-4.97-4.05-9.02-9.02-9.02
		C165.73,702.35,161.68,706.4,161.68,711.37z"/>
	<path class="st0" d="M230.34,780.03c0,4.98,4.05,9.02,9.02,9.02c4.97,0,9.02-4.05,9.02-9.02c0-4.97-4.05-9.02-9.02-9.02
		C234.39,771.01,230.34,775.05,230.34,780.03z"/>
	<path class="st0" d="M230.34,711.37c0,4.97,4.05,9.02,9.02,9.02c4.97,0,9.02-4.05,9.02-9.02c0-4.97-4.05-9.02-9.02-9.02
		C234.39,702.35,230.34,706.4,230.34,711.37z"/>
	<path class="st0" d="M161.68,642.89c0,4.98,4.05,9.02,9.02,9.02c4.97,0,9.02-4.05,9.02-9.02c0-4.97-4.05-9.02-9.02-9.02
		C165.73,633.87,161.68,637.92,161.68,642.89z"/>
	<path class="st0" d="M161.68,574.24c0,4.97,4.05,9.02,9.02,9.02c4.97,0,9.02-4.05,9.02-9.02c0-4.97-4.05-9.02-9.02-9.02
		C165.73,565.22,161.68,569.26,161.68,574.24z"/>
	<path class="st0" d="M230.34,642.89c0,4.98,4.05,9.02,9.02,9.02c4.97,0,9.02-4.05,9.02-9.02c0-4.97-4.05-9.02-9.02-9.02
		C234.39,633.87,230.34,637.92,230.34,642.89z"/>
	<path class="st0" d="M230.34,574.24c0,4.97,4.05,9.02,9.02,9.02c4.97,0,9.02-4.05,9.02-9.02c0-4.97-4.05-9.02-9.02-9.02
		C234.39,565.22,230.34,569.26,230.34,574.24z"/>
	<path class="st0" d="M161.68,505.76c0,4.98,4.05,9.02,9.02,9.02c4.97,0,9.02-4.05,9.02-9.02c0-4.97-4.05-9.02-9.02-9.02
		C165.73,496.74,161.68,500.79,161.68,505.76z"/>
	<path class="st0" d="M161.68,437.11c0,4.97,4.05,9.02,9.02,9.02c4.97,0,9.02-4.05,9.02-9.02c0-4.97-4.05-9.02-9.02-9.02
		C165.73,428.08,161.68,432.13,161.68,437.11z"/>
	<path class="st0" d="M230.34,505.76c0,4.98,4.05,9.02,9.02,9.02c4.97,0,9.02-4.05,9.02-9.02c0-4.97-4.05-9.02-9.02-9.02
		C234.39,496.74,230.34,500.79,230.34,505.76z"/>
	<path class="st0" d="M230.34,437.11c0,4.97,4.05,9.02,9.02,9.02c4.97,0,9.02-4.05,9.02-9.02c0-4.97-4.05-9.02-9.02-9.02
		C234.39,428.08,230.34,432.13,230.34,437.11z"/>
	<path class="st0" d="M161.68,368.63c0,4.98,4.05,9.02,9.02,9.02c4.97,0,9.02-4.05,9.02-9.02c0-4.97-4.05-9.02-9.02-9.02
		C165.73,359.61,161.68,363.65,161.68,368.63z"/>
	<path class="st0" d="M161.68,299.97c0,4.97,4.05,9.02,9.02,9.02c4.97,0,9.02-4.05,9.02-9.02s-4.05-9.02-9.02-9.02
		C165.73,290.95,161.68,295,161.68,299.97z"/>
	<path class="st0" d="M230.34,368.63c0,4.98,4.05,9.02,9.02,9.02c4.97,0,9.02-4.05,9.02-9.02c0-4.97-4.05-9.02-9.02-9.02
		C234.39,359.61,230.34,363.65,230.34,368.63z"/>
	<path class="st0" d="M230.34,299.97c0,4.97,4.05,9.02,9.02,9.02c4.97,0,9.02-4.05,9.02-9.02s-4.05-9.02-9.02-9.02
		C234.39,290.95,230.34,295,230.34,299.97z"/>
	<path class="st0" d="M161.68,231.49c0,4.98,4.05,9.02,9.02,9.02c4.97,0,9.02-4.05,9.02-9.02c0-4.97-4.05-9.02-9.02-9.02
		C165.73,222.47,161.68,226.52,161.68,231.49z"/>
	<path class="st0" d="M161.68,162.84c0,4.97,4.05,9.02,9.02,9.02c4.97,0,9.02-4.05,9.02-9.02s-4.05-9.02-9.02-9.02
		C165.73,153.82,161.68,157.86,161.68,162.84z"/>
	<path class="st0" d="M230.34,231.49c0,4.98,4.05,9.02,9.02,9.02c4.97,0,9.02-4.05,9.02-9.02c0-4.97-4.05-9.02-9.02-9.02
		C234.39,222.47,230.34,226.52,230.34,231.49z"/>
	<path class="st0" d="M230.34,162.84c0,4.97,4.05,9.02,9.02,9.02c4.97,0,9.02-4.05,9.02-9.02s-4.05-9.02-9.02-9.02
		C234.39,153.82,230.34,157.86,230.34,162.84z"/>
	<path class="st0" d="M161.68,94.36c0,4.98,4.05,9.02,9.02,9.02c4.97,0,9.02-4.05,9.02-9.02c0-4.97-4.05-9.02-9.02-9.02
		C165.73,85.34,161.68,89.39,161.68,94.36z"/>
	<path class="st0" d="M161.68,25.71c0,4.97,4.05,9.02,9.02,9.02c4.97,0,9.02-4.05,9.02-9.02s-4.05-9.02-9.02-9.02
		C165.73,16.68,161.68,20.73,161.68,25.71z"/>
	<path class="st0" d="M230.34,94.36c0,4.98,4.05,9.02,9.02,9.02c4.97,0,9.02-4.05,9.02-9.02c0-4.97-4.05-9.02-9.02-9.02
		C234.39,85.34,230.34,89.39,230.34,94.36z"/>
	<path class="st0" d="M230.34,25.71c0,4.97,4.05,9.02,9.02,9.02c4.97,0,9.02-4.05,9.02-9.02s-4.05-9.02-9.02-9.02
		C234.39,16.68,230.34,20.73,230.34,25.71z"/>
	<path class="st0" d="M298.95,1054.29c0,4.98,4.05,9.02,9.02,9.02c4.97,0,9.02-4.05,9.02-9.02c0-4.97-4.05-9.02-9.02-9.02
		C303,1045.27,298.95,1049.32,298.95,1054.29z"/>
	<path class="st0" d="M298.95,985.64c0,4.97,4.05,9.02,9.02,9.02c4.97,0,9.02-4.05,9.02-9.02s-4.05-9.02-9.02-9.02
		C303,976.62,298.95,980.66,298.95,985.64z"/>
	<path class="st0" d="M367.61,1054.29c0,4.98,4.05,9.02,9.02,9.02c4.97,0,9.02-4.05,9.02-9.02c0-4.97-4.05-9.02-9.02-9.02
		C371.65,1045.27,367.61,1049.32,367.61,1054.29z"/>
	<path class="st0" d="M367.61,985.64c0,4.97,4.05,9.02,9.02,9.02c4.97,0,9.02-4.05,9.02-9.02s-4.05-9.02-9.02-9.02
		C371.65,976.62,367.61,980.66,367.61,985.64z"/>
	<path class="st0" d="M298.95,917.16c0,4.98,4.05,9.02,9.02,9.02c4.97,0,9.02-4.05,9.02-9.02c0-4.97-4.05-9.02-9.02-9.02
		C303,908.14,298.95,912.19,298.95,917.16z"/>
	<path class="st0" d="M298.95,848.5c0,4.97,4.05,9.02,9.02,9.02c4.97,0,9.02-4.05,9.02-9.02c0-4.97-4.05-9.02-9.02-9.02
		C303,839.48,298.95,843.53,298.95,848.5z"/>
	<path class="st0" d="M367.61,917.16c0,4.98,4.05,9.02,9.02,9.02c4.97,0,9.02-4.05,9.02-9.02c0-4.97-4.05-9.02-9.02-9.02
		C371.65,908.14,367.61,912.19,367.61,917.16z"/>
	<path class="st0" d="M367.61,848.5c0,4.97,4.05,9.02,9.02,9.02c4.97,0,9.02-4.05,9.02-9.02c0-4.97-4.05-9.02-9.02-9.02
		C371.65,839.48,367.61,843.53,367.61,848.5z"/>
	<path class="st0" d="M298.95,780.03c0,4.98,4.05,9.02,9.02,9.02c4.97,0,9.02-4.05,9.02-9.02c0-4.97-4.05-9.02-9.02-9.02
		C303,771.01,298.95,775.05,298.95,780.03z"/>
	<path class="st0" d="M298.95,711.37c0,4.97,4.05,9.02,9.02,9.02c4.97,0,9.02-4.05,9.02-9.02c0-4.97-4.05-9.02-9.02-9.02
		C303,702.35,298.95,706.4,298.95,711.37z"/>
	<path class="st0" d="M367.61,780.03c0,4.98,4.05,9.02,9.02,9.02c4.97,0,9.02-4.05,9.02-9.02c0-4.97-4.05-9.02-9.02-9.02
		C371.65,771.01,367.61,775.05,367.61,780.03z"/>
	<path class="st0" d="M367.61,711.37c0,4.97,4.05,9.02,9.02,9.02c4.97,0,9.02-4.05,9.02-9.02c0-4.97-4.05-9.02-9.02-9.02
		C371.65,702.35,367.61,706.4,367.61,711.37z"/>
	<path class="st0" d="M298.95,642.89c0,4.98,4.05,9.02,9.02,9.02c4.97,0,9.02-4.05,9.02-9.02c0-4.97-4.05-9.02-9.02-9.02
		C303,633.87,298.95,637.92,298.95,642.89z"/>
	<path class="st0" d="M298.95,574.24c0,4.97,4.05,9.02,9.02,9.02c4.97,0,9.02-4.05,9.02-9.02c0-4.97-4.05-9.02-9.02-9.02
		C303,565.22,298.95,569.26,298.95,574.24z"/>
	<path class="st0" d="M367.61,642.89c0,4.98,4.05,9.02,9.02,9.02c4.97,0,9.02-4.05,9.02-9.02c0-4.97-4.05-9.02-9.02-9.02
		C371.65,633.87,367.61,637.92,367.61,642.89z"/>
	<path class="st0" d="M367.61,574.24c0,4.97,4.05,9.02,9.02,9.02c4.97,0,9.02-4.05,9.02-9.02c0-4.97-4.05-9.02-9.02-9.02
		C371.65,565.22,367.61,569.26,367.61,574.24z"/>
	<path class="st0" d="M298.95,505.76c0,4.98,4.05,9.02,9.02,9.02c4.97,0,9.02-4.05,9.02-9.02c0-4.97-4.05-9.02-9.02-9.02
		C303,496.74,298.95,500.79,298.95,505.76z"/>
	<path class="st0" d="M298.95,437.11c0,4.97,4.05,9.02,9.02,9.02c4.97,0,9.02-4.05,9.02-9.02c0-4.97-4.05-9.02-9.02-9.02
		C303,428.08,298.95,432.13,298.95,437.11z"/>
	<path class="st0" d="M367.61,505.76c0,4.98,4.05,9.02,9.02,9.02c4.97,0,9.02-4.05,9.02-9.02c0-4.97-4.05-9.02-9.02-9.02
		C371.65,496.74,367.61,500.79,367.61,505.76z"/>
	<path class="st0" d="M367.61,437.11c0,4.97,4.05,9.02,9.02,9.02c4.97,0,9.02-4.05,9.02-9.02c0-4.97-4.05-9.02-9.02-9.02
		C371.65,428.08,367.61,432.13,367.61,437.11z"/>
	<path class="st0" d="M298.95,368.63c0,4.98,4.05,9.02,9.02,9.02c4.97,0,9.02-4.05,9.02-9.02c0-4.97-4.05-9.02-9.02-9.02
		C303,359.61,298.95,363.65,298.95,368.63z"/>
	<path class="st0" d="M298.95,299.97c0,4.97,4.05,9.02,9.02,9.02c4.97,0,9.02-4.05,9.02-9.02s-4.05-9.02-9.02-9.02
		C303,290.95,298.95,295,298.95,299.97z"/>
	<path class="st0" d="M367.61,368.63c0,4.98,4.05,9.02,9.02,9.02c4.97,0,9.02-4.05,9.02-9.02c0-4.97-4.05-9.02-9.02-9.02
		C371.65,359.61,367.61,363.65,367.61,368.63z"/>
	<path class="st0" d="M367.61,299.97c0,4.97,4.05,9.02,9.02,9.02c4.97,0,9.02-4.05,9.02-9.02s-4.05-9.02-9.02-9.02
		C371.65,290.95,367.61,295,367.61,299.97z"/>
	<path class="st0" d="M298.95,231.49c0,4.98,4.05,9.02,9.02,9.02c4.97,0,9.02-4.05,9.02-9.02c0-4.97-4.05-9.02-9.02-9.02
		C303,222.47,298.95,226.52,298.95,231.49z"/>
	<path class="st0" d="M298.95,162.84c0,4.97,4.05,9.02,9.02,9.02c4.97,0,9.02-4.05,9.02-9.02s-4.05-9.02-9.02-9.02
		C303,153.82,298.95,157.86,298.95,162.84z"/>
	<path class="st0" d="M367.61,231.49c0,4.98,4.05,9.02,9.02,9.02c4.97,0,9.02-4.05,9.02-9.02c0-4.97-4.05-9.02-9.02-9.02
		C371.65,222.47,367.61,226.52,367.61,231.49z"/>
	<path class="st0" d="M367.61,162.84c0,4.97,4.05,9.02,9.02,9.02c4.97,0,9.02-4.05,9.02-9.02s-4.05-9.02-9.02-9.02
		C371.65,153.82,367.61,157.86,367.61,162.84z"/>
	<path class="st0" d="M298.95,94.36c0,4.98,4.05,9.02,9.02,9.02c4.97,0,9.02-4.05,9.02-9.02c0-4.97-4.05-9.02-9.02-9.02
		C303,85.34,298.95,89.39,298.95,94.36z"/>
	<path class="st0" d="M298.95,25.71c0,4.97,4.05,9.02,9.02,9.02c4.97,0,9.02-4.05,9.02-9.02s-4.05-9.02-9.02-9.02
		C303,16.68,298.95,20.73,298.95,25.71z"/>
	<path class="st0" d="M367.61,94.36c0,4.98,4.05,9.02,9.02,9.02c4.97,0,9.02-4.05,9.02-9.02c0-4.97-4.05-9.02-9.02-9.02
		C371.65,85.34,367.61,89.39,367.61,94.36z"/>
	<path class="st0" d="M367.61,25.71c0,4.97,4.05,9.02,9.02,9.02c4.97,0,9.02-4.05,9.02-9.02s-4.05-9.02-9.02-9.02
		C371.65,16.68,367.61,20.73,367.61,25.71z"/>
	<path class="st0" d="M436.22,1054.29c0,4.98,4.05,9.02,9.02,9.02c4.97,0,9.02-4.05,9.02-9.02c0-4.97-4.05-9.02-9.02-9.02
		C440.26,1045.27,436.22,1049.32,436.22,1054.29z"/>
	<path class="st0" d="M436.22,985.64c0,4.97,4.05,9.02,9.02,9.02c4.97,0,9.02-4.05,9.02-9.02s-4.05-9.02-9.02-9.02
		C440.26,976.62,436.22,980.66,436.22,985.64z"/>
	<path class="st0" d="M504.87,1054.29c0,4.98,4.05,9.02,9.02,9.02c4.97,0,9.02-4.05,9.02-9.02c0-4.97-4.05-9.02-9.02-9.02
		C508.92,1045.27,504.87,1049.32,504.87,1054.29z"/>
	<path class="st0" d="M504.87,985.64c0,4.97,4.05,9.02,9.02,9.02c4.97,0,9.02-4.05,9.02-9.02s-4.05-9.02-9.02-9.02
		C508.92,976.62,504.87,980.66,504.87,985.64z"/>
	<path class="st0" d="M436.22,917.16c0,4.98,4.05,9.02,9.02,9.02c4.97,0,9.02-4.05,9.02-9.02c0-4.97-4.05-9.02-9.02-9.02
		C440.26,908.14,436.22,912.19,436.22,917.16z"/>
	<path class="st0" d="M436.22,848.5c0,4.97,4.05,9.02,9.02,9.02c4.97,0,9.02-4.05,9.02-9.02c0-4.97-4.05-9.02-9.02-9.02
		C440.26,839.48,436.22,843.53,436.22,848.5z"/>
	<path class="st0" d="M504.87,917.16c0,4.98,4.05,9.02,9.02,9.02c4.97,0,9.02-4.05,9.02-9.02c0-4.97-4.05-9.02-9.02-9.02
		C508.92,908.14,504.87,912.19,504.87,917.16z"/>
	<path class="st0" d="M504.87,848.5c0,4.97,4.05,9.02,9.02,9.02c4.97,0,9.02-4.05,9.02-9.02c0-4.97-4.05-9.02-9.02-9.02
		C508.92,839.48,504.87,843.53,504.87,848.5z"/>
	<path class="st0" d="M436.22,780.03c0,4.98,4.05,9.02,9.02,9.02c4.97,0,9.02-4.05,9.02-9.02c0-4.97-4.05-9.02-9.02-9.02
		C440.26,771.01,436.22,775.05,436.22,780.03z"/>
	<path class="st0" d="M436.22,711.37c0,4.97,4.05,9.02,9.02,9.02c4.97,0,9.02-4.05,9.02-9.02c0-4.97-4.05-9.02-9.02-9.02
		C440.26,702.35,436.22,706.4,436.22,711.37z"/>
	<path class="st0" d="M504.87,780.03c0,4.98,4.05,9.02,9.02,9.02c4.97,0,9.02-4.05,9.02-9.02c0-4.97-4.05-9.02-9.02-9.02
		C508.92,771.01,504.87,775.05,504.87,780.03z"/>
	<path class="st0" d="M504.87,711.37c0,4.97,4.05,9.02,9.02,9.02c4.97,0,9.02-4.05,9.02-9.02c0-4.97-4.05-9.02-9.02-9.02
		C508.92,702.35,504.87,706.4,504.87,711.37z"/>
	<path class="st0" d="M436.22,642.89c0,4.98,4.05,9.02,9.02,9.02c4.97,0,9.02-4.05,9.02-9.02c0-4.97-4.05-9.02-9.02-9.02
		C440.26,633.87,436.22,637.92,436.22,642.89z"/>
	<path class="st0" d="M436.22,574.24c0,4.97,4.05,9.02,9.02,9.02c4.97,0,9.02-4.05,9.02-9.02c0-4.97-4.05-9.02-9.02-9.02
		C440.26,565.22,436.22,569.26,436.22,574.24z"/>
	<path class="st0" d="M504.87,642.89c0,4.98,4.05,9.02,9.02,9.02c4.97,0,9.02-4.05,9.02-9.02c0-4.97-4.05-9.02-9.02-9.02
		C508.92,633.87,504.87,637.92,504.87,642.89z"/>
	<path class="st0" d="M504.87,574.24c0,4.97,4.05,9.02,9.02,9.02c4.97,0,9.02-4.05,9.02-9.02c0-4.97-4.05-9.02-9.02-9.02
		C508.92,565.22,504.87,569.26,504.87,574.24z"/>
	<path class="st0" d="M436.22,505.76c0,4.98,4.05,9.02,9.02,9.02c4.97,0,9.02-4.05,9.02-9.02c0-4.97-4.05-9.02-9.02-9.02
		C440.26,496.74,436.22,500.79,436.22,505.76z"/>
	<path class="st0" d="M436.22,437.11c0,4.97,4.05,9.02,9.02,9.02c4.97,0,9.02-4.05,9.02-9.02c0-4.97-4.05-9.02-9.02-9.02
		C440.26,428.08,436.22,432.13,436.22,437.11z"/>
	<path class="st0" d="M504.87,505.76c0,4.98,4.05,9.02,9.02,9.02c4.97,0,9.02-4.05,9.02-9.02c0-4.97-4.05-9.02-9.02-9.02
		C508.92,496.74,504.87,500.79,504.87,505.76z"/>
	<path class="st0" d="M504.87,437.11c0,4.97,4.05,9.02,9.02,9.02c4.97,0,9.02-4.05,9.02-9.02c0-4.97-4.05-9.02-9.02-9.02
		C508.92,428.08,504.87,432.13,504.87,437.11z"/>
	<path class="st0" d="M436.22,368.63c0,4.98,4.05,9.02,9.02,9.02c4.97,0,9.02-4.05,9.02-9.02c0-4.97-4.05-9.02-9.02-9.02
		C440.26,359.61,436.22,363.65,436.22,368.63z"/>
	<path class="st0" d="M436.22,299.97c0,4.97,4.05,9.02,9.02,9.02c4.97,0,9.02-4.05,9.02-9.02s-4.05-9.02-9.02-9.02
		C440.26,290.95,436.22,295,436.22,299.97z"/>
	<path class="st0" d="M504.87,368.63c0,4.98,4.05,9.02,9.02,9.02c4.97,0,9.02-4.05,9.02-9.02c0-4.97-4.05-9.02-9.02-9.02
		C508.92,359.61,504.87,363.65,504.87,368.63z"/>
	<path class="st0" d="M504.87,299.97c0,4.97,4.05,9.02,9.02,9.02c4.97,0,9.02-4.05,9.02-9.02s-4.05-9.02-9.02-9.02
		C508.92,290.95,504.87,295,504.87,299.97z"/>
	<path class="st0" d="M436.22,231.49c0,4.98,4.05,9.02,9.02,9.02c4.97,0,9.02-4.05,9.02-9.02c0-4.97-4.05-9.02-9.02-9.02
		C440.26,222.47,436.22,226.52,436.22,231.49z"/>
	<path class="st0" d="M436.22,162.84c0,4.97,4.05,9.02,9.02,9.02c4.97,0,9.02-4.05,9.02-9.02s-4.05-9.02-9.02-9.02
		C440.26,153.82,436.22,157.86,436.22,162.84z"/>
	<path class="st0" d="M504.87,231.49c0,4.98,4.05,9.02,9.02,9.02c4.97,0,9.02-4.05,9.02-9.02c0-4.97-4.05-9.02-9.02-9.02
		C508.92,222.47,504.87,226.52,504.87,231.49z"/>
	<path class="st0" d="M504.87,162.84c0,4.97,4.05,9.02,9.02,9.02c4.97,0,9.02-4.05,9.02-9.02s-4.05-9.02-9.02-9.02
		C508.92,153.82,504.87,157.86,504.87,162.84z"/>
	<path class="st0" d="M436.22,94.36c0,4.98,4.05,9.02,9.02,9.02c4.97,0,9.02-4.05,9.02-9.02c0-4.97-4.05-9.02-9.02-9.02
		C440.26,85.34,436.22,89.39,436.22,94.36z"/>
	<path class="st0" d="M436.22,25.71c0,4.97,4.05,9.02,9.02,9.02c4.97,0,9.02-4.05,9.02-9.02s-4.05-9.02-9.02-9.02
		C440.26,16.68,436.22,20.73,436.22,25.71z"/>
	<path class="st0" d="M504.87,94.36c0,4.98,4.05,9.02,9.02,9.02c4.97,0,9.02-4.05,9.02-9.02c0-4.97-4.05-9.02-9.02-9.02
		C508.92,85.34,504.87,89.39,504.87,94.36z"/>
	<path class="st0" d="M504.87,25.71c0,4.97,4.05,9.02,9.02,9.02c4.97,0,9.02-4.05,9.02-9.02s-4.05-9.02-9.02-9.02
		C508.92,16.68,504.87,20.73,504.87,25.71z"/>
	<path class="st0" d="M573.48,1054.29c0,4.98,4.05,9.02,9.02,9.02c4.97,0,9.02-4.05,9.02-9.02c0-4.97-4.05-9.02-9.02-9.02
		C577.53,1045.27,573.48,1049.32,573.48,1054.29z"/>
	<path class="st0" d="M573.48,985.64c0,4.97,4.05,9.02,9.02,9.02c4.97,0,9.02-4.05,9.02-9.02s-4.05-9.02-9.02-9.02
		C577.53,976.62,573.48,980.66,573.48,985.64z"/>
	<path class="st0" d="M642.14,1054.29c0,4.98,4.05,9.02,9.02,9.02c4.97,0,9.02-4.05,9.02-9.02c0-4.97-4.05-9.02-9.02-9.02
		C646.19,1045.27,642.14,1049.32,642.14,1054.29z"/>
	<path class="st0" d="M642.14,985.64c0,4.97,4.05,9.02,9.02,9.02c4.97,0,9.02-4.05,9.02-9.02s-4.05-9.02-9.02-9.02
		C646.19,976.62,642.14,980.66,642.14,985.64z"/>
	<path class="st0" d="M573.48,917.16c0,4.98,4.05,9.02,9.02,9.02c4.97,0,9.02-4.05,9.02-9.02c0-4.97-4.05-9.02-9.02-9.02
		C577.53,908.14,573.48,912.19,573.48,917.16z"/>
	<path class="st0" d="M573.48,848.5c0,4.97,4.05,9.02,9.02,9.02c4.97,0,9.02-4.05,9.02-9.02c0-4.97-4.05-9.02-9.02-9.02
		C577.53,839.48,573.48,843.53,573.48,848.5z"/>
	<path class="st0" d="M642.14,917.16c0,4.98,4.05,9.02,9.02,9.02c4.97,0,9.02-4.05,9.02-9.02c0-4.97-4.05-9.02-9.02-9.02
		C646.19,908.14,642.14,912.19,642.14,917.16z"/>
	<path class="st0" d="M642.14,848.5c0,4.97,4.05,9.02,9.02,9.02c4.97,0,9.02-4.05,9.02-9.02c0-4.97-4.05-9.02-9.02-9.02
		C646.19,839.48,642.14,843.53,642.14,848.5z"/>
	<path class="st0" d="M573.48,780.03c0,4.98,4.05,9.02,9.02,9.02c4.97,0,9.02-4.05,9.02-9.02c0-4.97-4.05-9.02-9.02-9.02
		C577.53,771.01,573.48,775.05,573.48,780.03z"/>
	<path class="st0" d="M573.48,711.37c0,4.97,4.05,9.02,9.02,9.02c4.97,0,9.02-4.05,9.02-9.02c0-4.97-4.05-9.02-9.02-9.02
		C577.53,702.35,573.48,706.4,573.48,711.37z"/>
	<path class="st0" d="M642.14,780.03c0,4.98,4.05,9.02,9.02,9.02c4.97,0,9.02-4.05,9.02-9.02c0-4.97-4.05-9.02-9.02-9.02
		C646.19,771.01,642.14,775.05,642.14,780.03z"/>
	<path class="st0" d="M642.14,711.37c0,4.97,4.05,9.02,9.02,9.02c4.97,0,9.02-4.05,9.02-9.02c0-4.97-4.05-9.02-9.02-9.02
		C646.19,702.35,642.14,706.4,642.14,711.37z"/>
	<path class="st0" d="M573.48,642.89c0,4.98,4.05,9.02,9.02,9.02c4.97,0,9.02-4.05,9.02-9.02c0-4.97-4.05-9.02-9.02-9.02
		C577.53,633.87,573.48,637.92,573.48,642.89z"/>
	<path class="st0" d="M573.48,574.24c0,4.97,4.05,9.02,9.02,9.02c4.97,0,9.02-4.05,9.02-9.02c0-4.97-4.05-9.02-9.02-9.02
		C577.53,565.22,573.48,569.26,573.48,574.24z"/>
	<path class="st0" d="M642.14,642.89c0,4.98,4.05,9.02,9.02,9.02c4.97,0,9.02-4.05,9.02-9.02c0-4.97-4.05-9.02-9.02-9.02
		C646.19,633.87,642.14,637.92,642.14,642.89z"/>
	<path class="st0" d="M642.14,574.24c0,4.97,4.05,9.02,9.02,9.02c4.97,0,9.02-4.05,9.02-9.02c0-4.97-4.05-9.02-9.02-9.02
		C646.19,565.22,642.14,569.26,642.14,574.24z"/>
	<path class="st0" d="M573.48,505.76c0,4.98,4.05,9.02,9.02,9.02c4.97,0,9.02-4.05,9.02-9.02c0-4.97-4.05-9.02-9.02-9.02
		C577.53,496.74,573.48,500.79,573.48,505.76z"/>
	<path class="st0" d="M573.48,437.11c0,4.97,4.05,9.02,9.02,9.02c4.97,0,9.02-4.05,9.02-9.02c0-4.97-4.05-9.02-9.02-9.02
		C577.53,428.08,573.48,432.13,573.48,437.11z"/>
	<path class="st0" d="M642.14,505.76c0,4.98,4.05,9.02,9.02,9.02c4.97,0,9.02-4.05,9.02-9.02c0-4.97-4.05-9.02-9.02-9.02
		C646.19,496.74,642.14,500.79,642.14,505.76z"/>
	<path class="st0" d="M642.14,437.11c0,4.97,4.05,9.02,9.02,9.02c4.97,0,9.02-4.05,9.02-9.02c0-4.97-4.05-9.02-9.02-9.02
		C646.19,428.08,642.14,432.13,642.14,437.11z"/>
	<path class="st0" d="M573.48,368.63c0,4.98,4.05,9.02,9.02,9.02c4.97,0,9.02-4.05,9.02-9.02c0-4.97-4.05-9.02-9.02-9.02
		C577.53,359.61,573.48,363.65,573.48,368.63z"/>
	<path class="st0" d="M573.48,299.97c0,4.97,4.05,9.02,9.02,9.02c4.97,0,9.02-4.05,9.02-9.02s-4.05-9.02-9.02-9.02
		C577.53,290.95,573.48,295,573.48,299.97z"/>
	<path class="st0" d="M642.14,368.63c0,4.98,4.05,9.02,9.02,9.02c4.97,0,9.02-4.05,9.02-9.02c0-4.97-4.05-9.02-9.02-9.02
		C646.19,359.61,642.14,363.65,642.14,368.63z"/>
	<path class="st0" d="M642.14,299.97c0,4.97,4.05,9.02,9.02,9.02c4.97,0,9.02-4.05,9.02-9.02s-4.05-9.02-9.02-9.02
		C646.19,290.95,642.14,295,642.14,299.97z"/>
	<path class="st0" d="M573.48,231.49c0,4.98,4.05,9.02,9.02,9.02c4.97,0,9.02-4.05,9.02-9.02c0-4.97-4.05-9.02-9.02-9.02
		C577.53,222.47,573.48,226.52,573.48,231.49z"/>
	<path class="st0" d="M573.48,162.84c0,4.97,4.05,9.02,9.02,9.02c4.97,0,9.02-4.05,9.02-9.02s-4.05-9.02-9.02-9.02
		C577.53,153.82,573.48,157.86,573.48,162.84z"/>
	<path class="st0" d="M642.14,231.49c0,4.98,4.05,9.02,9.02,9.02c4.97,0,9.02-4.05,9.02-9.02c0-4.97-4.05-9.02-9.02-9.02
		C646.19,222.47,642.14,226.52,642.14,231.49z"/>
	<path class="st0" d="M642.14,162.84c0,4.97,4.05,9.02,9.02,9.02c4.97,0,9.02-4.05,9.02-9.02s-4.05-9.02-9.02-9.02
		C646.19,153.82,642.14,157.86,642.14,162.84z"/>
	<path class="st0" d="M573.48,94.36c0,4.98,4.05,9.02,9.02,9.02c4.97,0,9.02-4.05,9.02-9.02c0-4.97-4.05-9.02-9.02-9.02
		C577.53,85.34,573.48,89.39,573.48,94.36z"/>
	<path class="st0" d="M573.48,25.71c0,4.97,4.05,9.02,9.02,9.02c4.97,0,9.02-4.05,9.02-9.02s-4.05-9.02-9.02-9.02
		C577.53,16.68,573.48,20.73,573.48,25.71z"/>
	<path class="st0" d="M642.14,94.36c0,4.98,4.05,9.02,9.02,9.02c4.97,0,9.02-4.05,9.02-9.02c0-4.97-4.05-9.02-9.02-9.02
		C646.19,85.34,642.14,89.39,642.14,94.36z"/>
	<path class="st0" d="M642.14,25.71c0,4.97,4.05,9.02,9.02,9.02c4.97,0,9.02-4.05,9.02-9.02s-4.05-9.02-9.02-9.02
		C646.19,16.68,642.14,20.73,642.14,25.71z"/>
	<path class="st0" d="M710.75,1054.29c0,4.98,4.05,9.02,9.02,9.02c4.97,0,9.02-4.05,9.02-9.02c0-4.97-4.05-9.02-9.02-9.02
		C714.8,1045.27,710.75,1049.32,710.75,1054.29z"/>
	<path class="st0" d="M710.75,985.64c0,4.97,4.05,9.02,9.02,9.02c4.97,0,9.02-4.05,9.02-9.02s-4.05-9.02-9.02-9.02
		C714.8,976.62,710.75,980.66,710.75,985.64z"/>
	<path class="st0" d="M779.41,1054.29c0,4.98,4.05,9.02,9.02,9.02c4.97,0,9.02-4.05,9.02-9.02c0-4.97-4.05-9.02-9.02-9.02
		C783.45,1045.27,779.41,1049.32,779.41,1054.29z"/>
	<path class="st0" d="M779.41,985.64c0,4.97,4.05,9.02,9.02,9.02c4.97,0,9.02-4.05,9.02-9.02s-4.05-9.02-9.02-9.02
		C783.45,976.62,779.41,980.66,779.41,985.64z"/>
	<path class="st0" d="M710.75,917.16c0,4.98,4.05,9.02,9.02,9.02c4.97,0,9.02-4.05,9.02-9.02c0-4.97-4.05-9.02-9.02-9.02
		C714.8,908.14,710.75,912.19,710.75,917.16z"/>
	<path class="st0" d="M710.75,848.5c0,4.97,4.05,9.02,9.02,9.02c4.97,0,9.02-4.05,9.02-9.02c0-4.97-4.05-9.02-9.02-9.02
		C714.8,839.48,710.75,843.53,710.75,848.5z"/>
	<path class="st0" d="M779.41,917.16c0,4.98,4.05,9.02,9.02,9.02c4.97,0,9.02-4.05,9.02-9.02c0-4.97-4.05-9.02-9.02-9.02
		C783.45,908.14,779.41,912.19,779.41,917.16z"/>
	<path class="st0" d="M779.41,848.5c0,4.97,4.05,9.02,9.02,9.02c4.97,0,9.02-4.05,9.02-9.02c0-4.97-4.05-9.02-9.02-9.02
		C783.45,839.48,779.41,843.53,779.41,848.5z"/>
	<path class="st0" d="M710.75,780.03c0,4.98,4.05,9.02,9.02,9.02c4.97,0,9.02-4.05,9.02-9.02c0-4.97-4.05-9.02-9.02-9.02
		C714.8,771.01,710.75,775.05,710.75,780.03z"/>
	<path class="st0" d="M710.75,711.37c0,4.97,4.05,9.02,9.02,9.02c4.97,0,9.02-4.05,9.02-9.02c0-4.97-4.05-9.02-9.02-9.02
		C714.8,702.35,710.75,706.4,710.75,711.37z"/>
	<path class="st0" d="M779.41,780.03c0,4.98,4.05,9.02,9.02,9.02c4.97,0,9.02-4.05,9.02-9.02c0-4.97-4.05-9.02-9.02-9.02
		C783.45,771.01,779.41,775.05,779.41,780.03z"/>
	<path class="st0" d="M779.41,711.37c0,4.97,4.05,9.02,9.02,9.02c4.97,0,9.02-4.05,9.02-9.02c0-4.97-4.05-9.02-9.02-9.02
		C783.45,702.35,779.41,706.4,779.41,711.37z"/>
	<path class="st0" d="M710.75,642.89c0,4.98,4.05,9.02,9.02,9.02c4.97,0,9.02-4.05,9.02-9.02c0-4.97-4.05-9.02-9.02-9.02
		C714.8,633.87,710.75,637.92,710.75,642.89z"/>
	<path class="st0" d="M710.75,574.24c0,4.97,4.05,9.02,9.02,9.02c4.97,0,9.02-4.05,9.02-9.02c0-4.97-4.05-9.02-9.02-9.02
		C714.8,565.22,710.75,569.26,710.75,574.24z"/>
	<path class="st0" d="M779.41,642.89c0,4.98,4.05,9.02,9.02,9.02c4.97,0,9.02-4.05,9.02-9.02c0-4.97-4.05-9.02-9.02-9.02
		C783.45,633.87,779.41,637.92,779.41,642.89z"/>
	<path class="st0" d="M779.41,574.24c0,4.97,4.05,9.02,9.02,9.02c4.97,0,9.02-4.05,9.02-9.02c0-4.97-4.05-9.02-9.02-9.02
		C783.45,565.22,779.41,569.26,779.41,574.24z"/>
	<path class="st0" d="M710.75,505.76c0,4.98,4.05,9.02,9.02,9.02c4.97,0,9.02-4.05,9.02-9.02c0-4.97-4.05-9.02-9.02-9.02
		C714.8,496.74,710.75,500.79,710.75,505.76z"/>
	<path class="st0" d="M710.75,437.11c0,4.97,4.05,9.02,9.02,9.02c4.97,0,9.02-4.05,9.02-9.02c0-4.97-4.05-9.02-9.02-9.02
		C714.8,428.08,710.75,432.13,710.75,437.11z"/>
	<path class="st0" d="M779.41,505.76c0,4.98,4.05,9.02,9.02,9.02c4.97,0,9.02-4.05,9.02-9.02c0-4.97-4.05-9.02-9.02-9.02
		C783.45,496.74,779.41,500.79,779.41,505.76z"/>
	<path class="st0" d="M779.41,437.11c0,4.97,4.05,9.02,9.02,9.02c4.97,0,9.02-4.05,9.02-9.02c0-4.97-4.05-9.02-9.02-9.02
		C783.45,428.08,779.41,432.13,779.41,437.11z"/>
	<path class="st0" d="M710.75,368.63c0,4.98,4.05,9.02,9.02,9.02c4.97,0,9.02-4.05,9.02-9.02c0-4.97-4.05-9.02-9.02-9.02
		C714.8,359.61,710.75,363.65,710.75,368.63z"/>
	<path class="st0" d="M710.75,299.97c0,4.97,4.05,9.02,9.02,9.02c4.97,0,9.02-4.05,9.02-9.02s-4.05-9.02-9.02-9.02
		C714.8,290.95,710.75,295,710.75,299.97z"/>
	<path class="st0" d="M779.41,368.63c0,4.98,4.05,9.02,9.02,9.02c4.97,0,9.02-4.05,9.02-9.02c0-4.97-4.05-9.02-9.02-9.02
		C783.45,359.61,779.41,363.65,779.41,368.63z"/>
	<path class="st0" d="M779.41,299.97c0,4.97,4.05,9.02,9.02,9.02c4.97,0,9.02-4.05,9.02-9.02s-4.05-9.02-9.02-9.02
		C783.45,290.95,779.41,295,779.41,299.97z"/>
	<path class="st0" d="M710.75,231.49c0,4.98,4.05,9.02,9.02,9.02c4.97,0,9.02-4.05,9.02-9.02c0-4.97-4.05-9.02-9.02-9.02
		C714.8,222.47,710.75,226.52,710.75,231.49z"/>
	<path class="st0" d="M710.75,162.84c0,4.97,4.05,9.02,9.02,9.02c4.97,0,9.02-4.05,9.02-9.02s-4.05-9.02-9.02-9.02
		C714.8,153.82,710.75,157.86,710.75,162.84z"/>
	<path class="st0" d="M779.41,231.49c0,4.98,4.05,9.02,9.02,9.02c4.97,0,9.02-4.05,9.02-9.02c0-4.97-4.05-9.02-9.02-9.02
		C783.45,222.47,779.41,226.52,779.41,231.49z"/>
	<path class="st0" d="M779.41,162.84c0,4.97,4.05,9.02,9.02,9.02c4.97,0,9.02-4.05,9.02-9.02s-4.05-9.02-9.02-9.02
		C783.45,153.82,779.41,157.86,779.41,162.84z"/>
	<path class="st0" d="M710.75,94.36c0,4.98,4.05,9.02,9.02,9.02c4.97,0,9.02-4.05,9.02-9.02c0-4.97-4.05-9.02-9.02-9.02
		C714.8,85.34,710.75,89.39,710.75,94.36z"/>
	<path class="st0" d="M710.75,25.71c0,4.97,4.05,9.02,9.02,9.02c4.97,0,9.02-4.05,9.02-9.02s-4.05-9.02-9.02-9.02
		C714.8,16.68,710.75,20.73,710.75,25.71z"/>
	<path class="st0" d="M779.41,94.36c0,4.98,4.05,9.02,9.02,9.02c4.97,0,9.02-4.05,9.02-9.02c0-4.97-4.05-9.02-9.02-9.02
		C783.45,85.34,779.41,89.39,779.41,94.36z"/>
	<path class="st0" d="M779.41,25.71c0,4.97,4.05,9.02,9.02,9.02c4.97,0,9.02-4.05,9.02-9.02s-4.05-9.02-9.02-9.02
		C783.45,16.68,779.41,20.73,779.41,25.71z"/>
	<path class="st0" d="M848.02,1054.29c0,4.98,4.05,9.02,9.02,9.02c4.97,0,9.02-4.05,9.02-9.02c0-4.97-4.05-9.02-9.02-9.02
		C852.06,1045.27,848.02,1049.32,848.02,1054.29z"/>
	<path class="st0" d="M848.02,985.64c0,4.97,4.05,9.02,9.02,9.02c4.97,0,9.02-4.05,9.02-9.02s-4.05-9.02-9.02-9.02
		C852.06,976.62,848.02,980.66,848.02,985.64z"/>
	<path class="st0" d="M916.67,1054.29c0,4.98,4.05,9.02,9.02,9.02c4.97,0,9.02-4.05,9.02-9.02c0-4.97-4.05-9.02-9.02-9.02
		C920.72,1045.27,916.67,1049.32,916.67,1054.29z"/>
	<path class="st0" d="M916.67,985.64c0,4.97,4.05,9.02,9.02,9.02c4.97,0,9.02-4.05,9.02-9.02s-4.05-9.02-9.02-9.02
		C920.72,976.62,916.67,980.66,916.67,985.64z"/>
	<path class="st0" d="M848.02,917.16c0,4.98,4.05,9.02,9.02,9.02c4.97,0,9.02-4.05,9.02-9.02c0-4.97-4.05-9.02-9.02-9.02
		C852.06,908.14,848.02,912.19,848.02,917.16z"/>
	<path class="st0" d="M848.02,848.5c0,4.97,4.05,9.02,9.02,9.02c4.97,0,9.02-4.05,9.02-9.02c0-4.97-4.05-9.02-9.02-9.02
		C852.06,839.48,848.02,843.53,848.02,848.5z"/>
	<path class="st0" d="M916.67,917.16c0,4.98,4.05,9.02,9.02,9.02c4.97,0,9.02-4.05,9.02-9.02c0-4.97-4.05-9.02-9.02-9.02
		C920.72,908.14,916.67,912.19,916.67,917.16z"/>
	<path class="st0" d="M916.67,848.5c0,4.97,4.05,9.02,9.02,9.02c4.97,0,9.02-4.05,9.02-9.02c0-4.97-4.05-9.02-9.02-9.02
		C920.72,839.48,916.67,843.53,916.67,848.5z"/>
	<path class="st0" d="M848.02,780.03c0,4.98,4.05,9.02,9.02,9.02c4.97,0,9.02-4.05,9.02-9.02c0-4.97-4.05-9.02-9.02-9.02
		C852.06,771.01,848.02,775.05,848.02,780.03z"/>
	<path class="st0" d="M848.02,711.37c0,4.97,4.05,9.02,9.02,9.02c4.97,0,9.02-4.05,9.02-9.02c0-4.97-4.05-9.02-9.02-9.02
		C852.06,702.35,848.02,706.4,848.02,711.37z"/>
	<path class="st0" d="M916.67,780.03c0,4.98,4.05,9.02,9.02,9.02c4.97,0,9.02-4.05,9.02-9.02c0-4.97-4.05-9.02-9.02-9.02
		C920.72,771.01,916.67,775.05,916.67,780.03z"/>
	<path class="st0" d="M916.67,711.37c0,4.97,4.05,9.02,9.02,9.02c4.97,0,9.02-4.05,9.02-9.02c0-4.97-4.05-9.02-9.02-9.02
		C920.72,702.35,916.67,706.4,916.67,711.37z"/>
	<path class="st0" d="M848.02,642.89c0,4.98,4.05,9.02,9.02,9.02c4.97,0,9.02-4.05,9.02-9.02c0-4.97-4.05-9.02-9.02-9.02
		C852.06,633.87,848.02,637.92,848.02,642.89z"/>
	<path class="st0" d="M848.02,574.24c0,4.97,4.05,9.02,9.02,9.02c4.97,0,9.02-4.05,9.02-9.02c0-4.97-4.05-9.02-9.02-9.02
		C852.06,565.22,848.02,569.26,848.02,574.24z"/>
	<path class="st0" d="M916.67,642.89c0,4.98,4.05,9.02,9.02,9.02c4.97,0,9.02-4.05,9.02-9.02c0-4.97-4.05-9.02-9.02-9.02
		C920.72,633.87,916.67,637.92,916.67,642.89z"/>
	<path class="st0" d="M916.67,574.24c0,4.97,4.05,9.02,9.02,9.02c4.97,0,9.02-4.05,9.02-9.02c0-4.97-4.05-9.02-9.02-9.02
		C920.72,565.22,916.67,569.26,916.67,574.24z"/>
	<path class="st0" d="M848.02,505.76c0,4.98,4.05,9.02,9.02,9.02c4.97,0,9.02-4.05,9.02-9.02c0-4.97-4.05-9.02-9.02-9.02
		C852.06,496.74,848.02,500.79,848.02,505.76z"/>
	<path class="st0" d="M848.02,437.11c0,4.97,4.05,9.02,9.02,9.02c4.97,0,9.02-4.05,9.02-9.02c0-4.97-4.05-9.02-9.02-9.02
		C852.06,428.08,848.02,432.13,848.02,437.11z"/>
	<path class="st0" d="M916.67,505.76c0,4.98,4.05,9.02,9.02,9.02c4.97,0,9.02-4.05,9.02-9.02c0-4.97-4.05-9.02-9.02-9.02
		C920.72,496.74,916.67,500.79,916.67,505.76z"/>
	<path class="st0" d="M916.67,437.11c0,4.97,4.05,9.02,9.02,9.02c4.97,0,9.02-4.05,9.02-9.02c0-4.97-4.05-9.02-9.02-9.02
		C920.72,428.08,916.67,432.13,916.67,437.11z"/>
	<path class="st0" d="M848.02,368.63c0,4.98,4.05,9.02,9.02,9.02c4.97,0,9.02-4.05,9.02-9.02c0-4.97-4.05-9.02-9.02-9.02
		C852.06,359.61,848.02,363.65,848.02,368.63z"/>
	<path class="st0" d="M848.02,299.97c0,4.97,4.05,9.02,9.02,9.02c4.97,0,9.02-4.05,9.02-9.02s-4.05-9.02-9.02-9.02
		C852.06,290.95,848.02,295,848.02,299.97z"/>
	<path class="st0" d="M916.67,368.63c0,4.98,4.05,9.02,9.02,9.02c4.97,0,9.02-4.05,9.02-9.02c0-4.97-4.05-9.02-9.02-9.02
		C920.72,359.61,916.67,363.65,916.67,368.63z"/>
	<path class="st0" d="M916.67,299.97c0,4.97,4.05,9.02,9.02,9.02c4.97,0,9.02-4.05,9.02-9.02s-4.05-9.02-9.02-9.02
		C920.72,290.95,916.67,295,916.67,299.97z"/>
	<path class="st0" d="M848.02,231.49c0,4.98,4.05,9.02,9.02,9.02c4.97,0,9.02-4.05,9.02-9.02c0-4.97-4.05-9.02-9.02-9.02
		C852.06,222.47,848.02,226.52,848.02,231.49z"/>
	<path class="st0" d="M848.02,162.84c0,4.97,4.05,9.02,9.02,9.02c4.97,0,9.02-4.05,9.02-9.02s-4.05-9.02-9.02-9.02
		C852.06,153.82,848.02,157.86,848.02,162.84z"/>
	<path class="st0" d="M916.67,231.49c0,4.98,4.05,9.02,9.02,9.02c4.97,0,9.02-4.05,9.02-9.02c0-4.97-4.05-9.02-9.02-9.02
		C920.72,222.47,916.67,226.52,916.67,231.49z"/>
	<path class="st0" d="M916.67,162.84c0,4.97,4.05,9.02,9.02,9.02c4.97,0,9.02-4.05,9.02-9.02s-4.05-9.02-9.02-9.02
		C920.72,153.82,916.67,157.86,916.67,162.84z"/>
	<path class="st0" d="M848.02,94.36c0,4.98,4.05,9.02,9.02,9.02c4.97,0,9.02-4.05,9.02-9.02c0-4.97-4.05-9.02-9.02-9.02
		C852.06,85.34,848.02,89.39,848.02,94.36z"/>
	<path class="st0" d="M848.02,25.71c0,4.97,4.05,9.02,9.02,9.02c4.97,0,9.02-4.05,9.02-9.02s-4.05-9.02-9.02-9.02
		C852.06,16.68,848.02,20.73,848.02,25.71z"/>
	<path class="st0" d="M916.67,94.36c0,4.98,4.05,9.02,9.02,9.02c4.97,0,9.02-4.05,9.02-9.02c0-4.97-4.05-9.02-9.02-9.02
		C920.72,85.34,916.67,89.39,916.67,94.36z"/>
	<path class="st0" d="M916.67,25.71c0,4.97,4.05,9.02,9.02,9.02c4.97,0,9.02-4.05,9.02-9.02s-4.05-9.02-9.02-9.02
		C920.72,16.68,916.67,20.73,916.67,25.71z"/>
	<path class="st0" d="M985.28,1054.29c0,4.98,4.05,9.02,9.02,9.02c4.97,0,9.02-4.05,9.02-9.02c0-4.97-4.05-9.02-9.02-9.02
		C989.33,1045.27,985.28,1049.32,985.28,1054.29z"/>
	<path class="st0" d="M985.28,985.64c0,4.97,4.05,9.02,9.02,9.02c4.97,0,9.02-4.05,9.02-9.02s-4.05-9.02-9.02-9.02
		C989.33,976.62,985.28,980.66,985.28,985.64z"/>
	<path class="st0" d="M1053.94,1054.29c0,4.98,4.05,9.02,9.02,9.02c4.97,0,9.02-4.05,9.02-9.02c0-4.97-4.05-9.02-9.02-9.02
		C1057.99,1045.27,1053.94,1049.32,1053.94,1054.29z"/>
	<path class="st0" d="M1053.94,985.64c0,4.97,4.05,9.02,9.02,9.02c4.97,0,9.02-4.05,9.02-9.02s-4.05-9.02-9.02-9.02
		C1057.99,976.62,1053.94,980.66,1053.94,985.64z"/>
	<path class="st0" d="M985.28,917.16c0,4.98,4.05,9.02,9.02,9.02c4.97,0,9.02-4.05,9.02-9.02c0-4.97-4.05-9.02-9.02-9.02
		C989.33,908.14,985.28,912.19,985.28,917.16z"/>
	<path class="st0" d="M985.28,848.5c0,4.97,4.05,9.02,9.02,9.02c4.97,0,9.02-4.05,9.02-9.02c0-4.97-4.05-9.02-9.02-9.02
		C989.33,839.48,985.28,843.53,985.28,848.5z"/>
	<path class="st0" d="M1053.94,917.16c0,4.98,4.05,9.02,9.02,9.02c4.97,0,9.02-4.05,9.02-9.02c0-4.97-4.05-9.02-9.02-9.02
		C1057.99,908.14,1053.94,912.19,1053.94,917.16z"/>
	<path class="st0" d="M1053.94,848.5c0,4.97,4.05,9.02,9.02,9.02c4.97,0,9.02-4.05,9.02-9.02c0-4.97-4.05-9.02-9.02-9.02
		C1057.99,839.48,1053.94,843.53,1053.94,848.5z"/>
	<path class="st0" d="M985.28,780.03c0,4.98,4.05,9.02,9.02,9.02c4.97,0,9.02-4.05,9.02-9.02c0-4.97-4.05-9.02-9.02-9.02
		C989.33,771.01,985.28,775.05,985.28,780.03z"/>
	<path class="st0" d="M985.28,711.37c0,4.97,4.05,9.02,9.02,9.02c4.97,0,9.02-4.05,9.02-9.02c0-4.97-4.05-9.02-9.02-9.02
		C989.33,702.35,985.28,706.4,985.28,711.37z"/>
	<path class="st0" d="M1053.94,780.03c0,4.98,4.05,9.02,9.02,9.02c4.97,0,9.02-4.05,9.02-9.02c0-4.97-4.05-9.02-9.02-9.02
		C1057.99,771.01,1053.94,775.05,1053.94,780.03z"/>
	<path class="st0" d="M1053.94,711.37c0,4.97,4.05,9.02,9.02,9.02c4.97,0,9.02-4.05,9.02-9.02c0-4.97-4.05-9.02-9.02-9.02
		C1057.99,702.35,1053.94,706.4,1053.94,711.37z"/>
	<path class="st0" d="M985.28,642.89c0,4.98,4.05,9.02,9.02,9.02c4.97,0,9.02-4.05,9.02-9.02c0-4.97-4.05-9.02-9.02-9.02
		C989.33,633.87,985.28,637.92,985.28,642.89z"/>
	<path class="st0" d="M985.28,574.24c0,4.97,4.05,9.02,9.02,9.02c4.97,0,9.02-4.05,9.02-9.02c0-4.97-4.05-9.02-9.02-9.02
		C989.33,565.22,985.28,569.26,985.28,574.24z"/>
	<path class="st0" d="M1053.94,642.89c0,4.98,4.05,9.02,9.02,9.02c4.97,0,9.02-4.05,9.02-9.02c0-4.97-4.05-9.02-9.02-9.02
		C1057.99,633.87,1053.94,637.92,1053.94,642.89z"/>
	<path class="st0" d="M1053.94,574.24c0,4.97,4.05,9.02,9.02,9.02c4.97,0,9.02-4.05,9.02-9.02c0-4.97-4.05-9.02-9.02-9.02
		C1057.99,565.22,1053.94,569.26,1053.94,574.24z"/>
	<path class="st0" d="M985.28,505.76c0,4.98,4.05,9.02,9.02,9.02c4.97,0,9.02-4.05,9.02-9.02c0-4.97-4.05-9.02-9.02-9.02
		C989.33,496.74,985.28,500.79,985.28,505.76z"/>
	<path class="st0" d="M985.28,437.11c0,4.97,4.05,9.02,9.02,9.02c4.97,0,9.02-4.05,9.02-9.02c0-4.97-4.05-9.02-9.02-9.02
		C989.33,428.08,985.28,432.13,985.28,437.11z"/>
	<path class="st0" d="M1053.94,505.76c0,4.98,4.05,9.02,9.02,9.02c4.97,0,9.02-4.05,9.02-9.02c0-4.97-4.05-9.02-9.02-9.02
		C1057.99,496.74,1053.94,500.79,1053.94,505.76z"/>
	<path class="st0" d="M1053.94,437.11c0,4.97,4.05,9.02,9.02,9.02c4.97,0,9.02-4.05,9.02-9.02c0-4.97-4.05-9.02-9.02-9.02
		C1057.99,428.08,1053.94,432.13,1053.94,437.11z"/>
	<path class="st0" d="M985.28,368.63c0,4.98,4.05,9.02,9.02,9.02c4.97,0,9.02-4.05,9.02-9.02c0-4.97-4.05-9.02-9.02-9.02
		C989.33,359.61,985.28,363.65,985.28,368.63z"/>
	<path class="st0" d="M985.28,299.97c0,4.97,4.05,9.02,9.02,9.02c4.97,0,9.02-4.05,9.02-9.02s-4.05-9.02-9.02-9.02
		C989.33,290.95,985.28,295,985.28,299.97z"/>
	<path class="st0" d="M1053.94,368.63c0,4.98,4.05,9.02,9.02,9.02c4.97,0,9.02-4.05,9.02-9.02c0-4.97-4.05-9.02-9.02-9.02
		C1057.99,359.61,1053.94,363.65,1053.94,368.63z"/>
	<path class="st0" d="M1053.94,299.97c0,4.97,4.05,9.02,9.02,9.02c4.97,0,9.02-4.05,9.02-9.02s-4.05-9.02-9.02-9.02
		C1057.99,290.95,1053.94,295,1053.94,299.97z"/>
	<path class="st0" d="M985.28,231.49c0,4.98,4.05,9.02,9.02,9.02c4.97,0,9.02-4.05,9.02-9.02c0-4.97-4.05-9.02-9.02-9.02
		C989.33,222.47,985.28,226.52,985.28,231.49z"/>
	<path class="st0" d="M985.28,162.84c0,4.97,4.05,9.02,9.02,9.02c4.97,0,9.02-4.05,9.02-9.02s-4.05-9.02-9.02-9.02
		C989.33,153.82,985.28,157.86,985.28,162.84z"/>
	<path class="st0" d="M1053.94,231.49c0,4.98,4.05,9.02,9.02,9.02c4.97,0,9.02-4.05,9.02-9.02c0-4.97-4.05-9.02-9.02-9.02
		C1057.99,222.47,1053.94,226.52,1053.94,231.49z"/>
	<path class="st0" d="M1053.94,162.84c0,4.97,4.05,9.02,9.02,9.02c4.97,0,9.02-4.05,9.02-9.02s-4.05-9.02-9.02-9.02
		C1057.99,153.82,1053.94,157.86,1053.94,162.84z"/>
	<path class="st0" d="M985.28,94.36c0,4.98,4.05,9.02,9.02,9.02c4.97,0,9.02-4.05,9.02-9.02c0-4.97-4.05-9.02-9.02-9.02
		C989.33,85.34,985.28,89.39,985.28,94.36z"/>
	<path class="st0" d="M985.28,25.71c0,4.97,4.05,9.02,9.02,9.02c4.97,0,9.02-4.05,9.02-9.02s-4.05-9.02-9.02-9.02
		C989.33,16.68,985.28,20.73,985.28,25.71z"/>
	<path class="st0" d="M1053.94,94.36c0,4.98,4.05,9.02,9.02,9.02c4.97,0,9.02-4.05,9.02-9.02c0-4.97-4.05-9.02-9.02-9.02
		C1057.99,85.34,1053.94,89.39,1053.94,94.36z"/>
	<path class="st0" d="M1053.94,25.71c0,4.97,4.05,9.02,9.02,9.02c4.97,0,9.02-4.05,9.02-9.02s-4.05-9.02-9.02-9.02
		C1057.99,16.68,1053.94,20.73,1053.94,25.71z"/>
	<path class="st0" d="M1122.55,1054.29c0,4.98,4.05,9.02,9.02,9.02c4.97,0,9.02-4.05,9.02-9.02c0-4.97-4.05-9.02-9.02-9.02
		C1126.6,1045.27,1122.55,1049.32,1122.55,1054.29z"/>
	<path class="st0" d="M1122.55,985.64c0,4.97,4.05,9.02,9.02,9.02c4.97,0,9.02-4.05,9.02-9.02s-4.05-9.02-9.02-9.02
		C1126.6,976.62,1122.55,980.66,1122.55,985.64z"/>
	<path class="st0" d="M1191.21,1054.29c0,4.98,4.05,9.02,9.02,9.02c4.97,0,9.02-4.05,9.02-9.02c0-4.97-4.05-9.02-9.02-9.02
		C1195.25,1045.27,1191.21,1049.32,1191.21,1054.29z"/>
	<path class="st0" d="M1191.21,985.64c0,4.97,4.05,9.02,9.02,9.02c4.97,0,9.02-4.05,9.02-9.02s-4.05-9.02-9.02-9.02
		C1195.25,976.62,1191.21,980.66,1191.21,985.64z"/>
	<path class="st0" d="M1122.55,917.16c0,4.98,4.05,9.02,9.02,9.02c4.97,0,9.02-4.05,9.02-9.02c0-4.97-4.05-9.02-9.02-9.02
		C1126.6,908.14,1122.55,912.19,1122.55,917.16z"/>
	<path class="st0" d="M1122.55,848.5c0,4.97,4.05,9.02,9.02,9.02c4.97,0,9.02-4.05,9.02-9.02c0-4.97-4.05-9.02-9.02-9.02
		C1126.6,839.48,1122.55,843.53,1122.55,848.5z"/>
	<path class="st0" d="M1191.21,917.16c0,4.98,4.05,9.02,9.02,9.02c4.97,0,9.02-4.05,9.02-9.02c0-4.97-4.05-9.02-9.02-9.02
		C1195.25,908.14,1191.21,912.19,1191.21,917.16z"/>
	<path class="st0" d="M1191.21,848.5c0,4.97,4.05,9.02,9.02,9.02c4.97,0,9.02-4.05,9.02-9.02c0-4.97-4.05-9.02-9.02-9.02
		C1195.25,839.48,1191.21,843.53,1191.21,848.5z"/>
	<path class="st0" d="M1122.55,780.03c0,4.98,4.05,9.02,9.02,9.02c4.97,0,9.02-4.05,9.02-9.02c0-4.97-4.05-9.02-9.02-9.02
		C1126.6,771.01,1122.55,775.05,1122.55,780.03z"/>
	<path class="st0" d="M1122.55,711.37c0,4.97,4.05,9.02,9.02,9.02c4.97,0,9.02-4.05,9.02-9.02c0-4.97-4.05-9.02-9.02-9.02
		C1126.6,702.35,1122.55,706.4,1122.55,711.37z"/>
	<path class="st0" d="M1191.21,780.03c0,4.98,4.05,9.02,9.02,9.02c4.97,0,9.02-4.05,9.02-9.02c0-4.97-4.05-9.02-9.02-9.02
		C1195.25,771.01,1191.21,775.05,1191.21,780.03z"/>
	<path class="st0" d="M1191.21,711.37c0,4.97,4.05,9.02,9.02,9.02c4.97,0,9.02-4.05,9.02-9.02c0-4.97-4.05-9.02-9.02-9.02
		C1195.25,702.35,1191.21,706.4,1191.21,711.37z"/>
	<path class="st0" d="M1122.55,642.89c0,4.98,4.05,9.02,9.02,9.02c4.97,0,9.02-4.05,9.02-9.02c0-4.97-4.05-9.02-9.02-9.02
		C1126.6,633.87,1122.55,637.92,1122.55,642.89z"/>
	<path class="st0" d="M1122.55,574.24c0,4.97,4.05,9.02,9.02,9.02c4.97,0,9.02-4.05,9.02-9.02c0-4.97-4.05-9.02-9.02-9.02
		C1126.6,565.22,1122.55,569.26,1122.55,574.24z"/>
	<path class="st0" d="M1191.21,642.89c0,4.98,4.05,9.02,9.02,9.02c4.97,0,9.02-4.05,9.02-9.02c0-4.97-4.05-9.02-9.02-9.02
		C1195.25,633.87,1191.21,637.92,1191.21,642.89z"/>
	<path class="st0" d="M1191.21,574.24c0,4.97,4.05,9.02,9.02,9.02c4.97,0,9.02-4.05,9.02-9.02c0-4.97-4.05-9.02-9.02-9.02
		C1195.25,565.22,1191.21,569.26,1191.21,574.24z"/>
	<path class="st0" d="M1122.55,505.76c0,4.98,4.05,9.02,9.02,9.02c4.97,0,9.02-4.05,9.02-9.02c0-4.97-4.05-9.02-9.02-9.02
		C1126.6,496.74,1122.55,500.79,1122.55,505.76z"/>
	<path class="st0" d="M1122.55,437.11c0,4.97,4.05,9.02,9.02,9.02c4.97,0,9.02-4.05,9.02-9.02c0-4.97-4.05-9.02-9.02-9.02
		C1126.6,428.08,1122.55,432.13,1122.55,437.11z"/>
	<path class="st0" d="M1191.21,505.76c0,4.98,4.05,9.02,9.02,9.02c4.97,0,9.02-4.05,9.02-9.02c0-4.97-4.05-9.02-9.02-9.02
		C1195.25,496.74,1191.21,500.79,1191.21,505.76z"/>
	<path class="st0" d="M1191.21,437.11c0,4.97,4.05,9.02,9.02,9.02c4.97,0,9.02-4.05,9.02-9.02c0-4.97-4.05-9.02-9.02-9.02
		C1195.25,428.08,1191.21,432.13,1191.21,437.11z"/>
	<path class="st0" d="M1122.55,368.63c0,4.98,4.05,9.02,9.02,9.02c4.97,0,9.02-4.05,9.02-9.02c0-4.97-4.05-9.02-9.02-9.02
		C1126.6,359.61,1122.55,363.65,1122.55,368.63z"/>
	<path class="st0" d="M1122.55,299.97c0,4.97,4.05,9.02,9.02,9.02c4.97,0,9.02-4.05,9.02-9.02s-4.05-9.02-9.02-9.02
		C1126.6,290.95,1122.55,295,1122.55,299.97z"/>
	<path class="st0" d="M1191.21,368.63c0,4.98,4.05,9.02,9.02,9.02c4.97,0,9.02-4.05,9.02-9.02c0-4.97-4.05-9.02-9.02-9.02
		C1195.25,359.61,1191.21,363.65,1191.21,368.63z"/>
	<path class="st0" d="M1191.21,299.97c0,4.97,4.05,9.02,9.02,9.02c4.97,0,9.02-4.05,9.02-9.02s-4.05-9.02-9.02-9.02
		C1195.25,290.95,1191.21,295,1191.21,299.97z"/>
	<path class="st0" d="M1122.55,231.49c0,4.98,4.05,9.02,9.02,9.02c4.97,0,9.02-4.05,9.02-9.02c0-4.97-4.05-9.02-9.02-9.02
		C1126.6,222.47,1122.55,226.52,1122.55,231.49z"/>
	<path class="st0" d="M1122.55,162.84c0,4.97,4.05,9.02,9.02,9.02c4.97,0,9.02-4.05,9.02-9.02s-4.05-9.02-9.02-9.02
		C1126.6,153.82,1122.55,157.86,1122.55,162.84z"/>
	<path class="st0" d="M1191.21,231.49c0,4.98,4.05,9.02,9.02,9.02c4.97,0,9.02-4.05,9.02-9.02c0-4.97-4.05-9.02-9.02-9.02
		C1195.25,222.47,1191.21,226.52,1191.21,231.49z"/>
	<path class="st0" d="M1191.21,162.84c0,4.97,4.05,9.02,9.02,9.02c4.97,0,9.02-4.05,9.02-9.02s-4.05-9.02-9.02-9.02
		C1195.25,153.82,1191.21,157.86,1191.21,162.84z"/>
	<path class="st0" d="M1122.55,94.36c0,4.98,4.05,9.02,9.02,9.02c4.97,0,9.02-4.05,9.02-9.02c0-4.97-4.05-9.02-9.02-9.02
		C1126.6,85.34,1122.55,89.39,1122.55,94.36z"/>
	<path class="st0" d="M1122.55,25.71c0,4.97,4.05,9.02,9.02,9.02c4.97,0,9.02-4.05,9.02-9.02s-4.05-9.02-9.02-9.02
		C1126.6,16.68,1122.55,20.73,1122.55,25.71z"/>
	<path class="st0" d="M1191.21,94.36c0,4.98,4.05,9.02,9.02,9.02c4.97,0,9.02-4.05,9.02-9.02c0-4.97-4.05-9.02-9.02-9.02
		C1195.25,85.34,1191.21,89.39,1191.21,94.36z"/>
	<path class="st0" d="M1191.21,25.71c0,4.97,4.05,9.02,9.02,9.02c4.97,0,9.02-4.05,9.02-9.02s-4.05-9.02-9.02-9.02
		C1195.25,16.68,1191.21,20.73,1191.21,25.71z"/>
	<path class="st0" d="M1259.82,1054.29c0,4.98,4.05,9.02,9.02,9.02s9.02-4.05,9.02-9.02c0-4.97-4.05-9.02-9.02-9.02
		S1259.82,1049.32,1259.82,1054.29z"/>
	<path class="st0" d="M1259.82,985.64c0,4.97,4.05,9.02,9.02,9.02s9.02-4.05,9.02-9.02s-4.05-9.02-9.02-9.02
		S1259.82,980.66,1259.82,985.64z"/>
	<path class="st0" d="M1328.47,1054.29c0,4.98,4.05,9.02,9.02,9.02c4.97,0,9.02-4.05,9.02-9.02c0-4.97-4.05-9.02-9.02-9.02
		C1332.52,1045.27,1328.47,1049.32,1328.47,1054.29z"/>
	<path class="st0" d="M1328.47,985.64c0,4.97,4.05,9.02,9.02,9.02c4.97,0,9.02-4.05,9.02-9.02s-4.05-9.02-9.02-9.02
		C1332.52,976.62,1328.47,980.66,1328.47,985.64z"/>
	<path class="st0" d="M1259.82,917.16c0,4.98,4.05,9.02,9.02,9.02s9.02-4.05,9.02-9.02c0-4.97-4.05-9.02-9.02-9.02
		S1259.82,912.19,1259.82,917.16z"/>
	<path class="st0" d="M1259.82,848.5c0,4.97,4.05,9.02,9.02,9.02s9.02-4.05,9.02-9.02c0-4.97-4.05-9.02-9.02-9.02
		S1259.82,843.53,1259.82,848.5z"/>
	<path class="st0" d="M1328.47,917.16c0,4.98,4.05,9.02,9.02,9.02c4.97,0,9.02-4.05,9.02-9.02c0-4.97-4.05-9.02-9.02-9.02
		C1332.52,908.14,1328.47,912.19,1328.47,917.16z"/>
	<path class="st0" d="M1328.47,848.5c0,4.97,4.05,9.02,9.02,9.02c4.97,0,9.02-4.05,9.02-9.02c0-4.97-4.05-9.02-9.02-9.02
		C1332.52,839.48,1328.47,843.53,1328.47,848.5z"/>
	<path class="st0" d="M1259.82,780.03c0,4.98,4.05,9.02,9.02,9.02s9.02-4.05,9.02-9.02c0-4.97-4.05-9.02-9.02-9.02
		S1259.82,775.05,1259.82,780.03z"/>
	<path class="st0" d="M1259.82,711.37c0,4.97,4.05,9.02,9.02,9.02s9.02-4.05,9.02-9.02c0-4.97-4.05-9.02-9.02-9.02
		S1259.82,706.4,1259.82,711.37z"/>
	<path class="st0" d="M1328.47,780.03c0,4.98,4.05,9.02,9.02,9.02c4.97,0,9.02-4.05,9.02-9.02c0-4.97-4.05-9.02-9.02-9.02
		C1332.52,771.01,1328.47,775.05,1328.47,780.03z"/>
	<path class="st0" d="M1328.47,711.37c0,4.97,4.05,9.02,9.02,9.02c4.97,0,9.02-4.05,9.02-9.02c0-4.97-4.05-9.02-9.02-9.02
		C1332.52,702.35,1328.47,706.4,1328.47,711.37z"/>
	<path class="st0" d="M1259.82,642.89c0,4.98,4.05,9.02,9.02,9.02s9.02-4.05,9.02-9.02c0-4.97-4.05-9.02-9.02-9.02
		S1259.82,637.92,1259.82,642.89z"/>
	<path class="st0" d="M1259.82,574.24c0,4.97,4.05,9.02,9.02,9.02s9.02-4.05,9.02-9.02c0-4.97-4.05-9.02-9.02-9.02
		S1259.82,569.26,1259.82,574.24z"/>
	<path class="st0" d="M1328.47,642.89c0,4.98,4.05,9.02,9.02,9.02c4.97,0,9.02-4.05,9.02-9.02c0-4.97-4.05-9.02-9.02-9.02
		C1332.52,633.87,1328.47,637.92,1328.47,642.89z"/>
	<path class="st0" d="M1328.47,574.24c0,4.97,4.05,9.02,9.02,9.02c4.97,0,9.02-4.05,9.02-9.02c0-4.97-4.05-9.02-9.02-9.02
		C1332.52,565.22,1328.47,569.26,1328.47,574.24z"/>
	<path class="st0" d="M1259.82,505.76c0,4.98,4.05,9.02,9.02,9.02s9.02-4.05,9.02-9.02c0-4.97-4.05-9.02-9.02-9.02
		S1259.82,500.79,1259.82,505.76z"/>
	<path class="st0" d="M1259.82,437.11c0,4.97,4.05,9.02,9.02,9.02s9.02-4.05,9.02-9.02c0-4.97-4.05-9.02-9.02-9.02
		S1259.82,432.13,1259.82,437.11z"/>
	<path class="st0" d="M1328.47,505.76c0,4.98,4.05,9.02,9.02,9.02c4.97,0,9.02-4.05,9.02-9.02c0-4.97-4.05-9.02-9.02-9.02
		C1332.52,496.74,1328.47,500.79,1328.47,505.76z"/>
	<path class="st0" d="M1328.47,437.11c0,4.97,4.05,9.02,9.02,9.02c4.97,0,9.02-4.05,9.02-9.02c0-4.97-4.05-9.02-9.02-9.02
		C1332.52,428.08,1328.47,432.13,1328.47,437.11z"/>
	<path class="st0" d="M1259.82,368.63c0,4.98,4.05,9.02,9.02,9.02s9.02-4.05,9.02-9.02c0-4.97-4.05-9.02-9.02-9.02
		S1259.82,363.65,1259.82,368.63z"/>
	<path class="st0" d="M1259.82,299.97c0,4.97,4.05,9.02,9.02,9.02s9.02-4.05,9.02-9.02s-4.05-9.02-9.02-9.02
		S1259.82,295,1259.82,299.97z"/>
	<path class="st0" d="M1328.47,368.63c0,4.98,4.05,9.02,9.02,9.02c4.97,0,9.02-4.05,9.02-9.02c0-4.97-4.05-9.02-9.02-9.02
		C1332.52,359.61,1328.47,363.65,1328.47,368.63z"/>
	<path class="st0" d="M1328.47,299.97c0,4.97,4.05,9.02,9.02,9.02c4.97,0,9.02-4.05,9.02-9.02s-4.05-9.02-9.02-9.02
		C1332.52,290.95,1328.47,295,1328.47,299.97z"/>
	<path class="st0" d="M1259.82,231.49c0,4.98,4.05,9.02,9.02,9.02s9.02-4.05,9.02-9.02c0-4.97-4.05-9.02-9.02-9.02
		S1259.82,226.52,1259.82,231.49z"/>
	<path class="st0" d="M1259.82,162.84c0,4.97,4.05,9.02,9.02,9.02s9.02-4.05,9.02-9.02s-4.05-9.02-9.02-9.02
		S1259.82,157.86,1259.82,162.84z"/>
	<path class="st0" d="M1328.47,231.49c0,4.98,4.05,9.02,9.02,9.02c4.97,0,9.02-4.05,9.02-9.02c0-4.97-4.05-9.02-9.02-9.02
		C1332.52,222.47,1328.47,226.52,1328.47,231.49z"/>
	<path class="st0" d="M1328.47,162.84c0,4.97,4.05,9.02,9.02,9.02c4.97,0,9.02-4.05,9.02-9.02s-4.05-9.02-9.02-9.02
		C1332.52,153.82,1328.47,157.86,1328.47,162.84z"/>
	<path class="st0" d="M1259.82,94.36c0,4.98,4.05,9.02,9.02,9.02s9.02-4.05,9.02-9.02c0-4.97-4.05-9.02-9.02-9.02
		S1259.82,89.39,1259.82,94.36z"/>
	<path class="st0" d="M1259.82,25.71c0,4.97,4.05,9.02,9.02,9.02s9.02-4.05,9.02-9.02s-4.05-9.02-9.02-9.02
		S1259.82,20.73,1259.82,25.71z"/>
	<path class="st0" d="M1328.47,94.36c0,4.98,4.05,9.02,9.02,9.02c4.97,0,9.02-4.05,9.02-9.02c0-4.97-4.05-9.02-9.02-9.02
		C1332.52,85.34,1328.47,89.39,1328.47,94.36z"/>
	<path class="st0" d="M1328.47,25.71c0,4.97,4.05,9.02,9.02,9.02c4.97,0,9.02-4.05,9.02-9.02s-4.05-9.02-9.02-9.02
		C1332.52,16.68,1328.47,20.73,1328.47,25.71z"/>
	<path class="st0" d="M1397.08,1054.29c0,4.98,4.05,9.02,9.02,9.02c4.97,0,9.02-4.05,9.02-9.02c0-4.97-4.05-9.02-9.02-9.02
		C1401.13,1045.27,1397.08,1049.32,1397.08,1054.29z"/>
	<path class="st0" d="M1397.08,985.64c0,4.97,4.05,9.02,9.02,9.02c4.97,0,9.02-4.05,9.02-9.02s-4.05-9.02-9.02-9.02
		C1401.13,976.62,1397.08,980.66,1397.08,985.64z"/>
	<path class="st0" d="M1465.74,1054.29c0,4.98,4.05,9.02,9.02,9.02s9.02-4.05,9.02-9.02c0-4.97-4.05-9.02-9.02-9.02
		S1465.74,1049.32,1465.74,1054.29z"/>
	<path class="st0" d="M1465.74,985.64c0,4.97,4.05,9.02,9.02,9.02s9.02-4.05,9.02-9.02s-4.05-9.02-9.02-9.02
		S1465.74,980.66,1465.74,985.64z"/>
	<path class="st0" d="M1397.08,917.16c0,4.98,4.05,9.02,9.02,9.02c4.97,0,9.02-4.05,9.02-9.02c0-4.97-4.05-9.02-9.02-9.02
		C1401.13,908.14,1397.08,912.19,1397.08,917.16z"/>
	<path class="st0" d="M1397.08,848.5c0,4.97,4.05,9.02,9.02,9.02c4.97,0,9.02-4.05,9.02-9.02c0-4.97-4.05-9.02-9.02-9.02
		C1401.13,839.48,1397.08,843.53,1397.08,848.5z"/>
	<path class="st0" d="M1465.74,917.16c0,4.98,4.05,9.02,9.02,9.02s9.02-4.05,9.02-9.02c0-4.97-4.05-9.02-9.02-9.02
		S1465.74,912.19,1465.74,917.16z"/>
	<path class="st0" d="M1465.74,848.5c0,4.97,4.05,9.02,9.02,9.02s9.02-4.05,9.02-9.02c0-4.97-4.05-9.02-9.02-9.02
		S1465.74,843.53,1465.74,848.5z"/>
	<path class="st0" d="M1397.08,780.03c0,4.98,4.05,9.02,9.02,9.02c4.97,0,9.02-4.05,9.02-9.02c0-4.97-4.05-9.02-9.02-9.02
		C1401.13,771.01,1397.08,775.05,1397.08,780.03z"/>
	<path class="st0" d="M1397.08,711.37c0,4.97,4.05,9.02,9.02,9.02c4.97,0,9.02-4.05,9.02-9.02c0-4.97-4.05-9.02-9.02-9.02
		C1401.13,702.35,1397.08,706.4,1397.08,711.37z"/>
	<path class="st0" d="M1465.74,780.03c0,4.98,4.05,9.02,9.02,9.02s9.02-4.05,9.02-9.02c0-4.97-4.05-9.02-9.02-9.02
		S1465.74,775.05,1465.74,780.03z"/>
	<path class="st0" d="M1465.74,711.37c0,4.97,4.05,9.02,9.02,9.02s9.02-4.05,9.02-9.02c0-4.97-4.05-9.02-9.02-9.02
		S1465.74,706.4,1465.74,711.37z"/>
	<path class="st0" d="M1397.08,642.89c0,4.98,4.05,9.02,9.02,9.02c4.97,0,9.02-4.05,9.02-9.02c0-4.97-4.05-9.02-9.02-9.02
		C1401.13,633.87,1397.08,637.92,1397.08,642.89z"/>
	<path class="st0" d="M1397.08,574.24c0,4.97,4.05,9.02,9.02,9.02c4.97,0,9.02-4.05,9.02-9.02c0-4.97-4.05-9.02-9.02-9.02
		C1401.13,565.22,1397.08,569.26,1397.08,574.24z"/>
	<path class="st0" d="M1465.74,642.89c0,4.98,4.05,9.02,9.02,9.02s9.02-4.05,9.02-9.02c0-4.97-4.05-9.02-9.02-9.02
		S1465.74,637.92,1465.74,642.89z"/>
	<path class="st0" d="M1465.74,574.24c0,4.97,4.05,9.02,9.02,9.02s9.02-4.05,9.02-9.02c0-4.97-4.05-9.02-9.02-9.02
		S1465.74,569.26,1465.74,574.24z"/>
	<path class="st0" d="M1397.08,505.76c0,4.98,4.05,9.02,9.02,9.02c4.97,0,9.02-4.05,9.02-9.02c0-4.97-4.05-9.02-9.02-9.02
		C1401.13,496.74,1397.08,500.79,1397.08,505.76z"/>
	<path class="st0" d="M1397.08,437.11c0,4.97,4.05,9.02,9.02,9.02c4.97,0,9.02-4.05,9.02-9.02c0-4.97-4.05-9.02-9.02-9.02
		C1401.13,428.08,1397.08,432.13,1397.08,437.11z"/>
	<path class="st0" d="M1465.74,505.76c0,4.98,4.05,9.02,9.02,9.02s9.02-4.05,9.02-9.02c0-4.97-4.05-9.02-9.02-9.02
		S1465.74,500.79,1465.74,505.76z"/>
	<path class="st0" d="M1465.74,437.11c0,4.97,4.05,9.02,9.02,9.02s9.02-4.05,9.02-9.02c0-4.97-4.05-9.02-9.02-9.02
		S1465.74,432.13,1465.74,437.11z"/>
	<path class="st0" d="M1397.08,368.63c0,4.98,4.05,9.02,9.02,9.02c4.97,0,9.02-4.05,9.02-9.02c0-4.97-4.05-9.02-9.02-9.02
		C1401.13,359.61,1397.08,363.65,1397.08,368.63z"/>
	<path class="st0" d="M1397.08,299.97c0,4.97,4.05,9.02,9.02,9.02c4.97,0,9.02-4.05,9.02-9.02s-4.05-9.02-9.02-9.02
		C1401.13,290.95,1397.08,295,1397.08,299.97z"/>
	<path class="st0" d="M1465.74,368.63c0,4.98,4.05,9.02,9.02,9.02s9.02-4.05,9.02-9.02c0-4.97-4.05-9.02-9.02-9.02
		S1465.74,363.65,1465.74,368.63z"/>
	<path class="st0" d="M1465.74,299.97c0,4.97,4.05,9.02,9.02,9.02s9.02-4.05,9.02-9.02s-4.05-9.02-9.02-9.02
		S1465.74,295,1465.74,299.97z"/>
	<path class="st0" d="M1397.08,231.49c0,4.98,4.05,9.02,9.02,9.02c4.97,0,9.02-4.05,9.02-9.02c0-4.97-4.05-9.02-9.02-9.02
		C1401.13,222.47,1397.08,226.52,1397.08,231.49z"/>
	<path class="st0" d="M1397.08,162.84c0,4.97,4.05,9.02,9.02,9.02c4.97,0,9.02-4.05,9.02-9.02s-4.05-9.02-9.02-9.02
		C1401.13,153.82,1397.08,157.86,1397.08,162.84z"/>
	<path class="st0" d="M1465.74,231.49c0,4.98,4.05,9.02,9.02,9.02s9.02-4.05,9.02-9.02c0-4.97-4.05-9.02-9.02-9.02
		S1465.74,226.52,1465.74,231.49z"/>
	<path class="st0" d="M1465.74,162.84c0,4.97,4.05,9.02,9.02,9.02s9.02-4.05,9.02-9.02s-4.05-9.02-9.02-9.02
		S1465.74,157.86,1465.74,162.84z"/>
	<path class="st0" d="M1397.08,94.36c0,4.98,4.05,9.02,9.02,9.02c4.97,0,9.02-4.05,9.02-9.02c0-4.97-4.05-9.02-9.02-9.02
		C1401.13,85.34,1397.08,89.39,1397.08,94.36z"/>
	<path class="st0" d="M1397.08,25.71c0,4.97,4.05,9.02,9.02,9.02c4.97,0,9.02-4.05,9.02-9.02s-4.05-9.02-9.02-9.02
		C1401.13,16.68,1397.08,20.73,1397.08,25.71z"/>
	<path class="st0" d="M1465.74,94.36c0,4.98,4.05,9.02,9.02,9.02s9.02-4.05,9.02-9.02c0-4.97-4.05-9.02-9.02-9.02
		S1465.74,89.39,1465.74,94.36z"/>
	<path class="st0" d="M1465.74,25.71c0,4.97,4.05,9.02,9.02,9.02s9.02-4.05,9.02-9.02s-4.05-9.02-9.02-9.02
		S1465.74,20.73,1465.74,25.71z"/>
	<path class="st0" d="M1534.35,1054.29c0,4.98,4.05,9.02,9.02,9.02c4.97,0,9.02-4.05,9.02-9.02c0-4.97-4.05-9.02-9.02-9.02
		C1538.4,1045.27,1534.35,1049.32,1534.35,1054.29z"/>
	<path class="st0" d="M1534.35,985.64c0,4.97,4.05,9.02,9.02,9.02c4.97,0,9.02-4.05,9.02-9.02s-4.05-9.02-9.02-9.02
		C1538.4,976.62,1534.35,980.66,1534.35,985.64z"/>
	<path class="st0" d="M1603.01,1054.29c0,4.98,4.05,9.02,9.02,9.02c4.97,0,9.02-4.05,9.02-9.02c0-4.97-4.05-9.02-9.02-9.02
		C1607.05,1045.27,1603.01,1049.32,1603.01,1054.29z"/>
	<path class="st0" d="M1603.01,985.64c0,4.97,4.05,9.02,9.02,9.02c4.97,0,9.02-4.05,9.02-9.02s-4.05-9.02-9.02-9.02
		C1607.05,976.62,1603.01,980.66,1603.01,985.64z"/>
	<path class="st0" d="M1534.35,917.16c0,4.98,4.05,9.02,9.02,9.02c4.97,0,9.02-4.05,9.02-9.02c0-4.97-4.05-9.02-9.02-9.02
		C1538.4,908.14,1534.35,912.19,1534.35,917.16z"/>
	<path class="st0" d="M1534.35,848.5c0,4.97,4.05,9.02,9.02,9.02c4.97,0,9.02-4.05,9.02-9.02c0-4.97-4.05-9.02-9.02-9.02
		C1538.4,839.48,1534.35,843.53,1534.35,848.5z"/>
	<path class="st0" d="M1603.01,917.16c0,4.98,4.05,9.02,9.02,9.02c4.97,0,9.02-4.05,9.02-9.02c0-4.97-4.05-9.02-9.02-9.02
		C1607.05,908.14,1603.01,912.19,1603.01,917.16z"/>
	<path class="st0" d="M1603.01,848.5c0,4.97,4.05,9.02,9.02,9.02c4.97,0,9.02-4.05,9.02-9.02c0-4.97-4.05-9.02-9.02-9.02
		C1607.05,839.48,1603.01,843.53,1603.01,848.5z"/>
	<path class="st0" d="M1534.35,780.03c0,4.98,4.05,9.02,9.02,9.02c4.97,0,9.02-4.05,9.02-9.02c0-4.97-4.05-9.02-9.02-9.02
		C1538.4,771.01,1534.35,775.05,1534.35,780.03z"/>
	<path class="st0" d="M1534.35,711.37c0,4.97,4.05,9.02,9.02,9.02c4.97,0,9.02-4.05,9.02-9.02c0-4.97-4.05-9.02-9.02-9.02
		C1538.4,702.35,1534.35,706.4,1534.35,711.37z"/>
	<path class="st0" d="M1603.01,780.03c0,4.98,4.05,9.02,9.02,9.02c4.97,0,9.02-4.05,9.02-9.02c0-4.97-4.05-9.02-9.02-9.02
		C1607.05,771.01,1603.01,775.05,1603.01,780.03z"/>
	<path class="st0" d="M1603.01,711.37c0,4.97,4.05,9.02,9.02,9.02c4.97,0,9.02-4.05,9.02-9.02c0-4.97-4.05-9.02-9.02-9.02
		C1607.05,702.35,1603.01,706.4,1603.01,711.37z"/>
	<path class="st0" d="M1534.35,642.89c0,4.98,4.05,9.02,9.02,9.02c4.97,0,9.02-4.05,9.02-9.02c0-4.97-4.05-9.02-9.02-9.02
		C1538.4,633.87,1534.35,637.92,1534.35,642.89z"/>
	<path class="st0" d="M1534.35,574.24c0,4.97,4.05,9.02,9.02,9.02c4.97,0,9.02-4.05,9.02-9.02c0-4.97-4.05-9.02-9.02-9.02
		C1538.4,565.22,1534.35,569.26,1534.35,574.24z"/>
	<path class="st0" d="M1603.01,642.89c0,4.98,4.05,9.02,9.02,9.02c4.97,0,9.02-4.05,9.02-9.02c0-4.97-4.05-9.02-9.02-9.02
		C1607.05,633.87,1603.01,637.92,1603.01,642.89z"/>
	<path class="st0" d="M1603.01,574.24c0,4.97,4.05,9.02,9.02,9.02c4.97,0,9.02-4.05,9.02-9.02c0-4.97-4.05-9.02-9.02-9.02
		C1607.05,565.22,1603.01,569.26,1603.01,574.24z"/>
	<path class="st0" d="M1534.35,505.76c0,4.98,4.05,9.02,9.02,9.02c4.97,0,9.02-4.05,9.02-9.02c0-4.97-4.05-9.02-9.02-9.02
		C1538.4,496.74,1534.35,500.79,1534.35,505.76z"/>
	<path class="st0" d="M1534.35,437.11c0,4.97,4.05,9.02,9.02,9.02c4.97,0,9.02-4.05,9.02-9.02c0-4.97-4.05-9.02-9.02-9.02
		C1538.4,428.08,1534.35,432.13,1534.35,437.11z"/>
	<path class="st0" d="M1603.01,505.76c0,4.98,4.05,9.02,9.02,9.02c4.97,0,9.02-4.05,9.02-9.02c0-4.97-4.05-9.02-9.02-9.02
		C1607.05,496.74,1603.01,500.79,1603.01,505.76z"/>
	<path class="st0" d="M1603.01,437.11c0,4.97,4.05,9.02,9.02,9.02c4.97,0,9.02-4.05,9.02-9.02c0-4.97-4.05-9.02-9.02-9.02
		C1607.05,428.08,1603.01,432.13,1603.01,437.11z"/>
	<path class="st0" d="M1534.35,368.63c0,4.98,4.05,9.02,9.02,9.02c4.97,0,9.02-4.05,9.02-9.02c0-4.97-4.05-9.02-9.02-9.02
		C1538.4,359.61,1534.35,363.65,1534.35,368.63z"/>
	<path class="st0" d="M1534.35,299.97c0,4.97,4.05,9.02,9.02,9.02c4.97,0,9.02-4.05,9.02-9.02s-4.05-9.02-9.02-9.02
		C1538.4,290.95,1534.35,295,1534.35,299.97z"/>
	<path class="st0" d="M1603.01,368.63c0,4.98,4.05,9.02,9.02,9.02c4.97,0,9.02-4.05,9.02-9.02c0-4.97-4.05-9.02-9.02-9.02
		C1607.05,359.61,1603.01,363.65,1603.01,368.63z"/>
	<path class="st0" d="M1603.01,299.97c0,4.97,4.05,9.02,9.02,9.02c4.97,0,9.02-4.05,9.02-9.02s-4.05-9.02-9.02-9.02
		C1607.05,290.95,1603.01,295,1603.01,299.97z"/>
	<path class="st0" d="M1534.35,231.49c0,4.98,4.05,9.02,9.02,9.02c4.97,0,9.02-4.05,9.02-9.02c0-4.97-4.05-9.02-9.02-9.02
		C1538.4,222.47,1534.35,226.52,1534.35,231.49z"/>
	<path class="st0" d="M1534.35,162.84c0,4.97,4.05,9.02,9.02,9.02c4.97,0,9.02-4.05,9.02-9.02s-4.05-9.02-9.02-9.02
		C1538.4,153.82,1534.35,157.86,1534.35,162.84z"/>
	<path class="st0" d="M1603.01,231.49c0,4.98,4.05,9.02,9.02,9.02c4.97,0,9.02-4.05,9.02-9.02c0-4.97-4.05-9.02-9.02-9.02
		C1607.05,222.47,1603.01,226.52,1603.01,231.49z"/>
	<path class="st0" d="M1603.01,162.84c0,4.97,4.05,9.02,9.02,9.02c4.97,0,9.02-4.05,9.02-9.02s-4.05-9.02-9.02-9.02
		C1607.05,153.82,1603.01,157.86,1603.01,162.84z"/>
	<path class="st0" d="M1534.35,94.36c0,4.98,4.05,9.02,9.02,9.02c4.97,0,9.02-4.05,9.02-9.02c0-4.97-4.05-9.02-9.02-9.02
		C1538.4,85.34,1534.35,89.39,1534.35,94.36z"/>
	<path class="st0" d="M1534.35,25.71c0,4.97,4.05,9.02,9.02,9.02c4.97,0,9.02-4.05,9.02-9.02s-4.05-9.02-9.02-9.02
		C1538.4,16.68,1534.35,20.73,1534.35,25.71z"/>
	<path class="st0" d="M1603.01,94.36c0,4.98,4.05,9.02,9.02,9.02c4.97,0,9.02-4.05,9.02-9.02c0-4.97-4.05-9.02-9.02-9.02
		C1607.05,85.34,1603.01,89.39,1603.01,94.36z"/>
	<path class="st0" d="M1603.01,25.71c0,4.97,4.05,9.02,9.02,9.02c4.97,0,9.02-4.05,9.02-9.02s-4.05-9.02-9.02-9.02
		C1607.05,16.68,1603.01,20.73,1603.01,25.71z"/>
	<path class="st0" d="M1671.62,1054.29c0,4.98,4.05,9.02,9.02,9.02c4.97,0,9.02-4.05,9.02-9.02c0-4.97-4.05-9.02-9.02-9.02
		C1675.66,1045.27,1671.62,1049.32,1671.62,1054.29z"/>
	<path class="st0" d="M1671.62,985.64c0,4.97,4.05,9.02,9.02,9.02c4.97,0,9.02-4.05,9.02-9.02s-4.05-9.02-9.02-9.02
		C1675.66,976.62,1671.62,980.66,1671.62,985.64z"/>
	<path class="st0" d="M1740.27,1054.29c0,4.98,4.05,9.02,9.02,9.02c4.97,0,9.02-4.05,9.02-9.02c0-4.97-4.05-9.02-9.02-9.02
		C1744.32,1045.27,1740.27,1049.32,1740.27,1054.29z"/>
	<path class="st0" d="M1740.27,985.64c0,4.97,4.05,9.02,9.02,9.02c4.97,0,9.02-4.05,9.02-9.02s-4.05-9.02-9.02-9.02
		C1744.32,976.62,1740.27,980.66,1740.27,985.64z"/>
	<path class="st0" d="M1671.62,917.16c0,4.98,4.05,9.02,9.02,9.02c4.97,0,9.02-4.05,9.02-9.02c0-4.97-4.05-9.02-9.02-9.02
		C1675.66,908.14,1671.62,912.19,1671.62,917.16z"/>
	<path class="st0" d="M1671.62,848.5c0,4.97,4.05,9.02,9.02,9.02c4.97,0,9.02-4.05,9.02-9.02c0-4.97-4.05-9.02-9.02-9.02
		C1675.66,839.48,1671.62,843.53,1671.62,848.5z"/>
	<path class="st0" d="M1740.27,917.16c0,4.98,4.05,9.02,9.02,9.02c4.97,0,9.02-4.05,9.02-9.02c0-4.97-4.05-9.02-9.02-9.02
		C1744.32,908.14,1740.27,912.19,1740.27,917.16z"/>
	<path class="st0" d="M1740.27,848.5c0,4.97,4.05,9.02,9.02,9.02c4.97,0,9.02-4.05,9.02-9.02c0-4.97-4.05-9.02-9.02-9.02
		C1744.32,839.48,1740.27,843.53,1740.27,848.5z"/>
	<path class="st0" d="M1671.62,780.03c0,4.98,4.05,9.02,9.02,9.02c4.97,0,9.02-4.05,9.02-9.02c0-4.97-4.05-9.02-9.02-9.02
		C1675.66,771.01,1671.62,775.05,1671.62,780.03z"/>
	<path class="st0" d="M1671.62,711.37c0,4.97,4.05,9.02,9.02,9.02c4.97,0,9.02-4.05,9.02-9.02c0-4.97-4.05-9.02-9.02-9.02
		C1675.66,702.35,1671.62,706.4,1671.62,711.37z"/>
	<path class="st0" d="M1740.27,780.03c0,4.98,4.05,9.02,9.02,9.02c4.97,0,9.02-4.05,9.02-9.02c0-4.97-4.05-9.02-9.02-9.02
		C1744.32,771.01,1740.27,775.05,1740.27,780.03z"/>
	<path class="st0" d="M1740.27,711.37c0,4.97,4.05,9.02,9.02,9.02c4.97,0,9.02-4.05,9.02-9.02c0-4.97-4.05-9.02-9.02-9.02
		C1744.32,702.35,1740.27,706.4,1740.27,711.37z"/>
	<path class="st0" d="M1671.62,642.89c0,4.98,4.05,9.02,9.02,9.02c4.97,0,9.02-4.05,9.02-9.02c0-4.97-4.05-9.02-9.02-9.02
		C1675.66,633.87,1671.62,637.92,1671.62,642.89z"/>
	<path class="st0" d="M1671.62,574.24c0,4.97,4.05,9.02,9.02,9.02c4.97,0,9.02-4.05,9.02-9.02c0-4.97-4.05-9.02-9.02-9.02
		C1675.66,565.22,1671.62,569.26,1671.62,574.24z"/>
	<path class="st0" d="M1740.27,642.89c0,4.98,4.05,9.02,9.02,9.02c4.97,0,9.02-4.05,9.02-9.02c0-4.97-4.05-9.02-9.02-9.02
		C1744.32,633.87,1740.27,637.92,1740.27,642.89z"/>
	<path class="st0" d="M1740.27,574.24c0,4.97,4.05,9.02,9.02,9.02c4.97,0,9.02-4.05,9.02-9.02c0-4.97-4.05-9.02-9.02-9.02
		C1744.32,565.22,1740.27,569.26,1740.27,574.24z"/>
	<path class="st0" d="M1671.62,505.76c0,4.98,4.05,9.02,9.02,9.02c4.97,0,9.02-4.05,9.02-9.02c0-4.97-4.05-9.02-9.02-9.02
		C1675.66,496.74,1671.62,500.79,1671.62,505.76z"/>
	<path class="st0" d="M1671.62,437.11c0,4.97,4.05,9.02,9.02,9.02c4.97,0,9.02-4.05,9.02-9.02c0-4.97-4.05-9.02-9.02-9.02
		C1675.66,428.08,1671.62,432.13,1671.62,437.11z"/>
	<path class="st0" d="M1740.27,505.76c0,4.98,4.05,9.02,9.02,9.02c4.97,0,9.02-4.05,9.02-9.02c0-4.97-4.05-9.02-9.02-9.02
		C1744.32,496.74,1740.27,500.79,1740.27,505.76z"/>
	<path class="st0" d="M1740.27,437.11c0,4.97,4.05,9.02,9.02,9.02c4.97,0,9.02-4.05,9.02-9.02c0-4.97-4.05-9.02-9.02-9.02
		C1744.32,428.08,1740.27,432.13,1740.27,437.11z"/>
	<path class="st0" d="M1671.62,368.63c0,4.98,4.05,9.02,9.02,9.02c4.97,0,9.02-4.05,9.02-9.02c0-4.97-4.05-9.02-9.02-9.02
		C1675.66,359.61,1671.62,363.65,1671.62,368.63z"/>
	<path class="st0" d="M1671.62,299.97c0,4.97,4.05,9.02,9.02,9.02c4.97,0,9.02-4.05,9.02-9.02s-4.05-9.02-9.02-9.02
		C1675.66,290.95,1671.62,295,1671.62,299.97z"/>
	<path class="st0" d="M1740.27,368.63c0,4.98,4.05,9.02,9.02,9.02c4.97,0,9.02-4.05,9.02-9.02c0-4.97-4.05-9.02-9.02-9.02
		C1744.32,359.61,1740.27,363.65,1740.27,368.63z"/>
	<path class="st0" d="M1740.27,299.97c0,4.97,4.05,9.02,9.02,9.02c4.97,0,9.02-4.05,9.02-9.02s-4.05-9.02-9.02-9.02
		C1744.32,290.95,1740.27,295,1740.27,299.97z"/>
	<path class="st0" d="M1671.62,231.49c0,4.98,4.05,9.02,9.02,9.02c4.97,0,9.02-4.05,9.02-9.02c0-4.97-4.05-9.02-9.02-9.02
		C1675.66,222.47,1671.62,226.52,1671.62,231.49z"/>
	<path class="st0" d="M1671.62,162.84c0,4.97,4.05,9.02,9.02,9.02c4.97,0,9.02-4.05,9.02-9.02s-4.05-9.02-9.02-9.02
		C1675.66,153.82,1671.62,157.86,1671.62,162.84z"/>
	<path class="st0" d="M1740.27,231.49c0,4.98,4.05,9.02,9.02,9.02c4.97,0,9.02-4.05,9.02-9.02c0-4.97-4.05-9.02-9.02-9.02
		C1744.32,222.47,1740.27,226.52,1740.27,231.49z"/>
	<path class="st0" d="M1740.27,162.84c0,4.97,4.05,9.02,9.02,9.02c4.97,0,9.02-4.05,9.02-9.02s-4.05-9.02-9.02-9.02
		C1744.32,153.82,1740.27,157.86,1740.27,162.84z"/>
	<path class="st0" d="M1671.62,94.36c0,4.98,4.05,9.02,9.02,9.02c4.97,0,9.02-4.05,9.02-9.02c0-4.97-4.05-9.02-9.02-9.02
		C1675.66,85.34,1671.62,89.39,1671.62,94.36z"/>
	<path class="st0" d="M1671.62,25.71c0,4.97,4.05,9.02,9.02,9.02c4.97,0,9.02-4.05,9.02-9.02s-4.05-9.02-9.02-9.02
		C1675.66,16.68,1671.62,20.73,1671.62,25.71z"/>
	<path class="st0" d="M1740.27,94.36c0,4.98,4.05,9.02,9.02,9.02c4.97,0,9.02-4.05,9.02-9.02c0-4.97-4.05-9.02-9.02-9.02
		C1744.32,85.34,1740.27,89.39,1740.27,94.36z"/>
	<path class="st0" d="M1740.27,25.71c0,4.97,4.05,9.02,9.02,9.02c4.97,0,9.02-4.05,9.02-9.02s-4.05-9.02-9.02-9.02
		C1744.32,16.68,1740.27,20.73,1740.27,25.71z"/>
	<path class="st0" d="M1808.88,1054.29c0,4.98,4.05,9.02,9.02,9.02s9.02-4.05,9.02-9.02c0-4.97-4.05-9.02-9.02-9.02
		S1808.88,1049.32,1808.88,1054.29z"/>
	<path class="st0" d="M1808.88,985.64c0,4.97,4.05,9.02,9.02,9.02s9.02-4.05,9.02-9.02s-4.05-9.02-9.02-9.02
		S1808.88,980.66,1808.88,985.64z"/>
	<path class="st0" d="M1877.54,1054.29c0,4.98,4.05,9.02,9.02,9.02s9.02-4.05,9.02-9.02c0-4.97-4.05-9.02-9.02-9.02
		S1877.54,1049.32,1877.54,1054.29z"/>
	<path class="st0" d="M1877.54,985.64c0,4.97,4.05,9.02,9.02,9.02s9.02-4.05,9.02-9.02s-4.05-9.02-9.02-9.02
		S1877.54,980.66,1877.54,985.64z"/>
	<path class="st0" d="M1808.88,917.16c0,4.98,4.05,9.02,9.02,9.02s9.02-4.05,9.02-9.02c0-4.97-4.05-9.02-9.02-9.02
		S1808.88,912.19,1808.88,917.16z"/>
	<path class="st0" d="M1808.88,848.5c0,4.97,4.05,9.02,9.02,9.02s9.02-4.05,9.02-9.02c0-4.97-4.05-9.02-9.02-9.02
		S1808.88,843.53,1808.88,848.5z"/>
	<path class="st0" d="M1877.54,917.16c0,4.98,4.05,9.02,9.02,9.02s9.02-4.05,9.02-9.02c0-4.97-4.05-9.02-9.02-9.02
		S1877.54,912.19,1877.54,917.16z"/>
	<path class="st0" d="M1877.54,848.5c0,4.97,4.05,9.02,9.02,9.02s9.02-4.05,9.02-9.02c0-4.97-4.05-9.02-9.02-9.02
		S1877.54,843.53,1877.54,848.5z"/>
	<path class="st0" d="M1808.88,780.03c0,4.98,4.05,9.02,9.02,9.02s9.02-4.05,9.02-9.02c0-4.97-4.05-9.02-9.02-9.02
		S1808.88,775.05,1808.88,780.03z"/>
	<path class="st0" d="M1808.88,711.37c0,4.97,4.05,9.02,9.02,9.02s9.02-4.05,9.02-9.02c0-4.97-4.05-9.02-9.02-9.02
		S1808.88,706.4,1808.88,711.37z"/>
	<path class="st0" d="M1877.54,780.03c0,4.98,4.05,9.02,9.02,9.02s9.02-4.05,9.02-9.02c0-4.97-4.05-9.02-9.02-9.02
		S1877.54,775.05,1877.54,780.03z"/>
	<path class="st0" d="M1877.54,711.37c0,4.97,4.05,9.02,9.02,9.02s9.02-4.05,9.02-9.02c0-4.97-4.05-9.02-9.02-9.02
		S1877.54,706.4,1877.54,711.37z"/>
	<path class="st0" d="M1808.88,642.89c0,4.98,4.05,9.02,9.02,9.02s9.02-4.05,9.02-9.02c0-4.97-4.05-9.02-9.02-9.02
		S1808.88,637.92,1808.88,642.89z"/>
	<path class="st0" d="M1808.88,574.24c0,4.97,4.05,9.02,9.02,9.02s9.02-4.05,9.02-9.02c0-4.97-4.05-9.02-9.02-9.02
		S1808.88,569.26,1808.88,574.24z"/>
	<path class="st0" d="M1877.54,642.89c0,4.98,4.05,9.02,9.02,9.02s9.02-4.05,9.02-9.02c0-4.97-4.05-9.02-9.02-9.02
		S1877.54,637.92,1877.54,642.89z"/>
	<path class="st0" d="M1877.54,574.24c0,4.97,4.05,9.02,9.02,9.02s9.02-4.05,9.02-9.02c0-4.97-4.05-9.02-9.02-9.02
		S1877.54,569.26,1877.54,574.24z"/>
	<path class="st0" d="M1808.88,505.76c0,4.98,4.05,9.02,9.02,9.02s9.02-4.05,9.02-9.02c0-4.97-4.05-9.02-9.02-9.02
		S1808.88,500.79,1808.88,505.76z"/>
	<path class="st0" d="M1808.88,437.11c0,4.97,4.05,9.02,9.02,9.02s9.02-4.05,9.02-9.02c0-4.97-4.05-9.02-9.02-9.02
		S1808.88,432.13,1808.88,437.11z"/>
	<path class="st0" d="M1877.54,505.76c0,4.98,4.05,9.02,9.02,9.02s9.02-4.05,9.02-9.02c0-4.97-4.05-9.02-9.02-9.02
		S1877.54,500.79,1877.54,505.76z"/>
	<path class="st0" d="M1877.54,437.11c0,4.97,4.05,9.02,9.02,9.02s9.02-4.05,9.02-9.02c0-4.97-4.05-9.02-9.02-9.02
		S1877.54,432.13,1877.54,437.11z"/>
	<path class="st0" d="M1808.88,368.63c0,4.98,4.05,9.02,9.02,9.02s9.02-4.05,9.02-9.02c0-4.97-4.05-9.02-9.02-9.02
		S1808.88,363.65,1808.88,368.63z"/>
	<path class="st0" d="M1808.88,299.97c0,4.97,4.05,9.02,9.02,9.02s9.02-4.05,9.02-9.02s-4.05-9.02-9.02-9.02
		S1808.88,295,1808.88,299.97z"/>
	<path class="st0" d="M1877.54,368.63c0,4.98,4.05,9.02,9.02,9.02s9.02-4.05,9.02-9.02c0-4.97-4.05-9.02-9.02-9.02
		S1877.54,363.65,1877.54,368.63z"/>
	<path class="st0" d="M1877.54,299.97c0,4.97,4.05,9.02,9.02,9.02s9.02-4.05,9.02-9.02s-4.05-9.02-9.02-9.02
		S1877.54,295,1877.54,299.97z"/>
	<path class="st0" d="M1808.88,231.49c0,4.98,4.05,9.02,9.02,9.02s9.02-4.05,9.02-9.02c0-4.97-4.05-9.02-9.02-9.02
		S1808.88,226.52,1808.88,231.49z"/>
	<path class="st0" d="M1808.88,162.84c0,4.97,4.05,9.02,9.02,9.02s9.02-4.05,9.02-9.02s-4.05-9.02-9.02-9.02
		S1808.88,157.86,1808.88,162.84z"/>
	<path class="st0" d="M1877.54,231.49c0,4.98,4.05,9.02,9.02,9.02s9.02-4.05,9.02-9.02c0-4.97-4.05-9.02-9.02-9.02
		S1877.54,226.52,1877.54,231.49z"/>
	<path class="st0" d="M1877.54,162.84c0,4.97,4.05,9.02,9.02,9.02s9.02-4.05,9.02-9.02s-4.05-9.02-9.02-9.02
		S1877.54,157.86,1877.54,162.84z"/>
	<path class="st0" d="M1808.88,94.36c0,4.98,4.05,9.02,9.02,9.02s9.02-4.05,9.02-9.02c0-4.97-4.05-9.02-9.02-9.02
		S1808.88,89.39,1808.88,94.36z"/>
	<path class="st0" d="M1808.88,25.71c0,4.97,4.05,9.02,9.02,9.02s9.02-4.05,9.02-9.02s-4.05-9.02-9.02-9.02
		S1808.88,20.73,1808.88,25.71z"/>
	<path class="st0" d="M1877.54,94.36c0,4.98,4.05,9.02,9.02,9.02s9.02-4.05,9.02-9.02c0-4.97-4.05-9.02-9.02-9.02
		S1877.54,89.39,1877.54,94.36z"/>
	<path class="st0" d="M1877.54,25.71c0,4.97,4.05,9.02,9.02,9.02s9.02-4.05,9.02-9.02s-4.05-9.02-9.02-9.02
		S1877.54,20.73,1877.54,25.71z"/>
</g>
</svg>
