<?xml version="1.0" encoding="utf-8"?>
<!-- Generator: Adobe Illustrator 24.0.3, SVG Export Plug-In . SVG Version: 6.00 Build 0)  -->
<svg version="1.1" id="Layer_1" xmlns="http://www.w3.org/2000/svg" xmlns:xlink="http://www.w3.org/1999/xlink" x="0px" y="0px"
	 viewBox="0 0 1920 1080" style="enable-background:new 0 0 1920 1080;" xml:space="preserve">
<style type="text/css">
	.st0{clip-path:url(#SVGID_2_);}
	.st1{fill:#003E6A;}
</style>
<g>
	<defs>
		<rect id="SVGID_1_" x="0" width="1920" height="1080"/>
	</defs>
	<clipPath id="SVGID_2_">
		<use xlink:href="#SVGID_1_"  style="overflow:visible;"/>
	</clipPath>
	<g class="st0">
		<g>
			<g>
				
					<rect x="-2653.93" y="426.56" transform="matrix(0.7071 -0.7071 0.7071 0.7071 -510.0049 -312.2814)" class="st1" width="4043.95" height="65.87"/>
			</g>
			
				<rect x="-2549.97" y="427.48" transform="matrix(0.7071 -0.7071 0.7071 0.7071 -479.5531 -238.7641)" class="st1" width="4043.95" height="64.02"/>
			
				<rect x="-2446" y="428.41" transform="matrix(0.7071 -0.7071 0.7071 0.7071 -449.096 -165.2469)" class="st1" width="4043.95" height="62.16"/>
			
				<rect x="-2342.03" y="429.33" transform="matrix(0.7071 -0.7071 0.7071 0.7071 -418.6469 -91.7295)" class="st1" width="4043.95" height="60.31"/>
			
				<rect x="-2238.06" y="430.26" transform="matrix(0.7071 -0.7071 0.7071 0.7071 -388.1994 -18.2112)" class="st1" width="4043.95" height="58.46"/>
			
				<rect x="-2134.09" y="431.19" transform="matrix(0.7071 -0.7071 0.7071 0.7071 -357.7418 55.3034)" class="st1" width="4043.95" height="56.61"/>
			
				<rect x="-2030.12" y="432.11" transform="matrix(0.7071 -0.7071 0.7071 0.7071 -327.2951 128.8242)" class="st1" width="4043.95" height="54.75"/>
			
				<rect x="-1926.15" y="433.04" transform="matrix(0.7071 -0.7071 0.7071 0.7071 -296.8416 202.3404)" class="st1" width="4043.95" height="52.9"/>
			
				<rect x="-1822.18" y="433.97" transform="matrix(0.7071 -0.7071 0.7071 0.7071 -266.3898 275.8575)" class="st1" width="4043.95" height="51.05"/>
			
				<rect x="-1718.21" y="434.89" transform="matrix(0.7071 -0.7071 0.7071 0.7071 -235.939 349.3806)" class="st1" width="4043.95" height="49.2"/>
			
				<rect x="-1614.24" y="435.82" transform="matrix(0.7071 -0.7071 0.7071 0.7071 -205.4858 422.8857)" class="st1" width="4043.95" height="47.34"/>
			
				<rect x="-1510.27" y="436.74" transform="matrix(0.7071 -0.7071 0.7071 0.7071 -175.034 496.4099)" class="st1" width="4043.95" height="45.49"/>
			
				<rect x="-1406.3" y="437.67" transform="matrix(0.7071 -0.7071 0.7071 0.7071 -144.5811 569.936)" class="st1" width="4043.95" height="43.64"/>
			
				<rect x="-1302.33" y="438.6" transform="matrix(0.7071 -0.7071 0.7071 0.7071 -114.1315 643.4395)" class="st1" width="4043.95" height="41.79"/>
			
				<rect x="-1198.36" y="439.52" transform="matrix(0.7071 -0.7071 0.7071 0.7071 -83.6769 716.9675)" class="st1" width="4043.95" height="39.93"/>
			
				<rect x="-1094.39" y="440.45" transform="matrix(0.7071 -0.7071 0.7071 0.7071 -53.2288 790.4727)" class="st1" width="4043.95" height="38.08"/>
			
				<rect x="-990.43" y="441.38" transform="matrix(0.7071 -0.7071 0.7071 0.7071 -22.7746 863.9968)" class="st1" width="4043.95" height="36.23"/>
			
				<rect x="-886.46" y="442.3" transform="matrix(0.7071 -0.7071 0.7071 0.7071 7.6702 937.4974)" class="st1" width="4043.95" height="34.37"/>
			
				<rect x="-782.49" y="443.23" transform="matrix(0.7071 -0.7071 0.7071 0.7071 38.1249 1011.0222)" class="st1" width="4043.95" height="32.52"/>
			
				<rect x="-678.52" y="444.15" transform="matrix(0.7071 -0.7071 0.7071 0.7071 68.5913 1084.5697)" class="st1" width="4043.95" height="30.67"/>
			
				<rect x="-574.55" y="445.08" transform="matrix(0.7071 -0.7071 0.7071 0.7071 99.033 1158.0664)" class="st1" width="4043.95" height="28.82"/>
			
				<rect x="-470.58" y="446.01" transform="matrix(0.7071 -0.7071 0.7071 0.7071 129.4993 1231.6101)" class="st1" width="4043.95" height="26.96"/>
			
				<rect x="-366.61" y="446.93" transform="matrix(0.7071 -0.7071 0.7071 0.7071 159.9367 1305.1012)" class="st1" width="4043.95" height="25.11"/>
			
				<rect x="-262.64" y="447.86" transform="matrix(0.7071 -0.7071 0.7071 0.7071 190.3787 1378.6011)" class="st1" width="4043.95" height="23.26"/>
			
				<rect x="-158.67" y="448.79" transform="matrix(0.7071 -0.7071 0.7071 0.7071 220.8405 1452.1359)" class="st1" width="4043.95" height="21.41"/>
			
				<rect x="-54.7" y="449.71" transform="matrix(0.7071 -0.7071 0.7071 0.7071 251.2648 1525.6086)" class="st1" width="4043.95" height="19.55"/>
			
				<rect x="49.27" y="450.64" transform="matrix(0.7071 -0.7071 0.7071 0.7071 281.7606 1599.1962)" class="st1" width="4043.95" height="17.7"/>
			
				<rect x="153.24" y="451.57" transform="matrix(0.7071 -0.7071 0.7071 0.7071 312.1768 1672.6581)" class="st1" width="4043.95" height="15.85"/>
			
				<rect x="257.21" y="452.49" transform="matrix(0.7071 -0.7071 0.7071 0.7071 342.6481 1746.2052)" class="st1" width="4043.95" height="14"/>
			
				<rect x="361.18" y="453.42" transform="matrix(0.7071 -0.7071 0.7071 0.7071 373.0999 1819.7225)" class="st1" width="4043.95" height="12.14"/>
			
				<rect x="465.14" y="454.34" transform="matrix(0.7071 -0.7071 0.7071 0.7071 403.5519 1893.24)" class="st1" width="4043.95" height="10.29"/>
			
				<rect x="569.11" y="455.27" transform="matrix(0.7071 -0.7071 0.7071 0.7071 434.0489 1966.8219)" class="st1" width="4043.95" height="8.44"/>
			<g>
				
					<rect x="673.08" y="456.2" transform="matrix(0.7072 -0.7071 0.7071 0.7072 464.3344 2040.1035)" class="st1" width="4043.95" height="6.59"/>
			</g>
		</g>
	</g>
</g>
</svg>
