<?xml version="1.0" encoding="utf-8"?>
<!-- Generator: Adobe Illustrator 24.0.3, SVG Export Plug-In . SVG Version: 6.00 Build 0)  -->
<svg version="1.1" id="Layer_1" xmlns="http://www.w3.org/2000/svg" xmlns:xlink="http://www.w3.org/1999/xlink" x="0px" y="0px"
	 viewBox="0 0 1920 1080" style="enable-background:new 0 0 1920 1080;" xml:space="preserve">
<style type="text/css">
	.st0{clip-path:url(#SVGID_2_);}
	.st1{fill:#003E6A;}
</style>
<g>
	<defs>
		<rect id="SVGID_1_" x="-0.18" y="0" width="1920.18" height="1080"/>
	</defs>
	<clipPath id="SVGID_2_">
		<use xlink:href="#SVGID_1_"  style="overflow:visible;"/>
	</clipPath>
	<g class="st0">
		<g>
			<g>
				
					<rect x="2703.17" y="-1490.29" transform="matrix(0.7071 -0.7071 0.7071 0.7071 435.8133 2062.6343)" class="st1" width="9.11" height="3991.07"/>
			</g>
			<g>
				
					<rect x="2614.43" y="-1490.29" transform="matrix(0.7071 -0.7071 0.7071 0.7071 409.8224 1999.8865)" class="st1" width="9.11" height="3991.07"/>
			</g>
			<g>
				
					<rect x="2525.69" y="-1490.29" transform="matrix(0.7071 -0.7071 0.7071 0.7071 383.831 1937.1379)" class="st1" width="9.11" height="3991.07"/>
			</g>
			<g>
				
					<rect x="2436.95" y="-1490.29" transform="matrix(0.7071 -0.7071 0.7071 0.7071 357.8396 1874.3894)" class="st1" width="9.11" height="3991.07"/>
			</g>
			<g>
				
					<rect x="2348.21" y="-1490.29" transform="matrix(0.7071 -0.7071 0.7071 0.7071 331.8488 1811.6417)" class="st1" width="9.11" height="3991.07"/>
			</g>
			<g>
				
					<rect x="2259.47" y="-1490.29" transform="matrix(0.7071 -0.7071 0.7071 0.7071 305.8575 1748.8932)" class="st1" width="9.11" height="3991.07"/>
			</g>
			<g>
				
					<rect x="2170.74" y="-1490.29" transform="matrix(0.7071 -0.7071 0.7071 0.7071 279.8661 1686.1447)" class="st1" width="9.11" height="3991.07"/>
			</g>
			<g>
				
					<rect x="2082" y="-1490.29" transform="matrix(0.7071 -0.7071 0.7071 0.7071 253.8751 1623.3967)" class="st1" width="9.11" height="3991.07"/>
			</g>
			<g>
				
					<rect x="1993.26" y="-1490.29" transform="matrix(0.7071 -0.7071 0.7071 0.7071 227.8838 1560.6482)" class="st1" width="9.11" height="3991.07"/>
			</g>
			<g>
				
					<rect x="1904.52" y="-1490.29" transform="matrix(0.7071 -0.7071 0.7071 0.7071 201.8924 1497.8997)" class="st1" width="9.11" height="3991.07"/>
			</g>
			<g>
				
					<rect x="1815.78" y="-1490.29" transform="matrix(0.7071 -0.7071 0.7071 0.7071 175.9014 1435.1517)" class="st1" width="9.11" height="3991.07"/>
			</g>
			<g>
				
					<rect x="1727.04" y="-1490.29" transform="matrix(0.7071 -0.7071 0.7071 0.7071 149.9101 1372.4032)" class="st1" width="9.11" height="3991.07"/>
			</g>
			<g>
				
					<rect x="1638.3" y="-1490.29" transform="matrix(0.7071 -0.7071 0.7071 0.7071 123.9187 1309.6547)" class="st1" width="9.11" height="3991.07"/>
			</g>
			<g>
				
					<rect x="1549.56" y="-1490.29" transform="matrix(0.7071 -0.7071 0.7071 0.7071 97.9277 1246.9067)" class="st1" width="9.11" height="3991.07"/>
			</g>
			<g>
				
					<rect x="1460.82" y="-1490.29" transform="matrix(0.7071 -0.7071 0.7071 0.7071 71.9364 1184.1582)" class="st1" width="9.11" height="3991.07"/>
			</g>
			<g>
				
					<rect x="1372.08" y="-1490.29" transform="matrix(0.7071 -0.7071 0.7071 0.7071 45.9451 1121.4097)" class="st1" width="9.11" height="3991.07"/>
			</g>
			<g>
				
					<rect x="1283.34" y="-1490.29" transform="matrix(0.7071 -0.7071 0.7071 0.7071 19.954 1058.6617)" class="st1" width="9.11" height="3991.07"/>
			</g>
			<g>
				
					<rect x="1194.6" y="-1490.29" transform="matrix(0.7071 -0.7071 0.7071 0.7071 -6.0373 995.9133)" class="st1" width="9.11" height="3991.07"/>
			</g>
			<g>
				
					<rect x="1105.86" y="-1490.29" transform="matrix(0.7071 -0.7071 0.7071 0.7071 -32.0286 933.1648)" class="st1" width="9.11" height="3991.07"/>
			</g>
			<g>
				
					<rect x="1017.12" y="-1490.29" transform="matrix(0.7071 -0.7071 0.7071 0.7071 -58.0199 870.4163)" class="st1" width="9.11" height="3991.07"/>
			</g>
			<g>
				
					<rect x="928.38" y="-1490.29" transform="matrix(0.7071 -0.7071 0.7071 0.7071 -84.0109 807.6685)" class="st1" width="9.11" height="3991.07"/>
			</g>
		</g>
		<g>
			<g>
				
					<rect x="839.49" y="-1490.29" transform="matrix(0.7071 -0.7071 0.7071 0.7071 -110.0469 744.8121)" class="st1" width="9.11" height="3991.07"/>
			</g>
			<g>
				
					<rect x="750.75" y="-1490.29" transform="matrix(0.7071 -0.7071 0.7071 0.7071 -136.0382 682.0637)" class="st1" width="9.11" height="3991.07"/>
			</g>
			<g>
				
					<rect x="662.01" y="-1490.29" transform="matrix(0.7071 -0.7071 0.7071 0.7071 -162.0292 619.3159)" class="st1" width="9.11" height="3991.07"/>
			</g>
			<g>
				
					<rect x="573.27" y="-1490.29" transform="matrix(0.7071 -0.7071 0.7071 0.7071 -188.0206 556.5672)" class="st1" width="9.11" height="3991.07"/>
			</g>
			<g>
				
					<rect x="484.53" y="-1490.29" transform="matrix(0.7071 -0.7071 0.7071 0.7071 -214.0118 493.8188)" class="st1" width="9.11" height="3991.07"/>
			</g>
			<g>
				
					<rect x="395.79" y="-1490.29" transform="matrix(0.7071 -0.7071 0.7071 0.7071 -240.0031 431.0702)" class="st1" width="9.11" height="3991.07"/>
			</g>
			<g>
				
					<rect x="307.06" y="-1490.29" transform="matrix(0.7071 -0.7071 0.7071 0.7071 -265.9937 368.323)" class="st1" width="9.11" height="3991.07"/>
			</g>
			<g>
				
					<rect x="218.32" y="-1490.29" transform="matrix(0.7071 -0.7071 0.7071 0.7071 -291.9851 305.5746)" class="st1" width="9.11" height="3991.07"/>
			</g>
			<g>
				
					<rect x="129.58" y="-1490.29" transform="matrix(0.7071 -0.7071 0.7071 0.7071 -317.9764 242.8261)" class="st1" width="9.11" height="3991.07"/>
			</g>
			<g>
				
					<rect x="40.84" y="-1490.29" transform="matrix(0.7071 -0.7071 0.7071 0.7071 -343.9673 180.0782)" class="st1" width="9.11" height="3991.07"/>
			</g>
			<g>
				
					<rect x="-47.9" y="-1490.29" transform="matrix(0.7071 -0.7071 0.7071 0.7071 -369.9587 117.3295)" class="st1" width="9.11" height="3991.07"/>
			</g>
			<g>
				
					<rect x="-136.64" y="-1490.29" transform="matrix(0.7071 -0.7071 0.7071 0.7071 -395.9496 54.5817)" class="st1" width="9.11" height="3991.07"/>
			</g>
			<g>
				
					<rect x="-225.38" y="-1490.29" transform="matrix(0.7071 -0.7071 0.7071 0.7071 -421.9412 -8.1672)" class="st1" width="9.11" height="3991.07"/>
			</g>
			<g>
				
					<rect x="-314.12" y="-1490.29" transform="matrix(0.7071 -0.7071 0.7071 0.7071 -447.9323 -70.9154)" class="st1" width="9.11" height="3991.07"/>
			</g>
			<g>
				
					<rect x="-402.86" y="-1490.29" transform="matrix(0.7071 -0.7071 0.7071 0.7071 -473.9232 -133.6631)" class="st1" width="9.11" height="3991.07"/>
			</g>
			<g>
				
					<rect x="-491.6" y="-1490.29" transform="matrix(0.7071 -0.7071 0.7071 0.7071 -499.9147 -196.4122)" class="st1" width="9.11" height="3991.07"/>
			</g>
			<g>
				
					<rect x="-580.34" y="-1490.29" transform="matrix(0.7071 -0.7071 0.7071 0.7071 -525.9055 -259.1597)" class="st1" width="9.11" height="3991.07"/>
			</g>
			<g>
				
					<rect x="-669.08" y="-1490.29" transform="matrix(0.7071 -0.7071 0.7071 0.7071 -551.8973 -321.9086)" class="st1" width="9.11" height="3991.07"/>
			</g>
			<g>
				
					<rect x="-757.82" y="-1490.29" transform="matrix(0.7071 -0.7071 0.7071 0.7071 -577.8882 -384.657)" class="st1" width="9.11" height="3991.07"/>
			</g>
			<g>
				
					<rect x="-846.56" y="-1490.29" transform="matrix(0.7071 -0.7071 0.7071 0.7071 -603.8792 -447.4048)" class="st1" width="9.11" height="3991.07"/>
			</g>
		</g>
	</g>
</g>
</svg>
