<?xml version="1.0" encoding="utf-8"?>
<!-- Generator: Adobe Illustrator 24.0.3, SVG Export Plug-In . SVG Version: 6.00 Build 0)  -->
<svg version="1.1" id="Layer_1" xmlns="http://www.w3.org/2000/svg" xmlns:xlink="http://www.w3.org/1999/xlink" x="0px" y="0px"
	 viewBox="0 0 1920 1080" style="enable-background:new 0 0 1920 1080;" xml:space="preserve">
<style type="text/css">
	.st0{clip-path:url(#SVGID_2_);}
	.st1{fill:#003E6A;}
</style>
<g>
	<defs>
		<rect id="SVGID_1_" width="1920" height="1080"/>
	</defs>
	<clipPath id="SVGID_2_">
		<use xlink:href="#SVGID_1_"  style="overflow:visible;"/>
	</clipPath>
	<g class="st0">
		<path class="st1" d="M1923.5-201.48c0-5.12-4.17-9.29-9.29-9.29c-5.12,0-9.29,4.17-9.29,9.29c0,5.12,4.17,9.29,9.29,9.29
			C1919.33-192.19,1923.5-196.35,1923.5-201.48z"/>
		<path class="st1" d="M1923.5-130.77c0-5.12-4.17-9.29-9.29-9.29c-5.12,0-9.29,4.17-9.29,9.29c0,5.12,4.17,9.29,9.29,9.29
			C1919.33-121.48,1923.5-125.65,1923.5-130.77z"/>
		<path class="st1" d="M1852.79-201.48c0-5.12-4.17-9.29-9.29-9.29s-9.29,4.17-9.29,9.29c0,5.12,4.17,9.29,9.29,9.29
			S1852.79-196.35,1852.79-201.48z"/>
		<path class="st1" d="M1852.79-130.77c0-5.12-4.17-9.29-9.29-9.29s-9.29,4.17-9.29,9.29c0,5.12,4.17,9.29,9.29,9.29
			S1852.79-125.65,1852.79-130.77z"/>
		<path class="st1" d="M1923.5-60.25c0-5.12-4.17-9.29-9.29-9.29c-5.12,0-9.29,4.17-9.29,9.29c0,5.12,4.17,9.29,9.29,9.29
			C1919.33-50.96,1923.5-55.13,1923.5-60.25z"/>
		<path class="st1" d="M1923.5,10.45c0-5.12-4.17-9.29-9.29-9.29c-5.12,0-9.29,4.17-9.29,9.29c0,5.12,4.17,9.29,9.29,9.29
			C1919.33,19.74,1923.5,15.58,1923.5,10.45z"/>
		<path class="st1" d="M1852.79-60.25c0-5.12-4.17-9.29-9.29-9.29s-9.29,4.17-9.29,9.29c0,5.12,4.17,9.29,9.29,9.29
			S1852.79-55.13,1852.79-60.25z"/>
		<path class="st1" d="M1852.79,10.45c0-5.12-4.17-9.29-9.29-9.29s-9.29,4.17-9.29,9.29c0,5.12,4.17,9.29,9.29,9.29
			S1852.79,15.58,1852.79,10.45z"/>
		<path class="st1" d="M1923.5,151.68c0-5.12-4.17-9.29-9.29-9.29c-5.12,0-9.29,4.17-9.29,9.29c0,5.12,4.17,9.29,9.29,9.29
			C1919.33,160.97,1923.5,156.8,1923.5,151.68z"/>
		<path class="st1" d="M1852.79,80.97c0-5.12-4.17-9.29-9.29-9.29s-9.29,4.17-9.29,9.29c0,5.12,4.17,9.29,9.29,9.29
			S1852.79,86.1,1852.79,80.97z"/>
		<path class="st1" d="M1852.79,151.68c0-5.12-4.17-9.29-9.29-9.29s-9.29,4.17-9.29,9.29c0,5.12,4.17,9.29,9.29,9.29
			S1852.79,156.8,1852.79,151.68z"/>
		<path class="st1" d="M1923.5,222.2c0-5.12-4.17-9.29-9.29-9.29c-5.12,0-9.29,4.17-9.29,9.29c0,5.12,4.17,9.29,9.29,9.29
			C1919.33,231.49,1923.5,227.32,1923.5,222.2z"/>
		<path class="st1" d="M1923.5,292.9c0-5.12-4.17-9.29-9.29-9.29c-5.12,0-9.29,4.17-9.29,9.29c0,5.12,4.17,9.29,9.29,9.29
			C1919.33,302.19,1923.5,298.03,1923.5,292.9z"/>
		<path class="st1" d="M1852.79,222.2c0-5.12-4.17-9.29-9.29-9.29s-9.29,4.17-9.29,9.29c0,5.12,4.17,9.29,9.29,9.29
			S1852.79,227.32,1852.79,222.2z"/>
		<path class="st1" d="M1852.79,292.9c0-5.12-4.17-9.29-9.29-9.29s-9.29,4.17-9.29,9.29c0,5.12,4.17,9.29,9.29,9.29
			S1852.79,298.03,1852.79,292.9z"/>
		<path class="st1" d="M1923.5,363.42c0-5.12-4.17-9.29-9.29-9.29c-5.12,0-9.29,4.17-9.29,9.29c0,5.12,4.17,9.29,9.29,9.29
			C1919.33,372.71,1923.5,368.55,1923.5,363.42z"/>
		<path class="st1" d="M1923.5,434.13c0-5.12-4.17-9.29-9.29-9.29c-5.12,0-9.29,4.17-9.29,9.29s4.17,9.29,9.29,9.29
			C1919.33,443.42,1923.5,439.25,1923.5,434.13z"/>
		<path class="st1" d="M1852.79,363.42c0-5.12-4.17-9.29-9.29-9.29s-9.29,4.17-9.29,9.29c0,5.12,4.17,9.29,9.29,9.29
			S1852.79,368.55,1852.79,363.42z"/>
		<path class="st1" d="M1852.79,434.13c0-5.12-4.17-9.29-9.29-9.29s-9.29,4.17-9.29,9.29s4.17,9.29,9.29,9.29
			S1852.79,439.25,1852.79,434.13z"/>
		<path class="st1" d="M1923.5,504.65c0-5.12-4.17-9.29-9.29-9.29c-5.12,0-9.29,4.17-9.29,9.29c0,5.12,4.17,9.29,9.29,9.29
			C1919.33,513.94,1923.5,509.77,1923.5,504.65z"/>
		<path class="st1" d="M1923.5,575.35c0-5.12-4.17-9.29-9.29-9.29c-5.12,0-9.29,4.17-9.29,9.29c0,5.12,4.17,9.29,9.29,9.29
			C1919.33,584.64,1923.5,580.48,1923.5,575.35z"/>
		<path class="st1" d="M1852.79,504.65c0-5.12-4.17-9.29-9.29-9.29s-9.29,4.17-9.29,9.29c0,5.12,4.17,9.29,9.29,9.29
			S1852.79,509.77,1852.79,504.65z"/>
		<path class="st1" d="M1852.79,575.35c0-5.12-4.17-9.29-9.29-9.29s-9.29,4.17-9.29,9.29c0,5.12,4.17,9.29,9.29,9.29
			S1852.79,580.48,1852.79,575.35z"/>
		<path class="st1" d="M1923.5,645.87c0-5.12-4.17-9.29-9.29-9.29c-5.12,0-9.29,4.17-9.29,9.29c0,5.12,4.17,9.29,9.29,9.29
			C1919.33,655.16,1923.5,651,1923.5,645.87z"/>
		<path class="st1" d="M1852.79,645.87c0-5.12-4.17-9.29-9.29-9.29s-9.29,4.17-9.29,9.29c0,5.12,4.17,9.29,9.29,9.29
			S1852.79,651,1852.79,645.87z"/>
		<path class="st1" d="M1852.79,716.58c0-5.12-4.17-9.29-9.29-9.29s-9.29,4.17-9.29,9.29c0,5.12,4.17,9.29,9.29,9.29
			S1852.79,721.7,1852.79,716.58z"/>
		<path class="st1" d="M1923.5,787.1c0-5.12-4.17-9.29-9.29-9.29c-5.12,0-9.29,4.17-9.29,9.29c0,5.12,4.17,9.29,9.29,9.29
			C1919.33,796.39,1923.5,792.22,1923.5,787.1z"/>
		<path class="st1" d="M1923.5,857.8c0-5.12-4.17-9.29-9.29-9.29c-5.12,0-9.29,4.17-9.29,9.29c0,5.12,4.17,9.29,9.29,9.29
			C1919.33,867.09,1923.5,862.93,1923.5,857.8z"/>
		<path class="st1" d="M1852.79,787.1c0-5.12-4.17-9.29-9.29-9.29s-9.29,4.17-9.29,9.29c0,5.12,4.17,9.29,9.29,9.29
			S1852.79,792.22,1852.79,787.1z"/>
		<path class="st1" d="M1852.79,857.8c0-5.12-4.17-9.29-9.29-9.29s-9.29,4.17-9.29,9.29c0,5.12,4.17,9.29,9.29,9.29
			S1852.79,862.93,1852.79,857.8z"/>
		<path class="st1" d="M1923.5,928.32c0-5.12-4.17-9.29-9.29-9.29c-5.12,0-9.29,4.17-9.29,9.29c0,5.12,4.17,9.29,9.29,9.29
			C1919.33,937.61,1923.5,933.45,1923.5,928.32z"/>
		<path class="st1" d="M1923.5,999.03c0-5.12-4.17-9.29-9.29-9.29c-5.12,0-9.29,4.17-9.29,9.29c0,5.12,4.17,9.29,9.29,9.29
			C1919.33,1008.32,1923.5,1004.15,1923.5,999.03z"/>
		<path class="st1" d="M1852.79,928.32c0-5.12-4.17-9.29-9.29-9.29s-9.29,4.17-9.29,9.29c0,5.12,4.17,9.29,9.29,9.29
			S1852.79,933.45,1852.79,928.32z"/>
		<path class="st1" d="M1852.79,999.03c0-5.12-4.17-9.29-9.29-9.29s-9.29,4.17-9.29,9.29c0,5.12,4.17,9.29,9.29,9.29
			S1852.79,1004.15,1852.79,999.03z"/>
		<path class="st1" d="M1923.5,1140.25c0-5.12-4.17-9.29-9.29-9.29c-5.12,0-9.29,4.17-9.29,9.29c0,5.12,4.17,9.29,9.29,9.29
			C1919.33,1149.54,1923.5,1145.38,1923.5,1140.25z"/>
		<path class="st1" d="M1852.79,1069.55c0-5.12-4.17-9.29-9.29-9.29s-9.29,4.17-9.29,9.29c0,5.12,4.17,9.29,9.29,9.29
			S1852.79,1074.67,1852.79,1069.55z"/>
		<path class="st1" d="M1852.79,1140.25c0-5.12-4.17-9.29-9.29-9.29s-9.29,4.17-9.29,9.29c0,5.12,4.17,9.29,9.29,9.29
			S1852.79,1145.38,1852.79,1140.25z"/>
		<path class="st1" d="M1923.5,1210.77c0-5.12-4.17-9.29-9.29-9.29c-5.12,0-9.29,4.17-9.29,9.29c0,5.12,4.17,9.29,9.29,9.29
			C1919.33,1220.06,1923.5,1215.9,1923.5,1210.77z"/>
		<path class="st1" d="M1904.92,1281.48c0,5.12,4.17,9.29,9.29,9.29c5.12,0,9.29-4.17,9.29-9.29c0-5.12-4.17-9.29-9.29-9.29
			C1909.09,1272.19,1904.92,1276.35,1904.92,1281.48z"/>
		<path class="st1" d="M1852.79,1210.77c0-5.12-4.17-9.29-9.29-9.29s-9.29,4.17-9.29,9.29c0,5.12,4.17,9.29,9.29,9.29
			S1852.79,1215.9,1852.79,1210.77z"/>
		<path class="st1" d="M1852.79,1281.48c0-5.12-4.17-9.29-9.29-9.29s-9.29,4.17-9.29,9.29c0,5.12,4.17,9.29,9.29,9.29
			S1852.79,1286.6,1852.79,1281.48z"/>
		<path class="st1" d="M1782.14-201.48c0-5.12-4.17-9.29-9.29-9.29c-5.12,0-9.29,4.17-9.29,9.29c0,5.12,4.17,9.29,9.29,9.29
			C1777.97-192.19,1782.14-196.35,1782.14-201.48z"/>
		<path class="st1" d="M1782.14-130.77c0-5.12-4.17-9.29-9.29-9.29c-5.12,0-9.29,4.17-9.29,9.29c0,5.12,4.17,9.29,9.29,9.29
			C1777.97-121.48,1782.14-125.65,1782.14-130.77z"/>
		<path class="st1" d="M1711.43-201.48c0-5.12-4.17-9.29-9.29-9.29c-5.12,0-9.29,4.17-9.29,9.29c0,5.12,4.17,9.29,9.29,9.29
			C1707.27-192.19,1711.43-196.35,1711.43-201.48z"/>
		<path class="st1" d="M1711.43-130.77c0-5.12-4.17-9.29-9.29-9.29c-5.12,0-9.29,4.17-9.29,9.29c0,5.12,4.17,9.29,9.29,9.29
			C1707.27-121.48,1711.43-125.65,1711.43-130.77z"/>
		<path class="st1" d="M1782.14-60.25c0-5.12-4.17-9.29-9.29-9.29c-5.12,0-9.29,4.17-9.29,9.29c0,5.12,4.17,9.29,9.29,9.29
			C1777.97-50.96,1782.14-55.13,1782.14-60.25z"/>
		<path class="st1" d="M1782.14,10.45c0-5.12-4.17-9.29-9.29-9.29c-5.12,0-9.29,4.17-9.29,9.29c0,5.12,4.17,9.29,9.29,9.29
			C1777.97,19.74,1782.14,15.58,1782.14,10.45z"/>
		<path class="st1" d="M1782.14,151.68c0-5.12-4.17-9.29-9.29-9.29c-5.12,0-9.29,4.17-9.29,9.29c0,5.12,4.17,9.29,9.29,9.29
			C1777.97,160.97,1782.14,156.8,1782.14,151.68z"/>
		<path class="st1" d="M1711.43,151.68c0-5.12-4.17-9.29-9.29-9.29c-5.12,0-9.29,4.17-9.29,9.29c0,5.12,4.17,9.29,9.29,9.29
			C1707.27,160.97,1711.43,156.8,1711.43,151.68z"/>
		<path class="st1" d="M1782.14,222.2c0-5.12-4.17-9.29-9.29-9.29c-5.12,0-9.29,4.17-9.29,9.29c0,5.12,4.17,9.29,9.29,9.29
			C1777.97,231.49,1782.14,227.32,1782.14,222.2z"/>
		<path class="st1" d="M1782.14,292.9c0-5.12-4.17-9.29-9.29-9.29c-5.12,0-9.29,4.17-9.29,9.29c0,5.12,4.17,9.29,9.29,9.29
			C1777.97,302.19,1782.14,298.03,1782.14,292.9z"/>
		<path class="st1" d="M1711.43,222.2c0-5.12-4.17-9.29-9.29-9.29c-5.12,0-9.29,4.17-9.29,9.29c0,5.12,4.17,9.29,9.29,9.29
			C1707.27,231.49,1711.43,227.32,1711.43,222.2z"/>
		<path class="st1" d="M1711.43,292.9c0-5.12-4.17-9.29-9.29-9.29c-5.12,0-9.29,4.17-9.29,9.29c0,5.12,4.17,9.29,9.29,9.29
			C1707.27,302.19,1711.43,298.03,1711.43,292.9z"/>
		<path class="st1" d="M1782.14,363.42c0-5.12-4.17-9.29-9.29-9.29c-5.12,0-9.29,4.17-9.29,9.29c0,5.12,4.17,9.29,9.29,9.29
			C1777.97,372.71,1782.14,368.55,1782.14,363.42z"/>
		<path class="st1" d="M1711.43,363.42c0-5.12-4.17-9.29-9.29-9.29c-5.12,0-9.29,4.17-9.29,9.29c0,5.12,4.17,9.29,9.29,9.29
			C1707.27,372.71,1711.43,368.55,1711.43,363.42z"/>
		<path class="st1" d="M1711.43,434.13c0-5.12-4.17-9.29-9.29-9.29c-5.12,0-9.29,4.17-9.29,9.29s4.17,9.29,9.29,9.29
			C1707.27,443.42,1711.43,439.25,1711.43,434.13z"/>
		<path class="st1" d="M1782.14,504.65c0-5.12-4.17-9.29-9.29-9.29c-5.12,0-9.29,4.17-9.29,9.29c0,5.12,4.17,9.29,9.29,9.29
			C1777.97,513.94,1782.14,509.77,1782.14,504.65z"/>
		<path class="st1" d="M1782.14,575.35c0-5.12-4.17-9.29-9.29-9.29c-5.12,0-9.29,4.17-9.29,9.29c0,5.12,4.17,9.29,9.29,9.29
			C1777.97,584.64,1782.14,580.48,1782.14,575.35z"/>
		<path class="st1" d="M1711.43,504.65c0-5.12-4.17-9.29-9.29-9.29c-5.12,0-9.29,4.17-9.29,9.29c0,5.12,4.17,9.29,9.29,9.29
			C1707.27,513.94,1711.43,509.77,1711.43,504.65z"/>
		<path class="st1" d="M1711.43,575.35c0-5.12-4.17-9.29-9.29-9.29c-5.12,0-9.29,4.17-9.29,9.29c0,5.12,4.17,9.29,9.29,9.29
			C1707.27,584.64,1711.43,580.48,1711.43,575.35z"/>
		<path class="st1" d="M1782.14,716.58c0-5.12-4.17-9.29-9.29-9.29c-5.12,0-9.29,4.17-9.29,9.29c0,5.12,4.17,9.29,9.29,9.29
			C1777.97,725.87,1782.14,721.7,1782.14,716.58z"/>
		<path class="st1" d="M1711.43,645.87c0-5.12-4.17-9.29-9.29-9.29c-5.12,0-9.29,4.17-9.29,9.29c0,5.12,4.17,9.29,9.29,9.29
			C1707.27,655.16,1711.43,651,1711.43,645.87z"/>
		<path class="st1" d="M1782.14,787.1c0-5.12-4.17-9.29-9.29-9.29c-5.12,0-9.29,4.17-9.29,9.29c0,5.12,4.17,9.29,9.29,9.29
			C1777.97,796.39,1782.14,792.22,1782.14,787.1z"/>
		<path class="st1" d="M1782.14,857.8c0-5.12-4.17-9.29-9.29-9.29c-5.12,0-9.29,4.17-9.29,9.29c0,5.12,4.17,9.29,9.29,9.29
			C1777.97,867.09,1782.14,862.93,1782.14,857.8z"/>
		<path class="st1" d="M1782.14,928.32c0-5.12-4.17-9.29-9.29-9.29c-5.12,0-9.29,4.17-9.29,9.29c0,5.12,4.17,9.29,9.29,9.29
			C1777.97,937.61,1782.14,933.45,1782.14,928.32z"/>
		<path class="st1" d="M1782.14,999.03c0-5.12-4.17-9.29-9.29-9.29c-5.12,0-9.29,4.17-9.29,9.29c0,5.12,4.17,9.29,9.29,9.29
			C1777.97,1008.32,1782.14,1004.15,1782.14,999.03z"/>
		<path class="st1" d="M1711.43,928.32c0-5.12-4.17-9.29-9.29-9.29c-5.12,0-9.29,4.17-9.29,9.29c0,5.12,4.17,9.29,9.29,9.29
			C1707.27,937.61,1711.43,933.45,1711.43,928.32z"/>
		<path class="st1" d="M1711.43,999.03c0-5.12-4.17-9.29-9.29-9.29c-5.12,0-9.29,4.17-9.29,9.29c0,5.12,4.17,9.29,9.29,9.29
			C1707.27,1008.32,1711.43,1004.15,1711.43,999.03z"/>
		<path class="st1" d="M1782.14,1069.55c0-5.12-4.17-9.29-9.29-9.29c-5.12,0-9.29,4.17-9.29,9.29c0,5.12,4.17,9.29,9.29,9.29
			C1777.97,1078.84,1782.14,1074.67,1782.14,1069.55z"/>
		<path class="st1" d="M1782.14,1140.25c0-5.12-4.17-9.29-9.29-9.29c-5.12,0-9.29,4.17-9.29,9.29c0,5.12,4.17,9.29,9.29,9.29
			C1777.97,1149.54,1782.14,1145.38,1782.14,1140.25z"/>
		<path class="st1" d="M1711.43,1069.55c0-5.12-4.17-9.29-9.29-9.29c-5.12,0-9.29,4.17-9.29,9.29c0,5.12,4.17,9.29,9.29,9.29
			C1707.27,1078.84,1711.43,1074.67,1711.43,1069.55z"/>
		<path class="st1" d="M1711.43,1140.25c0-5.12-4.17-9.29-9.29-9.29c-5.12,0-9.29,4.17-9.29,9.29c0,5.12,4.17,9.29,9.29,9.29
			C1707.27,1149.54,1711.43,1145.38,1711.43,1140.25z"/>
		<path class="st1" d="M1782.14,1210.77c0-5.12-4.17-9.29-9.29-9.29c-5.12,0-9.29,4.17-9.29,9.29c0,5.12,4.17,9.29,9.29,9.29
			C1777.97,1220.06,1782.14,1215.9,1782.14,1210.77z"/>
		<path class="st1" d="M1782.14,1281.48c0-5.12-4.17-9.29-9.29-9.29c-5.12,0-9.29,4.17-9.29,9.29c0,5.12,4.17,9.29,9.29,9.29
			C1777.97,1290.77,1782.14,1286.6,1782.14,1281.48z"/>
		<path class="st1" d="M1711.43,1210.77c0-5.12-4.17-9.29-9.29-9.29c-5.12,0-9.29,4.17-9.29,9.29c0,5.12,4.17,9.29,9.29,9.29
			C1707.27,1220.06,1711.43,1215.9,1711.43,1210.77z"/>
		<path class="st1" d="M1711.43,1281.48c0-5.12-4.17-9.29-9.29-9.29c-5.12,0-9.29,4.17-9.29,9.29c0,5.12,4.17,9.29,9.29,9.29
			C1707.27,1290.77,1711.43,1286.6,1711.43,1281.48z"/>
		<path class="st1" d="M1640.78-201.48c0-5.12-4.17-9.29-9.29-9.29c-5.12,0-9.29,4.17-9.29,9.29c0,5.12,4.17,9.29,9.29,9.29
			C1636.61-192.19,1640.78-196.35,1640.78-201.48z"/>
		<path class="st1" d="M1640.78-130.77c0-5.12-4.17-9.29-9.29-9.29c-5.12,0-9.29,4.17-9.29,9.29c0,5.12,4.17,9.29,9.29,9.29
			C1636.61-121.48,1640.78-125.65,1640.78-130.77z"/>
		<path class="st1" d="M1570.07-201.48c0-5.12-4.17-9.29-9.29-9.29c-5.12,0-9.29,4.17-9.29,9.29c0,5.12,4.17,9.29,9.29,9.29
			C1565.9-192.19,1570.07-196.35,1570.07-201.48z"/>
		<path class="st1" d="M1570.07-130.77c0-5.12-4.17-9.29-9.29-9.29c-5.12,0-9.29,4.17-9.29,9.29c0,5.12,4.17,9.29,9.29,9.29
			C1565.9-121.48,1570.07-125.65,1570.07-130.77z"/>
		<path class="st1" d="M1570.07-60.25c0-5.12-4.17-9.29-9.29-9.29c-5.12,0-9.29,4.17-9.29,9.29c0,5.12,4.17,9.29,9.29,9.29
			C1565.9-50.96,1570.07-55.13,1570.07-60.25z"/>
		<path class="st1" d="M1570.07,10.45c0-5.12-4.17-9.29-9.29-9.29c-5.12,0-9.29,4.17-9.29,9.29c0,5.12,4.17,9.29,9.29,9.29
			C1565.9,19.74,1570.07,15.58,1570.07,10.45z"/>
		<path class="st1" d="M1640.78,151.68c0-5.12-4.17-9.29-9.29-9.29c-5.12,0-9.29,4.17-9.29,9.29c0,5.12,4.17,9.29,9.29,9.29
			C1636.61,160.97,1640.78,156.8,1640.78,151.68z"/>
		<path class="st1" d="M1570.07,80.97c0-5.12-4.17-9.29-9.29-9.29c-5.12,0-9.29,4.17-9.29,9.29c0,5.12,4.17,9.29,9.29,9.29
			C1565.9,90.26,1570.07,86.1,1570.07,80.97z"/>
		<path class="st1" d="M1570.07,151.68c0-5.12-4.17-9.29-9.29-9.29c-5.12,0-9.29,4.17-9.29,9.29c0,5.12,4.17,9.29,9.29,9.29
			C1565.9,160.97,1570.07,156.8,1570.07,151.68z"/>
		<path class="st1" d="M1640.78,222.2c0-5.12-4.17-9.29-9.29-9.29c-5.12,0-9.29,4.17-9.29,9.29c0,5.12,4.17,9.29,9.29,9.29
			C1636.61,231.49,1640.78,227.32,1640.78,222.2z"/>
		<path class="st1" d="M1640.78,292.9c0-5.12-4.17-9.29-9.29-9.29c-5.12,0-9.29,4.17-9.29,9.29c0,5.12,4.17,9.29,9.29,9.29
			C1636.61,302.19,1640.78,298.03,1640.78,292.9z"/>
		<path class="st1" d="M1570.07,222.2c0-5.12-4.17-9.29-9.29-9.29c-5.12,0-9.29,4.17-9.29,9.29c0,5.12,4.17,9.29,9.29,9.29
			C1565.9,231.49,1570.07,227.32,1570.07,222.2z"/>
		<path class="st1" d="M1570.07,292.9c0-5.12-4.17-9.29-9.29-9.29c-5.12,0-9.29,4.17-9.29,9.29c0,5.12,4.17,9.29,9.29,9.29
			C1565.9,302.19,1570.07,298.03,1570.07,292.9z"/>
		<path class="st1" d="M1640.78,363.42c0-5.12-4.17-9.29-9.29-9.29c-5.12,0-9.29,4.17-9.29,9.29c0,5.12,4.17,9.29,9.29,9.29
			C1636.61,372.71,1640.78,368.55,1640.78,363.42z"/>
		<path class="st1" d="M1640.78,434.13c0-5.12-4.17-9.29-9.29-9.29c-5.12,0-9.29,4.17-9.29,9.29s4.17,9.29,9.29,9.29
			C1636.61,443.42,1640.78,439.25,1640.78,434.13z"/>
		<path class="st1" d="M1570.07,363.42c0-5.12-4.17-9.29-9.29-9.29c-5.12,0-9.29,4.17-9.29,9.29c0,5.12,4.17,9.29,9.29,9.29
			C1565.9,372.71,1570.07,368.55,1570.07,363.42z"/>
		<path class="st1" d="M1570.07,434.13c0-5.12-4.17-9.29-9.29-9.29c-5.12,0-9.29,4.17-9.29,9.29s4.17,9.29,9.29,9.29
			C1565.9,443.42,1570.07,439.25,1570.07,434.13z"/>
		<path class="st1" d="M1640.78,504.65c0-5.12-4.17-9.29-9.29-9.29c-5.12,0-9.29,4.17-9.29,9.29c0,5.12,4.17,9.29,9.29,9.29
			C1636.61,513.94,1640.78,509.77,1640.78,504.65z"/>
		<path class="st1" d="M1640.78,575.35c0-5.12-4.17-9.29-9.29-9.29c-5.12,0-9.29,4.17-9.29,9.29c0,5.12,4.17,9.29,9.29,9.29
			C1636.61,584.64,1640.78,580.48,1640.78,575.35z"/>
		<path class="st1" d="M1570.07,504.65c0-5.12-4.17-9.29-9.29-9.29c-5.12,0-9.29,4.17-9.29,9.29c0,5.12,4.17,9.29,9.29,9.29
			C1565.9,513.94,1570.07,509.77,1570.07,504.65z"/>
		<path class="st1" d="M1570.07,575.35c0-5.12-4.17-9.29-9.29-9.29c-5.12,0-9.29,4.17-9.29,9.29c0,5.12,4.17,9.29,9.29,9.29
			C1565.9,584.64,1570.07,580.48,1570.07,575.35z"/>
		<path class="st1" d="M1640.78,645.87c0-5.12-4.17-9.29-9.29-9.29c-5.12,0-9.29,4.17-9.29,9.29c0,5.12,4.17,9.29,9.29,9.29
			C1636.61,655.16,1640.78,651,1640.78,645.87z"/>
		<circle class="st1" cx="1631.48" cy="716.58" r="9.29"/>
		<circle class="st1" cx="1560.78" cy="716.58" r="9.29"/>
		<path class="st1" d="M1640.78,787.1c0-5.12-4.17-9.29-9.29-9.29c-5.12,0-9.29,4.17-9.29,9.29c0,5.12,4.17,9.29,9.29,9.29
			C1636.61,796.39,1640.78,792.22,1640.78,787.1z"/>
		
			<ellipse transform="matrix(0.7071 -0.7071 0.7071 0.7071 -128.7075 1404.8787)" class="st1" cx="1631.48" cy="857.8" rx="9.29" ry="9.29"/>
		<path class="st1" d="M1570.07,787.1c0-5.12-4.17-9.29-9.29-9.29c-5.12,0-9.29,4.17-9.29,9.29c0,5.12,4.17,9.29,9.29,9.29
			C1565.9,796.39,1570.07,792.22,1570.07,787.1z"/>
		
			<ellipse transform="matrix(0.9732 -0.2298 0.2298 0.9732 -155.3307 381.5421)" class="st1" cx="1560.78" cy="857.8" rx="9.29" ry="9.29"/>
		<path class="st1" d="M1640.78,928.32c0-5.12-4.17-9.29-9.29-9.29c-5.12,0-9.29,4.17-9.29,9.29c0,5.12,4.17,9.29,9.29,9.29
			C1636.61,937.61,1640.78,933.45,1640.78,928.32z"/>
		<path class="st1" d="M1640.78,999.03c0-5.12-4.17-9.29-9.29-9.29c-5.12,0-9.29,4.17-9.29,9.29c0,5.12,4.17,9.29,9.29,9.29
			C1636.61,1008.32,1640.78,1004.15,1640.78,999.03z"/>
		<path class="st1" d="M1570.07,928.32c0-5.12-4.17-9.29-9.29-9.29c-5.12,0-9.29,4.17-9.29,9.29c0,5.12,4.17,9.29,9.29,9.29
			C1565.9,937.61,1570.07,933.45,1570.07,928.32z"/>
		<path class="st1" d="M1570.07,999.03c0-5.12-4.17-9.29-9.29-9.29c-5.12,0-9.29,4.17-9.29,9.29c0,5.12,4.17,9.29,9.29,9.29
			C1565.9,1008.32,1570.07,1004.15,1570.07,999.03z"/>
		<path class="st1" d="M1640.78,1069.55c0-5.12-4.17-9.29-9.29-9.29c-5.12,0-9.29,4.17-9.29,9.29c0,5.12,4.17,9.29,9.29,9.29
			C1636.61,1078.84,1640.78,1074.67,1640.78,1069.55z"/>
		<path class="st1" d="M1640.78,1140.25c0-5.12-4.17-9.29-9.29-9.29c-5.12,0-9.29,4.17-9.29,9.29c0,5.12,4.17,9.29,9.29,9.29
			C1636.61,1149.54,1640.78,1145.38,1640.78,1140.25z"/>
		<path class="st1" d="M1570.07,1069.55c0-5.12-4.17-9.29-9.29-9.29c-5.12,0-9.29,4.17-9.29,9.29c0,5.12,4.17,9.29,9.29,9.29
			C1565.9,1078.84,1570.07,1074.67,1570.07,1069.55z"/>
		<path class="st1" d="M1570.07,1140.25c0-5.12-4.17-9.29-9.29-9.29c-5.12,0-9.29,4.17-9.29,9.29c0,5.12,4.17,9.29,9.29,9.29
			C1565.9,1149.54,1570.07,1145.38,1570.07,1140.25z"/>
		<path class="st1" d="M1640.78,1210.77c0-5.12-4.17-9.29-9.29-9.29c-5.12,0-9.29,4.17-9.29,9.29c0,5.12,4.17,9.29,9.29,9.29
			C1636.61,1220.06,1640.78,1215.9,1640.78,1210.77z"/>
		<path class="st1" d="M1640.78,1281.48c0-5.12-4.17-9.29-9.29-9.29c-5.12,0-9.29,4.17-9.29,9.29c0,5.12,4.17,9.29,9.29,9.29
			C1636.61,1290.77,1640.78,1286.6,1640.78,1281.48z"/>
		<path class="st1" d="M1570.07,1210.77c0-5.12-4.17-9.29-9.29-9.29c-5.12,0-9.29,4.17-9.29,9.29c0,5.12,4.17,9.29,9.29,9.29
			C1565.9,1220.06,1570.07,1215.9,1570.07,1210.77z"/>
		<path class="st1" d="M1570.07,1281.48c0-5.12-4.17-9.29-9.29-9.29c-5.12,0-9.29,4.17-9.29,9.29c0,5.12,4.17,9.29,9.29,9.29
			C1565.9,1290.77,1570.07,1286.6,1570.07,1281.48z"/>
		<path class="st1" d="M1499.41-201.48c0-5.12-4.17-9.29-9.29-9.29c-5.12,0-9.29,4.17-9.29,9.29c0,5.12,4.17,9.29,9.29,9.29
			C1495.24-192.19,1499.41-196.35,1499.41-201.48z"/>
		<path class="st1" d="M1499.41-130.77c0-5.12-4.17-9.29-9.29-9.29c-5.12,0-9.29,4.17-9.29,9.29c0,5.12,4.17,9.29,9.29,9.29
			C1495.24-121.48,1499.41-125.65,1499.41-130.77z"/>
		<path class="st1" d="M1428.71-201.48c0-5.12-4.17-9.29-9.29-9.29c-5.12,0-9.29,4.17-9.29,9.29c0,5.12,4.17,9.29,9.29,9.29
			C1424.54-192.19,1428.71-196.35,1428.71-201.48z"/>
		<path class="st1" d="M1428.71-130.77c0-5.12-4.17-9.29-9.29-9.29c-5.12,0-9.29,4.17-9.29,9.29c0,5.12,4.17,9.29,9.29,9.29
			C1424.54-121.48,1428.71-125.65,1428.71-130.77z"/>
		<path class="st1" d="M1499.41-60.25c0-5.12-4.17-9.29-9.29-9.29c-5.12,0-9.29,4.17-9.29,9.29c0,5.12,4.17,9.29,9.29,9.29
			C1495.24-50.96,1499.41-55.13,1499.41-60.25z"/>
		<path class="st1" d="M1499.41,10.45c0-5.12-4.17-9.29-9.29-9.29c-5.12,0-9.29,4.17-9.29,9.29c0,5.12,4.17,9.29,9.29,9.29
			C1495.24,19.74,1499.41,15.58,1499.41,10.45z"/>
		<path class="st1" d="M1428.71-60.25c0-5.12-4.17-9.29-9.29-9.29c-5.12,0-9.29,4.17-9.29,9.29c0,5.12,4.17,9.29,9.29,9.29
			C1424.54-50.96,1428.71-55.13,1428.71-60.25z"/>
		<path class="st1" d="M1428.71,10.45c0-5.12-4.17-9.29-9.29-9.29c-5.12,0-9.29,4.17-9.29,9.29c0,5.12,4.17,9.29,9.29,9.29
			C1424.54,19.74,1428.71,15.58,1428.71,10.45z"/>
		<path class="st1" d="M1499.41,80.97c0-5.12-4.17-9.29-9.29-9.29c-5.12,0-9.29,4.17-9.29,9.29c0,5.12,4.17,9.29,9.29,9.29
			C1495.24,90.26,1499.41,86.1,1499.41,80.97z"/>
		<path class="st1" d="M1499.41,151.68c0-5.12-4.17-9.29-9.29-9.29c-5.12,0-9.29,4.17-9.29,9.29c0,5.12,4.17,9.29,9.29,9.29
			C1495.24,160.97,1499.41,156.8,1499.41,151.68z"/>
		<path class="st1" d="M1428.71,80.97c0-5.12-4.17-9.29-9.29-9.29c-5.12,0-9.29,4.17-9.29,9.29c0,5.12,4.17,9.29,9.29,9.29
			C1424.54,90.26,1428.71,86.1,1428.71,80.97z"/>
		<path class="st1" d="M1428.71,151.68c0-5.12-4.17-9.29-9.29-9.29c-5.12,0-9.29,4.17-9.29,9.29c0,5.12,4.17,9.29,9.29,9.29
			C1424.54,160.97,1428.71,156.8,1428.71,151.68z"/>
		<path class="st1" d="M1499.41,222.2c0-5.12-4.17-9.29-9.29-9.29c-5.12,0-9.29,4.17-9.29,9.29c0,5.12,4.17,9.29,9.29,9.29
			C1495.24,231.49,1499.41,227.32,1499.41,222.2z"/>
		<path class="st1" d="M1499.41,292.9c0-5.12-4.17-9.29-9.29-9.29c-5.12,0-9.29,4.17-9.29,9.29c0,5.12,4.17,9.29,9.29,9.29
			C1495.24,302.19,1499.41,298.03,1499.41,292.9z"/>
		<path class="st1" d="M1428.71,222.2c0-5.12-4.17-9.29-9.29-9.29c-5.12,0-9.29,4.17-9.29,9.29c0,5.12,4.17,9.29,9.29,9.29
			C1424.54,231.49,1428.71,227.32,1428.71,222.2z"/>
		<path class="st1" d="M1499.41,363.42c0-5.12-4.17-9.29-9.29-9.29c-5.12,0-9.29,4.17-9.29,9.29c0,5.12,4.17,9.29,9.29,9.29
			C1495.24,372.71,1499.41,368.55,1499.41,363.42z"/>
		<path class="st1" d="M1499.41,434.13c0-5.12-4.17-9.29-9.29-9.29c-5.12,0-9.29,4.17-9.29,9.29s4.17,9.29,9.29,9.29
			C1495.24,443.42,1499.41,439.25,1499.41,434.13z"/>
		<path class="st1" d="M1428.71,434.13c0-5.12-4.17-9.29-9.29-9.29c-5.12,0-9.29,4.17-9.29,9.29s4.17,9.29,9.29,9.29
			C1424.54,443.42,1428.71,439.25,1428.71,434.13z"/>
		<path class="st1" d="M1499.41,575.35c0-5.12-4.17-9.29-9.29-9.29c-5.12,0-9.29,4.17-9.29,9.29c0,5.12,4.17,9.29,9.29,9.29
			C1495.24,584.64,1499.41,580.48,1499.41,575.35z"/>
		<path class="st1" d="M1428.71,504.65c0-5.12-4.17-9.29-9.29-9.29c-5.12,0-9.29,4.17-9.29,9.29c0,5.12,4.17,9.29,9.29,9.29
			C1424.54,513.94,1428.71,509.77,1428.71,504.65z"/>
		<path class="st1" d="M1428.71,575.35c0-5.12-4.17-9.29-9.29-9.29c-5.12,0-9.29,4.17-9.29,9.29c0,5.12,4.17,9.29,9.29,9.29
			C1424.54,584.64,1428.71,580.48,1428.71,575.35z"/>
		<path class="st1" d="M1499.41,645.87c0-5.12-4.17-9.29-9.29-9.29c-5.12,0-9.29,4.17-9.29,9.29c0,5.12,4.17,9.29,9.29,9.29
			C1495.24,655.16,1499.41,651,1499.41,645.87z"/>
		<path class="st1" d="M1499.41,716.58c0-5.12-4.17-9.29-9.29-9.29c-5.12,0-9.29,4.17-9.29,9.29c0,5.12,4.17,9.29,9.29,9.29
			C1495.24,725.87,1499.41,721.7,1499.41,716.58z"/>
		<path class="st1" d="M1428.71,645.87c0-5.12-4.17-9.29-9.29-9.29c-5.12,0-9.29,4.17-9.29,9.29c0,5.12,4.17,9.29,9.29,9.29
			C1424.54,655.16,1428.71,651,1428.71,645.87z"/>
		<circle class="st1" cx="1419.42" cy="716.58" r="9.29"/>
		<path class="st1" d="M1499.41,787.1c0-5.12-4.17-9.29-9.29-9.29c-5.12,0-9.29,4.17-9.29,9.29c0,5.12,4.17,9.29,9.29,9.29
			C1495.24,796.39,1499.41,792.22,1499.41,787.1z"/>
		<path class="st1" d="M1499.41,857.8c0-5.12-4.17-9.29-9.29-9.29c-5.12,0-9.29,4.17-9.29,9.29c0,5.12,4.17,9.29,9.29,9.29
			C1495.24,867.09,1499.41,862.93,1499.41,857.8z"/>
		<path class="st1" d="M1428.71,787.1c0-5.12-4.17-9.29-9.29-9.29c-5.12,0-9.29,4.17-9.29,9.29c0,5.12,4.17,9.29,9.29,9.29
			C1424.54,796.39,1428.71,792.22,1428.71,787.1z"/>
		
			<ellipse transform="matrix(0.3827 -0.9239 0.9239 0.3827 83.7225 1840.9056)" class="st1" cx="1419.42" cy="857.8" rx="9.29" ry="9.29"/>
		<path class="st1" d="M1499.41,928.32c0-5.12-4.17-9.29-9.29-9.29c-5.12,0-9.29,4.17-9.29,9.29c0,5.12,4.17,9.29,9.29,9.29
			C1495.24,937.61,1499.41,933.45,1499.41,928.32z"/>
		<path class="st1" d="M1428.71,928.32c0-5.12-4.17-9.29-9.29-9.29c-5.12,0-9.29,4.17-9.29,9.29c0,5.12,4.17,9.29,9.29,9.29
			C1424.54,937.61,1428.71,933.45,1428.71,928.32z"/>
		<path class="st1" d="M1428.71,999.03c0-5.12-4.17-9.29-9.29-9.29c-5.12,0-9.29,4.17-9.29,9.29c0,5.12,4.17,9.29,9.29,9.29
			C1424.54,1008.32,1428.71,1004.15,1428.71,999.03z"/>
		<path class="st1" d="M1499.41,1140.25c0-5.12-4.17-9.29-9.29-9.29c-5.12,0-9.29,4.17-9.29,9.29c0,5.12,4.17,9.29,9.29,9.29
			C1495.24,1149.54,1499.41,1145.38,1499.41,1140.25z"/>
		<path class="st1" d="M1428.71,1069.55c0-5.12-4.17-9.29-9.29-9.29c-5.12,0-9.29,4.17-9.29,9.29c0,5.12,4.17,9.29,9.29,9.29
			C1424.54,1078.84,1428.71,1074.67,1428.71,1069.55z"/>
		<path class="st1" d="M1428.71,1140.25c0-5.12-4.17-9.29-9.29-9.29c-5.12,0-9.29,4.17-9.29,9.29c0,5.12,4.17,9.29,9.29,9.29
			C1424.54,1149.54,1428.71,1145.38,1428.71,1140.25z"/>
		<path class="st1" d="M1499.41,1210.77c0-5.12-4.17-9.29-9.29-9.29c-5.12,0-9.29,4.17-9.29,9.29c0,5.12,4.17,9.29,9.29,9.29
			C1495.24,1220.06,1499.41,1215.9,1499.41,1210.77z"/>
		<path class="st1" d="M1499.41,1281.48c0-5.12-4.17-9.29-9.29-9.29c-5.12,0-9.29,4.17-9.29,9.29c0,5.12,4.17,9.29,9.29,9.29
			C1495.24,1290.77,1499.41,1286.6,1499.41,1281.48z"/>
		<path class="st1" d="M1428.71,1210.77c0-5.12-4.17-9.29-9.29-9.29c-5.12,0-9.29,4.17-9.29,9.29c0,5.12,4.17,9.29,9.29,9.29
			C1424.54,1220.06,1428.71,1215.9,1428.71,1210.77z"/>
		<path class="st1" d="M1428.71,1281.48c0-5.12-4.17-9.29-9.29-9.29c-5.12,0-9.29,4.17-9.29,9.29c0,5.12,4.17,9.29,9.29,9.29
			C1424.54,1290.77,1428.71,1286.6,1428.71,1281.48z"/>
		<path class="st1" d="M1358.05-201.48c0-5.12-4.17-9.29-9.29-9.29c-5.12,0-9.29,4.17-9.29,9.29c0,5.12,4.17,9.29,9.29,9.29
			C1353.88-192.19,1358.05-196.35,1358.05-201.48z"/>
		<path class="st1" d="M1358.05-130.77c0-5.12-4.17-9.29-9.29-9.29c-5.12,0-9.29,4.17-9.29,9.29c0,5.12,4.17,9.29,9.29,9.29
			C1353.88-121.48,1358.05-125.65,1358.05-130.77z"/>
		<path class="st1" d="M1287.34-130.77c0-5.12-4.17-9.29-9.29-9.29c-5.12,0-9.29,4.17-9.29,9.29c0,5.12,4.17,9.29,9.29,9.29
			C1283.18-121.48,1287.34-125.65,1287.34-130.77z"/>
		<path class="st1" d="M1358.05,10.45c0-5.12-4.17-9.29-9.29-9.29c-5.12,0-9.29,4.17-9.29,9.29c0,5.12,4.17,9.29,9.29,9.29
			C1353.88,19.74,1358.05,15.58,1358.05,10.45z"/>
		<path class="st1" d="M1287.34,10.45c0-5.12-4.17-9.29-9.29-9.29c-5.12,0-9.29,4.17-9.29,9.29c0,5.12,4.17,9.29,9.29,9.29
			C1283.18,19.74,1287.34,15.58,1287.34,10.45z"/>
		<path class="st1" d="M1358.05,80.97c0-5.12-4.17-9.29-9.29-9.29c-5.12,0-9.29,4.17-9.29,9.29c0,5.12,4.17,9.29,9.29,9.29
			C1353.88,90.26,1358.05,86.1,1358.05,80.97z"/>
		<path class="st1" d="M1358.05,151.68c0-5.12-4.17-9.29-9.29-9.29c-5.12,0-9.29,4.17-9.29,9.29c0,5.12,4.17,9.29,9.29,9.29
			C1353.88,160.97,1358.05,156.8,1358.05,151.68z"/>
		<path class="st1" d="M1287.34,80.97c0-5.12-4.17-9.29-9.29-9.29c-5.12,0-9.29,4.17-9.29,9.29c0,5.12,4.17,9.29,9.29,9.29
			C1283.18,90.26,1287.34,86.1,1287.34,80.97z"/>
		<path class="st1" d="M1287.34,151.68c0-5.12-4.17-9.29-9.29-9.29c-5.12,0-9.29,4.17-9.29,9.29c0,5.12,4.17,9.29,9.29,9.29
			C1283.18,160.97,1287.34,156.8,1287.34,151.68z"/>
		<path class="st1" d="M1287.34,222.2c0-5.12-4.17-9.29-9.29-9.29c-5.12,0-9.29,4.17-9.29,9.29c0,5.12,4.17,9.29,9.29,9.29
			C1283.18,231.49,1287.34,227.32,1287.34,222.2z"/>
		<path class="st1" d="M1287.34,292.9c0-5.12-4.17-9.29-9.29-9.29c-5.12,0-9.29,4.17-9.29,9.29c0,5.12,4.17,9.29,9.29,9.29
			C1283.18,302.19,1287.34,298.03,1287.34,292.9z"/>
		<path class="st1" d="M1358.05,434.13c0-5.12-4.17-9.29-9.29-9.29c-5.12,0-9.29,4.17-9.29,9.29s4.17,9.29,9.29,9.29
			C1353.88,443.42,1358.05,439.25,1358.05,434.13z"/>
		<path class="st1" d="M1287.34,363.42c0-5.12-4.17-9.29-9.29-9.29c-5.12,0-9.29,4.17-9.29,9.29c0,5.12,4.17,9.29,9.29,9.29
			C1283.18,372.71,1287.34,368.55,1287.34,363.42z"/>
		<path class="st1" d="M1358.05,504.65c0-5.12-4.17-9.29-9.29-9.29c-5.12,0-9.29,4.17-9.29,9.29c0,5.12,4.17,9.29,9.29,9.29
			C1353.88,513.94,1358.05,509.77,1358.05,504.65z"/>
		<path class="st1" d="M1358.05,575.35c0-5.12-4.17-9.29-9.29-9.29c-5.12,0-9.29,4.17-9.29,9.29c0,5.12,4.17,9.29,9.29,9.29
			C1353.88,584.64,1358.05,580.48,1358.05,575.35z"/>
		<path class="st1" d="M1287.34,504.65c0-5.12-4.17-9.29-9.29-9.29c-5.12,0-9.29,4.17-9.29,9.29c0,5.12,4.17,9.29,9.29,9.29
			C1283.18,513.94,1287.34,509.77,1287.34,504.65z"/>
		<path class="st1" d="M1287.34,575.35c0-5.12-4.17-9.29-9.29-9.29c-5.12,0-9.29,4.17-9.29,9.29c0,5.12,4.17,9.29,9.29,9.29
			C1283.18,584.64,1287.34,580.48,1287.34,575.35z"/>
		<path class="st1" d="M1358.05,645.87c0-5.12-4.17-9.29-9.29-9.29c-5.12,0-9.29,4.17-9.29,9.29c0,5.12,4.17,9.29,9.29,9.29
			C1353.88,655.16,1358.05,651,1358.05,645.87z"/>
		<path class="st1" d="M1358.05,716.58c0-5.12-4.17-9.29-9.29-9.29c-5.12,0-9.29,4.17-9.29,9.29c0,5.12,4.17,9.29,9.29,9.29
			C1353.88,725.87,1358.05,721.7,1358.05,716.58z"/>
		<path class="st1" d="M1287.34,645.87c0-5.12-4.17-9.29-9.29-9.29c-5.12,0-9.29,4.17-9.29,9.29c0,5.12,4.17,9.29,9.29,9.29
			C1283.18,655.16,1287.34,651,1287.34,645.87z"/>
		<path class="st1" d="M1287.34,716.58c0-5.12-4.17-9.29-9.29-9.29c-5.12,0-9.29,4.17-9.29,9.29c0,5.12,4.17,9.29,9.29,9.29
			C1283.18,725.87,1287.34,721.7,1287.34,716.58z"/>
		<path class="st1" d="M1358.05,857.8c0-5.12-4.17-9.29-9.29-9.29c-5.12,0-9.29,4.17-9.29,9.29c0,5.12,4.17,9.29,9.29,9.29
			C1353.88,867.09,1358.05,862.93,1358.05,857.8z"/>
		<path class="st1" d="M1287.34,787.1c0-5.12-4.17-9.29-9.29-9.29c-5.12,0-9.29,4.17-9.29,9.29c0,5.12,4.17,9.29,9.29,9.29
			C1283.18,796.39,1287.34,792.22,1287.34,787.1z"/>
		<path class="st1" d="M1287.34,857.8c0-5.12-4.17-9.29-9.29-9.29c-5.12,0-9.29,4.17-9.29,9.29c0,5.12,4.17,9.29,9.29,9.29
			C1283.18,867.09,1287.34,862.93,1287.34,857.8z"/>
		<path class="st1" d="M1358.05,928.32c0-5.12-4.17-9.29-9.29-9.29c-5.12,0-9.29,4.17-9.29,9.29c0,5.12,4.17,9.29,9.29,9.29
			C1353.88,937.61,1358.05,933.45,1358.05,928.32z"/>
		<path class="st1" d="M1358.05,999.03c0-5.12-4.17-9.29-9.29-9.29c-5.12,0-9.29,4.17-9.29,9.29c0,5.12,4.17,9.29,9.29,9.29
			C1353.88,1008.32,1358.05,1004.15,1358.05,999.03z"/>
		<path class="st1" d="M1287.34,928.32c0-5.12-4.17-9.29-9.29-9.29c-5.12,0-9.29,4.17-9.29,9.29c0,5.12,4.17,9.29,9.29,9.29
			C1283.18,937.61,1287.34,933.45,1287.34,928.32z"/>
		<path class="st1" d="M1287.34,999.03c0-5.12-4.17-9.29-9.29-9.29c-5.12,0-9.29,4.17-9.29,9.29c0,5.12,4.17,9.29,9.29,9.29
			C1283.18,1008.32,1287.34,1004.15,1287.34,999.03z"/>
		<path class="st1" d="M1358.05,1069.55c0-5.12-4.17-9.29-9.29-9.29c-5.12,0-9.29,4.17-9.29,9.29c0,5.12,4.17,9.29,9.29,9.29
			C1353.88,1078.84,1358.05,1074.67,1358.05,1069.55z"/>
		<path class="st1" d="M1358.05,1140.25c0-5.12-4.17-9.29-9.29-9.29c-5.12,0-9.29,4.17-9.29,9.29c0,5.12,4.17,9.29,9.29,9.29
			C1353.88,1149.54,1358.05,1145.38,1358.05,1140.25z"/>
		<path class="st1" d="M1287.34,1069.55c0-5.12-4.17-9.29-9.29-9.29c-5.12,0-9.29,4.17-9.29,9.29c0,5.12,4.17,9.29,9.29,9.29
			C1283.18,1078.84,1287.34,1074.67,1287.34,1069.55z"/>
		<path class="st1" d="M1287.34,1140.25c0-5.12-4.17-9.29-9.29-9.29c-5.12,0-9.29,4.17-9.29,9.29c0,5.12,4.17,9.29,9.29,9.29
			C1283.18,1149.54,1287.34,1145.38,1287.34,1140.25z"/>
		<path class="st1" d="M1358.05,1210.77c0-5.12-4.17-9.29-9.29-9.29c-5.12,0-9.29,4.17-9.29,9.29c0,5.12,4.17,9.29,9.29,9.29
			C1353.88,1220.06,1358.05,1215.9,1358.05,1210.77z"/>
		<path class="st1" d="M1287.34,1210.77c0-5.12-4.17-9.29-9.29-9.29c-5.12,0-9.29,4.17-9.29,9.29c0,5.12,4.17,9.29,9.29,9.29
			C1283.18,1220.06,1287.34,1215.9,1287.34,1210.77z"/>
		<path class="st1" d="M1216.69-201.48c0-5.12-4.17-9.29-9.29-9.29c-5.12,0-9.29,4.17-9.29,9.29c0,5.12,4.17,9.29,9.29,9.29
			C1212.52-192.19,1216.69-196.35,1216.69-201.48z"/>
		<path class="st1" d="M1216.69-130.77c0-5.12-4.17-9.29-9.29-9.29c-5.12,0-9.29,4.17-9.29,9.29c0,5.12,4.17,9.29,9.29,9.29
			C1212.52-121.48,1216.69-125.65,1216.69-130.77z"/>
		<path class="st1" d="M1145.98-201.48c0-5.12-4.17-9.29-9.29-9.29c-5.12,0-9.29,4.17-9.29,9.29c0,5.12,4.17,9.29,9.29,9.29
			C1141.82-192.19,1145.98-196.35,1145.98-201.48z"/>
		<path class="st1" d="M1145.98-130.77c0-5.12-4.17-9.29-9.29-9.29c-5.12,0-9.29,4.17-9.29,9.29c0,5.12,4.17,9.29,9.29,9.29
			C1141.82-121.48,1145.98-125.65,1145.98-130.77z"/>
		<path class="st1" d="M1216.69-60.25c0-5.12-4.17-9.29-9.29-9.29c-5.12,0-9.29,4.17-9.29,9.29c0,5.12,4.17,9.29,9.29,9.29
			C1212.52-50.96,1216.69-55.13,1216.69-60.25z"/>
		<path class="st1" d="M1216.69,10.45c0-5.12-4.17-9.29-9.29-9.29c-5.12,0-9.29,4.17-9.29,9.29c0,5.12,4.17,9.29,9.29,9.29
			C1212.52,19.74,1216.69,15.58,1216.69,10.45z"/>
		<path class="st1" d="M1145.98-60.25c0-5.12-4.17-9.29-9.29-9.29c-5.12,0-9.29,4.17-9.29,9.29c0,5.12,4.17,9.29,9.29,9.29
			C1141.82-50.96,1145.98-55.13,1145.98-60.25z"/>
		<path class="st1" d="M1145.98,10.45c0-5.12-4.17-9.29-9.29-9.29c-5.12,0-9.29,4.17-9.29,9.29c0,5.12,4.17,9.29,9.29,9.29
			C1141.82,19.74,1145.98,15.58,1145.98,10.45z"/>
		<path class="st1" d="M1216.69,80.97c0-5.12-4.17-9.29-9.29-9.29c-5.12,0-9.29,4.17-9.29,9.29c0,5.12,4.17,9.29,9.29,9.29
			C1212.52,90.26,1216.69,86.1,1216.69,80.97z"/>
		<path class="st1" d="M1216.69,151.68c0-5.12-4.17-9.29-9.29-9.29c-5.12,0-9.29,4.17-9.29,9.29c0,5.12,4.17,9.29,9.29,9.29
			C1212.52,160.97,1216.69,156.8,1216.69,151.68z"/>
		<path class="st1" d="M1145.98,80.97c0-5.12-4.17-9.29-9.29-9.29c-5.12,0-9.29,4.17-9.29,9.29c0,5.12,4.17,9.29,9.29,9.29
			C1141.82,90.26,1145.98,86.1,1145.98,80.97z"/>
		<path class="st1" d="M1145.98,151.68c0-5.12-4.17-9.29-9.29-9.29c-5.12,0-9.29,4.17-9.29,9.29c0,5.12,4.17,9.29,9.29,9.29
			C1141.82,160.97,1145.98,156.8,1145.98,151.68z"/>
		<path class="st1" d="M1216.69,222.2c0-5.12-4.17-9.29-9.29-9.29c-5.12,0-9.29,4.17-9.29,9.29c0,5.12,4.17,9.29,9.29,9.29
			C1212.52,231.49,1216.69,227.32,1216.69,222.2z"/>
		<path class="st1" d="M1145.98,222.2c0-5.12-4.17-9.29-9.29-9.29c-5.12,0-9.29,4.17-9.29,9.29c0,5.12,4.17,9.29,9.29,9.29
			C1141.82,231.49,1145.98,227.32,1145.98,222.2z"/>
		<path class="st1" d="M1216.69,363.42c0-5.12-4.17-9.29-9.29-9.29c-5.12,0-9.29,4.17-9.29,9.29c0,5.12,4.17,9.29,9.29,9.29
			C1212.52,372.71,1216.69,368.55,1216.69,363.42z"/>
		<path class="st1" d="M1216.69,434.13c0-5.12-4.17-9.29-9.29-9.29c-5.12,0-9.29,4.17-9.29,9.29s4.17,9.29,9.29,9.29
			C1212.52,443.42,1216.69,439.25,1216.69,434.13z"/>
		<path class="st1" d="M1145.98,363.42c0-5.12-4.17-9.29-9.29-9.29c-5.12,0-9.29,4.17-9.29,9.29c0,5.12,4.17,9.29,9.29,9.29
			C1141.82,372.71,1145.98,368.55,1145.98,363.42z"/>
		<path class="st1" d="M1145.98,434.13c0-5.12-4.17-9.29-9.29-9.29c-5.12,0-9.29,4.17-9.29,9.29s4.17,9.29,9.29,9.29
			C1141.82,443.42,1145.98,439.25,1145.98,434.13z"/>
		<path class="st1" d="M1216.69,575.35c0-5.12-4.17-9.29-9.29-9.29c-5.12,0-9.29,4.17-9.29,9.29c0,5.12,4.17,9.29,9.29,9.29
			C1212.52,584.64,1216.69,580.48,1216.69,575.35z"/>
		<path class="st1" d="M1145.98,504.65c0-5.12-4.17-9.29-9.29-9.29c-5.12,0-9.29,4.17-9.29,9.29c0,5.12,4.17,9.29,9.29,9.29
			C1141.82,513.94,1145.98,509.77,1145.98,504.65z"/>
		<path class="st1" d="M1145.98,575.35c0-5.12-4.17-9.29-9.29-9.29c-5.12,0-9.29,4.17-9.29,9.29c0,5.12,4.17,9.29,9.29,9.29
			C1141.82,584.64,1145.98,580.48,1145.98,575.35z"/>
		<path class="st1" d="M1216.69,645.87c0-5.12-4.17-9.29-9.29-9.29c-5.12,0-9.29,4.17-9.29,9.29c0,5.12,4.17,9.29,9.29,9.29
			C1212.52,655.16,1216.69,651,1216.69,645.87z"/>
		<circle class="st1" cx="1207.4" cy="716.58" r="9.29"/>
		<path class="st1" d="M1145.98,645.87c0-5.12-4.17-9.29-9.29-9.29c-5.12,0-9.29,4.17-9.29,9.29c0,5.12,4.17,9.29,9.29,9.29
			C1141.82,655.16,1145.98,651,1145.98,645.87z"/>
		<circle class="st1" cx="1136.69" cy="716.58" r="9.29"/>
		<path class="st1" d="M1216.69,787.1c0-5.12-4.17-9.29-9.29-9.29c-5.12,0-9.29,4.17-9.29,9.29c0,5.12,4.17,9.29,9.29,9.29
			C1212.52,796.39,1216.69,792.22,1216.69,787.1z"/>
		
			<ellipse transform="matrix(0.7071 -0.7071 0.7071 0.7071 -252.92 1105.0032)" class="st1" cx="1207.4" cy="857.8" rx="9.29" ry="9.29"/>
		<path class="st1" d="M1145.98,787.1c0-5.12-4.17-9.29-9.29-9.29c-5.12,0-9.29,4.17-9.29,9.29c0,5.12,4.17,9.29,9.29,9.29
			C1141.82,796.39,1145.98,792.22,1145.98,787.1z"/>
		<path class="st1" d="M1216.69,928.32c0-5.12-4.17-9.29-9.29-9.29c-5.12,0-9.29,4.17-9.29,9.29c0,5.12,4.17,9.29,9.29,9.29
			C1212.52,937.61,1216.69,933.45,1216.69,928.32z"/>
		<path class="st1" d="M1216.69,999.03c0-5.12-4.17-9.29-9.29-9.29c-5.12,0-9.29,4.17-9.29,9.29c0,5.12,4.17,9.29,9.29,9.29
			C1212.52,1008.32,1216.69,1004.15,1216.69,999.03z"/>
		<path class="st1" d="M1145.98,999.03c0-5.12-4.17-9.29-9.29-9.29c-5.12,0-9.29,4.17-9.29,9.29c0,5.12,4.17,9.29,9.29,9.29
			C1141.82,1008.32,1145.98,1004.15,1145.98,999.03z"/>
		<path class="st1" d="M1216.69,1069.55c0-5.12-4.17-9.29-9.29-9.29c-5.12,0-9.29,4.17-9.29,9.29c0,5.12,4.17,9.29,9.29,9.29
			C1212.52,1078.84,1216.69,1074.67,1216.69,1069.55z"/>
		<path class="st1" d="M1216.69,1140.25c0-5.12-4.17-9.29-9.29-9.29c-5.12,0-9.29,4.17-9.29,9.29c0,5.12,4.17,9.29,9.29,9.29
			C1212.52,1149.54,1216.69,1145.38,1216.69,1140.25z"/>
		<path class="st1" d="M1145.98,1069.55c0-5.12-4.17-9.29-9.29-9.29c-5.12,0-9.29,4.17-9.29,9.29c0,5.12,4.17,9.29,9.29,9.29
			C1141.82,1078.84,1145.98,1074.67,1145.98,1069.55z"/>
		<path class="st1" d="M1145.98,1140.25c0-5.12-4.17-9.29-9.29-9.29c-5.12,0-9.29,4.17-9.29,9.29c0,5.12,4.17,9.29,9.29,9.29
			C1141.82,1149.54,1145.98,1145.38,1145.98,1140.25z"/>
		<path class="st1" d="M1216.69,1210.77c0-5.12-4.17-9.29-9.29-9.29c-5.12,0-9.29,4.17-9.29,9.29c0,5.12,4.17,9.29,9.29,9.29
			C1212.52,1220.06,1216.69,1215.9,1216.69,1210.77z"/>
		<path class="st1" d="M1216.69,1281.48c0-5.12-4.17-9.29-9.29-9.29c-5.12,0-9.29,4.17-9.29,9.29c0,5.12,4.17,9.29,9.29,9.29
			C1212.52,1290.77,1216.69,1286.6,1216.69,1281.48z"/>
		<path class="st1" d="M1145.98,1210.77c0-5.12-4.17-9.29-9.29-9.29c-5.12,0-9.29,4.17-9.29,9.29c0,5.12,4.17,9.29,9.29,9.29
			C1141.82,1220.06,1145.98,1215.9,1145.98,1210.77z"/>
		<path class="st1" d="M1145.98,1281.48c0-5.12-4.17-9.29-9.29-9.29c-5.12,0-9.29,4.17-9.29,9.29c0,5.12,4.17,9.29,9.29,9.29
			C1141.82,1290.77,1145.98,1286.6,1145.98,1281.48z"/>
		<path class="st1" d="M1075.33-201.48c0-5.12-4.17-9.29-9.29-9.29c-5.12,0-9.29,4.17-9.29,9.29c0,5.12,4.17,9.29,9.29,9.29
			C1071.16-192.19,1075.33-196.35,1075.33-201.48z"/>
		<path class="st1" d="M1075.33-130.77c0-5.12-4.17-9.29-9.29-9.29c-5.12,0-9.29,4.17-9.29,9.29c0,5.12,4.17,9.29,9.29,9.29
			C1071.16-121.48,1075.33-125.65,1075.33-130.77z"/>
		<path class="st1" d="M1004.62-130.77c0-5.12-4.17-9.29-9.29-9.29c-5.12,0-9.29,4.17-9.29,9.29c0,5.12,4.17,9.29,9.29,9.29
			C1000.45-121.48,1004.62-125.65,1004.62-130.77z"/>
		<path class="st1" d="M1075.33-60.25c0-5.12-4.17-9.29-9.29-9.29c-5.12,0-9.29,4.17-9.29,9.29c0,5.12,4.17,9.29,9.29,9.29
			C1071.16-50.96,1075.33-55.13,1075.33-60.25z"/>
		<path class="st1" d="M1075.33,10.45c0-5.12-4.17-9.29-9.29-9.29c-5.12,0-9.29,4.17-9.29,9.29c0,5.12,4.17,9.29,9.29,9.29
			C1071.16,19.74,1075.33,15.58,1075.33,10.45z"/>
		<path class="st1" d="M1004.62-60.25c0-5.12-4.17-9.29-9.29-9.29c-5.12,0-9.29,4.17-9.29,9.29c0,5.12,4.17,9.29,9.29,9.29
			C1000.45-50.96,1004.62-55.13,1004.62-60.25z"/>
		<path class="st1" d="M1004.62,10.45c0-5.12-4.17-9.29-9.29-9.29c-5.12,0-9.29,4.17-9.29,9.29c0,5.12,4.17,9.29,9.29,9.29
			C1000.45,19.74,1004.62,15.58,1004.62,10.45z"/>
		<path class="st1" d="M1075.33,80.97c0-5.12-4.17-9.29-9.29-9.29c-5.12,0-9.29,4.17-9.29,9.29c0,5.12,4.17,9.29,9.29,9.29
			C1071.16,90.26,1075.33,86.1,1075.33,80.97z"/>
		<path class="st1" d="M1075.33,151.68c0-5.12-4.17-9.29-9.29-9.29c-5.12,0-9.29,4.17-9.29,9.29c0,5.12,4.17,9.29,9.29,9.29
			C1071.16,160.97,1075.33,156.8,1075.33,151.68z"/>
		<path class="st1" d="M1004.62,80.97c0-5.12-4.17-9.29-9.29-9.29c-5.12,0-9.29,4.17-9.29,9.29c0,5.12,4.17,9.29,9.29,9.29
			C1000.45,90.26,1004.62,86.1,1004.62,80.97z"/>
		<path class="st1" d="M1004.62,151.68c0-5.12-4.17-9.29-9.29-9.29c-5.12,0-9.29,4.17-9.29,9.29c0,5.12,4.17,9.29,9.29,9.29
			C1000.45,160.97,1004.62,156.8,1004.62,151.68z"/>
		<path class="st1" d="M1075.33,222.2c0-5.12-4.17-9.29-9.29-9.29c-5.12,0-9.29,4.17-9.29,9.29c0,5.12,4.17,9.29,9.29,9.29
			C1071.16,231.49,1075.33,227.32,1075.33,222.2z"/>
		<path class="st1" d="M1075.33,292.9c0-5.12-4.17-9.29-9.29-9.29c-5.12,0-9.29,4.17-9.29,9.29c0,5.12,4.17,9.29,9.29,9.29
			C1071.16,302.19,1075.33,298.03,1075.33,292.9z"/>
		<path class="st1" d="M1004.62,222.2c0-5.12-4.17-9.29-9.29-9.29c-5.12,0-9.29,4.17-9.29,9.29c0,5.12,4.17,9.29,9.29,9.29
			C1000.45,231.49,1004.62,227.32,1004.62,222.2z"/>
		<path class="st1" d="M1004.62,292.9c0-5.12-4.17-9.29-9.29-9.29c-5.12,0-9.29,4.17-9.29,9.29c0,5.12,4.17,9.29,9.29,9.29
			C1000.45,302.19,1004.62,298.03,1004.62,292.9z"/>
		<path class="st1" d="M1075.33,363.42c0-5.12-4.17-9.29-9.29-9.29c-5.12,0-9.29,4.17-9.29,9.29c0,5.12,4.17,9.29,9.29,9.29
			C1071.16,372.71,1075.33,368.55,1075.33,363.42z"/>
		<path class="st1" d="M1075.33,434.13c0-5.12-4.17-9.29-9.29-9.29c-5.12,0-9.29,4.17-9.29,9.29s4.17,9.29,9.29,9.29
			C1071.16,443.42,1075.33,439.25,1075.33,434.13z"/>
		<path class="st1" d="M1004.62,363.42c0-5.12-4.17-9.29-9.29-9.29c-5.12,0-9.29,4.17-9.29,9.29c0,5.12,4.17,9.29,9.29,9.29
			C1000.45,372.71,1004.62,368.55,1004.62,363.42z"/>
		<path class="st1" d="M1004.62,434.13c0-5.12-4.17-9.29-9.29-9.29c-5.12,0-9.29,4.17-9.29,9.29s4.17,9.29,9.29,9.29
			C1000.45,443.42,1004.62,439.25,1004.62,434.13z"/>
		<path class="st1" d="M1075.33,504.65c0-5.12-4.17-9.29-9.29-9.29c-5.12,0-9.29,4.17-9.29,9.29c0,5.12,4.17,9.29,9.29,9.29
			C1071.16,513.94,1075.33,509.77,1075.33,504.65z"/>
		<path class="st1" d="M1075.33,575.35c0-5.12-4.17-9.29-9.29-9.29c-5.12,0-9.29,4.17-9.29,9.29c0,5.12,4.17,9.29,9.29,9.29
			C1071.16,584.64,1075.33,580.48,1075.33,575.35z"/>
		<path class="st1" d="M1004.62,504.65c0-5.12-4.17-9.29-9.29-9.29c-5.12,0-9.29,4.17-9.29,9.29c0,5.12,4.17,9.29,9.29,9.29
			C1000.45,513.94,1004.62,509.77,1004.62,504.65z"/>
		<path class="st1" d="M1075.33,645.87c0-5.12-4.17-9.29-9.29-9.29c-5.12,0-9.29,4.17-9.29,9.29c0,5.12,4.17,9.29,9.29,9.29
			C1071.16,655.16,1075.33,651,1075.33,645.87z"/>
		<path class="st1" d="M1004.62,645.87c0-5.12-4.17-9.29-9.29-9.29c-5.12,0-9.29,4.17-9.29,9.29c0,5.12,4.17,9.29,9.29,9.29
			C1000.45,655.16,1004.62,651,1004.62,645.87z"/>
		<circle class="st1" cx="995.33" cy="716.58" r="9.29"/>
		<path class="st1" d="M1075.33,787.1c0-5.12-4.17-9.29-9.29-9.29c-5.12,0-9.29,4.17-9.29,9.29c0,5.12,4.17,9.29,9.29,9.29
			C1071.16,796.39,1075.33,792.22,1075.33,787.1z"/>
		
			<ellipse transform="matrix(0.3827 -0.9239 0.9239 0.3827 -134.4261 1514.423)" class="st1" cx="1066.03" cy="857.8" rx="9.29" ry="9.29"/>
		<path class="st1" d="M1004.62,787.1c0-5.12-4.17-9.29-9.29-9.29c-5.12,0-9.29,4.17-9.29,9.29c0,5.12,4.17,9.29,9.29,9.29
			C1000.45,796.39,1004.62,792.22,1004.62,787.1z"/>
		
			<ellipse transform="matrix(0.3827 -0.9239 0.9239 0.3827 -178.0738 1449.0995)" class="st1" cx="995.33" cy="857.8" rx="9.29" ry="9.29"/>
		<path class="st1" d="M1075.33,999.03c0-5.12-4.17-9.29-9.29-9.29c-5.12,0-9.29,4.17-9.29,9.29c0,5.12,4.17,9.29,9.29,9.29
			C1071.16,1008.32,1075.33,1004.15,1075.33,999.03z"/>
		<path class="st1" d="M1004.62,928.32c0-5.12-4.17-9.29-9.29-9.29c-5.12,0-9.29,4.17-9.29,9.29c0,5.12,4.17,9.29,9.29,9.29
			C1000.45,937.61,1004.62,933.45,1004.62,928.32z"/>
		<path class="st1" d="M1004.62,999.03c0-5.12-4.17-9.29-9.29-9.29c-5.12,0-9.29,4.17-9.29,9.29c0,5.12,4.17,9.29,9.29,9.29
			C1000.45,1008.32,1004.62,1004.15,1004.62,999.03z"/>
		<path class="st1" d="M1075.33,1069.55c0-5.12-4.17-9.29-9.29-9.29c-5.12,0-9.29,4.17-9.29,9.29c0,5.12,4.17,9.29,9.29,9.29
			C1071.16,1078.84,1075.33,1074.67,1075.33,1069.55z"/>
		<path class="st1" d="M1075.33,1140.25c0-5.12-4.17-9.29-9.29-9.29c-5.12,0-9.29,4.17-9.29,9.29c0,5.12,4.17,9.29,9.29,9.29
			C1071.16,1149.54,1075.33,1145.38,1075.33,1140.25z"/>
		<path class="st1" d="M1004.62,1069.55c0-5.12-4.17-9.29-9.29-9.29c-5.12,0-9.29,4.17-9.29,9.29c0,5.12,4.17,9.29,9.29,9.29
			C1000.45,1078.84,1004.62,1074.67,1004.62,1069.55z"/>
		<path class="st1" d="M1004.62,1140.25c0-5.12-4.17-9.29-9.29-9.29c-5.12,0-9.29,4.17-9.29,9.29c0,5.12,4.17,9.29,9.29,9.29
			C1000.45,1149.54,1004.62,1145.38,1004.62,1140.25z"/>
		<path class="st1" d="M1075.33,1210.77c0-5.12-4.17-9.29-9.29-9.29c-5.12,0-9.29,4.17-9.29,9.29c0,5.12,4.17,9.29,9.29,9.29
			C1071.16,1220.06,1075.33,1215.9,1075.33,1210.77z"/>
		<path class="st1" d="M1075.33,1281.48c0-5.12-4.17-9.29-9.29-9.29c-5.12,0-9.29,4.17-9.29,9.29c0,5.12,4.17,9.29,9.29,9.29
			C1071.16,1290.77,1075.33,1286.6,1075.33,1281.48z"/>
		<path class="st1" d="M1004.62,1210.77c0-5.12-4.17-9.29-9.29-9.29c-5.12,0-9.29,4.17-9.29,9.29c0,5.12,4.17,9.29,9.29,9.29
			C1000.45,1220.06,1004.62,1215.9,1004.62,1210.77z"/>
		<path class="st1" d="M1004.62,1281.48c0-5.12-4.17-9.29-9.29-9.29c-5.12,0-9.29,4.17-9.29,9.29c0,5.12,4.17,9.29,9.29,9.29
			C1000.45,1290.77,1004.62,1286.6,1004.62,1281.48z"/>
		<path class="st1" d="M933.96-201.48c0-5.12-4.17-9.29-9.29-9.29c-5.12,0-9.29,4.17-9.29,9.29c0,5.12,4.17,9.29,9.29,9.29
			C929.79-192.19,933.96-196.35,933.96-201.48z"/>
		<path class="st1" d="M933.96-130.77c0-5.12-4.17-9.29-9.29-9.29c-5.12,0-9.29,4.17-9.29,9.29c0,5.12,4.17,9.29,9.29,9.29
			C929.79-121.48,933.96-125.65,933.96-130.77z"/>
		<path class="st1" d="M863.26-201.48c0-5.12-4.17-9.29-9.29-9.29c-5.12,0-9.29,4.17-9.29,9.29c0,5.12,4.17,9.29,9.29,9.29
			C859.09-192.19,863.26-196.35,863.26-201.48z"/>
		<path class="st1" d="M863.26-130.77c0-5.12-4.17-9.29-9.29-9.29c-5.12,0-9.29,4.17-9.29,9.29c0,5.12,4.17,9.29,9.29,9.29
			C859.09-121.48,863.26-125.65,863.26-130.77z"/>
		<path class="st1" d="M933.96-60.25c0-5.12-4.17-9.29-9.29-9.29c-5.12,0-9.29,4.17-9.29,9.29c0,5.12,4.17,9.29,9.29,9.29
			C929.79-50.96,933.96-55.13,933.96-60.25z"/>
		<path class="st1" d="M933.96,80.97c0-5.12-4.17-9.29-9.29-9.29c-5.12,0-9.29,4.17-9.29,9.29c0,5.12,4.17,9.29,9.29,9.29
			C929.79,90.26,933.96,86.1,933.96,80.97z"/>
		<path class="st1" d="M933.96,151.68c0-5.12-4.17-9.29-9.29-9.29c-5.12,0-9.29,4.17-9.29,9.29c0,5.12,4.17,9.29,9.29,9.29
			C929.79,160.97,933.96,156.8,933.96,151.68z"/>
		<path class="st1" d="M863.26,80.97c0-5.12-4.17-9.29-9.29-9.29c-5.12,0-9.29,4.17-9.29,9.29c0,5.12,4.17,9.29,9.29,9.29
			C859.09,90.26,863.26,86.1,863.26,80.97z"/>
		<path class="st1" d="M863.26,151.68c0-5.12-4.17-9.29-9.29-9.29c-5.12,0-9.29,4.17-9.29,9.29c0,5.12,4.17,9.29,9.29,9.29
			C859.09,160.97,863.26,156.8,863.26,151.68z"/>
		<path class="st1" d="M933.96,222.2c0-5.12-4.17-9.29-9.29-9.29c-5.12,0-9.29,4.17-9.29,9.29c0,5.12,4.17,9.29,9.29,9.29
			C929.79,231.49,933.96,227.32,933.96,222.2z"/>
		<path class="st1" d="M863.26,222.2c0-5.12-4.17-9.29-9.29-9.29c-5.12,0-9.29,4.17-9.29,9.29c0,5.12,4.17,9.29,9.29,9.29
			C859.09,231.49,863.26,227.32,863.26,222.2z"/>
		<path class="st1" d="M863.26,292.9c0-5.12-4.17-9.29-9.29-9.29c-5.12,0-9.29,4.17-9.29,9.29c0,5.12,4.17,9.29,9.29,9.29
			C859.09,302.19,863.26,298.03,863.26,292.9z"/>
		<path class="st1" d="M933.96,434.13c0-5.12-4.17-9.29-9.29-9.29c-5.12,0-9.29,4.17-9.29,9.29s4.17,9.29,9.29,9.29
			C929.79,443.42,933.96,439.25,933.96,434.13z"/>
		<path class="st1" d="M863.26,363.42c0-5.12-4.17-9.29-9.29-9.29c-5.12,0-9.29,4.17-9.29,9.29c0,5.12,4.17,9.29,9.29,9.29
			C859.09,372.71,863.26,368.55,863.26,363.42z"/>
		<path class="st1" d="M863.26,434.13c0-5.12-4.17-9.29-9.29-9.29c-5.12,0-9.29,4.17-9.29,9.29s4.17,9.29,9.29,9.29
			C859.09,443.42,863.26,439.25,863.26,434.13z"/>
		<path class="st1" d="M933.96,504.65c0-5.12-4.17-9.29-9.29-9.29c-5.12,0-9.29,4.17-9.29,9.29c0,5.12,4.17,9.29,9.29,9.29
			C929.79,513.94,933.96,509.77,933.96,504.65z"/>
		<path class="st1" d="M933.96,575.35c0-5.12-4.17-9.29-9.29-9.29c-5.12,0-9.29,4.17-9.29,9.29c0,5.12,4.17,9.29,9.29,9.29
			C929.79,584.64,933.96,580.48,933.96,575.35z"/>
		<path class="st1" d="M863.26,504.65c0-5.12-4.17-9.29-9.29-9.29c-5.12,0-9.29,4.17-9.29,9.29c0,5.12,4.17,9.29,9.29,9.29
			C859.09,513.94,863.26,509.77,863.26,504.65z"/>
		<path class="st1" d="M863.26,575.35c0-5.12-4.17-9.29-9.29-9.29c-5.12,0-9.29,4.17-9.29,9.29c0,5.12,4.17,9.29,9.29,9.29
			C859.09,584.64,863.26,580.48,863.26,575.35z"/>
		<path class="st1" d="M933.96,645.87c0-5.12-4.17-9.29-9.29-9.29c-5.12,0-9.29,4.17-9.29,9.29c0,5.12,4.17,9.29,9.29,9.29
			C929.79,655.16,933.96,651,933.96,645.87z"/>
		<path class="st1" d="M933.96,716.58c0-5.12-4.17-9.29-9.29-9.29c-5.12,0-9.29,4.17-9.29,9.29c0,5.12,4.17,9.29,9.29,9.29
			C929.79,725.87,933.96,721.7,933.96,716.58z"/>
		<path class="st1" d="M863.26,645.87c0-5.12-4.17-9.29-9.29-9.29c-5.12,0-9.29,4.17-9.29,9.29c0,5.12,4.17,9.29,9.29,9.29
			C859.09,655.16,863.26,651,863.26,645.87z"/>
		<circle class="st1" cx="853.97" cy="716.58" r="9.29"/>
		<path class="st1" d="M933.96,787.1c0-5.12-4.17-9.29-9.29-9.29c-5.12,0-9.29,4.17-9.29,9.29c0,5.12,4.17,9.29,9.29,9.29
			C929.79,796.39,933.96,792.22,933.96,787.1z"/>
		<path class="st1" d="M933.96,857.8c0-5.12-4.17-9.29-9.29-9.29c-5.12,0-9.29,4.17-9.29,9.29c0,5.12,4.17,9.29,9.29,9.29
			C929.79,867.09,933.96,862.93,933.96,857.8z"/>
		<path class="st1" d="M863.26,787.1c0-5.12-4.17-9.29-9.29-9.29c-5.12,0-9.29,4.17-9.29,9.29c0,5.12,4.17,9.29,9.29,9.29
			C859.09,796.39,863.26,792.22,863.26,787.1z"/>
		
			<ellipse transform="matrix(0.9732 -0.2298 0.2298 0.9732 -174.2388 219.1494)" class="st1" cx="853.97" cy="857.8" rx="9.29" ry="9.29"/>
		<path class="st1" d="M933.96,928.32c0-5.12-4.17-9.29-9.29-9.29c-5.12,0-9.29,4.17-9.29,9.29c0,5.12,4.17,9.29,9.29,9.29
			C929.79,937.61,933.96,933.45,933.96,928.32z"/>
		<path class="st1" d="M933.96,999.03c0-5.12-4.17-9.29-9.29-9.29c-5.12,0-9.29,4.17-9.29,9.29c0,5.12,4.17,9.29,9.29,9.29
			C929.79,1008.32,933.96,1004.15,933.96,999.03z"/>
		<path class="st1" d="M863.26,928.32c0-5.12-4.17-9.29-9.29-9.29c-5.12,0-9.29,4.17-9.29,9.29c0,5.12,4.17,9.29,9.29,9.29
			C859.09,937.61,863.26,933.45,863.26,928.32z"/>
		<path class="st1" d="M863.26,999.03c0-5.12-4.17-9.29-9.29-9.29c-5.12,0-9.29,4.17-9.29,9.29c0,5.12,4.17,9.29,9.29,9.29
			C859.09,1008.32,863.26,1004.15,863.26,999.03z"/>
		<path class="st1" d="M933.96,1069.55c0-5.12-4.17-9.29-9.29-9.29c-5.12,0-9.29,4.17-9.29,9.29c0,5.12,4.17,9.29,9.29,9.29
			C929.79,1078.84,933.96,1074.67,933.96,1069.55z"/>
		<path class="st1" d="M863.26,1069.55c0-5.12-4.17-9.29-9.29-9.29c-5.12,0-9.29,4.17-9.29,9.29c0,5.12,4.17,9.29,9.29,9.29
			C859.09,1078.84,863.26,1074.67,863.26,1069.55z"/>
		<path class="st1" d="M863.26,1140.25c0-5.12-4.17-9.29-9.29-9.29c-5.12,0-9.29,4.17-9.29,9.29c0,5.12,4.17,9.29,9.29,9.29
			C859.09,1149.54,863.26,1145.38,863.26,1140.25z"/>
		<path class="st1" d="M933.96,1210.77c0-5.12-4.17-9.29-9.29-9.29c-5.12,0-9.29,4.17-9.29,9.29c0,5.12,4.17,9.29,9.29,9.29
			C929.79,1220.06,933.96,1215.9,933.96,1210.77z"/>
		<path class="st1" d="M933.96,1281.48c0-5.12-4.17-9.29-9.29-9.29c-5.12,0-9.29,4.17-9.29,9.29c0,5.12,4.17,9.29,9.29,9.29
			C929.79,1290.77,933.96,1286.6,933.96,1281.48z"/>
		<path class="st1" d="M863.26,1210.77c0-5.12-4.17-9.29-9.29-9.29c-5.12,0-9.29,4.17-9.29,9.29c0,5.12,4.17,9.29,9.29,9.29
			C859.09,1220.06,863.26,1215.9,863.26,1210.77z"/>
		<path class="st1" d="M863.26,1281.48c0-5.12-4.17-9.29-9.29-9.29c-5.12,0-9.29,4.17-9.29,9.29c0,5.12,4.17,9.29,9.29,9.29
			C859.09,1290.77,863.26,1286.6,863.26,1281.48z"/>
		<path class="st1" d="M792.6-201.48c0-5.12-4.17-9.29-9.29-9.29c-5.12,0-9.29,4.17-9.29,9.29c0,5.12,4.17,9.29,9.29,9.29
			C788.43-192.19,792.6-196.35,792.6-201.48z"/>
		<path class="st1" d="M792.6-130.77c0-5.12-4.17-9.29-9.29-9.29c-5.12,0-9.29,4.17-9.29,9.29c0,5.12,4.17,9.29,9.29,9.29
			C788.43-121.48,792.6-125.65,792.6-130.77z"/>
		<path class="st1" d="M721.89-130.77c0-5.12-4.17-9.29-9.29-9.29c-5.12,0-9.29,4.17-9.29,9.29c0,5.12,4.17,9.29,9.29,9.29
			C717.73-121.48,721.89-125.65,721.89-130.77z"/>
		<path class="st1" d="M792.6-60.25c0-5.12-4.17-9.29-9.29-9.29c-5.12,0-9.29,4.17-9.29,9.29c0,5.12,4.17,9.29,9.29,9.29
			C788.43-50.96,792.6-55.13,792.6-60.25z"/>
		<path class="st1" d="M721.89-60.25c0-5.12-4.17-9.29-9.29-9.29c-5.12,0-9.29,4.17-9.29,9.29c0,5.12,4.17,9.29,9.29,9.29
			C717.73-50.96,721.89-55.13,721.89-60.25z"/>
		<path class="st1" d="M721.89,10.45c0-5.12-4.17-9.29-9.29-9.29c-5.12,0-9.29,4.17-9.29,9.29c0,5.12,4.17,9.29,9.29,9.29
			C717.73,19.74,721.89,15.58,721.89,10.45z"/>
		<path class="st1" d="M792.6,151.68c0-5.12-4.17-9.29-9.29-9.29c-5.12,0-9.29,4.17-9.29,9.29c0,5.12,4.17,9.29,9.29,9.29
			C788.43,160.97,792.6,156.8,792.6,151.68z"/>
		<path class="st1" d="M721.89,80.97c0-5.12-4.17-9.29-9.29-9.29c-5.12,0-9.29,4.17-9.29,9.29c0,5.12,4.17,9.29,9.29,9.29
			C717.73,90.26,721.89,86.1,721.89,80.97z"/>
		<path class="st1" d="M721.89,151.68c0-5.12-4.17-9.29-9.29-9.29c-5.12,0-9.29,4.17-9.29,9.29c0,5.12,4.17,9.29,9.29,9.29
			C717.73,160.97,721.89,156.8,721.89,151.68z"/>
		<path class="st1" d="M792.6,222.2c0-5.12-4.17-9.29-9.29-9.29c-5.12,0-9.29,4.17-9.29,9.29c0,5.12,4.17,9.29,9.29,9.29
			C788.43,231.49,792.6,227.32,792.6,222.2z"/>
		<path class="st1" d="M792.6,292.9c0-5.12-4.17-9.29-9.29-9.29c-5.12,0-9.29,4.17-9.29,9.29c0,5.12,4.17,9.29,9.29,9.29
			C788.43,302.19,792.6,298.03,792.6,292.9z"/>
		<path class="st1" d="M721.89,222.2c0-5.12-4.17-9.29-9.29-9.29c-5.12,0-9.29,4.17-9.29,9.29c0,5.12,4.17,9.29,9.29,9.29
			C717.73,231.49,721.89,227.32,721.89,222.2z"/>
		<path class="st1" d="M721.89,292.9c0-5.12-4.17-9.29-9.29-9.29c-5.12,0-9.29,4.17-9.29,9.29c0,5.12,4.17,9.29,9.29,9.29
			C717.73,302.19,721.89,298.03,721.89,292.9z"/>
		<path class="st1" d="M792.6,363.42c0-5.12-4.17-9.29-9.29-9.29c-5.12,0-9.29,4.17-9.29,9.29c0,5.12,4.17,9.29,9.29,9.29
			C788.43,372.71,792.6,368.55,792.6,363.42z"/>
		<path class="st1" d="M792.6,434.13c0-5.12-4.17-9.29-9.29-9.29c-5.12,0-9.29,4.17-9.29,9.29s4.17,9.29,9.29,9.29
			C788.43,443.42,792.6,439.25,792.6,434.13z"/>
		<path class="st1" d="M721.89,363.42c0-5.12-4.17-9.29-9.29-9.29c-5.12,0-9.29,4.17-9.29,9.29c0,5.12,4.17,9.29,9.29,9.29
			C717.73,372.71,721.89,368.55,721.89,363.42z"/>
		<path class="st1" d="M721.89,434.13c0-5.12-4.17-9.29-9.29-9.29c-5.12,0-9.29,4.17-9.29,9.29s4.17,9.29,9.29,9.29
			C717.73,443.42,721.89,439.25,721.89,434.13z"/>
		<path class="st1" d="M792.6,504.65c0-5.12-4.17-9.29-9.29-9.29c-5.12,0-9.29,4.17-9.29,9.29c0,5.12,4.17,9.29,9.29,9.29
			C788.43,513.94,792.6,509.77,792.6,504.65z"/>
		<path class="st1" d="M792.6,575.35c0-5.12-4.17-9.29-9.29-9.29c-5.12,0-9.29,4.17-9.29,9.29c0,5.12,4.17,9.29,9.29,9.29
			C788.43,584.64,792.6,580.48,792.6,575.35z"/>
		<path class="st1" d="M721.89,504.65c0-5.12-4.17-9.29-9.29-9.29c-5.12,0-9.29,4.17-9.29,9.29c0,5.12,4.17,9.29,9.29,9.29
			C717.73,513.94,721.89,509.77,721.89,504.65z"/>
		<path class="st1" d="M721.89,575.35c0-5.12-4.17-9.29-9.29-9.29c-5.12,0-9.29,4.17-9.29,9.29c0,5.12,4.17,9.29,9.29,9.29
			C717.73,584.64,721.89,580.48,721.89,575.35z"/>
		<path class="st1" d="M792.6,645.87c0-5.12-4.17-9.29-9.29-9.29c-5.12,0-9.29,4.17-9.29,9.29c0,5.12,4.17,9.29,9.29,9.29
			C788.43,655.16,792.6,651,792.6,645.87z"/>
		<path class="st1" d="M792.6,716.58c0-5.12-4.17-9.29-9.29-9.29c-5.12,0-9.29,4.17-9.29,9.29c0,5.12,4.17,9.29,9.29,9.29
			C788.43,725.87,792.6,721.7,792.6,716.58z"/>
		<path class="st1" d="M721.89,645.87c0-5.12-4.17-9.29-9.29-9.29c-5.12,0-9.29,4.17-9.29,9.29c0,5.12,4.17,9.29,9.29,9.29
			C717.73,655.16,721.89,651,721.89,645.87z"/>
		<path class="st1" d="M721.89,716.58c0-5.12-4.17-9.29-9.29-9.29c-5.12,0-9.29,4.17-9.29,9.29c0,5.12,4.17,9.29,9.29,9.29
			C717.73,725.87,721.89,721.7,721.89,716.58z"/>
		<path class="st1" d="M792.6,787.1c0-5.12-4.17-9.29-9.29-9.29c-5.12,0-9.29,4.17-9.29,9.29c0,5.12,4.17,9.29,9.29,9.29
			C788.43,796.39,792.6,792.22,792.6,787.1z"/>
		<path class="st1" d="M792.6,857.8c0-5.12-4.17-9.29-9.29-9.29c-5.12,0-9.29,4.17-9.29,9.29c0,5.12,4.17,9.29,9.29,9.29
			C788.43,867.09,792.6,862.93,792.6,857.8z"/>
		<path class="st1" d="M721.89,787.1c0-5.12-4.17-9.29-9.29-9.29c-5.12,0-9.29,4.17-9.29,9.29c0,5.12,4.17,9.29,9.29,9.29
			C717.73,796.39,721.89,792.22,721.89,787.1z"/>
		<path class="st1" d="M721.89,857.8c0-5.12-4.17-9.29-9.29-9.29c-5.12,0-9.29,4.17-9.29,9.29c0,5.12,4.17,9.29,9.29,9.29
			C717.73,867.09,721.89,862.93,721.89,857.8z"/>
		<path class="st1" d="M792.6,928.32c0-5.12-4.17-9.29-9.29-9.29c-5.12,0-9.29,4.17-9.29,9.29c0,5.12,4.17,9.29,9.29,9.29
			C788.43,937.61,792.6,933.45,792.6,928.32z"/>
		<path class="st1" d="M792.6,999.03c0-5.12-4.17-9.29-9.29-9.29c-5.12,0-9.29,4.17-9.29,9.29c0,5.12,4.17,9.29,9.29,9.29
			C788.43,1008.32,792.6,1004.15,792.6,999.03z"/>
		<path class="st1" d="M721.89,928.32c0-5.12-4.17-9.29-9.29-9.29c-5.12,0-9.29,4.17-9.29,9.29c0,5.12,4.17,9.29,9.29,9.29
			C717.73,937.61,721.89,933.45,721.89,928.32z"/>
		<path class="st1" d="M721.89,999.03c0-5.12-4.17-9.29-9.29-9.29c-5.12,0-9.29,4.17-9.29,9.29c0,5.12,4.17,9.29,9.29,9.29
			C717.73,1008.32,721.89,1004.15,721.89,999.03z"/>
		<path class="st1" d="M792.6,1069.55c0-5.12-4.17-9.29-9.29-9.29c-5.12,0-9.29,4.17-9.29,9.29c0,5.12,4.17,9.29,9.29,9.29
			C788.43,1078.84,792.6,1074.67,792.6,1069.55z"/>
		<path class="st1" d="M792.6,1140.25c0-5.12-4.17-9.29-9.29-9.29c-5.12,0-9.29,4.17-9.29,9.29c0,5.12,4.17,9.29,9.29,9.29
			C788.43,1149.54,792.6,1145.38,792.6,1140.25z"/>
		<path class="st1" d="M721.89,1140.25c0-5.12-4.17-9.29-9.29-9.29c-5.12,0-9.29,4.17-9.29,9.29c0,5.12,4.17,9.29,9.29,9.29
			C717.73,1149.54,721.89,1145.38,721.89,1140.25z"/>
		<path class="st1" d="M792.6,1210.77c0-5.12-4.17-9.29-9.29-9.29c-5.12,0-9.29,4.17-9.29,9.29c0,5.12,4.17,9.29,9.29,9.29
			C788.43,1220.06,792.6,1215.9,792.6,1210.77z"/>
		<path class="st1" d="M792.6,1281.48c0-5.12-4.17-9.29-9.29-9.29c-5.12,0-9.29,4.17-9.29,9.29c0,5.12,4.17,9.29,9.29,9.29
			C788.43,1290.77,792.6,1286.6,792.6,1281.48z"/>
		<path class="st1" d="M721.89,1210.77c0-5.12-4.17-9.29-9.29-9.29c-5.12,0-9.29,4.17-9.29,9.29c0,5.12,4.17,9.29,9.29,9.29
			C717.73,1220.06,721.89,1215.9,721.89,1210.77z"/>
		<path class="st1" d="M721.89,1281.48c0-5.12-4.17-9.29-9.29-9.29c-5.12,0-9.29,4.17-9.29,9.29c0,5.12,4.17,9.29,9.29,9.29
			C717.73,1290.77,721.89,1286.6,721.89,1281.48z"/>
		<path class="st1" d="M651.24-201.48c0-5.12-4.17-9.29-9.29-9.29c-5.12,0-9.29,4.17-9.29,9.29c0,5.12,4.17,9.29,9.29,9.29
			C647.07-192.19,651.24-196.35,651.24-201.48z"/>
		<path class="st1" d="M651.24-130.77c0-5.12-4.17-9.29-9.29-9.29c-5.12,0-9.29,4.17-9.29,9.29c0,5.12,4.17,9.29,9.29,9.29
			C647.07-121.48,651.24-125.65,651.24-130.77z"/>
		<path class="st1" d="M580.53-201.48c0-5.12-4.17-9.29-9.29-9.29c-5.12,0-9.29,4.17-9.29,9.29c0,5.12,4.17,9.29,9.29,9.29
			C576.36-192.19,580.53-196.35,580.53-201.48z"/>
		<path class="st1" d="M580.53-130.77c0-5.12-4.17-9.29-9.29-9.29c-5.12,0-9.29,4.17-9.29,9.29c0,5.12,4.17,9.29,9.29,9.29
			C576.36-121.48,580.53-125.65,580.53-130.77z"/>
		<path class="st1" d="M651.24-60.25c0-5.12-4.17-9.29-9.29-9.29c-5.12,0-9.29,4.17-9.29,9.29c0,5.12,4.17,9.29,9.29,9.29
			C647.07-50.96,651.24-55.13,651.24-60.25z"/>
		<path class="st1" d="M651.24,10.45c0-5.12-4.17-9.29-9.29-9.29c-5.12,0-9.29,4.17-9.29,9.29c0,5.12,4.17,9.29,9.29,9.29
			C647.07,19.74,651.24,15.58,651.24,10.45z"/>
		<path class="st1" d="M580.53-60.25c0-5.12-4.17-9.29-9.29-9.29c-5.12,0-9.29,4.17-9.29,9.29c0,5.12,4.17,9.29,9.29,9.29
			C576.36-50.96,580.53-55.13,580.53-60.25z"/>
		<path class="st1" d="M580.53,10.45c0-5.12-4.17-9.29-9.29-9.29c-5.12,0-9.29,4.17-9.29,9.29c0,5.12,4.17,9.29,9.29,9.29
			C576.36,19.74,580.53,15.58,580.53,10.45z"/>
		<path class="st1" d="M651.24,80.97c0-5.12-4.17-9.29-9.29-9.29c-5.12,0-9.29,4.17-9.29,9.29c0,5.12,4.17,9.29,9.29,9.29
			C647.07,90.26,651.24,86.1,651.24,80.97z"/>
		<path class="st1" d="M651.24,151.68c0-5.12-4.17-9.29-9.29-9.29c-5.12,0-9.29,4.17-9.29,9.29c0,5.12,4.17,9.29,9.29,9.29
			C647.07,160.97,651.24,156.8,651.24,151.68z"/>
		<path class="st1" d="M580.53,80.97c0-5.12-4.17-9.29-9.29-9.29c-5.12,0-9.29,4.17-9.29,9.29c0,5.12,4.17,9.29,9.29,9.29
			C576.36,90.26,580.53,86.1,580.53,80.97z"/>
		<path class="st1" d="M580.53,151.68c0-5.12-4.17-9.29-9.29-9.29c-5.12,0-9.29,4.17-9.29,9.29c0,5.12,4.17,9.29,9.29,9.29
			C576.36,160.97,580.53,156.8,580.53,151.68z"/>
		<path class="st1" d="M651.24,222.2c0-5.12-4.17-9.29-9.29-9.29c-5.12,0-9.29,4.17-9.29,9.29c0,5.12,4.17,9.29,9.29,9.29
			C647.07,231.49,651.24,227.32,651.24,222.2z"/>
		<path class="st1" d="M651.24,292.9c0-5.12-4.17-9.29-9.29-9.29c-5.12,0-9.29,4.17-9.29,9.29c0,5.12,4.17,9.29,9.29,9.29
			C647.07,302.19,651.24,298.03,651.24,292.9z"/>
		<path class="st1" d="M580.53,222.2c0-5.12-4.17-9.29-9.29-9.29c-5.12,0-9.29,4.17-9.29,9.29c0,5.12,4.17,9.29,9.29,9.29
			C576.36,231.49,580.53,227.32,580.53,222.2z"/>
		<path class="st1" d="M580.53,292.9c0-5.12-4.17-9.29-9.29-9.29c-5.12,0-9.29,4.17-9.29,9.29c0,5.12,4.17,9.29,9.29,9.29
			C576.36,302.19,580.53,298.03,580.53,292.9z"/>
		<path class="st1" d="M651.24,363.42c0-5.12-4.17-9.29-9.29-9.29c-5.12,0-9.29,4.17-9.29,9.29c0,5.12,4.17,9.29,9.29,9.29
			C647.07,372.71,651.24,368.55,651.24,363.42z"/>
		<path class="st1" d="M651.24,434.13c0-5.12-4.17-9.29-9.29-9.29c-5.12,0-9.29,4.17-9.29,9.29s4.17,9.29,9.29,9.29
			C647.07,443.42,651.24,439.25,651.24,434.13z"/>
		<path class="st1" d="M580.53,363.42c0-5.12-4.17-9.29-9.29-9.29c-5.12,0-9.29,4.17-9.29,9.29c0,5.12,4.17,9.29,9.29,9.29
			C576.36,372.71,580.53,368.55,580.53,363.42z"/>
		<path class="st1" d="M580.53,434.13c0-5.12-4.17-9.29-9.29-9.29c-5.12,0-9.29,4.17-9.29,9.29s4.17,9.29,9.29,9.29
			C576.36,443.42,580.53,439.25,580.53,434.13z"/>
		<path class="st1" d="M651.24,575.35c0-5.12-4.17-9.29-9.29-9.29c-5.12,0-9.29,4.17-9.29,9.29c0,5.12,4.17,9.29,9.29,9.29
			C647.07,584.64,651.24,580.48,651.24,575.35z"/>
		<circle class="st1" cx="641.95" cy="716.58" r="9.29"/>
		<circle class="st1" cx="571.24" cy="716.58" r="9.29"/>
		<path class="st1" d="M651.24,787.1c0-5.12-4.17-9.29-9.29-9.29c-5.12,0-9.29,4.17-9.29,9.29c0,5.12,4.17,9.29,9.29,9.29
			C647.07,796.39,651.24,792.22,651.24,787.1z"/>
		
			<ellipse transform="matrix(0.3827 -0.9239 0.9239 0.3827 -396.2224 1122.6168)" class="st1" cx="641.95" cy="857.8" rx="9.29" ry="9.29"/>
		<path class="st1" d="M580.53,787.1c0-5.12-4.17-9.29-9.29-9.29c-5.12,0-9.29,4.17-9.29,9.29c0,5.12,4.17,9.29,9.29,9.29
			C576.36,796.39,580.53,792.22,580.53,787.1z"/>
		
			<ellipse transform="matrix(0.3827 -0.9239 0.9239 0.3827 -439.8702 1057.2933)" class="st1" cx="571.24" cy="857.8" rx="9.29" ry="9.29"/>
		<path class="st1" d="M651.24,928.32c0-5.12-4.17-9.29-9.29-9.29c-5.12,0-9.29,4.17-9.29,9.29c0,5.12,4.17,9.29,9.29,9.29
			C647.07,937.61,651.24,933.45,651.24,928.32z"/>
		<path class="st1" d="M651.24,999.03c0-5.12-4.17-9.29-9.29-9.29c-5.12,0-9.29,4.17-9.29,9.29c0,5.12,4.17,9.29,9.29,9.29
			C647.07,1008.32,651.24,1004.15,651.24,999.03z"/>
		<path class="st1" d="M580.53,928.32c0-5.12-4.17-9.29-9.29-9.29c-5.12,0-9.29,4.17-9.29,9.29c0,5.12,4.17,9.29,9.29,9.29
			C576.36,937.61,580.53,933.45,580.53,928.32z"/>
		<path class="st1" d="M651.24,1140.25c0-5.12-4.17-9.29-9.29-9.29c-5.12,0-9.29,4.17-9.29,9.29c0,5.12,4.17,9.29,9.29,9.29
			C647.07,1149.54,651.24,1145.38,651.24,1140.25z"/>
		<path class="st1" d="M580.53,1069.55c0-5.12-4.17-9.29-9.29-9.29c-5.12,0-9.29,4.17-9.29,9.29c0,5.12,4.17,9.29,9.29,9.29
			C576.36,1078.84,580.53,1074.67,580.53,1069.55z"/>
		<path class="st1" d="M651.24,1210.77c0-5.12-4.17-9.29-9.29-9.29c-5.12,0-9.29,4.17-9.29,9.29c0,5.12,4.17,9.29,9.29,9.29
			C647.07,1220.06,651.24,1215.9,651.24,1210.77z"/>
		<path class="st1" d="M651.24,1281.48c0-5.12-4.17-9.29-9.29-9.29c-5.12,0-9.29,4.17-9.29,9.29c0,5.12,4.17,9.29,9.29,9.29
			C647.07,1290.77,651.24,1286.6,651.24,1281.48z"/>
		<path class="st1" d="M580.53,1210.77c0-5.12-4.17-9.29-9.29-9.29c-5.12,0-9.29,4.17-9.29,9.29c0,5.12,4.17,9.29,9.29,9.29
			C576.36,1220.06,580.53,1215.9,580.53,1210.77z"/>
		<path class="st1" d="M580.53,1281.48c0-5.12-4.17-9.29-9.29-9.29c-5.12,0-9.29,4.17-9.29,9.29c0,5.12,4.17,9.29,9.29,9.29
			C576.36,1290.77,580.53,1286.6,580.53,1281.48z"/>
		<path class="st1" d="M509.88-201.48c0-5.12-4.17-9.29-9.29-9.29c-5.12,0-9.29,4.17-9.29,9.29c0,5.12,4.17,9.29,9.29,9.29
			C505.71-192.19,509.88-196.35,509.88-201.48z"/>
		<path class="st1" d="M509.88-130.77c0-5.12-4.17-9.29-9.29-9.29c-5.12,0-9.29,4.17-9.29,9.29c0,5.12,4.17,9.29,9.29,9.29
			C505.71-121.48,509.88-125.65,509.88-130.77z"/>
		<path class="st1" d="M439.17-201.48c0-5.12-4.17-9.29-9.29-9.29c-5.12,0-9.29,4.17-9.29,9.29c0,5.12,4.17,9.29,9.29,9.29
			C435-192.19,439.17-196.35,439.17-201.48z"/>
		<path class="st1" d="M439.17-130.77c0-5.12-4.17-9.29-9.29-9.29c-5.12,0-9.29,4.17-9.29,9.29c0,5.12,4.17,9.29,9.29,9.29
			C435-121.48,439.17-125.65,439.17-130.77z"/>
		<path class="st1" d="M509.88-60.25c0-5.12-4.17-9.29-9.29-9.29c-5.12,0-9.29,4.17-9.29,9.29c0,5.12,4.17,9.29,9.29,9.29
			C505.71-50.96,509.88-55.13,509.88-60.25z"/>
		<path class="st1" d="M509.88,10.45c0-5.12-4.17-9.29-9.29-9.29c-5.12,0-9.29,4.17-9.29,9.29c0,5.12,4.17,9.29,9.29,9.29
			C505.71,19.74,509.88,15.58,509.88,10.45z"/>
		<path class="st1" d="M439.17-60.25c0-5.12-4.17-9.29-9.29-9.29c-5.12,0-9.29,4.17-9.29,9.29c0,5.12,4.17,9.29,9.29,9.29
			C435-50.96,439.17-55.13,439.17-60.25z"/>
		<path class="st1" d="M439.17,10.45c0-5.12-4.17-9.29-9.29-9.29c-5.12,0-9.29,4.17-9.29,9.29c0,5.12,4.17,9.29,9.29,9.29
			C435,19.74,439.17,15.58,439.17,10.45z"/>
		<path class="st1" d="M509.88,80.97c0-5.12-4.17-9.29-9.29-9.29c-5.12,0-9.29,4.17-9.29,9.29c0,5.12,4.17,9.29,9.29,9.29
			C505.71,90.26,509.88,86.1,509.88,80.97z"/>
		<path class="st1" d="M509.88,151.68c0-5.12-4.17-9.29-9.29-9.29c-5.12,0-9.29,4.17-9.29,9.29c0,5.12,4.17,9.29,9.29,9.29
			C505.71,160.97,509.88,156.8,509.88,151.68z"/>
		<path class="st1" d="M439.17,80.97c0-5.12-4.17-9.29-9.29-9.29c-5.12,0-9.29,4.17-9.29,9.29c0,5.12,4.17,9.29,9.29,9.29
			C435,90.26,439.17,86.1,439.17,80.97z"/>
		<path class="st1" d="M439.17,151.68c0-5.12-4.17-9.29-9.29-9.29c-5.12,0-9.29,4.17-9.29,9.29c0,5.12,4.17,9.29,9.29,9.29
			C435,160.97,439.17,156.8,439.17,151.68z"/>
		<path class="st1" d="M509.88,222.2c0-5.12-4.17-9.29-9.29-9.29c-5.12,0-9.29,4.17-9.29,9.29c0,5.12,4.17,9.29,9.29,9.29
			C505.71,231.49,509.88,227.32,509.88,222.2z"/>
		<path class="st1" d="M509.88,292.9c0-5.12-4.17-9.29-9.29-9.29c-5.12,0-9.29,4.17-9.29,9.29c0,5.12,4.17,9.29,9.29,9.29
			C505.71,302.19,509.88,298.03,509.88,292.9z"/>
		<path class="st1" d="M439.17,222.2c0-5.12-4.17-9.29-9.29-9.29c-5.12,0-9.29,4.17-9.29,9.29c0,5.12,4.17,9.29,9.29,9.29
			C435,231.49,439.17,227.32,439.17,222.2z"/>
		<path class="st1" d="M439.17,292.9c0-5.12-4.17-9.29-9.29-9.29c-5.12,0-9.29,4.17-9.29,9.29c0,5.12,4.17,9.29,9.29,9.29
			C435,302.19,439.17,298.03,439.17,292.9z"/>
		<path class="st1" d="M509.88,363.42c0-5.12-4.17-9.29-9.29-9.29c-5.12,0-9.29,4.17-9.29,9.29c0,5.12,4.17,9.29,9.29,9.29
			C505.71,372.71,509.88,368.55,509.88,363.42z"/>
		<path class="st1" d="M509.88,434.13c0-5.12-4.17-9.29-9.29-9.29c-5.12,0-9.29,4.17-9.29,9.29s4.17,9.29,9.29,9.29
			C505.71,443.42,509.88,439.25,509.88,434.13z"/>
		<path class="st1" d="M439.17,363.42c0-5.12-4.17-9.29-9.29-9.29c-5.12,0-9.29,4.17-9.29,9.29c0,5.12,4.17,9.29,9.29,9.29
			C435,372.71,439.17,368.55,439.17,363.42z"/>
		<path class="st1" d="M439.17,434.13c0-5.12-4.17-9.29-9.29-9.29c-5.12,0-9.29,4.17-9.29,9.29s4.17,9.29,9.29,9.29
			C435,443.42,439.17,439.25,439.17,434.13z"/>
		<path class="st1" d="M439.17,504.65c0-5.12-4.17-9.29-9.29-9.29c-5.12,0-9.29,4.17-9.29,9.29c0,5.12,4.17,9.29,9.29,9.29
			C435,513.94,439.17,509.77,439.17,504.65z"/>
		<path class="st1" d="M439.17,575.35c0-5.12-4.17-9.29-9.29-9.29c-5.12,0-9.29,4.17-9.29,9.29c0,5.12,4.17,9.29,9.29,9.29
			C435,584.64,439.17,580.48,439.17,575.35z"/>
		<circle class="st1" cx="500.58" cy="716.58" r="9.29"/>
		<path class="st1" d="M439.17,645.87c0-5.12-4.17-9.29-9.29-9.29c-5.12,0-9.29,4.17-9.29,9.29c0,5.12,4.17,9.29,9.29,9.29
			C435,655.16,439.17,651,439.17,645.87z"/>
		<circle class="st1" cx="429.88" cy="716.58" r="9.29"/>
		<path class="st1" d="M509.88,787.1c0-5.12-4.17-9.29-9.29-9.29c-5.12,0-9.29,4.17-9.29,9.29c0,5.12,4.17,9.29,9.29,9.29
			C505.71,796.39,509.88,792.22,509.88,787.1z"/>
		<path class="st1" d="M439.17,787.1c0-5.12-4.17-9.29-9.29-9.29c-5.12,0-9.29,4.17-9.29,9.29c0,5.12,4.17,9.29,9.29,9.29
			C435,796.39,439.17,792.22,439.17,787.1z"/>
		<path class="st1" d="M509.88,928.32c0-5.12-4.17-9.29-9.29-9.29c-5.12,0-9.29,4.17-9.29,9.29c0,5.12,4.17,9.29,9.29,9.29
			C505.71,937.61,509.88,933.45,509.88,928.32z"/>
		<path class="st1" d="M439.17,928.32c0-5.12-4.17-9.29-9.29-9.29c-5.12,0-9.29,4.17-9.29,9.29c0,5.12,4.17,9.29,9.29,9.29
			C435,937.61,439.17,933.45,439.17,928.32z"/>
		<path class="st1" d="M439.17,999.03c0-5.12-4.17-9.29-9.29-9.29c-5.12,0-9.29,4.17-9.29,9.29c0,5.12,4.17,9.29,9.29,9.29
			C435,1008.32,439.17,1004.15,439.17,999.03z"/>
		<path class="st1" d="M509.88,1069.55c0-5.12-4.17-9.29-9.29-9.29c-5.12,0-9.29,4.17-9.29,9.29c0,5.12,4.17,9.29,9.29,9.29
			C505.71,1078.84,509.88,1074.67,509.88,1069.55z"/>
		<path class="st1" d="M509.88,1140.25c0-5.12-4.17-9.29-9.29-9.29c-5.12,0-9.29,4.17-9.29,9.29c0,5.12,4.17,9.29,9.29,9.29
			C505.71,1149.54,509.88,1145.38,509.88,1140.25z"/>
		<path class="st1" d="M439.17,1069.55c0-5.12-4.17-9.29-9.29-9.29c-5.12,0-9.29,4.17-9.29,9.29c0,5.12,4.17,9.29,9.29,9.29
			C435,1078.84,439.17,1074.67,439.17,1069.55z"/>
		<path class="st1" d="M439.17,1140.25c0-5.12-4.17-9.29-9.29-9.29c-5.12,0-9.29,4.17-9.29,9.29c0,5.12,4.17,9.29,9.29,9.29
			C435,1149.54,439.17,1145.38,439.17,1140.25z"/>
		<path class="st1" d="M509.88,1210.77c0-5.12-4.17-9.29-9.29-9.29c-5.12,0-9.29,4.17-9.29,9.29c0,5.12,4.17,9.29,9.29,9.29
			C505.71,1220.06,509.88,1215.9,509.88,1210.77z"/>
		<path class="st1" d="M509.88,1281.48c0-5.12-4.17-9.29-9.29-9.29c-5.12,0-9.29,4.17-9.29,9.29c0,5.12,4.17,9.29,9.29,9.29
			C505.71,1290.77,509.88,1286.6,509.88,1281.48z"/>
		<path class="st1" d="M439.17,1210.77c0-5.12-4.17-9.29-9.29-9.29c-5.12,0-9.29,4.17-9.29,9.29c0,5.12,4.17,9.29,9.29,9.29
			C435,1220.06,439.17,1215.9,439.17,1210.77z"/>
		<path class="st1" d="M368.51-201.48c0-5.12-4.17-9.29-9.29-9.29c-5.12,0-9.29,4.17-9.29,9.29c0,5.12,4.17,9.29,9.29,9.29
			C364.34-192.19,368.51-196.35,368.51-201.48z"/>
		<path class="st1" d="M368.51-130.77c0-5.12-4.17-9.29-9.29-9.29c-5.12,0-9.29,4.17-9.29,9.29c0,5.12,4.17,9.29,9.29,9.29
			C364.34-121.48,368.51-125.65,368.51-130.77z"/>
		<path class="st1" d="M297.81-201.48c0-5.12-4.17-9.29-9.29-9.29c-5.12,0-9.29,4.17-9.29,9.29c0,5.12,4.17,9.29,9.29,9.29
			C293.64-192.19,297.81-196.35,297.81-201.48z"/>
		<path class="st1" d="M297.81-130.77c0-5.12-4.17-9.29-9.29-9.29c-5.12,0-9.29,4.17-9.29,9.29c0,5.12,4.17,9.29,9.29,9.29
			C293.64-121.48,297.81-125.65,297.81-130.77z"/>
		<path class="st1" d="M368.51-60.25c0-5.12-4.17-9.29-9.29-9.29c-5.12,0-9.29,4.17-9.29,9.29c0,5.12,4.17,9.29,9.29,9.29
			C364.34-50.96,368.51-55.13,368.51-60.25z"/>
		<path class="st1" d="M368.51,10.45c0-5.12-4.17-9.29-9.29-9.29c-5.12,0-9.29,4.17-9.29,9.29c0,5.12,4.17,9.29,9.29,9.29
			C364.34,19.74,368.51,15.58,368.51,10.45z"/>
		<path class="st1" d="M297.81-60.25c0-5.12-4.17-9.29-9.29-9.29c-5.12,0-9.29,4.17-9.29,9.29c0,5.12,4.17,9.29,9.29,9.29
			C293.64-50.96,297.81-55.13,297.81-60.25z"/>
		<path class="st1" d="M297.81,10.45c0-5.12-4.17-9.29-9.29-9.29c-5.12,0-9.29,4.17-9.29,9.29c0,5.12,4.17,9.29,9.29,9.29
			C293.64,19.74,297.81,15.58,297.81,10.45z"/>
		<path class="st1" d="M368.51,80.97c0-5.12-4.17-9.29-9.29-9.29c-5.12,0-9.29,4.17-9.29,9.29c0,5.12,4.17,9.29,9.29,9.29
			C364.34,90.26,368.51,86.1,368.51,80.97z"/>
		<path class="st1" d="M368.51,151.68c0-5.12-4.17-9.29-9.29-9.29c-5.12,0-9.29,4.17-9.29,9.29c0,5.12,4.17,9.29,9.29,9.29
			C364.34,160.97,368.51,156.8,368.51,151.68z"/>
		<path class="st1" d="M297.81,80.97c0-5.12-4.17-9.29-9.29-9.29c-5.12,0-9.29,4.17-9.29,9.29c0,5.12,4.17,9.29,9.29,9.29
			C293.64,90.26,297.81,86.1,297.81,80.97z"/>
		<path class="st1" d="M297.81,151.68c0-5.12-4.17-9.29-9.29-9.29c-5.12,0-9.29,4.17-9.29,9.29c0,5.12,4.17,9.29,9.29,9.29
			C293.64,160.97,297.81,156.8,297.81,151.68z"/>
		<path class="st1" d="M368.51,222.2c0-5.12-4.17-9.29-9.29-9.29c-5.12,0-9.29,4.17-9.29,9.29c0,5.12,4.17,9.29,9.29,9.29
			C364.34,231.49,368.51,227.32,368.51,222.2z"/>
		<path class="st1" d="M368.51,292.9c0-5.12-4.17-9.29-9.29-9.29c-5.12,0-9.29,4.17-9.29,9.29c0,5.12,4.17,9.29,9.29,9.29
			C364.34,302.19,368.51,298.03,368.51,292.9z"/>
		<path class="st1" d="M297.81,222.2c0-5.12-4.17-9.29-9.29-9.29c-5.12,0-9.29,4.17-9.29,9.29c0,5.12,4.17,9.29,9.29,9.29
			C293.64,231.49,297.81,227.32,297.81,222.2z"/>
		<path class="st1" d="M297.81,292.9c0-5.12-4.17-9.29-9.29-9.29c-5.12,0-9.29,4.17-9.29,9.29c0,5.12,4.17,9.29,9.29,9.29
			C293.64,302.19,297.81,298.03,297.81,292.9z"/>
		<path class="st1" d="M368.51,363.42c0-5.12-4.17-9.29-9.29-9.29c-5.12,0-9.29,4.17-9.29,9.29c0,5.12,4.17,9.29,9.29,9.29
			C364.34,372.71,368.51,368.55,368.51,363.42z"/>
		<path class="st1" d="M368.51,434.13c0-5.12-4.17-9.29-9.29-9.29c-5.12,0-9.29,4.17-9.29,9.29s4.17,9.29,9.29,9.29
			C364.34,443.42,368.51,439.25,368.51,434.13z"/>
		<path class="st1" d="M297.81,434.13c0-5.12-4.17-9.29-9.29-9.29c-5.12,0-9.29,4.17-9.29,9.29s4.17,9.29,9.29,9.29
			C293.64,443.42,297.81,439.25,297.81,434.13z"/>
		<path class="st1" d="M368.51,504.65c0-5.12-4.17-9.29-9.29-9.29c-5.12,0-9.29,4.17-9.29,9.29c0,5.12,4.17,9.29,9.29,9.29
			C364.34,513.94,368.51,509.77,368.51,504.65z"/>
		<path class="st1" d="M368.51,575.35c0-5.12-4.17-9.29-9.29-9.29c-5.12,0-9.29,4.17-9.29,9.29c0,5.12,4.17,9.29,9.29,9.29
			C364.34,584.64,368.51,580.48,368.51,575.35z"/>
		<path class="st1" d="M297.81,504.65c0-5.12-4.17-9.29-9.29-9.29c-5.12,0-9.29,4.17-9.29,9.29c0,5.12,4.17,9.29,9.29,9.29
			C293.64,513.94,297.81,509.77,297.81,504.65z"/>
		<path class="st1" d="M297.81,575.35c0-5.12-4.17-9.29-9.29-9.29c-5.12,0-9.29,4.17-9.29,9.29c0,5.12,4.17,9.29,9.29,9.29
			C293.64,584.64,297.81,580.48,297.81,575.35z"/>
		<path class="st1" d="M368.51,645.87c0-5.12-4.17-9.29-9.29-9.29c-5.12,0-9.29,4.17-9.29,9.29c0,5.12,4.17,9.29,9.29,9.29
			C364.34,655.16,368.51,651,368.51,645.87z"/>
		<path class="st1" d="M368.51,716.58c0-5.12-4.17-9.29-9.29-9.29c-5.12,0-9.29,4.17-9.29,9.29c0,5.12,4.17,9.29,9.29,9.29
			C364.34,725.87,368.51,721.7,368.51,716.58z"/>
		<path class="st1" d="M297.81,645.87c0-5.12-4.17-9.29-9.29-9.29c-5.12,0-9.29,4.17-9.29,9.29c0,5.12,4.17,9.29,9.29,9.29
			C293.64,655.16,297.81,651,297.81,645.87z"/>
		<circle class="st1" cx="288.52" cy="716.58" r="9.29"/>
		<path class="st1" d="M368.51,787.1c0-5.12-4.17-9.29-9.29-9.29c-5.12,0-9.29,4.17-9.29,9.29c0,5.12,4.17,9.29,9.29,9.29
			C364.34,796.39,368.51,792.22,368.51,787.1z"/>
		<path class="st1" d="M368.51,857.8c0-5.12-4.17-9.29-9.29-9.29c-5.12,0-9.29,4.17-9.29,9.29c0,5.12,4.17,9.29,9.29,9.29
			C364.34,867.09,368.51,862.93,368.51,857.8z"/>
		<path class="st1" d="M297.81,787.1c0-5.12-4.17-9.29-9.29-9.29c-5.12,0-9.29,4.17-9.29,9.29c0,5.12,4.17,9.29,9.29,9.29
			C293.64,796.39,297.81,792.22,297.81,787.1z"/>
		
			<ellipse transform="matrix(0.3827 -0.9239 0.9239 0.3827 -614.4005 796.0902)" class="st1" cx="288.52" cy="857.8" rx="9.29" ry="9.29"/>
		<path class="st1" d="M368.51,928.32c0-5.12-4.17-9.29-9.29-9.29c-5.12,0-9.29,4.17-9.29,9.29c0,5.12,4.17,9.29,9.29,9.29
			C364.34,937.61,368.51,933.45,368.51,928.32z"/>
		<path class="st1" d="M368.51,999.03c0-5.12-4.17-9.29-9.29-9.29c-5.12,0-9.29,4.17-9.29,9.29c0,5.12,4.17,9.29,9.29,9.29
			C364.34,1008.32,368.51,1004.15,368.51,999.03z"/>
		<path class="st1" d="M297.81,928.32c0-5.12-4.17-9.29-9.29-9.29c-5.12,0-9.29,4.17-9.29,9.29c0,5.12,4.17,9.29,9.29,9.29
			C293.64,937.61,297.81,933.45,297.81,928.32z"/>
		<path class="st1" d="M297.81,999.03c0-5.12-4.17-9.29-9.29-9.29c-5.12,0-9.29,4.17-9.29,9.29c0,5.12,4.17,9.29,9.29,9.29
			C293.64,1008.32,297.81,1004.15,297.81,999.03z"/>
		<path class="st1" d="M368.51,1069.55c0-5.12-4.17-9.29-9.29-9.29c-5.12,0-9.29,4.17-9.29,9.29c0,5.12,4.17,9.29,9.29,9.29
			C364.34,1078.84,368.51,1074.67,368.51,1069.55z"/>
		<path class="st1" d="M368.51,1140.25c0-5.12-4.17-9.29-9.29-9.29c-5.12,0-9.29,4.17-9.29,9.29c0,5.12,4.17,9.29,9.29,9.29
			C364.34,1149.54,368.51,1145.38,368.51,1140.25z"/>
		<path class="st1" d="M297.81,1069.55c0-5.12-4.17-9.29-9.29-9.29c-5.12,0-9.29,4.17-9.29,9.29c0,5.12,4.17,9.29,9.29,9.29
			C293.64,1078.84,297.81,1074.67,297.81,1069.55z"/>
		<path class="st1" d="M297.81,1140.25c0-5.12-4.17-9.29-9.29-9.29c-5.12,0-9.29,4.17-9.29,9.29c0,5.12,4.17,9.29,9.29,9.29
			C293.64,1149.54,297.81,1145.38,297.81,1140.25z"/>
		<path class="st1" d="M368.51,1210.77c0-5.12-4.17-9.29-9.29-9.29c-5.12,0-9.29,4.17-9.29,9.29c0,5.12,4.17,9.29,9.29,9.29
			C364.34,1220.06,368.51,1215.9,368.51,1210.77z"/>
		<path class="st1" d="M368.51,1281.48c0-5.12-4.17-9.29-9.29-9.29c-5.12,0-9.29,4.17-9.29,9.29c0,5.12,4.17,9.29,9.29,9.29
			C364.34,1290.77,368.51,1286.6,368.51,1281.48z"/>
		<path class="st1" d="M297.81,1210.77c0-5.12-4.17-9.29-9.29-9.29c-5.12,0-9.29,4.17-9.29,9.29c0,5.12,4.17,9.29,9.29,9.29
			C293.64,1220.06,297.81,1215.9,297.81,1210.77z"/>
		<path class="st1" d="M227.15-130.77c0-5.12-4.17-9.29-9.29-9.29c-5.12,0-9.29,4.17-9.29,9.29c0,5.12,4.17,9.29,9.29,9.29
			C222.98-121.48,227.15-125.65,227.15-130.77z"/>
		<path class="st1" d="M156.44-201.48c0-5.12-4.17-9.29-9.29-9.29c-5.12,0-9.29,4.17-9.29,9.29c0,5.12,4.17,9.29,9.29,9.29
			C152.28-192.19,156.44-196.35,156.44-201.48z"/>
		<path class="st1" d="M156.44-130.77c0-5.12-4.17-9.29-9.29-9.29c-5.12,0-9.29,4.17-9.29,9.29c0,5.12,4.17,9.29,9.29,9.29
			C152.28-121.48,156.44-125.65,156.44-130.77z"/>
		<path class="st1" d="M227.15-60.25c0-5.12-4.17-9.29-9.29-9.29c-5.12,0-9.29,4.17-9.29,9.29c0,5.12,4.17,9.29,9.29,9.29
			C222.98-50.96,227.15-55.13,227.15-60.25z"/>
		<path class="st1" d="M227.15,10.45c0-5.12-4.17-9.29-9.29-9.29c-5.12,0-9.29,4.17-9.29,9.29c0,5.12,4.17,9.29,9.29,9.29
			C222.98,19.74,227.15,15.58,227.15,10.45z"/>
		<path class="st1" d="M156.44,10.45c0-5.12-4.17-9.29-9.29-9.29c-5.12,0-9.29,4.17-9.29,9.29c0,5.12,4.17,9.29,9.29,9.29
			C152.28,19.74,156.44,15.58,156.44,10.45z"/>
		<path class="st1" d="M227.15,80.97c0-5.12-4.17-9.29-9.29-9.29c-5.12,0-9.29,4.17-9.29,9.29c0,5.12,4.17,9.29,9.29,9.29
			C222.98,90.26,227.15,86.1,227.15,80.97z"/>
		<path class="st1" d="M227.15,151.68c0-5.12-4.17-9.29-9.29-9.29c-5.12,0-9.29,4.17-9.29,9.29c0,5.12,4.17,9.29,9.29,9.29
			C222.98,160.97,227.15,156.8,227.15,151.68z"/>
		<path class="st1" d="M156.44,80.97c0-5.12-4.17-9.29-9.29-9.29c-5.12,0-9.29,4.17-9.29,9.29c0,5.12,4.17,9.29,9.29,9.29
			C152.28,90.26,156.44,86.1,156.44,80.97z"/>
		<path class="st1" d="M156.44,151.68c0-5.12-4.17-9.29-9.29-9.29c-5.12,0-9.29,4.17-9.29,9.29c0,5.12,4.17,9.29,9.29,9.29
			C152.28,160.97,156.44,156.8,156.44,151.68z"/>
		<path class="st1" d="M227.15,292.9c0-5.12-4.17-9.29-9.29-9.29c-5.12,0-9.29,4.17-9.29,9.29c0,5.12,4.17,9.29,9.29,9.29
			C222.98,302.19,227.15,298.03,227.15,292.9z"/>
		<path class="st1" d="M156.44,222.2c0-5.12-4.17-9.29-9.29-9.29c-5.12,0-9.29,4.17-9.29,9.29c0,5.12,4.17,9.29,9.29,9.29
			C152.28,231.49,156.44,227.32,156.44,222.2z"/>
		<path class="st1" d="M156.44,292.9c0-5.12-4.17-9.29-9.29-9.29c-5.12,0-9.29,4.17-9.29,9.29c0,5.12,4.17,9.29,9.29,9.29
			C152.28,302.19,156.44,298.03,156.44,292.9z"/>
		<path class="st1" d="M227.15,363.42c0-5.12-4.17-9.29-9.29-9.29c-5.12,0-9.29,4.17-9.29,9.29c0,5.12,4.17,9.29,9.29,9.29
			C222.98,372.71,227.15,368.55,227.15,363.42z"/>
		<path class="st1" d="M156.44,363.42c0-5.12-4.17-9.29-9.29-9.29c-5.12,0-9.29,4.17-9.29,9.29c0,5.12,4.17,9.29,9.29,9.29
			C152.28,372.71,156.44,368.55,156.44,363.42z"/>
		<path class="st1" d="M156.44,434.13c0-5.12-4.17-9.29-9.29-9.29c-5.12,0-9.29,4.17-9.29,9.29s4.17,9.29,9.29,9.29
			C152.28,443.42,156.44,439.25,156.44,434.13z"/>
		<path class="st1" d="M227.15,504.65c0-5.12-4.17-9.29-9.29-9.29c-5.12,0-9.29,4.17-9.29,9.29c0,5.12,4.17,9.29,9.29,9.29
			C222.98,513.94,227.15,509.77,227.15,504.65z"/>
		<path class="st1" d="M156.44,504.65c0-5.12-4.17-9.29-9.29-9.29c-5.12,0-9.29,4.17-9.29,9.29c0,5.12,4.17,9.29,9.29,9.29
			C152.28,513.94,156.44,509.77,156.44,504.65z"/>
		<path class="st1" d="M156.44,575.35c0-5.12-4.17-9.29-9.29-9.29c-5.12,0-9.29,4.17-9.29,9.29c0,5.12,4.17,9.29,9.29,9.29
			C152.28,584.64,156.44,580.48,156.44,575.35z"/>
		<path class="st1" d="M227.15,716.58c0-5.12-4.17-9.29-9.29-9.29c-5.12,0-9.29,4.17-9.29,9.29c0,5.12,4.17,9.29,9.29,9.29
			C222.98,725.87,227.15,721.7,227.15,716.58z"/>
		<path class="st1" d="M156.44,645.87c0-5.12-4.17-9.29-9.29-9.29c-5.12,0-9.29,4.17-9.29,9.29c0,5.12,4.17,9.29,9.29,9.29
			C152.28,655.16,156.44,651,156.44,645.87z"/>
		<path class="st1" d="M156.44,716.58c0-5.12-4.17-9.29-9.29-9.29c-5.12,0-9.29,4.17-9.29,9.29c0,5.12,4.17,9.29,9.29,9.29
			C152.28,725.87,156.44,721.7,156.44,716.58z"/>
		<path class="st1" d="M227.15,787.1c0-5.12-4.17-9.29-9.29-9.29c-5.12,0-9.29,4.17-9.29,9.29c0,5.12,4.17,9.29,9.29,9.29
			C222.98,796.39,227.15,792.22,227.15,787.1z"/>
		<path class="st1" d="M227.15,857.8c0-5.12-4.17-9.29-9.29-9.29c-5.12,0-9.29,4.17-9.29,9.29c0,5.12,4.17,9.29,9.29,9.29
			C222.98,867.09,227.15,862.93,227.15,857.8z"/>
		<path class="st1" d="M156.44,787.1c0-5.12-4.17-9.29-9.29-9.29c-5.12,0-9.29,4.17-9.29,9.29c0,5.12,4.17,9.29,9.29,9.29
			C152.28,796.39,156.44,792.22,156.44,787.1z"/>
		<path class="st1" d="M156.44,857.8c0-5.12-4.17-9.29-9.29-9.29c-5.12,0-9.29,4.17-9.29,9.29c0,5.12,4.17,9.29,9.29,9.29
			C152.28,867.09,156.44,862.93,156.44,857.8z"/>
		<path class="st1" d="M227.15,999.03c0-5.12-4.17-9.29-9.29-9.29c-5.12,0-9.29,4.17-9.29,9.29c0,5.12,4.17,9.29,9.29,9.29
			C222.98,1008.32,227.15,1004.15,227.15,999.03z"/>
		<path class="st1" d="M156.44,928.32c0-5.12-4.17-9.29-9.29-9.29c-5.12,0-9.29,4.17-9.29,9.29c0,5.12,4.17,9.29,9.29,9.29
			C152.28,937.61,156.44,933.45,156.44,928.32z"/>
		<path class="st1" d="M156.44,999.03c0-5.12-4.17-9.29-9.29-9.29c-5.12,0-9.29,4.17-9.29,9.29c0,5.12,4.17,9.29,9.29,9.29
			C152.28,1008.32,156.44,1004.15,156.44,999.03z"/>
		<path class="st1" d="M156.44,1069.55c0-5.12-4.17-9.29-9.29-9.29c-5.12,0-9.29,4.17-9.29,9.29c0,5.12,4.17,9.29,9.29,9.29
			C152.28,1078.84,156.44,1074.67,156.44,1069.55z"/>
		<path class="st1" d="M156.44,1140.25c0-5.12-4.17-9.29-9.29-9.29c-5.12,0-9.29,4.17-9.29,9.29c0,5.12,4.17,9.29,9.29,9.29
			C152.28,1149.54,156.44,1145.38,156.44,1140.25z"/>
		<path class="st1" d="M227.15,1210.77c0-5.12-4.17-9.29-9.29-9.29c-5.12,0-9.29,4.17-9.29,9.29c0,5.12,4.17,9.29,9.29,9.29
			C222.98,1220.06,227.15,1215.9,227.15,1210.77z"/>
		<path class="st1" d="M227.15,1281.48c0-5.12-4.17-9.29-9.29-9.29c-5.12,0-9.29,4.17-9.29,9.29c0,5.12,4.17,9.29,9.29,9.29
			C222.98,1290.77,227.15,1286.6,227.15,1281.48z"/>
		<path class="st1" d="M156.44,1210.77c0-5.12-4.17-9.29-9.29-9.29c-5.12,0-9.29,4.17-9.29,9.29c0,5.12,4.17,9.29,9.29,9.29
			C152.28,1220.06,156.44,1215.9,156.44,1210.77z"/>
		<path class="st1" d="M156.44,1281.48c0-5.12-4.17-9.29-9.29-9.29c-5.12,0-9.29,4.17-9.29,9.29c0,5.12,4.17,9.29,9.29,9.29
			C152.28,1290.77,156.44,1286.6,156.44,1281.48z"/>
		<path class="st1" d="M85.79-201.48c0-5.12-4.17-9.29-9.29-9.29c-5.12,0-9.29,4.17-9.29,9.29c0,5.12,4.17,9.29,9.29,9.29
			C81.62-192.19,85.79-196.35,85.79-201.48z"/>
		<path class="st1" d="M85.79-130.77c0-5.12-4.17-9.29-9.29-9.29c-5.12,0-9.29,4.17-9.29,9.29c0,5.12,4.17,9.29,9.29,9.29
			C81.62-121.48,85.79-125.65,85.79-130.77z"/>
		<path class="st1" d="M15.08-201.48c0-5.12-4.17-9.29-9.29-9.29c-5.12,0-9.29,4.17-9.29,9.29c0,5.12,4.17,9.29,9.29,9.29
			C10.91-192.19,15.08-196.35,15.08-201.48z"/>
		<path class="st1" d="M15.08-130.77c0-5.12-4.17-9.29-9.29-9.29c-5.12,0-9.29,4.17-9.29,9.29c0,5.12,4.17,9.29,9.29,9.29
			C10.91-121.48,15.08-125.65,15.08-130.77z"/>
		<path class="st1" d="M85.79-60.25c0-5.12-4.17-9.29-9.29-9.29c-5.12,0-9.29,4.17-9.29,9.29c0,5.12,4.17,9.29,9.29,9.29
			C81.62-50.96,85.79-55.13,85.79-60.25z"/>
		<path class="st1" d="M85.79,10.45c0-5.12-4.17-9.29-9.29-9.29c-5.12,0-9.29,4.17-9.29,9.29c0,5.12,4.17,9.29,9.29,9.29
			C81.62,19.74,85.79,15.58,85.79,10.45z"/>
		<path class="st1" d="M15.08-60.25c0-5.12-4.17-9.29-9.29-9.29c-5.12,0-9.29,4.17-9.29,9.29c0,5.12,4.17,9.29,9.29,9.29
			C10.91-50.96,15.08-55.13,15.08-60.25z"/>
		<path class="st1" d="M85.79,151.68c0-5.12-4.17-9.29-9.29-9.29c-5.12,0-9.29,4.17-9.29,9.29c0,5.12,4.17,9.29,9.29,9.29
			C81.62,160.97,85.79,156.8,85.79,151.68z"/>
		<path class="st1" d="M15.08,80.97c0-5.12-4.17-9.29-9.29-9.29c-5.12,0-9.29,4.17-9.29,9.29c0,5.12,4.17,9.29,9.29,9.29
			C10.91,90.26,15.08,86.1,15.08,80.97z"/>
		<path class="st1" d="M15.08,151.68c0-5.12-4.17-9.29-9.29-9.29c-5.12,0-9.29,4.17-9.29,9.29c0,5.12,4.17,9.29,9.29,9.29
			C10.91,160.97,15.08,156.8,15.08,151.68z"/>
		<path class="st1" d="M85.79,222.2c0-5.12-4.17-9.29-9.29-9.29c-5.12,0-9.29,4.17-9.29,9.29c0,5.12,4.17,9.29,9.29,9.29
			C81.62,231.49,85.79,227.32,85.79,222.2z"/>
		<path class="st1" d="M85.79,292.9c0-5.12-4.17-9.29-9.29-9.29c-5.12,0-9.29,4.17-9.29,9.29c0,5.12,4.17,9.29,9.29,9.29
			C81.62,302.19,85.79,298.03,85.79,292.9z"/>
		<path class="st1" d="M15.08,222.2c0-5.12-4.17-9.29-9.29-9.29c-5.12,0-9.29,4.17-9.29,9.29c0,5.12,4.17,9.29,9.29,9.29
			C10.91,231.49,15.08,227.32,15.08,222.2z"/>
		<path class="st1" d="M85.79,363.42c0-5.12-4.17-9.29-9.29-9.29c-5.12,0-9.29,4.17-9.29,9.29c0,5.12,4.17,9.29,9.29,9.29
			C81.62,372.71,85.79,368.55,85.79,363.42z"/>
		<path class="st1" d="M85.79,434.13c0-5.12-4.17-9.29-9.29-9.29c-5.12,0-9.29,4.17-9.29,9.29s4.17,9.29,9.29,9.29
			C81.62,443.42,85.79,439.25,85.79,434.13z"/>
		<path class="st1" d="M15.08,363.42c0-5.12-4.17-9.29-9.29-9.29c-5.12,0-9.29,4.17-9.29,9.29c0,5.12,4.17,9.29,9.29,9.29
			C10.91,372.71,15.08,368.55,15.08,363.42z"/>
		<path class="st1" d="M15.08,434.13c0-5.12-4.17-9.29-9.29-9.29c-5.12,0-9.29,4.17-9.29,9.29s4.17,9.29,9.29,9.29
			C10.91,443.42,15.08,439.25,15.08,434.13z"/>
		<path class="st1" d="M85.79,504.65c0-5.12-4.17-9.29-9.29-9.29c-5.12,0-9.29,4.17-9.29,9.29c0,5.12,4.17,9.29,9.29,9.29
			C81.62,513.94,85.79,509.77,85.79,504.65z"/>
		<path class="st1" d="M85.79,575.35c0-5.12-4.17-9.29-9.29-9.29c-5.12,0-9.29,4.17-9.29,9.29c0,5.12,4.17,9.29,9.29,9.29
			C81.62,584.64,85.79,580.48,85.79,575.35z"/>
		<path class="st1" d="M15.08,504.65c0-5.12-4.17-9.29-9.29-9.29c-5.12,0-9.29,4.17-9.29,9.29c0,5.12,4.17,9.29,9.29,9.29
			C10.91,513.94,15.08,509.77,15.08,504.65z"/>
		<path class="st1" d="M15.08,575.35c0-5.12-4.17-9.29-9.29-9.29c-5.12,0-9.29,4.17-9.29,9.29c0,5.12,4.17,9.29,9.29,9.29
			C10.91,584.64,15.08,580.48,15.08,575.35z"/>
		<path class="st1" d="M85.79,645.87c0-5.12-4.17-9.29-9.29-9.29c-5.12,0-9.29,4.17-9.29,9.29c0,5.12,4.17,9.29,9.29,9.29
			C81.62,655.16,85.79,651,85.79,645.87z"/>
		<circle class="st1" cx="76.5" cy="716.58" r="9.29"/>
		<path class="st1" d="M15.08,645.87c0-5.12-4.17-9.29-9.29-9.29c-5.12,0-9.29,4.17-9.29,9.29c0,5.12,4.17,9.29,9.29,9.29
			C10.91,655.16,15.08,651,15.08,645.87z"/>
		<circle class="st1" cx="5.79" cy="716.58" r="9.29"/>
		<path class="st1" d="M15.08,787.1c0-5.12-4.17-9.29-9.29-9.29c-5.12,0-9.29,4.17-9.29,9.29c0,5.12,4.17,9.29,9.29,9.29
			C10.91,796.39,15.08,792.22,15.08,787.1z"/>
		
			<ellipse transform="matrix(0.9732 -0.2298 0.2298 0.9732 -196.9285 24.2777)" class="st1" cx="5.79" cy="857.8" rx="9.29" ry="9.29"/>
		<path class="st1" d="M85.79,999.03c0-5.12-4.17-9.29-9.29-9.29c-5.12,0-9.29,4.17-9.29,9.29c0,5.12,4.17,9.29,9.29,9.29
			C81.62,1008.32,85.79,1004.15,85.79,999.03z"/>
		<path class="st1" d="M15.08,928.32c0-5.12-4.17-9.29-9.29-9.29c-5.12,0-9.29,4.17-9.29,9.29c0,5.12,4.17,9.29,9.29,9.29
			C10.91,937.61,15.08,933.45,15.08,928.32z"/>
		<path class="st1" d="M15.08,999.03c0-5.12-4.17-9.29-9.29-9.29c-5.12,0-9.29,4.17-9.29,9.29c0,5.12,4.17,9.29,9.29,9.29
			C10.91,1008.32,15.08,1004.15,15.08,999.03z"/>
		<path class="st1" d="M85.79,1069.55c0-5.12-4.17-9.29-9.29-9.29c-5.12,0-9.29,4.17-9.29,9.29c0,5.12,4.17,9.29,9.29,9.29
			C81.62,1078.84,85.79,1074.67,85.79,1069.55z"/>
		<path class="st1" d="M85.79,1140.25c0-5.12-4.17-9.29-9.29-9.29c-5.12,0-9.29,4.17-9.29,9.29c0,5.12,4.17,9.29,9.29,9.29
			C81.62,1149.54,85.79,1145.38,85.79,1140.25z"/>
		<path class="st1" d="M15.08,1069.55c0-5.12-4.17-9.29-9.29-9.29c-5.12,0-9.29,4.17-9.29,9.29c0,5.12,4.17,9.29,9.29,9.29
			C10.91,1078.84,15.08,1074.67,15.08,1069.55z"/>
		<path class="st1" d="M15.08,1140.25c0-5.12-4.17-9.29-9.29-9.29c-5.12,0-9.29,4.17-9.29,9.29c0,5.12,4.17,9.29,9.29,9.29
			C10.91,1149.54,15.08,1145.38,15.08,1140.25z"/>
		<path class="st1" d="M85.79,1210.77c0-5.12-4.17-9.29-9.29-9.29c-5.12,0-9.29,4.17-9.29,9.29c0,5.12,4.17,9.29,9.29,9.29
			C81.62,1220.06,85.79,1215.9,85.79,1210.77z"/>
		<path class="st1" d="M85.79,1281.48c0-5.12-4.17-9.29-9.29-9.29c-5.12,0-9.29,4.17-9.29,9.29c0,5.12,4.17,9.29,9.29,9.29
			C81.62,1290.77,85.79,1286.6,85.79,1281.48z"/>
		<path class="st1" d="M15.08,1210.77c0-5.12-4.17-9.29-9.29-9.29c-5.12,0-9.29,4.17-9.29,9.29c0,5.12,4.17,9.29,9.29,9.29
			C10.91,1220.06,15.08,1215.9,15.08,1210.77z"/>
		<path class="st1" d="M15.08,1281.48c0-5.12-4.17-9.29-9.29-9.29c-5.12,0-9.29,4.17-9.29,9.29c0,5.12,4.17,9.29,9.29,9.29
			C10.91,1290.77,15.08,1286.6,15.08,1281.48z"/>
	</g>
</g>
</svg>
