<?xml version="1.0" encoding="utf-8"?>
<!-- Generator: Adobe Illustrator 24.0.3, SVG Export Plug-In . SVG Version: 6.00 Build 0)  -->
<svg version="1.1" id="Layer_1" xmlns="http://www.w3.org/2000/svg" xmlns:xlink="http://www.w3.org/1999/xlink" x="0px" y="0px"
	 viewBox="0 0 1920 1080" style="enable-background:new 0 0 1920 1080;" xml:space="preserve">
<style type="text/css">
	.st0{clip-path:url(#SVGID_2_);}
	.st1{fill:#003E6A;}
</style>
<g>
	<defs>
		<rect id="SVGID_1_" width="1920.11" height="1080"/>
	</defs>
	<clipPath id="SVGID_2_">
		<use xlink:href="#SVGID_1_"  style="overflow:visible;"/>
	</clipPath>
	<g class="st0">
		<polygon class="st1" points="1128.28,1529.16 1957.41,700.03 1957.41,622.45 1050.7,1529.16 		"/>
		<polygon class="st1" points="1111.91,531.46 114.19,1529.16 227.03,1529.16 1224.74,531.46 1224.74,531.46 227.03,-466.26 
			114.2,-466.26 		"/>
		<polygon class="st1" points="-37.25,-430.4 924.6,531.46 -37.25,1493.31 -37.25,1529.16 46.78,1529.16 1044.5,531.46 
			1044.5,531.46 46.78,-466.26 -37.25,-466.26 		"/>
		<polygon class="st1" points="-37.25,1072.45 503.75,531.46 -37.25,-9.54 -37.25,131.5 362.7,531.46 -37.25,931.41 		"/>
		<polygon class="st1" points="-37.25,1252.7 684,531.46 -37.25,-189.79 -37.25,-55.8 550.01,531.46 550.01,531.46 -37.25,1118.71 
					"/>
		<polygon class="st1" points="-37.25,893.97 325.26,531.46 -37.25,168.95 -37.25,320.57 173.64,531.46 173.64,531.46 
			-37.25,742.35 		"/>
		<polygon class="st1" points="1861.11,531.46 863.4,1529.16 948.03,1529.16 1945.74,531.46 1945.74,531.46 948.03,-466.26 
			863.4,-466.26 		"/>
		<polygon class="st1" points="1673.81,531.46 676.1,1529.16 767.78,1529.16 1765.49,531.46 767.77,-466.26 676.1,-466.26 		"/>
		<polygon class="st1" points="1486.51,531.46 1486.52,531.46 488.8,1529.16 587.53,1529.16 1585.24,531.46 587.53,-466.26 
			488.8,-466.26 		"/>
		<polygon class="st1" points="1299.21,531.46 1299.21,531.46 301.5,1529.16 407.28,1529.16 1405,531.46 407.28,-466.26 
			301.5,-466.26 		"/>
		<polygon class="st1" points="-37.25,1306.01 -37.25,1432.95 -37.25,1432.95 864.24,531.46 864.25,531.46 -37.25,-370.04 
			-37.25,-243.1 -37.25,-243.1 737.31,531.46 -37.25,1306.01 		"/>
		<polygon class="st1" points="1957.41,-308.75 1957.41,-358.12 1849.28,-466.26 1799.9,-466.26 		"/>
		<polygon class="st1" points="-37.25,553.28 -37.25,715.48 146.78,531.46 -37.25,347.43 -37.25,509.63 -15.42,531.46 
			-15.42,531.46 		"/>
		<polygon class="st1" points="1957.41,440.45 1957.41,362.88 1128.28,-466.26 1050.7,-466.26 		"/>
		<polygon class="st1" points="1957.41,-121.45 1957.41,-177.87 1669.02,-466.26 1612.61,-466.26 		"/>
		<polygon class="st1" points="1957.41,253.15 1957.41,182.64 1308.52,-466.26 1238,-466.26 		"/>
		<polygon class="st1" points="1957.41,65.86 1957.41,2.38 1488.77,-466.26 1425.3,-466.26 		"/>
		<polygon class="st1" points="1849.27,1529.16 1957.41,1421.02 1957.41,1371.65 1799.9,1529.16 		"/>
		<polygon class="st1" points="1308.53,1529.16 1957.41,880.28 1957.41,809.76 1238,1529.16 		"/>
		<polygon class="st1" points="1669.03,1529.16 1957.41,1240.78 1957.41,1184.36 1612.6,1529.16 		"/>
		<polygon class="st1" points="1488.77,1529.16 1957.41,1060.52 1957.41,997.05 1425.3,1529.16 		"/>
	</g>
</g>
</svg>
