<?xml version="1.0" encoding="utf-8"?>
<!-- Generator: Adobe Illustrator 24.0.3, SVG Export Plug-In . SVG Version: 6.00 Build 0)  -->
<svg version="1.1" id="Layer_1" xmlns="http://www.w3.org/2000/svg" xmlns:xlink="http://www.w3.org/1999/xlink" x="0px" y="0px"
	 viewBox="0 0 1576 430.57" style="enable-background:new 0 0 1576 430.57;" xml:space="preserve">
<style type="text/css">
	.st0{fill:#003E6A;}
</style>
<g>
	<g>
		<g>
			<path class="st0" d="M1419.79,29.74c0,16.42-13.31,29.73-29.73,29.73c-16.42,0-29.74-13.31-29.74-29.73s13.31-29.73,29.74-29.73
				C1406.48,0.01,1419.79,13.32,1419.79,29.74z"/>
		</g>
		<g>
			<path class="st0" d="M1538.73,29.74c0,16.42-13.31,29.73-29.73,29.73c-16.42,0-29.73-13.31-29.73-29.73S1492.58,0.01,1509,0.01
				C1525.42,0.01,1538.73,13.32,1538.73,29.74z"/>
		</g>
		<g>
			<path class="st0" d="M1419.79,148.68c0,16.42-13.31,29.73-29.73,29.73c-16.42,0-29.74-13.31-29.74-29.73s13.31-29.73,29.74-29.73
				C1406.48,118.94,1419.79,132.26,1419.79,148.68z"/>
		</g>
		<g>
			<path class="st0" d="M1538.73,148.68c0,16.42-13.31,29.73-29.73,29.73c-16.42,0-29.73-13.31-29.73-29.73s13.31-29.73,29.73-29.73
				C1525.42,118.94,1538.73,132.26,1538.73,148.68z"/>
		</g>
	</g>
	<g>
		<polygon class="st0" points="1357.42,404.44 1381.62,404.44 1449.53,336.53 1517.44,404.44 1541.63,404.44 1449.53,312.33 		"/>
		<polygon class="st0" points="1449.98,278.74 1449.53,278.28 1323.38,404.44 1348.77,404.44 1449.53,303.68 1550.28,404.44 
			1575.68,404.44 		"/>
		<polygon class="st0" points="1390.42,404.44 1415.43,404.44 1449.53,370.34 1449.53,370.34 1483.62,404.44 1508.64,404.44 
			1449.53,345.32 		"/>
		<polygon class="st0" points="1424.64,404.44 1474.41,404.44 1449.53,379.55 		"/>
	</g>
	<g>
		<g>
			<path class="st0" d="M394.47,10.52l-36.66,36.66c-2.23,4.17-4.14,8.53-5.7,13.07l55.43-55.43C403,6.38,398.63,8.29,394.47,10.52z
				"/>
		</g>
		<g>
			<path class="st0" d="M437.9,0.01l-90.61,90.61c0.03,2.35,0.16,4.68,0.37,6.99l97.23-97.23C442.59,0.17,440.26,0.04,437.9,0.01z"
				/>
		</g>
		<g>
			<path class="st0" d="M465.9,4.93L352.22,118.62c0.63,1.8,1.3,3.58,2.04,5.32L471.23,6.97C469.48,6.23,467.7,5.56,465.9,4.93z"/>
		</g>
		<g>
			<path class="st0" d="M487.68,16.07L363.36,140.4c1.01,1.44,2.05,2.85,3.14,4.22L491.91,19.21
				C490.53,18.13,489.12,17.08,487.68,16.07z"/>
		</g>
		<g>
			<path class="st0" d="M504.88,31.8L379.09,157.59c1.34,1.13,2.7,2.22,4.1,3.26L508.14,35.9C507.1,34.5,506.01,33.14,504.88,31.8z"
				/>
		</g>
		<g>
			<path class="st0" d="M517.68,51.93L399.22,170.39c1.7,0.78,3.42,1.51,5.17,2.19L519.87,57.1
				C519.19,55.35,518.46,53.62,517.68,51.93z"/>
		</g>
		<g>
			<path class="st0" d="M525.07,77.46L424.75,177.78c2.22,0.29,4.46,0.5,6.73,0.63l94.22-94.22
				C525.57,81.93,525.36,79.68,525.07,77.46z"/>
		</g>
		<g>
			<path class="st0" d="M518.86,123.96c1.53-3.63,2.82-7.38,3.87-11.23l-62.71,62.71c3.85-1.05,7.6-2.34,11.23-3.87L518.86,123.96z"
				/>
		</g>
	</g>
	<g>
		<g>
			<g>
				<polygon class="st0" points="375.98,369.46 314.88,430.56 437.08,430.56 				"/>
			</g>
		</g>
		<g>
			<g>
				<polygon class="st0" points="497.01,369.46 435.91,430.56 558.11,430.56 				"/>
			</g>
		</g>
		<g>
			<g>
				<polygon class="st0" points="375.98,252.16 314.88,313.26 437.08,313.26 				"/>
			</g>
		</g>
		<g>
			<g>
				<polygon class="st0" points="497.01,252.16 435.91,313.26 558.11,313.26 				"/>
			</g>
		</g>
	</g>
	<g>
		<g>
			<path class="st0" d="M768.2,415.3c0,8.43,6.84,15.27,15.27,15.27s15.27-6.84,15.27-15.27v-58.67H768.2V415.3z"/>
		</g>
		<g>
			<path class="st0" d="M798.73,267.43c0-8.43-6.84-15.27-15.27-15.27c-4.22,0-8.03,1.71-10.8,4.47c-2.76,2.76-4.47,6.58-4.47,10.8
				v58.67h30.54V267.43z"/>
		</g>
		<g>
			<path class="st0" d="M709.53,326.09c-8.43,0-15.27,6.84-15.27,15.27c0,4.22,1.71,8.03,4.47,10.8c2.76,2.76,6.58,4.47,10.8,4.47
				h58.67v-30.54H709.53L709.53,326.09z"/>
		</g>
		<g>
			<path class="st0" d="M857.4,326.09h-58.67v30.54h58.67c8.43,0,15.27-6.84,15.27-15.27C872.67,332.93,865.83,326.09,857.4,326.09z
				"/>
		</g>
	</g>
	<g>
		<g>
			<path class="st0" d="M783.47,0.01c-49.26,0-89.2,39.94-89.2,89.2s39.94,89.2,89.2,89.2c49.27,0,89.2-39.94,89.2-89.2
				S832.73,0.01,783.47,0.01z M783.47,165.67c-42.23,0-76.46-34.23-76.46-76.46s34.23-76.46,76.46-76.46
				c42.23,0,76.46,34.23,76.46,76.46S825.7,165.67,783.47,165.67z"/>
		</g>
		<g>
			<path class="st0" d="M783.47,25.49c-35.19,0-63.72,28.53-63.72,63.72s28.53,63.72,63.72,63.72c35.19,0,63.72-28.53,63.72-63.72
				C847.18,54.02,818.66,25.49,783.47,25.49z M783.47,140.18c-28.15,0-50.97-22.82-50.97-50.98c0-28.15,22.82-50.97,50.97-50.97
				c28.15,0,50.97,22.82,50.97,50.97C834.44,117.36,811.62,140.18,783.47,140.18z"/>
		</g>
		<g>
			<path class="st0" d="M783.47,50.98c-21.11,0-38.23,17.12-38.23,38.23s17.12,38.23,38.23,38.23s38.23-17.12,38.23-38.23
				C821.7,68.09,804.58,50.98,783.47,50.98z M783.47,114.7c-14.08,0-25.49-11.41-25.49-25.49s11.41-25.49,25.49-25.49
				s25.49,11.41,25.49,25.49C808.95,103.29,797.54,114.7,783.47,114.7z"/>
		</g>
		<g>
			<path class="st0" d="M783.47,76.47c-7.04,0-12.74,5.71-12.74,12.74c0,7.04,5.71,12.74,12.74,12.74c7.04,0,12.74-5.7,12.74-12.74
				C796.21,82.17,790.5,76.47,783.47,76.47z"/>
		</g>
	</g>
	<g>
		<g>
			<path class="st0" d="M119.5,5.16L5.48,119.18c2.94,8.26,7.14,16.18,12.59,23.46L142.95,17.76C135.68,12.3,127.76,8.11,119.5,5.16
				z"/>
		</g>
		<g>
			<path class="st0" d="M160.98,35.78L36.1,160.66c7.27,5.45,15.19,9.65,23.45,12.59L173.57,59.24
				C170.63,50.97,166.43,43.06,160.98,35.78z"/>
		</g>
		<g>
			<path class="st0" d="M90.44,178.41c22.53-0.23,44.98-8.93,62.17-26.12s25.89-39.64,26.12-62.17L90.44,178.41z"/>
		</g>
		<g>
			<path class="st0" d="M26.44,26.13C9.26,43.31,0.55,65.77,0.32,88.29L88.61,0.01C66.08,0.24,43.63,8.94,26.44,26.13z"/>
		</g>
	</g>
	<g>
		<g>
			<path class="st0" d="M21.86,252.16c-11.88,0-21.54,9.66-21.54,21.54s9.66,21.54,21.54,21.54s21.54-9.66,21.54-21.54
				S33.74,252.16,21.86,252.16z"/>
		</g>
		<g>
			<path class="st0" d="M157.19,295.23c11.88,0,21.54-9.66,21.54-21.54s-9.66-21.54-21.54-21.54s-21.54,9.66-21.54,21.54
				S145.31,295.23,157.19,295.23z"/>
		</g>
		<g>
			<path class="st0" d="M21.86,387.49c-11.88,0-21.54,9.66-21.54,21.54s9.66,21.54,21.54,21.54s21.54-9.66,21.54-21.54
				S33.74,387.49,21.86,387.49z"/>
		</g>
		<g>
			<path class="st0" d="M157.19,387.49c-11.88,0-21.54,9.66-21.54,21.54s9.66,21.54,21.54,21.54s21.54-9.66,21.54-21.54
				S169.07,387.49,157.19,387.49z"/>
		</g>
	</g>
	<g>
		<g>
			<rect x="1025.81" y="17.58" class="st0" width="34.21" height="34.21"/>
		</g>
		<g>
			<rect x="1136.03" y="17.58" class="st0" width="34.21" height="34.21"/>
		</g>
		<g>
			<rect x="1025.81" y="126.63" class="st0" width="34.21" height="34.21"/>
		</g>
		<g>
			<rect x="1136.03" y="126.63" class="st0" width="34.21" height="34.21"/>
		</g>
	</g>
	<g>
		<g>
			<rect x="1090.94" y="348.45" class="st0" width="14.17" height="82.12"/>
		</g>
		<g>
			<rect x="1090.94" y="252.16" class="st0" width="14.17" height="82.12"/>
		</g>
		<g>
			<rect x="1008.82" y="334.28" class="st0" width="82.12" height="14.17"/>
		</g>
		<g>
			<rect x="1105.11" y="334.28" class="st0" width="82.12" height="14.17"/>
		</g>
	</g>
</g>
</svg>
