<?xml version="1.0" encoding="utf-8"?>
<!-- Generator: Adobe Illustrator 24.0.3, SVG Export Plug-In . SVG Version: 6.00 Build 0)  -->
<svg version="1.1" id="Layer_1" xmlns="http://www.w3.org/2000/svg" xmlns:xlink="http://www.w3.org/1999/xlink" x="0px" y="0px"
	 viewBox="0 0 250 118.22" style="enable-background:new 0 0 250 118.22;" xml:space="preserve">
<style type="text/css">
	.st0{fill:#EC1944;}
</style>
<title>OSF_Logo_RGB_Initials</title>
<path class="st0" d="M247.59,12.33H199c-16.15,0-29.24,13.09-29.24,29.24c0,0,0,0,0,0v25.34c-4.13-11.68-15.18-19.49-27.57-19.5
	h-23.41c-3.23,0.13-5.95-2.38-6.09-5.6s2.38-5.95,5.6-6.09c0.16-0.01,0.32-0.01,0.48,0h40.91c0.98,0,1.86-0.59,2.23-1.49l7.69-18.57
	c0.51-1.23-0.08-2.64-1.31-3.15c-0.29-0.12-0.6-0.18-0.91-0.18h-48.61c-13.54,0-25.3,9.29-28.44,22.46
	C76.9,11.66,47.26,3.8,24.12,17.23S-6.87,60.32,6.57,83.45s43.08,30.99,66.22,17.56c14.37-8.35,23.46-23.48,24.08-40.1
	c5.55,6.29,13.53,9.9,21.92,9.89h23.39c3.23,0,5.85,2.61,5.85,5.85c0,3.23-2.61,5.85-5.85,5.85c0,0-0.01,0-0.01,0h-40.92
	c-0.98,0-1.87,0.58-2.25,1.49l-7.67,18.57c-0.51,1.23,0.08,2.64,1.31,3.15c0.29,0.12,0.61,0.18,0.92,0.18h48.61
	c12.39,0,23.44-7.81,27.57-19.5v17.09c0,1.33,1.08,2.41,2.41,2.41l0,0h18.57c1.33,0,2.41-1.08,2.41-2.41v0V70.8h32.23
	c0.97,0.01,1.86-0.58,2.23-1.48l7.69-18.58c0.51-1.23-0.08-2.64-1.31-3.15c-0.29-0.12-0.6-0.18-0.91-0.18h-39.93v-5.84
	c0-3.23,2.62-5.85,5.85-5.85c0.01,0,0.01,0,0.02,0h40.9c0.97,0,1.85-0.59,2.22-1.49l7.69-18.57c0.51-1.22-0.06-2.63-1.28-3.14
	C248.23,12.39,247.91,12.33,247.59,12.33z M48.45,82.5c-12.92,0-23.39-10.47-23.39-23.39s10.47-23.39,23.39-23.39
	c12.92,0,23.39,10.47,23.39,23.39c0,0,0,0,0,0C71.84,72.03,61.37,82.5,48.45,82.5z"/>
</svg>
