<svg id="Layer_1" data-name="Layer 1" xmlns="http://www.w3.org/2000/svg" viewBox="0 0 500 87.12"><defs><style>.cls-1{fill:#fff;}.cls-2{fill:#ec1944;}</style></defs><title>OSF_Logo_RGB_Horiz_RedWhite</title><path class="cls-1" d="M262.17,36.5a12,12,0,0,1-5.23-1.15A11.59,11.59,0,0,1,252.87,32a15.78,15.78,0,0,1-2.63-5.25,24.36,24.36,0,0,1-.93-7,24,24,0,0,1,.93-7,14.94,14.94,0,0,1,2.63-5.16,11.44,11.44,0,0,1,4.07-3.19,13,13,0,0,1,10.46,0,11.22,11.22,0,0,1,4.07,3.22,15.17,15.17,0,0,1,2.63,5.17,24,24,0,0,1,.93,7,24.36,24.36,0,0,1-.93,7A15.78,15.78,0,0,1,271.47,32a11.5,11.5,0,0,1-4.07,3.32A12,12,0,0,1,262.17,36.5Zm0-6.23c1.67,0,3-.95,4-2.83a16.76,16.76,0,0,0,1.47-7.68,15.86,15.86,0,0,0-1.47-7.51,4.28,4.28,0,0,0-8,0,15.86,15.86,0,0,0-1.47,7.51,16.76,16.76,0,0,0,1.47,7.68C259.18,29.32,260.5,30.27,262.17,30.27Z" transform="translate(0 0)"/><path class="cls-1" d="M286.17,37.82v7.12H279V11.56h5.89l.54,2.46h.15a13,13,0,0,1,3.38-2.19A9.45,9.45,0,0,1,292.8,11a9.15,9.15,0,0,1,4.07.89,8.73,8.73,0,0,1,3.1,2.5,11.5,11.5,0,0,1,1.94,3.9,18.28,18.28,0,0,1,.66,5.08,16.54,16.54,0,0,1-.88,5.58A13,13,0,0,1,299.33,33,10.1,10.1,0,0,1,296,35.62a9.36,9.36,0,0,1-4,.88,8.57,8.57,0,0,1-6.09-2.65Zm0-8.83a6.55,6.55,0,0,0,4.18,1.62,4.26,4.26,0,0,0,3.43-1.69q1.38-1.7,1.38-5.48c0-4.38-1.49-6.58-4.47-6.58a6.43,6.43,0,0,0-4.52,2.26Z" transform="translate(0 0)"/><path class="cls-1" d="M306.1,23.74a13,13,0,0,1,1.06-5.35,12.06,12.06,0,0,1,2.82-4,12.52,12.52,0,0,1,4-2.53,13.65,13.65,0,0,1,9.7,0,9.67,9.67,0,0,1,3.58,2.45A10.54,10.54,0,0,1,329.47,18a14.15,14.15,0,0,1,.74,4.64,18.32,18.32,0,0,1-.1,1.86c-.07.59-.13,1-.2,1.33H313.52a5.15,5.15,0,0,0,2.38,3.95,8.87,8.87,0,0,0,4.69,1.2,11.65,11.65,0,0,0,3.16-.42,15.75,15.75,0,0,0,3.12-1.25l2.35,4.32a17.79,17.79,0,0,1-4.61,2.09,17.37,17.37,0,0,1-5,.76,16,16,0,0,1-5.3-.86,12.47,12.47,0,0,1-4.27-2.5,11.86,11.86,0,0,1-2.87-4A13.14,13.14,0,0,1,306.1,23.74Zm17.58-2.65a4.86,4.86,0,0,0-1.13-3.34,4.63,4.63,0,0,0-3.63-1.28,5.72,5.72,0,0,0-3.49,1.13,5.51,5.51,0,0,0-2,3.49Z" transform="translate(0 0)"/><path class="cls-1" d="M334.92,11.56h5.89l.54,3.24h.2a16.54,16.54,0,0,1,3.6-2.7A9.78,9.78,0,0,1,349.94,11c2.75,0,4.76.89,6,2.65a12.25,12.25,0,0,1,1.91,7.27v15h-7.21V21.82a6.41,6.41,0,0,0-.79-3.58,3.18,3.18,0,0,0-2.8-1.13,5,5,0,0,0-2.58.64,11.88,11.88,0,0,0-2.38,1.91V35.91h-7.21Z" transform="translate(0 0)"/><path class="cls-1" d="M366,26.93a17.17,17.17,0,0,0,3.95,2.4,10.61,10.61,0,0,0,4.25.94,6.3,6.3,0,0,0,3.66-.84A2.67,2.67,0,0,0,379,27.17a2.38,2.38,0,0,0-.34-1.27,3.25,3.25,0,0,0-1-1,9.16,9.16,0,0,0-1.54-.79L374,23.34l-4.12-1.76a14.4,14.4,0,0,1-2.58-1.28,10,10,0,0,1-2.18-1.84,8.3,8.3,0,0,1-2.07-5.62A8.35,8.35,0,0,1,364,9.13a9.51,9.51,0,0,1,2.41-3,11.35,11.35,0,0,1,3.71-2,14.67,14.67,0,0,1,4.76-.73,15.57,15.57,0,0,1,10.65,4.22L381.8,12.1a15.53,15.53,0,0,0-3.29-1.89,9.7,9.7,0,0,0-3.68-.66,5.9,5.9,0,0,0-3.27.76,2.42,2.42,0,0,0-1.15,2.14,2.35,2.35,0,0,0,1.47,2.2,34.53,34.53,0,0,0,3.78,1.58l3.88,1.67a12.27,12.27,0,0,1,5,3.23,7.89,7.89,0,0,1,1.84,5.45,9,9,0,0,1-.83,3.81,9.34,9.34,0,0,1-2.41,3.14,12,12,0,0,1-3.88,2.16,15.91,15.91,0,0,1-5.3.81,18.76,18.76,0,0,1-6.4-1.15,17.82,17.82,0,0,1-5.77-3.47Z" transform="translate(0 0)"/><path class="cls-1" d="M395.88,17.21h-6.13V11.86l6.48-.3.93-6.48h5.94v6.48h10.31v5.65H403.1v8.54c0,1.86.41,3.18,1.23,3.95a5.52,5.52,0,0,0,3.88,1.15,13.14,13.14,0,0,0,2.6-.24,16.76,16.76,0,0,0,2.26-.64l1.27,5.2c-1.08.33-2.28.63-3.61.91a21,21,0,0,1-4.34.42,13.4,13.4,0,0,1-4.91-.79,8.32,8.32,0,0,1-3.26-2.18,8.15,8.15,0,0,1-1.8-3.36,16.5,16.5,0,0,1-.54-4.37Z" transform="translate(0 0)"/><path class="cls-1" d="M418.32,29.14A6.61,6.61,0,0,1,422,22.9a18.41,18.41,0,0,1,5-1.74,48.82,48.82,0,0,1,7.36-.91,3.6,3.6,0,0,0-1.45-2.6,6.24,6.24,0,0,0-3.75-.93,10.88,10.88,0,0,0-3.56.61A32.87,32.87,0,0,0,421.75,19l-2.55-4.71a28.62,28.62,0,0,1,5.38-2.35,19,19,0,0,1,6-.94c3.4,0,6.09.9,8.05,2.7s2.95,4.57,2.95,8.3V35.91H435.7l-.54-2.75H435a19.46,19.46,0,0,1-4.08,2.38,11.31,11.31,0,0,1-4.56,1,9.17,9.17,0,0,1-3.34-.57,7.13,7.13,0,0,1-4.1-3.9A7.41,7.41,0,0,1,418.32,29.14Zm6.92-.54a1.91,1.91,0,0,0,.91,1.74,4.72,4.72,0,0,0,2.48.56,7.14,7.14,0,0,0,3-.66,14.42,14.42,0,0,0,2.7-1.64v-4a33.94,33.94,0,0,0-4.47.49,11.39,11.39,0,0,0-2.8.86,3.41,3.41,0,0,0-1.44,1.2A2.79,2.79,0,0,0,425.24,28.6Z" transform="translate(0 0)"/><path class="cls-1" d="M446.59,23.74a12.31,12.31,0,0,1,1.16-5.43,11.88,11.88,0,0,1,3.09-4,13.91,13.91,0,0,1,4.49-2.48,16.75,16.75,0,0,1,5.35-.86,13.84,13.84,0,0,1,5.23.94,12.86,12.86,0,0,1,3.9,2.35l-3.34,4.47a9.26,9.26,0,0,0-5.4-1.91,7.12,7.12,0,0,0-5.1,1.86,6.64,6.64,0,0,0-2,5.06,6.47,6.47,0,0,0,6.83,6.92,8.93,8.93,0,0,0,3.53-.69,14.64,14.64,0,0,0,2.9-1.62l2.94,4.57a14.27,14.27,0,0,1-4.88,2.72,17,17,0,0,1-5.18.86,16.18,16.18,0,0,1-5.35-.86,12.82,12.82,0,0,1-4.3-2.48,11.23,11.23,0,0,1-2.87-4A13.64,13.64,0,0,1,446.59,23.74Z" transform="translate(0 0)"/><path class="cls-1" d="M475,1.5h7.22V21.38h.2l8.93-9.82h7.9l-9.22,10,10,14.33h-7.81L485.81,26l-3.58,3.78v6.14H475Z" transform="translate(0 0)"/><path class="cls-1" d="M224.77,53.61h21.1V59.7H232v7.41h11.83V73.2H232V85.62h-7.21Z" transform="translate(0 0)"/><path class="cls-1" d="M249.75,73.44a13.64,13.64,0,0,1,1-5.42,11.67,11.67,0,0,1,2.78-4,12.14,12.14,0,0,1,4-2.48,12.95,12.95,0,0,1,9.28,0,12.29,12.29,0,0,1,4,2.48,11.78,11.78,0,0,1,2.77,4,14.8,14.8,0,0,1,0,10.85,11.88,11.88,0,0,1-2.77,4,12.46,12.46,0,0,1-4,2.48,12.95,12.95,0,0,1-9.28,0,12.31,12.31,0,0,1-4-2.48,11.76,11.76,0,0,1-2.78-4A13.69,13.69,0,0,1,249.75,73.44Zm7.41,0a8.92,8.92,0,0,0,1.26,5.06,4.72,4.72,0,0,0,7.51,0,9,9,0,0,0,1.25-5.06,9,9,0,0,0-1.25-5,4.71,4.71,0,0,0-7.51,0A8.88,8.88,0,0,0,257.16,73.44Z" transform="translate(0 0)"/><path class="cls-1" d="M301.19,85.62H295.3l-.54-3.49h-.19a13.51,13.51,0,0,1-3.59,3,9.17,9.17,0,0,1-4.61,1.11q-4.17,0-6-2.66a12.42,12.42,0,0,1-1.86-7.26v-15h7.21V75.36a6.73,6.73,0,0,0,.74,3.58,3.1,3.1,0,0,0,2.8,1.13,5,5,0,0,0,2.43-.59A8.57,8.57,0,0,0,294,77.27v-16h7.21Z" transform="translate(0 0)"/><path class="cls-1" d="M306.94,61.27h5.89l.54,3.24h.19a16.21,16.21,0,0,1,3.61-2.7A9.78,9.78,0,0,1,322,60.68q4.13,0,6,2.65a12.25,12.25,0,0,1,1.91,7.27v15H322.7V71.53a6.45,6.45,0,0,0-.79-3.59,3.18,3.18,0,0,0-2.8-1.12,5.14,5.14,0,0,0-2.58.63,12.34,12.34,0,0,0-2.38,1.92V85.62h-7.21Z" transform="translate(0 0)"/><path class="cls-1" d="M333.69,73.44a15.39,15.39,0,0,1,.88-5.35,12.75,12.75,0,0,1,2.34-4,10.3,10.3,0,0,1,3.31-2.53,8.94,8.94,0,0,1,3.88-.88,7.93,7.93,0,0,1,3.53.71,12,12,0,0,1,2.7,1.89l-.24-3.78V51.2h7.21V85.62h-5.89l-.54-2.51h-.15a12.34,12.34,0,0,1-3.14,2.21,8,8,0,0,1-3.63.89,9.78,9.78,0,0,1-4.2-.89,9.15,9.15,0,0,1-3.24-2.53,11.67,11.67,0,0,1-2.08-4A17.92,17.92,0,0,1,333.69,73.44Zm7.41-.1c0,2.43.41,4.19,1.23,5.31a4.07,4.07,0,0,0,3.49,1.66,5,5,0,0,0,2.25-.51,6.21,6.21,0,0,0,2-1.74V68.19a6.14,6.14,0,0,0-2-1.25,5.94,5.94,0,0,0-2.09-.37,4.45,4.45,0,0,0-3.46,1.67A7.65,7.65,0,0,0,341.1,73.34Z" transform="translate(0 0)"/><path class="cls-1" d="M362.36,78.84a6.58,6.58,0,0,1,3.7-6.23,18.41,18.41,0,0,1,5-1.74,46.52,46.52,0,0,1,7.36-.91A3.62,3.62,0,0,0,377,67.35a6.24,6.24,0,0,0-3.75-.93,10.89,10.89,0,0,0-3.56.62,31.26,31.26,0,0,0-3.86,1.64L363.24,64a28.64,28.64,0,0,1,5.38-2.36,19.37,19.37,0,0,1,6-.93c3.4,0,6.09.9,8.05,2.7s2.95,4.56,2.95,8.29v14h-5.89l-.54-2.75H379a19.38,19.38,0,0,1-4.07,2.38,11.39,11.39,0,0,1-4.57,1,9.21,9.21,0,0,1-3.34-.57,7.34,7.34,0,0,1-2.5-1.57,7.18,7.18,0,0,1-1.6-2.33A7.46,7.46,0,0,1,362.36,78.84Zm6.92-.54a1.91,1.91,0,0,0,.91,1.75,4.72,4.72,0,0,0,2.48.56,7.14,7.14,0,0,0,3-.66,14,14,0,0,0,2.7-1.65v-4a33.94,33.94,0,0,0-4.47.49,10.76,10.76,0,0,0-2.79.86,3.32,3.32,0,0,0-1.45,1.2A2.78,2.78,0,0,0,369.28,78.3Z" transform="translate(0 0)"/><path class="cls-1" d="M395.88,66.91h-6.13V61.56l6.48-.29.93-6.48h5.94v6.48h10.31v5.64H403.1v8.55c0,1.86.41,3.18,1.23,4a5.52,5.52,0,0,0,3.88,1.15,12.4,12.4,0,0,0,2.6-.25,16.74,16.74,0,0,0,2.26-.63l1.27,5.2c-1.08.33-2.28.63-3.61.91a21,21,0,0,1-4.34.42,13.62,13.62,0,0,1-4.91-.79,8,8,0,0,1-5.06-5.55,16.44,16.44,0,0,1-.54-4.37Z" transform="translate(0 0)"/><path class="cls-1" d="M419.2,61.27h17V85.62H429V66.91H419.2Zm13.06-3.58a5.09,5.09,0,0,1-3.46-1.18,4,4,0,0,1-1.35-3.19,4.25,4.25,0,0,1,1.35-3.27,5.41,5.41,0,0,1,6.92,0,4.25,4.25,0,0,1,1.35,3.27,4,4,0,0,1-1.35,3.19A5.09,5.09,0,0,1,432.26,57.69Z" transform="translate(0 0)"/><path class="cls-1" d="M445.61,73.44a13.47,13.47,0,0,1,1-5.42,11.78,11.78,0,0,1,2.77-4,12.29,12.29,0,0,1,4-2.48,12.95,12.95,0,0,1,9.28,0,12.14,12.14,0,0,1,4,2.48,11.67,11.67,0,0,1,2.78,4,14.8,14.8,0,0,1,0,10.85,11.76,11.76,0,0,1-2.78,4,12.31,12.31,0,0,1-4,2.48,12.95,12.95,0,0,1-9.28,0,12.46,12.46,0,0,1-4-2.48,11.88,11.88,0,0,1-2.77-4A13.52,13.52,0,0,1,445.61,73.44Zm7.41,0a9,9,0,0,0,1.25,5.06,4.73,4.73,0,0,0,7.52,0A9,9,0,0,0,463,73.44a9,9,0,0,0-1.25-5,4.72,4.72,0,0,0-7.52,0A9,9,0,0,0,453,73.44Z" transform="translate(0 0)"/><path class="cls-1" d="M474.82,61.27h5.89l.54,3.24h.19a16,16,0,0,1,3.61-2.7,9.78,9.78,0,0,1,4.79-1.13q4.13,0,6,2.65a12.25,12.25,0,0,1,1.91,7.27v15h-7.21V71.53a6.45,6.45,0,0,0-.79-3.59,3.18,3.18,0,0,0-2.8-1.12,5.14,5.14,0,0,0-2.58.63A12.34,12.34,0,0,0,482,69.37V85.62h-7.21Z" transform="translate(0 0)"/><path class="cls-2" d="M222.6,1.5H178.89a26.29,26.29,0,0,0-26.28,26.29V50.58A26.29,26.29,0,0,0,127.82,33h-21a5.26,5.26,0,1,1,0-10.51h36.79a2.18,2.18,0,0,0,2-1.34l6.91-16.7a2.16,2.16,0,0,0-2-3h-43.7A26.29,26.29,0,0,0,81.22,21.69a43.56,43.56,0,1,0,5.86,23.49,26.24,26.24,0,0,0,19.71,8.89h21a5.26,5.26,0,1,1,0,10.52H91a2.16,2.16,0,0,0-2,1.34L82.11,82.62a2.17,2.17,0,0,0,2,3h43.71a26.29,26.29,0,0,0,24.79-17.54V83.45a2.17,2.17,0,0,0,2.16,2.17h16.7a2.17,2.17,0,0,0,2.17-2.17V54.07h29a2.17,2.17,0,0,0,2-1.33L211.53,36a2.17,2.17,0,0,0-2-3H173.64V27.79a5.26,5.26,0,0,1,5.25-5.26h36.79a2.16,2.16,0,0,0,2-1.34l6.92-16.7A2.16,2.16,0,0,0,222.6,1.5Zm-179,63.09a21,21,0,1,1,21-21A21,21,0,0,1,43.56,64.59Z" transform="translate(0 0)"/></svg>