<svg id="Layer_1" data-name="Layer 1" xmlns="http://www.w3.org/2000/svg" viewBox="0 0 180 184.48"><defs><style>.cls-1{fill:#fff;}</style></defs><title>Airship_Logo_Stacked_White_RGB</title><path class="cls-1" d="M161.84,190.7l-7.16-4.14a8.61,8.61,0,0,1-4.16-5.81L147.83,167c-3.62-6-7.59-17.18-7.59-17.18l-22.56,39.08a6.45,6.45,0,0,0,5.59,9.68h35.4a2.38,2.38,0,0,0,2.05-1.18l3.33-5.78A8.46,8.46,0,0,1,161.84,190.7Z" transform="translate(-90 -87.76)"/><path class="cls-1" d="M185.38,91a6.46,6.46,0,0,0-11.19,0l-27.93,48.38a6.2,6.2,0,0,1,3.41-2.33c9.11-2.44,27.35-5.63,41.59,2.59,7.27,4.2,12.49,10.8,16.18,17.46h14.77A2.33,2.33,0,0,1,224,158Z" transform="translate(-90 -87.76)"/><path class="cls-1" d="M241.89,188.87l-17.5-30.31a2.34,2.34,0,0,1-.52,2.47l-9.13,9.41,27.9,20.48A6.44,6.44,0,0,0,241.89,188.87Z" transform="translate(-90 -87.76)"/><path class="cls-1" d="M176.6,164.91a132,132,0,0,1-30.67-25l-.53.92a4.88,4.88,0,0,0-.14,3.76,75.51,75.51,0,0,0,8.5,20l2.92,14.88a2.35,2.35,0,0,0,1.13,1.59l7.16,4.14a2.37,2.37,0,0,0,3.23-.86l2.27-3.94c6.73,3.27,14.15,4.25,21,4.12l7.38,12.78a2.36,2.36,0,0,0,4.32-.53l4.06-14.29c.93-.21,1.8-.43,2.6-.65a6.22,6.22,0,0,0,3.79-2.9A131.84,131.84,0,0,1,176.6,164.91Z" transform="translate(-90 -87.76)"/><path class="cls-1" d="M238.44,198.18l-25.89-11.37-3.34,11.74H236.3A6.49,6.49,0,0,0,238.44,198.18Z" transform="translate(-90 -87.76)"/><path class="cls-1" d="M109.65,260a9.52,9.52,0,0,1-.85-2.85,10.24,10.24,0,0,1-8,3.43,11.23,11.23,0,0,1-7.72-2.69A8.67,8.67,0,0,1,90,251.12a9,9,0,0,1,3.74-7.74q3.74-2.7,10.81-2.73h3.9v-1.82a5.26,5.26,0,0,0-1.13-3.52,4.43,4.43,0,0,0-3.56-1.32,5,5,0,0,0-3.36,1,3.48,3.48,0,0,0-1.22,2.81H90.7a8.51,8.51,0,0,1,1.71-5.1,11.21,11.21,0,0,1,4.81-3.68,17.52,17.52,0,0,1,7-1.34q5.86,0,9.31,2.95A10.32,10.32,0,0,1,117,239v13.76a15.2,15.2,0,0,0,1.26,6.83v.5Zm-7-5.9a7.37,7.37,0,0,0,3.46-.83,5.51,5.51,0,0,0,2.35-2.25v-5.45h-3.17c-4.24,0-6.5,1.46-6.77,4.4l0,.5a3.42,3.42,0,0,0,1.11,2.61A4.34,4.34,0,0,0,102.64,254.14Z" transform="translate(-90 -87.76)"/><path class="cls-1" d="M122.82,220.09A4.18,4.18,0,0,1,124.1,217a4.79,4.79,0,0,1,3.47-1.23A4.84,4.84,0,0,1,131,217a4.48,4.48,0,0,1,0,6.31,5.44,5.44,0,0,1-6.89,0A4.17,4.17,0,0,1,122.82,220.09Zm9,40h-8.51V228.3h8.51Z" transform="translate(-90 -87.76)"/><path class="cls-1" d="M156,236.25A22.43,22.43,0,0,0,153,236q-4.81,0-6.31,3.25V260h-8.48V228.3h8l.23,3.79c1.71-2.92,4.06-4.38,7.07-4.38a8.69,8.69,0,0,1,2.64.39Z" transform="translate(-90 -87.76)"/><path class="cls-1" d="M178.19,251.27a2.73,2.73,0,0,0-1.54-2.45,17.28,17.28,0,0,0-4.94-1.6q-11.33-2.37-11.32-9.62a8.71,8.71,0,0,1,3.5-7,14.15,14.15,0,0,1,9.17-2.84q6,0,9.66,2.85a9,9,0,0,1,3.63,7.39h-8.48a4.09,4.09,0,0,0-1.17-3,4.94,4.94,0,0,0-3.67-1.19,5,5,0,0,0-3.31,1,3,3,0,0,0-1.18,2.46,2.6,2.6,0,0,0,1.34,2.27,13.63,13.63,0,0,0,4.5,1.5,36.69,36.69,0,0,1,5.34,1.42q6.72,2.46,6.72,8.54a8.29,8.29,0,0,1-3.73,7,16.05,16.05,0,0,1-9.62,2.68A16.73,16.73,0,0,1,166,259.2a11.93,11.93,0,0,1-4.86-3.9,9.09,9.09,0,0,1-1.76-5.35h8a4.42,4.42,0,0,0,1.67,3.46,6.64,6.64,0,0,0,4.17,1.2,6.18,6.18,0,0,0,3.68-.92A2.87,2.87,0,0,0,178.19,251.27Z" transform="translate(-90 -87.76)"/><path class="cls-1" d="M201.06,231.76a10.59,10.59,0,0,1,8.48-4q10.32,0,10.47,12V260h-8.47V240a5.92,5.92,0,0,0-1.18-4,5,5,0,0,0-3.9-1.3,5.79,5.79,0,0,0-5.4,2.87V260h-8.47V215h8.47Z" transform="translate(-90 -87.76)"/><path class="cls-1" d="M226,220.09a4.18,4.18,0,0,1,1.28-3.14,5.5,5.5,0,0,1,6.93,0,4.49,4.49,0,0,1,0,6.31,5.45,5.45,0,0,1-6.9,0A4.16,4.16,0,0,1,226,220.09Zm9,40h-8.5V228.3H235Z" transform="translate(-90 -87.76)"/><path class="cls-1" d="M270,244.46q0,7.33-3.33,11.75a10.68,10.68,0,0,1-9,4.41,9.86,9.86,0,0,1-7.77-3.34v15h-8.48V228.3h7.86l.3,3.11a10,10,0,0,1,8-3.7,10.73,10.73,0,0,1,9.12,4.35Q270,236.4,270,244Zm-8.48-.61A12.48,12.48,0,0,0,260,237a5.1,5.1,0,0,0-4.56-2.4c-2.66,0-4.48,1-5.48,3v13q1.54,3.14,5.54,3.14Q261.52,253.79,261.52,243.85Z" transform="translate(-90 -87.76)"/></svg>