<?xml version="1.0" encoding="utf-8"?>
<!-- Generator: Adobe Illustrator 24.0.3, SVG Export Plug-In . SVG Version: 6.00 Build 0)  -->
<svg version="1.1" id="Layer_1" xmlns="http://www.w3.org/2000/svg" xmlns:xlink="http://www.w3.org/1999/xlink" x="0px" y="0px"
	 viewBox="0 0 125.9 110.8" style="enable-background:new 0 0 125.9 110.8;" xml:space="preserve">
<style type="text/css">
	.st0{fill:#65C7C2;}
	.st1{fill:#141F47;}
</style>
<g>
	<path class="st0" d="M45,102.9l-7.2-4.1c-2.2-1.2-3.7-3.4-4.2-5.8l-2.7-13.8c-3.6-6-7.6-17.2-7.6-17.2L0.9,101.1
		c-2.5,4.3,0.6,9.7,5.6,9.7h35.4c0.8,0,1.6-0.5,2-1.2l3.3-5.8C46.5,103.6,45.7,103.3,45,102.9z"/>
	<path class="st1" d="M68.6,3.2c-2.5-4.3-8.7-4.3-11.2,0L29.5,51.6c0.8-1.1,2-2,3.4-2.3c9.1-2.4,27.4-5.6,41.6,2.6
		c7.3,4.2,12.5,10.8,16.2,17.5h14.8c0.8,0,1.4,0.3,1.8,0.9L68.6,3.2z"/>
	<path class="st0" d="M125.1,101.1l-17.5-30.3c0.3,0.8,0.2,1.7-0.5,2.5L98,82.7l27.9,20.5C125.7,102.5,125.4,101.8,125.1,101.1z"/>
	<path class="st1" d="M59.8,77.2c-13-7.5-23.4-17-30.7-25l-0.5,0.9c-0.7,1.1-0.5,2.5-0.1,3.8c1.4,5.1,4,12.8,8.5,20l2.9,14.9
		c0.1,0.7,0.5,1.3,1.1,1.6l7.2,4.1c1.1,0.7,2.6,0.3,3.2-0.9l2.3-3.9c6.7,3.3,14.1,4.2,21,4.1l7.4,12.8c1,1.8,3.7,1.5,4.3-0.5
		l4.1-14.3c0.9-0.2,1.8-0.4,2.6-0.7c1.7-0.4,3-1.5,3.8-2.9C86.3,88.9,72.8,84.7,59.8,77.2z"/>
	<path class="st0" d="M121.6,110.4L95.7,99l-3.3,11.7h27.1C120.2,110.8,121,110.7,121.6,110.4z"/>
</g>
</svg>
